<svg width="1688" height="811" viewBox="0 0 1688 811" fill="none" xmlns="http://www.w3.org/2000/svg">
<mask id="mask0_1_1235" style="mask-type:luminance" maskUnits="userSpaceOnUse" x="-481" y="-781" width="2170" height="1593">
<path d="M974.23 313.247C489.014 279.286 713.671 -99.739 391.756 -477.868C125.084 -791.102 -399.31 -1037.08 -481 -283.711V811.13H1645.35C1645.35 811.13 1785.47 452.105 1557.77 317.789C1403.53 226.807 1195.71 328.75 974.23 313.247Z" fill="white"/>
</mask>
<g mask="url(#mask0_1_1235)">
<path d="M1785.47 -1037.09H-481V811.124H1785.47V-1037.09Z" fill="url(#paint0_linear_1_1235)" fill-opacity="0.03"/>
</g>
<path fill-rule="evenodd" clip-rule="evenodd" d="M-477 -390.755C-242.728 474.387 1014.73 314.874 1014.73 314.874C997.413 314.963 979.988 314.471 962.476 313.246C477.26 279.285 701.917 -99.7397 380.001 -477.869C126.856 -775.215 -358.534 -1011.95 -477 -390.755Z" fill="#FF7029" fill-opacity="0.03"/>
<path d="M-0.289787 811.191C1.26135 719.402 15.3193 639.535 61.9107 568.326C87.7942 528.767 122.633 499.518 166.304 480.81C191.684 469.936 216.782 458.363 241.714 446.488C313.514 412.29 368.206 361.42 396.905 285.461C398.522 281.18 400.9 277.181 403.063 273.124C403.449 272.398 404.519 272.036 409.443 268.571C416.772 292.907 426.01 315.496 430.081 338.982C436.352 375.175 442.898 412.025 442.515 448.522C441.724 523.903 404.361 581.039 340.274 618.049C296.604 643.268 250.072 663.928 203.622 683.821C131.569 714.681 59.1599 744.268 -0.289787 811.191Z" fill="#FF7029" fill-opacity="0.03"/>
<defs>
<linearGradient id="paint0_linear_1_1235" x1="-481" y1="-112.981" x2="1785.47" y2="-112.981" gradientUnits="userSpaceOnUse">
<stop stop-color="#87AB42"/>
<stop offset="0.3" stop-color="#87AB42"/>
<stop offset="1" stop-color="#FF7029"/>
</linearGradient>
</defs>
</svg>
