<svg width="35" height="35" viewBox="0 0 35 35" fill="none" xmlns="http://www.w3.org/2000/svg">
<path d="M31.0465 25.5883C30.5847 25.8285 30.109 26.0384 29.6216 26.2203C28.0801 26.794 26.4453 27.0855 24.7989 27.0808C18.4463 27.0808 12.91 22.7152 12.91 17.0996C12.9263 15.5698 13.7682 14.1659 15.1138 13.4336C9.36525 13.6761 7.88672 19.6672 7.88672 23.1723C7.88672 33.1116 17.0331 34.1074 19.0084 34.1074C20.0694 34.1074 21.6669 33.7995 22.6347 33.4894L22.8096 33.4357C26.5106 32.1578 29.6659 29.6555 31.7554 26.3439C31.9094 26.0897 31.8277 25.7586 31.5735 25.607C31.415 25.5067 31.2121 25.4997 31.0465 25.5883Z" fill="#FF7029"/>
<path opacity="0.35" d="M31.0465 25.5883C30.5847 25.8285 30.109 26.0384 29.6216 26.2203C28.0801 26.794 26.4453 27.0855 24.7989 27.0808C18.4463 27.0808 12.91 22.7152 12.91 17.0996C12.9263 15.5698 13.7682 14.1659 15.1138 13.4336C9.36525 13.6761 7.88672 19.6672 7.88672 23.1723C7.88672 33.1116 17.0331 34.1074 19.0084 34.1074C20.0694 34.1074 21.6669 33.7995 22.6347 33.4894L22.8096 33.4357C26.5106 32.1578 29.6659 29.6555 31.7554 26.3439C31.9094 26.0897 31.8277 25.7586 31.5735 25.607C31.415 25.5067 31.2121 25.4997 31.0465 25.5883Z" fill="url(#paint0_radial_0_4674)"/>
<path d="M14.2039 32.4122C13.0075 31.6706 11.9721 30.6981 11.1559 29.5507C7.62511 24.7164 8.67921 17.9347 13.5136 14.404C14.0196 14.0355 14.556 13.709 15.118 13.4315C15.5472 13.2309 16.2608 12.8811 17.2146 12.8951C18.5742 12.9068 19.8521 13.5528 20.666 14.6418C21.2071 15.3694 21.5033 16.2486 21.5126 17.1535C21.5126 17.1255 24.8031 6.46094 10.7664 6.46094C4.86861 6.46094 0.0202368 12.0486 0.0202368 16.9646C-0.00308385 19.5625 0.551949 22.1301 1.64569 24.4878C5.35368 32.3819 14.3811 36.2508 22.653 33.4873C19.8195 34.3828 16.7365 33.9887 14.2179 32.4122H14.2039Z" fill="#FF7029"/>
<path opacity="0.41" d="M14.2039 32.4122C13.0075 31.6706 11.9721 30.6981 11.1559 29.5507C7.62511 24.7164 8.67921 17.9347 13.5136 14.404C14.0196 14.0355 14.556 13.709 15.118 13.4315C15.5472 13.2309 16.2608 12.8811 17.2146 12.8951C18.5742 12.9068 19.8521 13.5528 20.666 14.6418C21.2071 15.3694 21.5033 16.2486 21.5126 17.1535C21.5126 17.1255 24.8031 6.46094 10.7664 6.46094C4.86861 6.46094 0.0202368 12.0486 0.0202368 16.9646C-0.00308385 19.5625 0.551949 22.1301 1.64569 24.4878C5.35368 32.3819 14.3811 36.2508 22.653 33.4873C19.8195 34.3828 16.7365 33.9887 14.2179 32.4122H14.2039Z" fill="url(#paint1_radial_0_4674)"/>
<path d="M20.4756 19.9881C20.3543 20.1234 20.0185 20.324 20.0185 20.7414C20.0185 21.0912 20.247 21.441 20.6621 21.7209C22.5837 23.0641 26.2241 22.8752 26.2358 22.8752C27.6677 22.8752 29.0739 22.4881 30.3052 21.7605C32.8309 20.2843 34.384 17.5791 34.3887 14.6547C34.4283 11.6463 33.3136 9.64543 32.8705 8.75691C30.0091 3.19493 23.871 0 17.1943 0C7.79144 0 0.132928 7.55122 0 16.9518C0.06763 12.0498 4.94399 8.08528 10.7462 8.08528C11.2172 8.08528 13.9038 8.12492 16.3874 9.42855C18.1342 10.2961 19.58 11.6673 20.5385 13.3651C21.3571 14.79 21.5063 16.602 21.5063 17.3273C21.5063 18.0525 21.1425 19.1136 20.4592 19.9998L20.4756 19.9881Z" fill="url(#paint2_radial_0_4674)"/>
<path d="M20.4756 19.9881C20.3543 20.1234 20.0185 20.324 20.0185 20.7414C20.0185 21.0912 20.247 21.441 20.6621 21.7209C22.5837 23.0641 26.2241 22.8752 26.2358 22.8752C27.6677 22.8752 29.0739 22.4881 30.3052 21.7605C32.8309 20.2843 34.384 17.5791 34.3887 14.6547C34.4283 11.6463 33.3136 9.64543 32.8705 8.75691C30.0091 3.19493 23.871 0 17.1943 0C7.79144 0 0.132928 7.55122 0 16.9518C0.06763 12.0498 4.94399 8.08528 10.7462 8.08528C11.2172 8.08528 13.9038 8.12492 16.3874 9.42855C18.1342 10.2961 19.58 11.6673 20.5385 13.3651C21.3571 14.79 21.5063 16.602 21.5063 17.3273C21.5063 18.0525 21.1425 19.1136 20.4592 19.9998L20.4756 19.9881Z" fill="#FF7029"/>
<defs>
<radialGradient id="paint0_radial_0_4674" cx="0" cy="0" r="1" gradientUnits="userSpaceOnUse" gradientTransform="translate(21.1197 23.9563) scale(12.8146 12.1738)">
<stop offset="0.7" stop-opacity="0"/>
<stop offset="0.9" stop-opacity="0.5"/>
<stop offset="1"/>
</radialGradient>
<radialGradient id="paint1_radial_0_4674" cx="0" cy="0" r="1" gradientUnits="userSpaceOnUse" gradientTransform="translate(9.48304 26.7226) rotate(-81.3844) scale(19.2603 15.5604)">
<stop offset="0.8" stop-opacity="0"/>
<stop offset="0.9" stop-opacity="0.5"/>
<stop offset="1"/>
</radialGradient>
<radialGradient id="paint2_radial_0_4674" cx="0" cy="0" r="1" gradientUnits="userSpaceOnUse" gradientTransform="translate(3.48188 6.35737) rotate(92.2906) scale(27.2091 57.9497)">
<stop stop-color="#FF7029"/>
<stop offset="0.1" stop-color="#FF7029"/>
<stop offset="0.2" stop-color="#FF7029"/>
<stop offset="0.3" stop-color="#FF7029"/>
<stop offset="0.7" stop-color="#FF7029"/>
</radialGradient>
</defs>
</svg>
