<svg width="173" height="44" viewBox="0 0 173 44" fill="none" xmlns="http://www.w3.org/2000/svg">
<rect width="173" height="44" rx="4" fill="white" fill-opacity="0.03"/>
<rect x="0.5" y="0.5" width="172" height="43" rx="3.5" stroke="#7763E5" stroke-opacity="0.1"/>
<g clip-path="url(#clip0_1839_28469)">
<path d="M27.25 23.5C28.6419 23.5016 29.9767 24.0548 30.9609 25.0391C31.9452 26.0233 32.4984 27.3581 32.5 28.75V32.5H31V28.75C30.9988 27.7558 30.6034 26.8026 29.9004 26.0996C29.1974 25.3966 28.2442 25.0012 27.25 25H22.75C21.7558 25.0012 20.8026 25.3966 20.0996 26.0996C19.3966 26.8026 19.0012 27.7558 19 28.75V32.5H17.5V28.75C17.5016 27.3581 18.0548 26.0233 19.0391 25.0391C20.0233 24.0548 21.3581 23.5016 22.75 23.5H27.25ZM33.25 23.5C34.6419 23.5015 35.9767 24.0548 36.9609 25.0391C37.9452 26.0233 38.4985 27.3581 38.5 28.75V32.5H37V28.75C36.9989 27.7558 36.6034 26.8026 35.9004 26.0996C35.1974 25.3966 34.2442 25.0011 33.25 25V23.5ZM31 11.5C32.3924 11.5 33.7273 12.0535 34.7119 13.0381C35.6965 14.0227 36.25 15.3576 36.25 16.75C36.25 18.1424 35.6965 19.4773 34.7119 20.4619C33.7273 21.4465 32.3924 22 31 22V20.5C31.9946 20.5 32.9481 20.1046 33.6514 19.4014C34.3546 18.6981 34.75 17.7446 34.75 16.75C34.75 15.7554 34.3546 14.8019 33.6514 14.0986C32.9481 13.3954 31.9946 13 31 13V11.5ZM25 11.5C26.3924 11.5 27.7273 12.0535 28.7119 13.0381C29.6965 14.0227 30.25 15.3576 30.25 16.75C30.25 17.7884 29.9421 18.8036 29.3652 19.667C28.7884 20.5303 27.968 21.2033 27.0088 21.6006C26.0496 21.9978 24.9939 22.102 23.9756 21.8994C22.9572 21.6968 22.0223 21.1961 21.2881 20.4619C20.5539 19.7277 20.0532 18.7928 19.8506 17.7744C19.648 16.7561 19.7522 15.7004 20.1494 14.7412C20.5467 13.782 21.2197 12.9616 22.083 12.3848C22.9464 11.8079 23.9616 11.5 25 11.5ZM25 13C24.0054 13 23.0519 13.3954 22.3486 14.0986C21.6454 14.8019 21.25 15.7554 21.25 16.75C21.25 17.4915 21.4699 18.2164 21.8818 18.833C22.2938 19.4496 22.8794 19.931 23.5645 20.2148C24.2496 20.4987 25.004 20.5724 25.7314 20.4277C26.4589 20.283 27.1269 19.9258 27.6514 19.4014C28.1758 18.8769 28.533 18.2089 28.6777 17.4814C28.8224 16.754 28.7487 15.9996 28.4648 15.3145C28.181 14.6294 27.6996 14.0438 27.083 13.6318C26.4664 13.2199 25.7415 13 25 13Z" fill="white"/>
</g>
<path d="M48.7727 17.6136V16.3636H57.5V17.6136H53.8409V28H52.4318V17.6136H48.7727ZM61.8864 28.1818C61.0455 28.1818 60.3201 27.9962 59.7102 27.625C59.1042 27.25 58.6364 26.7273 58.3068 26.0568C57.9811 25.3826 57.8182 24.5985 57.8182 23.7045C57.8182 22.8106 57.9811 22.0227 58.3068 21.3409C58.6364 20.6553 59.0947 20.1212 59.6818 19.7386C60.2727 19.3523 60.9621 19.1591 61.75 19.1591C62.2045 19.1591 62.6534 19.2348 63.0966 19.3864C63.5398 19.5379 63.9432 19.7841 64.3068 20.125C64.6705 20.4621 64.9602 20.9091 65.1761 21.4659C65.392 22.0227 65.5 22.7083 65.5 23.5227V24.0909H58.7727V22.9318H64.1364C64.1364 22.4394 64.0379 22 63.8409 21.6136C63.6477 21.2273 63.3712 20.9223 63.0114 20.6989C62.6553 20.4754 62.2348 20.3636 61.75 20.3636C61.2159 20.3636 60.7538 20.4962 60.3636 20.7614C59.9773 21.0227 59.6799 21.3636 59.4716 21.7841C59.2633 22.2045 59.1591 22.6553 59.1591 23.1364V23.9091C59.1591 24.5682 59.2727 25.1269 59.5 25.5852C59.7311 26.0398 60.0511 26.3864 60.4602 26.625C60.8693 26.8598 61.3447 26.9773 61.8864 26.9773C62.2386 26.9773 62.5568 26.928 62.8409 26.8295C63.1288 26.7273 63.3769 26.5758 63.5852 26.375C63.7936 26.1705 63.9545 25.9167 64.0682 25.6136L65.3636 25.9773C65.2273 26.4167 64.9981 26.803 64.6761 27.1364C64.3542 27.4659 63.9564 27.7235 63.483 27.9091C63.0095 28.0909 62.4773 28.1818 61.8864 28.1818ZM70.108 28.2045C69.5549 28.2045 69.053 28.1004 68.6023 27.892C68.1515 27.6799 67.7936 27.375 67.5284 26.9773C67.2633 26.5758 67.1307 26.0909 67.1307 25.5227C67.1307 25.0227 67.2292 24.6174 67.4261 24.3068C67.6231 23.9924 67.8864 23.7462 68.2159 23.5682C68.5455 23.3902 68.9091 23.2576 69.3068 23.1705C69.7083 23.0795 70.1117 23.0076 70.517 22.9545C71.0473 22.8864 71.4773 22.8352 71.8068 22.8011C72.1402 22.7633 72.3826 22.7008 72.5341 22.6136C72.6894 22.5265 72.767 22.375 72.767 22.1591V22.1136C72.767 21.553 72.6136 21.1174 72.3068 20.8068C72.0038 20.4962 71.5436 20.3409 70.9261 20.3409C70.286 20.3409 69.7841 20.4811 69.4205 20.7614C69.0568 21.0417 68.8011 21.3409 68.6534 21.6591L67.3807 21.2045C67.608 20.6742 67.911 20.2614 68.2898 19.9659C68.6723 19.6667 69.089 19.4583 69.5398 19.3409C69.9943 19.2197 70.4413 19.1591 70.8807 19.1591C71.161 19.1591 71.483 19.1932 71.8466 19.2614C72.214 19.3258 72.5682 19.4602 72.9091 19.6648C73.2538 19.8693 73.5398 20.178 73.767 20.5909C73.9943 21.0038 74.108 21.5568 74.108 22.25V28H72.767V26.8182H72.6989C72.608 27.0076 72.4564 27.2102 72.2443 27.4261C72.0322 27.642 71.75 27.8258 71.3977 27.9773C71.0455 28.1288 70.6155 28.2045 70.108 28.2045ZM70.3125 27C70.8428 27 71.2898 26.8958 71.6534 26.6875C72.0208 26.4792 72.2973 26.2102 72.483 25.8807C72.6723 25.5511 72.767 25.2045 72.767 24.8409V23.6136C72.7102 23.6818 72.5852 23.7443 72.392 23.8011C72.2027 23.8542 71.983 23.9015 71.733 23.9432C71.4867 23.9811 71.2462 24.0152 71.0114 24.0455C70.7803 24.072 70.5928 24.0947 70.4489 24.1136C70.1004 24.1591 69.7746 24.233 69.4716 24.3352C69.1723 24.4337 68.9299 24.5833 68.7443 24.7841C68.5625 24.9811 68.4716 25.25 68.4716 25.5909C68.4716 26.0568 68.6439 26.4091 68.9886 26.6477C69.3371 26.8826 69.7784 27 70.3125 27ZM76.5554 28V19.2727H77.8509V20.6364H77.9645C78.1463 20.1705 78.4399 19.8087 78.8452 19.5511C79.2505 19.2898 79.7372 19.1591 80.3054 19.1591C80.8812 19.1591 81.3603 19.2898 81.7429 19.5511C82.1293 19.8087 82.4304 20.1705 82.6463 20.6364H82.7372C82.9607 20.1856 83.2959 19.8277 83.7429 19.5625C84.1899 19.2936 84.7259 19.1591 85.3509 19.1591C86.1312 19.1591 86.7694 19.4034 87.2656 19.892C87.7618 20.3769 88.0099 21.1326 88.0099 22.1591V28H86.669V22.1591C86.669 21.5152 86.4929 21.0549 86.1406 20.7784C85.7884 20.5019 85.3736 20.3636 84.8963 20.3636C84.2827 20.3636 83.8073 20.5492 83.4702 20.9205C83.133 21.2879 82.9645 21.7538 82.9645 22.3182V28H81.6009V22.0227C81.6009 21.5265 81.4399 21.1269 81.1179 20.8239C80.7959 20.517 80.3812 20.3636 79.8736 20.3636C79.5251 20.3636 79.1993 20.4564 78.8963 20.642C78.5971 20.8277 78.3546 21.0852 78.169 21.4148C77.9872 21.7405 77.8963 22.1174 77.8963 22.5455V28H76.5554ZM95.1435 16.3636H96.8253L100.78 26.0227H100.916L104.871 16.3636H106.553V28H105.234V19.1591H105.121L101.484 28H100.212L96.5753 19.1591H96.4616V28H95.1435V16.3636ZM112.855 28.1818C112.014 28.1818 111.289 27.9962 110.679 27.625C110.073 27.25 109.605 26.7273 109.276 26.0568C108.95 25.3826 108.787 24.5985 108.787 23.7045C108.787 22.8106 108.95 22.0227 109.276 21.3409C109.605 20.6553 110.063 20.1212 110.651 19.7386C111.241 19.3523 111.931 19.1591 112.719 19.1591C113.173 19.1591 113.622 19.2348 114.065 19.3864C114.509 19.5379 114.912 19.7841 115.276 20.125C115.639 20.4621 115.929 20.9091 116.145 21.4659C116.361 22.0227 116.469 22.7083 116.469 23.5227V24.0909H109.741V22.9318H115.105C115.105 22.4394 115.007 22 114.81 21.6136C114.616 21.2273 114.34 20.9223 113.98 20.6989C113.624 20.4754 113.204 20.3636 112.719 20.3636C112.185 20.3636 111.723 20.4962 111.332 20.7614C110.946 21.0227 110.649 21.3636 110.44 21.7841C110.232 22.2045 110.128 22.6553 110.128 23.1364V23.9091C110.128 24.5682 110.241 25.1269 110.469 25.5852C110.7 26.0398 111.02 26.3864 111.429 26.625C111.838 26.8598 112.313 26.9773 112.855 26.9773C113.207 26.9773 113.526 26.928 113.81 26.8295C114.098 26.7273 114.346 26.5758 114.554 26.375C114.762 26.1705 114.923 25.9167 115.037 25.6136L116.332 25.9773C116.196 26.4167 115.967 26.803 115.645 27.1364C115.323 27.4659 114.925 27.7235 114.452 27.9091C113.978 28.0909 113.446 28.1818 112.855 28.1818ZM118.509 28V19.2727H119.804V20.6364H119.918C120.099 20.1705 120.393 19.8087 120.798 19.5511C121.204 19.2898 121.69 19.1591 122.259 19.1591C122.834 19.1591 123.313 19.2898 123.696 19.5511C124.082 19.8087 124.384 20.1705 124.599 20.6364H124.69C124.914 20.1856 125.249 19.8277 125.696 19.5625C126.143 19.2936 126.679 19.1591 127.304 19.1591C128.084 19.1591 128.723 19.4034 129.219 19.892C129.715 20.3769 129.963 21.1326 129.963 22.1591V28H128.622V22.1591C128.622 21.5152 128.446 21.0549 128.094 20.7784C127.741 20.5019 127.327 20.3636 126.849 20.3636C126.236 20.3636 125.76 20.5492 125.423 20.9205C125.086 21.2879 124.918 21.7538 124.918 22.3182V28H123.554V22.0227C123.554 21.5265 123.393 21.1269 123.071 20.8239C122.749 20.517 122.334 20.3636 121.827 20.3636C121.478 20.3636 121.152 20.4564 120.849 20.642C120.55 20.8277 120.308 21.0852 120.122 21.4148C119.94 21.7405 119.849 22.1174 119.849 22.5455V28H118.509ZM132.597 28V16.3636H133.938V20.6591H134.051C134.15 20.5076 134.286 20.3144 134.46 20.0795C134.638 19.8409 134.892 19.6288 135.222 19.4432C135.555 19.2538 136.006 19.1591 136.574 19.1591C137.309 19.1591 137.956 19.3428 138.517 19.7102C139.078 20.0777 139.515 20.5985 139.83 21.2727C140.144 21.947 140.301 22.7424 140.301 23.6591C140.301 24.5833 140.144 25.3845 139.83 26.0625C139.515 26.7367 139.08 27.2595 138.523 27.6307C137.966 27.9981 137.324 28.1818 136.597 28.1818C136.036 28.1818 135.587 28.089 135.25 27.9034C134.913 27.714 134.653 27.5 134.472 27.2614C134.29 27.0189 134.15 26.8182 134.051 26.6591H133.892V28H132.597ZM133.915 23.6364C133.915 24.2955 134.011 24.8769 134.205 25.3807C134.398 25.8807 134.68 26.2727 135.051 26.5568C135.422 26.8371 135.877 26.9773 136.415 26.9773C136.975 26.9773 137.443 26.8295 137.818 26.5341C138.197 26.2348 138.481 25.8333 138.67 25.3295C138.864 24.822 138.96 24.2576 138.96 23.6364C138.96 23.0227 138.866 22.4697 138.676 21.9773C138.491 21.4811 138.208 21.089 137.83 20.8011C137.455 20.5095 136.983 20.3636 136.415 20.3636C135.869 20.3636 135.411 20.5019 135.04 20.7784C134.669 21.0511 134.388 21.4337 134.199 21.9261C134.009 22.4148 133.915 22.9848 133.915 23.6364ZM146.011 28.1818C145.17 28.1818 144.445 27.9962 143.835 27.625C143.229 27.25 142.761 26.7273 142.432 26.0568C142.106 25.3826 141.943 24.5985 141.943 23.7045C141.943 22.8106 142.106 22.0227 142.432 21.3409C142.761 20.6553 143.22 20.1212 143.807 19.7386C144.398 19.3523 145.087 19.1591 145.875 19.1591C146.33 19.1591 146.778 19.2348 147.222 19.3864C147.665 19.5379 148.068 19.7841 148.432 20.125C148.795 20.4621 149.085 20.9091 149.301 21.4659C149.517 22.0227 149.625 22.7083 149.625 23.5227V24.0909H142.898V22.9318H148.261C148.261 22.4394 148.163 22 147.966 21.6136C147.773 21.2273 147.496 20.9223 147.136 20.6989C146.78 20.4754 146.36 20.3636 145.875 20.3636C145.341 20.3636 144.879 20.4962 144.489 20.7614C144.102 21.0227 143.805 21.3636 143.597 21.7841C143.388 22.2045 143.284 22.6553 143.284 23.1364V23.9091C143.284 24.5682 143.398 25.1269 143.625 25.5852C143.856 26.0398 144.176 26.3864 144.585 26.625C144.994 26.8598 145.47 26.9773 146.011 26.9773C146.364 26.9773 146.682 26.928 146.966 26.8295C147.254 26.7273 147.502 26.5758 147.71 26.375C147.919 26.1705 148.08 25.9167 148.193 25.6136L149.489 25.9773C149.352 26.4167 149.123 26.803 148.801 27.1364C148.479 27.4659 148.081 27.7235 147.608 27.9091C147.134 28.0909 146.602 28.1818 146.011 28.1818ZM151.665 28V19.2727H152.96V20.5909H153.051C153.21 20.1591 153.498 19.8087 153.915 19.5398C154.331 19.2708 154.801 19.1364 155.324 19.1364C155.422 19.1364 155.545 19.1383 155.693 19.142C155.841 19.1458 155.953 19.1515 156.028 19.1591V20.5227C155.983 20.5114 155.879 20.4943 155.716 20.4716C155.557 20.4451 155.388 20.4318 155.21 20.4318C154.786 20.4318 154.407 20.5208 154.074 20.6989C153.744 20.8731 153.483 21.1155 153.29 21.4261C153.1 21.733 153.006 22.0833 153.006 22.4773V28H151.665Z" fill="white"/>
<defs>
<clipPath id="clip0_1839_28469">
<rect width="24" height="24" fill="white" transform="translate(16 10)"/>
</clipPath>
</defs>
</svg>
