<svg width="141" height="44" viewBox="0 0 141 44" fill="none" xmlns="http://www.w3.org/2000/svg">
<rect width="141" height="44" rx="4" fill="white" fill-opacity="0.03"/>
<rect x="0.5" y="0.5" width="140" height="43" rx="3.5" stroke="#7763E5" stroke-opacity="0.1"/>
<path d="M37 31H19V29.5H37V31ZM37 25.75H19V24.25H37V25.75ZM35.5 13C35.8978 13 36.2792 13.1581 36.5605 13.4395C36.8419 13.7208 37 14.1022 37 14.5V19C37 19.3978 36.8419 19.7792 36.5605 20.0605C36.2792 20.3419 35.8978 20.5 35.5 20.5H20.5C20.1022 20.5 19.7208 20.3419 19.4395 20.0605C19.1581 19.7792 19 19.3978 19 19V14.5C19 14.1022 19.1581 13.7208 19.4395 13.4395C19.7208 13.1581 20.1022 13 20.5 13H35.5ZM20.5 14.5V19H35.5V14.5H20.5Z" fill="white"/>
<path d="M49.8864 28H48.4091L52.6818 16.3636H54.1364L58.4091 28H56.9318L53.4545 18.2045H53.3636L49.8864 28ZM50.4318 23.4545H56.3864V24.7045H50.4318V23.4545ZM63.5852 28.1818C62.767 28.1818 62.0625 27.9886 61.4716 27.6023C60.8807 27.2159 60.4261 26.6837 60.108 26.0057C59.7898 25.3277 59.6307 24.553 59.6307 23.6818C59.6307 22.7955 59.7936 22.0133 60.1193 21.3352C60.4489 20.6534 60.9072 20.1212 61.4943 19.7386C62.0852 19.3523 62.7746 19.1591 63.5625 19.1591C64.1761 19.1591 64.7292 19.2727 65.2216 19.5C65.714 19.7273 66.1174 20.0455 66.4318 20.4545C66.7462 20.8636 66.9413 21.3409 67.017 21.8864H65.6761C65.5739 21.4886 65.3466 21.1364 64.9943 20.8295C64.6458 20.5189 64.1761 20.3636 63.5852 20.3636C63.0625 20.3636 62.6042 20.5 62.2102 20.7727C61.8201 21.0417 61.5152 21.4223 61.2955 21.9148C61.0795 22.4034 60.9716 22.9773 60.9716 23.6364C60.9716 24.3106 61.0777 24.8977 61.2898 25.3977C61.5057 25.8977 61.8087 26.286 62.1989 26.5625C62.5928 26.839 63.0549 26.9773 63.5852 26.9773C63.9337 26.9773 64.25 26.9167 64.5341 26.7955C64.8182 26.6742 65.0587 26.5 65.2557 26.2727C65.4527 26.0455 65.5928 25.7727 65.6761 25.4545H67.017C66.9413 25.9697 66.7538 26.4337 66.4545 26.8466C66.1591 27.2557 65.767 27.5814 65.2784 27.8239C64.7936 28.0625 64.2292 28.1818 63.5852 28.1818ZM72.5227 28.1818C71.7045 28.1818 71 27.9886 70.4091 27.6023C69.8182 27.2159 69.3636 26.6837 69.0455 26.0057C68.7273 25.3277 68.5682 24.553 68.5682 23.6818C68.5682 22.7955 68.7311 22.0133 69.0568 21.3352C69.3864 20.6534 69.8447 20.1212 70.4318 19.7386C71.0227 19.3523 71.7121 19.1591 72.5 19.1591C73.1136 19.1591 73.6667 19.2727 74.1591 19.5C74.6515 19.7273 75.0549 20.0455 75.3693 20.4545C75.6837 20.8636 75.8788 21.3409 75.9545 21.8864H74.6136C74.5114 21.4886 74.2841 21.1364 73.9318 20.8295C73.5833 20.5189 73.1136 20.3636 72.5227 20.3636C72 20.3636 71.5417 20.5 71.1477 20.7727C70.7576 21.0417 70.4527 21.4223 70.233 21.9148C70.017 22.4034 69.9091 22.9773 69.9091 23.6364C69.9091 24.3106 70.0152 24.8977 70.2273 25.3977C70.4432 25.8977 70.7462 26.286 71.1364 26.5625C71.5303 26.839 71.9924 26.9773 72.5227 26.9773C72.8712 26.9773 73.1875 26.9167 73.4716 26.7955C73.7557 26.6742 73.9962 26.5 74.1932 26.2727C74.3902 26.0455 74.5303 25.7727 74.6136 25.4545H75.9545C75.8788 25.9697 75.6913 26.4337 75.392 26.8466C75.0966 27.2557 74.7045 27.5814 74.2159 27.8239C73.7311 28.0625 73.1667 28.1818 72.5227 28.1818ZM81.4602 28.1818C80.6723 28.1818 79.9811 27.9943 79.3864 27.6193C78.7955 27.2443 78.3333 26.7197 78 26.0455C77.6705 25.3712 77.5057 24.5833 77.5057 23.6818C77.5057 22.7727 77.6705 21.9792 78 21.3011C78.3333 20.6231 78.7955 20.0966 79.3864 19.7216C79.9811 19.3466 80.6723 19.1591 81.4602 19.1591C82.2481 19.1591 82.9375 19.3466 83.5284 19.7216C84.1231 20.0966 84.5852 20.6231 84.9148 21.3011C85.2481 21.9792 85.4148 22.7727 85.4148 23.6818C85.4148 24.5833 85.2481 25.3712 84.9148 26.0455C84.5852 26.7197 84.1231 27.2443 83.5284 27.6193C82.9375 27.9943 82.2481 28.1818 81.4602 28.1818ZM81.4602 26.9773C82.0587 26.9773 82.5511 26.8239 82.9375 26.517C83.3239 26.2102 83.6098 25.8068 83.7955 25.3068C83.9811 24.8068 84.0739 24.2652 84.0739 23.6818C84.0739 23.0985 83.9811 22.5549 83.7955 22.0511C83.6098 21.5473 83.3239 21.1402 82.9375 20.8295C82.5511 20.5189 82.0587 20.3636 81.4602 20.3636C80.8617 20.3636 80.3693 20.5189 79.983 20.8295C79.5966 21.1402 79.3106 21.5473 79.125 22.0511C78.9394 22.5549 78.8466 23.0985 78.8466 23.6818C78.8466 24.2652 78.9394 24.8068 79.125 25.3068C79.3106 25.8068 79.5966 26.2102 79.983 26.517C80.3693 26.8239 80.8617 26.9773 81.4602 26.9773ZM87.4616 28V19.2727H88.7571V20.5909H88.848C89.0071 20.1591 89.295 19.8087 89.7116 19.5398C90.1283 19.2708 90.598 19.1364 91.1207 19.1364C91.2192 19.1364 91.3423 19.1383 91.4901 19.142C91.6378 19.1458 91.7495 19.1515 91.8253 19.1591V20.5227C91.7798 20.5114 91.6757 20.4943 91.5128 20.4716C91.3537 20.4451 91.1851 20.4318 91.0071 20.4318C90.5829 20.4318 90.2041 20.5208 89.8707 20.6989C89.5412 20.8731 89.2798 21.1155 89.0866 21.4261C88.8973 21.733 88.8026 22.0833 88.8026 22.4773V28H87.4616ZM96.4446 28.1818C95.7173 28.1818 95.0753 27.9981 94.5185 27.6307C93.9616 27.2595 93.526 26.7367 93.2116 26.0625C92.8973 25.3845 92.7401 24.5833 92.7401 23.6591C92.7401 22.7424 92.8973 21.947 93.2116 21.2727C93.526 20.5985 93.9635 20.0777 94.5241 19.7102C95.0848 19.3428 95.7325 19.1591 96.4673 19.1591C97.0355 19.1591 97.4844 19.2538 97.8139 19.4432C98.1473 19.6288 98.401 19.8409 98.5753 20.0795C98.7533 20.3144 98.8916 20.5076 98.9901 20.6591H99.1037V16.3636H100.445V28H99.1491V26.6591H98.9901C98.8916 26.8182 98.7514 27.0189 98.5696 27.2614C98.3878 27.5 98.1283 27.714 97.7912 27.9034C97.4541 28.089 97.0052 28.1818 96.4446 28.1818ZM96.6264 26.9773C97.1643 26.9773 97.6188 26.8371 97.9901 26.5568C98.3613 26.2727 98.6435 25.8807 98.8366 25.3807C99.0298 24.8769 99.1264 24.2955 99.1264 23.6364C99.1264 22.9848 99.0317 22.4148 98.8423 21.9261C98.6529 21.4337 98.3726 21.0511 98.0014 20.7784C97.6302 20.5019 97.1719 20.3636 96.6264 20.3636C96.0582 20.3636 95.5848 20.5095 95.206 20.8011C94.831 21.089 94.5488 21.4811 94.3594 21.9773C94.1738 22.4697 94.081 23.0227 94.081 23.6364C94.081 24.2576 94.1757 24.822 94.3651 25.3295C94.5582 25.8333 94.8423 26.2348 95.2173 26.5341C95.5961 26.8295 96.0658 26.9773 96.6264 26.9773ZM103.087 28V19.2727H104.428V28H103.087ZM103.768 17.8182C103.507 17.8182 103.282 17.7292 103.092 17.5511C102.907 17.3731 102.814 17.1591 102.814 16.9091C102.814 16.6591 102.907 16.4451 103.092 16.267C103.282 16.089 103.507 16 103.768 16C104.03 16 104.253 16.089 104.439 16.267C104.628 16.4451 104.723 16.6591 104.723 16.9091C104.723 17.1591 104.628 17.3731 104.439 17.5511C104.253 17.7292 104.03 17.8182 103.768 17.8182ZM110.429 28.1818C109.641 28.1818 108.95 27.9943 108.355 27.6193C107.764 27.2443 107.302 26.7197 106.969 26.0455C106.639 25.3712 106.474 24.5833 106.474 23.6818C106.474 22.7727 106.639 21.9792 106.969 21.3011C107.302 20.6231 107.764 20.0966 108.355 19.7216C108.95 19.3466 109.641 19.1591 110.429 19.1591C111.217 19.1591 111.906 19.3466 112.497 19.7216C113.092 20.0966 113.554 20.6231 113.884 21.3011C114.217 21.9792 114.384 22.7727 114.384 23.6818C114.384 24.5833 114.217 25.3712 113.884 26.0455C113.554 26.7197 113.092 27.2443 112.497 27.6193C111.906 27.9943 111.217 28.1818 110.429 28.1818ZM110.429 26.9773C111.027 26.9773 111.52 26.8239 111.906 26.517C112.293 26.2102 112.579 25.8068 112.764 25.3068C112.95 24.8068 113.043 24.2652 113.043 23.6818C113.043 23.0985 112.95 22.5549 112.764 22.0511C112.579 21.5473 112.293 21.1402 111.906 20.8295C111.52 20.5189 111.027 20.3636 110.429 20.3636C109.83 20.3636 109.338 20.5189 108.952 20.8295C108.565 21.1402 108.279 21.5473 108.094 22.0511C107.908 22.5549 107.815 23.0985 107.815 23.6818C107.815 24.2652 107.908 24.8068 108.094 25.3068C108.279 25.8068 108.565 26.2102 108.952 26.517C109.338 26.8239 109.83 26.9773 110.429 26.9773ZM117.771 22.75V28H116.43V19.2727H117.726V20.6364H117.839C118.044 20.1932 118.355 19.8371 118.771 19.5682C119.188 19.2955 119.726 19.1591 120.385 19.1591C120.976 19.1591 121.493 19.2803 121.936 19.5227C122.379 19.7614 122.724 20.125 122.97 20.6136C123.216 21.0985 123.339 21.7121 123.339 22.4545V28H121.999V22.5455C121.999 21.8598 121.821 21.3258 121.464 20.9432C121.108 20.5568 120.62 20.3636 119.999 20.3636C119.571 20.3636 119.188 20.4564 118.851 20.642C118.518 20.8277 118.254 21.0985 118.061 21.4545C117.868 21.8106 117.771 22.2424 117.771 22.75Z" fill="white"/>
</svg>
