<svg width="159" height="44" viewBox="0 0 159 44" fill="none" xmlns="http://www.w3.org/2000/svg">
<rect width="159" height="44" rx="4" fill="white" fill-opacity="0.03"/>
<rect x="0.5" y="0.5" width="158" height="43" rx="3.5" stroke="#7763E5" stroke-opacity="0.1"/>
<path d="M31.1572 28.2549L32.5 27.3555C33.2797 26.833 33.942 26.1532 34.4443 25.3604C34.9467 24.5674 35.2786 23.6782 35.418 22.75H31C30.6022 22.75 30.2208 22.5919 29.9395 22.3105C29.6581 22.0292 29.5 21.6478 29.5 21.25V16.75C29.5 16.3522 29.6581 15.9708 29.9395 15.6895C30.2208 15.4081 30.6022 15.25 31 15.25H35.5C35.8978 15.25 36.2792 15.4081 36.5605 15.6895C36.8419 15.9708 37 16.3522 37 16.75V21.7373C36.9995 23.0953 36.6635 24.4328 36.0225 25.6299C35.3814 26.8267 34.4549 27.8467 33.3252 28.5996L31.9824 29.5L31.1572 28.2549ZM20.6572 28.2549L22 27.3555C22.7797 26.833 23.442 26.1532 23.9443 25.3604C24.4467 24.5674 24.7786 23.6782 24.918 22.75H20.5C20.1022 22.75 19.7208 22.5919 19.4395 22.3105C19.1581 22.0292 19 21.6478 19 21.25V16.75C19 16.3522 19.1581 15.9708 19.4395 15.6895C19.7208 15.4081 20.1022 15.25 20.5 15.25H25C25.3978 15.25 25.7792 15.4081 26.0605 15.6895C26.3419 15.9708 26.5 16.3522 26.5 16.75V21.7373C26.4995 23.0953 26.1635 24.4328 25.5225 25.6299C24.8814 26.8267 23.9549 27.8467 22.8252 28.5996L21.4746 29.5L20.6572 28.2549Z" fill="white"/>
<path d="M48.7727 17.6136V16.3636H57.5V17.6136H53.8409V28H52.4318V17.6136H48.7727ZM61.8864 28.1818C61.0455 28.1818 60.3201 27.9962 59.7102 27.625C59.1042 27.25 58.6364 26.7273 58.3068 26.0568C57.9811 25.3826 57.8182 24.5985 57.8182 23.7045C57.8182 22.8106 57.9811 22.0227 58.3068 21.3409C58.6364 20.6553 59.0947 20.1212 59.6818 19.7386C60.2727 19.3523 60.9621 19.1591 61.75 19.1591C62.2045 19.1591 62.6534 19.2348 63.0966 19.3864C63.5398 19.5379 63.9432 19.7841 64.3068 20.125C64.6705 20.4621 64.9602 20.9091 65.1761 21.4659C65.392 22.0227 65.5 22.7083 65.5 23.5227V24.0909H58.7727V22.9318H64.1364C64.1364 22.4394 64.0379 22 63.8409 21.6136C63.6477 21.2273 63.3712 20.9223 63.0114 20.6989C62.6553 20.4754 62.2348 20.3636 61.75 20.3636C61.2159 20.3636 60.7538 20.4962 60.3636 20.7614C59.9773 21.0227 59.6799 21.3636 59.4716 21.7841C59.2633 22.2045 59.1591 22.6553 59.1591 23.1364V23.9091C59.1591 24.5682 59.2727 25.1269 59.5 25.5852C59.7311 26.0398 60.0511 26.3864 60.4602 26.625C60.8693 26.8598 61.3447 26.9773 61.8864 26.9773C62.2386 26.9773 62.5568 26.928 62.8409 26.8295C63.1288 26.7273 63.3769 26.5758 63.5852 26.375C63.7936 26.1705 63.9545 25.9167 64.0682 25.6136L65.3636 25.9773C65.2273 26.4167 64.9981 26.803 64.6761 27.1364C64.3542 27.4659 63.9564 27.7235 63.483 27.9091C63.0095 28.0909 62.4773 28.1818 61.8864 28.1818ZM73.7216 21.2273L72.517 21.5682C72.4413 21.3674 72.3295 21.1723 72.1818 20.983C72.0379 20.7898 71.8409 20.6307 71.5909 20.5057C71.3409 20.3807 71.0208 20.3182 70.6307 20.3182C70.0966 20.3182 69.6515 20.4413 69.2955 20.6875C68.9432 20.9299 68.767 21.2386 68.767 21.6136C68.767 21.947 68.8883 22.2102 69.1307 22.4034C69.3731 22.5966 69.7519 22.7576 70.267 22.8864L71.5625 23.2045C72.3428 23.3939 72.9242 23.6837 73.3068 24.0739C73.6894 24.4602 73.8807 24.9583 73.8807 25.5682C73.8807 26.0682 73.7367 26.5152 73.4489 26.9091C73.1648 27.303 72.767 27.6136 72.2557 27.8409C71.7443 28.0682 71.1496 28.1818 70.4716 28.1818C69.5814 28.1818 68.8447 27.9886 68.2614 27.6023C67.678 27.2159 67.3087 26.6515 67.1534 25.9091L68.4261 25.5909C68.5473 26.0606 68.7765 26.4129 69.1136 26.6477C69.4545 26.8826 69.8996 27 70.4489 27C71.0739 27 71.5701 26.8674 71.9375 26.6023C72.3087 26.3333 72.4943 26.0114 72.4943 25.6364C72.4943 25.3333 72.3883 25.0795 72.1761 24.875C71.964 24.6667 71.6383 24.5114 71.1989 24.4091L69.7443 24.0682C68.9451 23.8788 68.358 23.5852 67.983 23.1875C67.6117 22.786 67.4261 22.2841 67.4261 21.6818C67.4261 21.1894 67.5644 20.7538 67.8409 20.375C68.1212 19.9962 68.5019 19.6989 68.983 19.483C69.4678 19.267 70.017 19.1591 70.6307 19.1591C71.4943 19.1591 72.1723 19.3485 72.6648 19.7273C73.161 20.1061 73.5133 20.6061 73.7216 21.2273ZM79.6946 19.2727V20.4091H75.1719V19.2727H79.6946ZM76.4901 17.1818H77.831V25.5C77.831 25.8788 77.8859 26.1629 77.9957 26.3523C78.1094 26.5379 78.2533 26.6629 78.4276 26.7273C78.6056 26.7879 78.7931 26.8182 78.9901 26.8182C79.1378 26.8182 79.259 26.8106 79.3537 26.7955C79.4484 26.7765 79.5241 26.7614 79.581 26.75L79.8537 27.9545C79.7628 27.9886 79.6359 28.0227 79.473 28.0568C79.3101 28.0947 79.1037 28.1136 78.8537 28.1136C78.4749 28.1136 78.1037 28.0322 77.7401 27.8693C77.3802 27.7064 77.081 27.4583 76.8423 27.125C76.6075 26.7917 76.4901 26.3712 76.4901 25.8636V17.1818ZM81.7116 28V19.2727H83.0526V28H81.7116ZM82.3935 17.8182C82.1321 17.8182 81.9067 17.7292 81.7173 17.5511C81.5317 17.3731 81.4389 17.1591 81.4389 16.9091C81.4389 16.6591 81.5317 16.4451 81.7173 16.267C81.9067 16.089 82.1321 16 82.3935 16C82.6548 16 82.8783 16.089 83.0639 16.267C83.2533 16.4451 83.348 16.6591 83.348 16.9091C83.348 17.1591 83.2533 17.3731 83.0639 17.5511C82.8783 17.7292 82.6548 17.8182 82.3935 17.8182ZM85.5085 28V19.2727H86.804V20.6364H86.9176C87.0994 20.1705 87.393 19.8087 87.7983 19.5511C88.2036 19.2898 88.6903 19.1591 89.2585 19.1591C89.8343 19.1591 90.3134 19.2898 90.696 19.5511C91.0824 19.8087 91.3835 20.1705 91.5994 20.6364H91.6903C91.9138 20.1856 92.2491 19.8277 92.696 19.5625C93.143 19.2936 93.679 19.1591 94.304 19.1591C95.0843 19.1591 95.7225 19.4034 96.2188 19.892C96.715 20.3769 96.9631 21.1326 96.9631 22.1591V28H95.6222V22.1591C95.6222 21.5152 95.446 21.0549 95.0938 20.7784C94.7415 20.5019 94.3267 20.3636 93.8494 20.3636C93.2358 20.3636 92.7604 20.5492 92.4233 20.9205C92.0862 21.2879 91.9176 21.7538 91.9176 22.3182V28H90.554V22.0227C90.554 21.5265 90.393 21.1269 90.071 20.8239C89.7491 20.517 89.3343 20.3636 88.8267 20.3636C88.4782 20.3636 88.1525 20.4564 87.8494 20.642C87.5502 20.8277 87.3078 21.0852 87.1222 21.4148C86.9403 21.7405 86.8494 22.1174 86.8494 22.5455V28H85.5085ZM102.96 28.1818C102.172 28.1818 101.481 27.9943 100.886 27.6193C100.295 27.2443 99.8333 26.7197 99.5 26.0455C99.1705 25.3712 99.0057 24.5833 99.0057 23.6818C99.0057 22.7727 99.1705 21.9792 99.5 21.3011C99.8333 20.6231 100.295 20.0966 100.886 19.7216C101.481 19.3466 102.172 19.1591 102.96 19.1591C103.748 19.1591 104.438 19.3466 105.028 19.7216C105.623 20.0966 106.085 20.6231 106.415 21.3011C106.748 21.9792 106.915 22.7727 106.915 23.6818C106.915 24.5833 106.748 25.3712 106.415 26.0455C106.085 26.7197 105.623 27.2443 105.028 27.6193C104.438 27.9943 103.748 28.1818 102.96 28.1818ZM102.96 26.9773C103.559 26.9773 104.051 26.8239 104.438 26.517C104.824 26.2102 105.11 25.8068 105.295 25.3068C105.481 24.8068 105.574 24.2652 105.574 23.6818C105.574 23.0985 105.481 22.5549 105.295 22.0511C105.11 21.5473 104.824 21.1402 104.438 20.8295C104.051 20.5189 103.559 20.3636 102.96 20.3636C102.362 20.3636 101.869 20.5189 101.483 20.8295C101.097 21.1402 100.811 21.5473 100.625 22.0511C100.439 22.5549 100.347 23.0985 100.347 23.6818C100.347 24.2652 100.439 24.8068 100.625 25.3068C100.811 25.8068 101.097 26.2102 101.483 26.517C101.869 26.8239 102.362 26.9773 102.96 26.9773ZM110.303 22.75V28H108.962V19.2727H110.257V20.6364H110.371C110.575 20.1932 110.886 19.8371 111.303 19.5682C111.719 19.2955 112.257 19.1591 112.916 19.1591C113.507 19.1591 114.024 19.2803 114.467 19.5227C114.911 19.7614 115.255 20.125 115.501 20.6136C115.748 21.0985 115.871 21.7121 115.871 22.4545V28H114.53V22.5455C114.53 21.8598 114.352 21.3258 113.996 20.9432C113.64 20.5568 113.151 20.3636 112.53 20.3636C112.102 20.3636 111.719 20.4564 111.382 20.642C111.049 20.8277 110.786 21.0985 110.592 21.4545C110.399 21.8106 110.303 22.2424 110.303 22.75ZM118.321 28V19.2727H119.662V28H118.321ZM119.003 17.8182C118.741 17.8182 118.516 17.7292 118.327 17.5511C118.141 17.3731 118.048 17.1591 118.048 16.9091C118.048 16.6591 118.141 16.4451 118.327 16.267C118.516 16.089 118.741 16 119.003 16C119.264 16 119.488 16.089 119.673 16.267C119.863 16.4451 119.957 16.6591 119.957 16.9091C119.957 17.1591 119.863 17.3731 119.673 17.5511C119.488 17.7292 119.264 17.8182 119.003 17.8182ZM124.686 28.2045C124.133 28.2045 123.631 28.1004 123.18 27.892C122.73 27.6799 122.372 27.375 122.107 26.9773C121.841 26.5758 121.709 26.0909 121.709 25.5227C121.709 25.0227 121.807 24.6174 122.004 24.3068C122.201 23.9924 122.464 23.7462 122.794 23.5682C123.124 23.3902 123.487 23.2576 123.885 23.1705C124.286 23.0795 124.69 23.0076 125.095 22.9545C125.625 22.8864 126.055 22.8352 126.385 22.8011C126.718 22.7633 126.961 22.7008 127.112 22.6136C127.268 22.5265 127.345 22.375 127.345 22.1591V22.1136C127.345 21.553 127.192 21.1174 126.885 20.8068C126.582 20.4962 126.122 20.3409 125.504 20.3409C124.864 20.3409 124.362 20.4811 123.999 20.7614C123.635 21.0417 123.379 21.3409 123.232 21.6591L121.959 21.2045C122.186 20.6742 122.489 20.2614 122.868 19.9659C123.25 19.6667 123.667 19.4583 124.118 19.3409C124.572 19.2197 125.019 19.1591 125.459 19.1591C125.739 19.1591 126.061 19.1932 126.425 19.2614C126.792 19.3258 127.146 19.4602 127.487 19.6648C127.832 19.8693 128.118 20.178 128.345 20.5909C128.572 21.0038 128.686 21.5568 128.686 22.25V28H127.345V26.8182H127.277C127.186 27.0076 127.035 27.2102 126.822 27.4261C126.61 27.642 126.328 27.8258 125.976 27.9773C125.624 28.1288 125.194 28.2045 124.686 28.2045ZM124.891 27C125.421 27 125.868 26.8958 126.232 26.6875C126.599 26.4792 126.875 26.2102 127.061 25.8807C127.25 25.5511 127.345 25.2045 127.345 24.8409V23.6136C127.288 23.6818 127.163 23.7443 126.97 23.8011C126.781 23.8542 126.561 23.9015 126.311 23.9432C126.065 23.9811 125.824 24.0152 125.589 24.0455C125.358 24.072 125.171 24.0947 125.027 24.1136C124.679 24.1591 124.353 24.233 124.05 24.3352C123.75 24.4337 123.508 24.5833 123.322 24.7841C123.141 24.9811 123.05 25.25 123.05 25.5909C123.05 26.0568 123.222 26.4091 123.567 26.6477C123.915 26.8826 124.357 27 124.891 27ZM132.474 16.3636V28H131.134V16.3636H132.474ZM141.112 21.2273L139.908 21.5682C139.832 21.3674 139.72 21.1723 139.572 20.983C139.429 20.7898 139.232 20.6307 138.982 20.5057C138.732 20.3807 138.411 20.3182 138.021 20.3182C137.487 20.3182 137.042 20.4413 136.686 20.6875C136.334 20.9299 136.158 21.2386 136.158 21.6136C136.158 21.947 136.279 22.2102 136.521 22.4034C136.764 22.5966 137.143 22.7576 137.658 22.8864L138.953 23.2045C139.733 23.3939 140.315 23.6837 140.697 24.0739C141.08 24.4602 141.271 24.9583 141.271 25.5682C141.271 26.0682 141.127 26.5152 140.839 26.9091C140.555 27.303 140.158 27.6136 139.646 27.8409C139.135 28.0682 138.54 28.1818 137.862 28.1818C136.972 28.1818 136.235 27.9886 135.652 27.6023C135.069 27.2159 134.699 26.6515 134.544 25.9091L135.817 25.5909C135.938 26.0606 136.167 26.4129 136.504 26.6477C136.845 26.8826 137.29 27 137.839 27C138.464 27 138.961 26.8674 139.328 26.6023C139.699 26.3333 139.885 26.0114 139.885 25.6364C139.885 25.3333 139.779 25.0795 139.567 24.875C139.355 24.6667 139.029 24.5114 138.589 24.4091L137.135 24.0682C136.336 23.8788 135.749 23.5852 135.374 23.1875C135.002 22.786 134.817 22.2841 134.817 21.6818C134.817 21.1894 134.955 20.7538 135.232 20.375C135.512 19.9962 135.893 19.6989 136.374 19.483C136.858 19.267 137.408 19.1591 138.021 19.1591C138.885 19.1591 139.563 19.3485 140.055 19.7273C140.552 20.1061 140.904 20.6061 141.112 21.2273Z" fill="white"/>
</svg>
