<svg width="108" height="44" viewBox="0 0 108 44" fill="none" xmlns="http://www.w3.org/2000/svg">
<rect width="108" height="44" rx="4" fill="white" fill-opacity="0.03"/>
<rect x="0.5" y="0.5" width="107" height="43" rx="3.5" stroke="#7763E5" stroke-opacity="0.1"/>
<path d="M31.75 14.5C32.1477 14.5005 32.5293 14.6582 32.8105 14.9395C33.0918 15.2207 33.2495 15.6023 33.25 16V19.042L37.3145 16.1396C37.4264 16.0597 37.5581 16.0121 37.6953 16.002C37.8328 15.9919 37.9712 16.02 38.0938 16.083C38.2161 16.1461 38.3189 16.2418 38.3906 16.3594C38.4623 16.477 38.5001 16.6122 38.5 16.75V27.25C38.5001 27.3878 38.4623 27.523 38.3906 27.6406C38.319 27.7582 38.2162 27.8539 38.0938 27.917C37.9712 27.98 37.8328 28.0081 37.6953 27.998C37.5581 27.9879 37.4264 27.9403 37.3145 27.8604L33.25 24.958V28C33.2495 28.3977 33.0918 28.7793 32.8105 29.0605C32.5293 29.3418 32.1477 29.4995 31.75 29.5H19C18.6023 29.4995 18.2207 29.3418 17.9395 29.0605C17.6582 28.7793 17.5005 28.3977 17.5 28V16C17.5005 15.6023 17.6582 15.2207 17.9395 14.9395C18.2207 14.6582 18.6023 14.5005 19 14.5H31.75ZM19 28.001L31.75 28V23.5C31.7499 23.3622 31.7877 23.227 31.8594 23.1094C31.9311 22.9918 32.0338 22.8961 32.1562 22.833C32.2788 22.77 32.4172 22.7419 32.5547 22.752C32.6919 22.7621 32.8236 22.8097 32.9355 22.8896L37 25.792V18.208L32.9355 21.1104C32.8236 21.1903 32.6919 21.2379 32.5547 21.248C32.4172 21.2581 32.2788 21.23 32.1562 21.167C32.0339 21.1039 31.9311 21.0082 31.8594 20.8906C31.7877 20.773 31.7499 20.6378 31.75 20.5V16H19V28.001ZM25.75 24.25H22V22.75H25.75V24.25ZM28.75 20.5H22V19H28.75V20.5Z" fill="white"/>
<path d="M49.8864 16.3636L53.3409 26.1591H53.4773L56.9318 16.3636H58.4091L54.1364 28H52.6818L48.4091 16.3636H49.8864ZM60.0398 28V19.2727H61.3807V28H60.0398ZM60.7216 17.8182C60.4602 17.8182 60.2348 17.7292 60.0455 17.5511C59.8598 17.3731 59.767 17.1591 59.767 16.9091C59.767 16.6591 59.8598 16.4451 60.0455 16.267C60.2348 16.089 60.4602 16 60.7216 16C60.983 16 61.2064 16.089 61.392 16.267C61.5814 16.4451 61.6761 16.6591 61.6761 16.9091C61.6761 17.1591 61.5814 17.3731 61.392 17.5511C61.2064 17.7292 60.983 17.8182 60.7216 17.8182ZM67.1321 28.1818C66.4048 28.1818 65.7628 27.9981 65.206 27.6307C64.6491 27.2595 64.2135 26.7367 63.8991 26.0625C63.5848 25.3845 63.4276 24.5833 63.4276 23.6591C63.4276 22.7424 63.5848 21.947 63.8991 21.2727C64.2135 20.5985 64.651 20.0777 65.2116 19.7102C65.7723 19.3428 66.42 19.1591 67.1548 19.1591C67.723 19.1591 68.1719 19.2538 68.5014 19.4432C68.8348 19.6288 69.0885 19.8409 69.2628 20.0795C69.4408 20.3144 69.5791 20.5076 69.6776 20.6591H69.7912V16.3636H71.1321V28H69.8366V26.6591H69.6776C69.5791 26.8182 69.4389 27.0189 69.2571 27.2614C69.0753 27.5 68.8158 27.714 68.4787 27.9034C68.1416 28.089 67.6927 28.1818 67.1321 28.1818ZM67.3139 26.9773C67.8518 26.9773 68.3063 26.8371 68.6776 26.5568C69.0488 26.2727 69.331 25.8807 69.5241 25.3807C69.7173 24.8769 69.8139 24.2955 69.8139 23.6364C69.8139 22.9848 69.7192 22.4148 69.5298 21.9261C69.3404 21.4337 69.0601 21.0511 68.6889 20.7784C68.3177 20.5019 67.8594 20.3636 67.3139 20.3636C66.7457 20.3636 66.2723 20.5095 65.8935 20.8011C65.5185 21.089 65.2363 21.4811 65.0469 21.9773C64.8613 22.4697 64.7685 23.0227 64.7685 23.6364C64.7685 24.2576 64.8632 24.822 65.0526 25.3295C65.2457 25.8333 65.5298 26.2348 65.9048 26.5341C66.2836 26.8295 66.7533 26.9773 67.3139 26.9773ZM77.4332 28.1818C76.5923 28.1818 75.867 27.9962 75.2571 27.625C74.651 27.25 74.1832 26.7273 73.8537 26.0568C73.5279 25.3826 73.3651 24.5985 73.3651 23.7045C73.3651 22.8106 73.5279 22.0227 73.8537 21.3409C74.1832 20.6553 74.6416 20.1212 75.2287 19.7386C75.8196 19.3523 76.509 19.1591 77.2969 19.1591C77.7514 19.1591 78.2003 19.2348 78.6435 19.3864C79.0866 19.5379 79.4901 19.7841 79.8537 20.125C80.2173 20.4621 80.5071 20.9091 80.723 21.4659C80.9389 22.0227 81.0469 22.7083 81.0469 23.5227V24.0909H74.3196V22.9318H79.6832C79.6832 22.4394 79.5848 22 79.3878 21.6136C79.1946 21.2273 78.9181 20.9223 78.5582 20.6989C78.2022 20.4754 77.7817 20.3636 77.2969 20.3636C76.7628 20.3636 76.3007 20.4962 75.9105 20.7614C75.5241 21.0227 75.2268 21.3636 75.0185 21.7841C74.8101 22.2045 74.706 22.6553 74.706 23.1364V23.9091C74.706 24.5682 74.8196 25.1269 75.0469 25.5852C75.2779 26.0398 75.598 26.3864 76.0071 26.625C76.4162 26.8598 76.8916 26.9773 77.4332 26.9773C77.7855 26.9773 78.1037 26.928 78.3878 26.8295C78.6757 26.7273 78.9238 26.5758 79.1321 26.375C79.3404 26.1705 79.5014 25.9167 79.6151 25.6136L80.9105 25.9773C80.7741 26.4167 80.545 26.803 80.223 27.1364C79.901 27.4659 79.5033 27.7235 79.0298 27.9091C78.5563 28.0909 78.0241 28.1818 77.4332 28.1818ZM86.6321 28.1818C85.8442 28.1818 85.1529 27.9943 84.5582 27.6193C83.9673 27.2443 83.5052 26.7197 83.1719 26.0455C82.8423 25.3712 82.6776 24.5833 82.6776 23.6818C82.6776 22.7727 82.8423 21.9792 83.1719 21.3011C83.5052 20.6231 83.9673 20.0966 84.5582 19.7216C85.1529 19.3466 85.8442 19.1591 86.6321 19.1591C87.42 19.1591 88.1094 19.3466 88.7003 19.7216C89.295 20.0966 89.7571 20.6231 90.0866 21.3011C90.42 21.9792 90.5866 22.7727 90.5866 23.6818C90.5866 24.5833 90.42 25.3712 90.0866 26.0455C89.7571 26.7197 89.295 27.2443 88.7003 27.6193C88.1094 27.9943 87.42 28.1818 86.6321 28.1818ZM86.6321 26.9773C87.2306 26.9773 87.723 26.8239 88.1094 26.517C88.4957 26.2102 88.7817 25.8068 88.9673 25.3068C89.1529 24.8068 89.2457 24.2652 89.2457 23.6818C89.2457 23.0985 89.1529 22.5549 88.9673 22.0511C88.7817 21.5473 88.4957 21.1402 88.1094 20.8295C87.723 20.5189 87.2306 20.3636 86.6321 20.3636C86.0336 20.3636 85.5412 20.5189 85.1548 20.8295C84.7685 21.1402 84.4825 21.5473 84.2969 22.0511C84.1113 22.5549 84.0185 23.0985 84.0185 23.6818C84.0185 24.2652 84.1113 24.8068 84.2969 25.3068C84.4825 25.8068 84.7685 26.2102 85.1548 26.517C85.5412 26.8239 86.0336 26.9773 86.6321 26.9773Z" fill="white"/>
</svg>
