<svg width="167" height="44" viewBox="0 0 167 44" fill="none" xmlns="http://www.w3.org/2000/svg">
<rect width="167" height="44" rx="4" fill="white" fill-opacity="0.03"/>
<rect x="0.5" y="0.5" width="166" height="43" rx="3.5" stroke="#7763E5" stroke-opacity="0.1"/>
<path d="M32.5 11.5C32.8977 11.5004 33.2793 11.6582 33.5605 11.9395C33.8418 12.2207 33.9996 12.6023 34 13V20.5H32.5V13H20.5V31H25V32.5H20.5C20.1023 32.4996 19.7207 32.3418 19.4395 32.0605C19.1582 31.7793 19.0004 31.3977 19 31V13C19.0004 12.6023 19.1582 12.2207 19.4395 11.9395C19.7207 11.6582 20.1023 11.5004 20.5 11.5H32.5ZM35.5 22C35.5985 22 35.6961 22.019 35.7871 22.0566C35.8781 22.0943 35.9607 22.1501 36.0303 22.2197L38.2803 24.4697C38.3499 24.5393 38.4056 24.6219 38.4434 24.7129C38.4811 24.8039 38.5 24.9015 38.5 25C38.5 25.0985 38.481 25.1962 38.4434 25.2871C38.4057 25.3781 38.3499 25.4607 38.2803 25.5303L31.3105 32.5H28V29.1895L34.9697 22.2197C35.0393 22.1501 35.1219 22.0943 35.2129 22.0566C35.3039 22.019 35.4015 22 35.5 22ZM29.5 29.8105V31H30.6895L34.4395 27.25L33.25 26.0605L29.5 29.8105ZM25 29.5H22V28H25V29.5ZM34.3105 25L35.5 26.1895L36.6895 25L35.5 23.8105L34.3105 25ZM26.5 22H22V20.5H26.5V22ZM31 19H22V17.5H31V19ZM31 16H22V14.5H31V16Z" fill="white"/>
<path d="M58.7727 20H57.3636C57.2803 19.5947 57.1345 19.2386 56.9261 18.9318C56.7216 18.625 56.4716 18.3674 56.1761 18.1591C55.8845 17.947 55.5606 17.7879 55.2045 17.6818C54.8485 17.5758 54.4773 17.5227 54.0909 17.5227C53.3864 17.5227 52.7481 17.7008 52.1761 18.0568C51.608 18.4129 51.1553 18.9375 50.8182 19.6307C50.4848 20.3239 50.3182 21.1742 50.3182 22.1818C50.3182 23.1894 50.4848 24.0398 50.8182 24.733C51.1553 25.4261 51.608 25.9508 52.1761 26.3068C52.7481 26.6629 53.3864 26.8409 54.0909 26.8409C54.4773 26.8409 54.8485 26.7879 55.2045 26.6818C55.5606 26.5758 55.8845 26.4186 56.1761 26.2102C56.4716 25.9981 56.7216 25.7386 56.9261 25.4318C57.1345 25.1212 57.2803 24.7652 57.3636 24.3636H58.7727C58.6667 24.9583 58.4735 25.4905 58.1932 25.9602C57.9129 26.4299 57.5644 26.8295 57.1477 27.1591C56.7311 27.4848 56.2633 27.733 55.7443 27.9034C55.2292 28.0739 54.678 28.1591 54.0909 28.1591C53.0985 28.1591 52.2159 27.9167 51.4432 27.4318C50.6705 26.947 50.0625 26.2576 49.6193 25.3636C49.1761 24.4697 48.9545 23.4091 48.9545 22.1818C48.9545 20.9545 49.1761 19.8939 49.6193 19C50.0625 18.1061 50.6705 17.4167 51.4432 16.9318C52.2159 16.447 53.0985 16.2045 54.0909 16.2045C54.678 16.2045 55.2292 16.2898 55.7443 16.4602C56.2633 16.6307 56.7311 16.8807 57.1477 17.2102C57.5644 17.536 57.9129 17.9337 58.1932 18.4034C58.4735 18.8693 58.6667 19.4015 58.7727 20ZM64.4134 28.1818C63.6255 28.1818 62.9342 27.9943 62.3395 27.6193C61.7486 27.2443 61.2865 26.7197 60.9531 26.0455C60.6236 25.3712 60.4588 24.5833 60.4588 23.6818C60.4588 22.7727 60.6236 21.9792 60.9531 21.3011C61.2865 20.6231 61.7486 20.0966 62.3395 19.7216C62.9342 19.3466 63.6255 19.1591 64.4134 19.1591C65.2012 19.1591 65.8906 19.3466 66.4815 19.7216C67.0762 20.0966 67.5384 20.6231 67.8679 21.3011C68.2012 21.9792 68.3679 22.7727 68.3679 23.6818C68.3679 24.5833 68.2012 25.3712 67.8679 26.0455C67.5384 26.7197 67.0762 27.2443 66.4815 27.6193C65.8906 27.9943 65.2012 28.1818 64.4134 28.1818ZM64.4134 26.9773C65.0118 26.9773 65.5043 26.8239 65.8906 26.517C66.277 26.2102 66.563 25.8068 66.7486 25.3068C66.9342 24.8068 67.027 24.2652 67.027 23.6818C67.027 23.0985 66.9342 22.5549 66.7486 22.0511C66.563 21.5473 66.277 21.1402 65.8906 20.8295C65.5043 20.5189 65.0118 20.3636 64.4134 20.3636C63.8149 20.3636 63.3224 20.5189 62.9361 20.8295C62.5497 21.1402 62.2637 21.5473 62.0781 22.0511C61.8925 22.5549 61.7997 23.0985 61.7997 23.6818C61.7997 24.2652 61.8925 24.8068 62.0781 25.3068C62.2637 25.8068 62.5497 26.2102 62.9361 26.517C63.3224 26.8239 63.8149 26.9773 64.4134 26.9773ZM71.7557 22.75V28H70.4148V19.2727H71.7102V20.6364H71.8239C72.0284 20.1932 72.339 19.8371 72.7557 19.5682C73.1723 19.2955 73.7102 19.1591 74.3693 19.1591C74.9602 19.1591 75.4773 19.2803 75.9205 19.5227C76.3636 19.7614 76.7083 20.125 76.9545 20.6136C77.2008 21.0985 77.3239 21.7121 77.3239 22.4545V28H75.983V22.5455C75.983 21.8598 75.8049 21.3258 75.4489 20.9432C75.0928 20.5568 74.6042 20.3636 73.983 20.3636C73.5549 20.3636 73.1723 20.4564 72.8352 20.642C72.5019 20.8277 72.2386 21.0985 72.0455 21.4545C71.8523 21.8106 71.7557 22.2424 71.7557 22.75ZM83.5696 19.2727V20.4091H79.0469V19.2727H83.5696ZM80.3651 17.1818H81.706V25.5C81.706 25.8788 81.7609 26.1629 81.8707 26.3523C81.9844 26.5379 82.1283 26.6629 82.3026 26.7273C82.4806 26.7879 82.6681 26.8182 82.8651 26.8182C83.0128 26.8182 83.134 26.8106 83.2287 26.7955C83.3234 26.7765 83.3991 26.7614 83.456 26.75L83.7287 27.9545C83.6378 27.9886 83.5109 28.0227 83.348 28.0568C83.1851 28.0947 82.9787 28.1136 82.7287 28.1136C82.3499 28.1136 81.9787 28.0322 81.6151 27.8693C81.2552 27.7064 80.956 27.4583 80.7173 27.125C80.4825 26.7917 80.3651 26.3712 80.3651 25.8636V17.1818ZM88.1548 28.2045C87.6018 28.2045 87.0999 28.1004 86.6491 27.892C86.1984 27.6799 85.8404 27.375 85.5753 26.9773C85.3101 26.5758 85.1776 26.0909 85.1776 25.5227C85.1776 25.0227 85.276 24.6174 85.473 24.3068C85.67 23.9924 85.9332 23.7462 86.2628 23.5682C86.5923 23.3902 86.956 23.2576 87.3537 23.1705C87.7552 23.0795 88.1586 23.0076 88.5639 22.9545C89.0942 22.8864 89.5241 22.8352 89.8537 22.8011C90.187 22.7633 90.4295 22.7008 90.581 22.6136C90.7363 22.5265 90.8139 22.375 90.8139 22.1591V22.1136C90.8139 21.553 90.6605 21.1174 90.3537 20.8068C90.0507 20.4962 89.5904 20.3409 88.973 20.3409C88.3329 20.3409 87.831 20.4811 87.4673 20.7614C87.1037 21.0417 86.848 21.3409 86.7003 21.6591L85.4276 21.2045C85.6548 20.6742 85.9579 20.2614 86.3366 19.9659C86.7192 19.6667 87.1359 19.4583 87.5866 19.3409C88.0412 19.2197 88.4882 19.1591 88.9276 19.1591C89.2079 19.1591 89.5298 19.1932 89.8935 19.2614C90.2609 19.3258 90.6151 19.4602 90.956 19.6648C91.3007 19.8693 91.5866 20.178 91.8139 20.5909C92.0412 21.0038 92.1548 21.5568 92.1548 22.25V28H90.8139V26.8182H90.7457C90.6548 27.0076 90.5033 27.2102 90.2912 27.4261C90.0791 27.642 89.7969 27.8258 89.4446 27.9773C89.0923 28.1288 88.6624 28.2045 88.1548 28.2045ZM88.3594 27C88.8897 27 89.3366 26.8958 89.7003 26.6875C90.0677 26.4792 90.3442 26.2102 90.5298 25.8807C90.7192 25.5511 90.8139 25.2045 90.8139 24.8409V23.6136C90.7571 23.6818 90.6321 23.7443 90.4389 23.8011C90.2495 23.8542 90.0298 23.9015 89.7798 23.9432C89.5336 23.9811 89.2931 24.0152 89.0582 24.0455C88.8272 24.072 88.6397 24.0947 88.4957 24.1136C88.1473 24.1591 87.8215 24.233 87.5185 24.3352C87.2192 24.4337 86.9768 24.5833 86.7912 24.7841C86.6094 24.9811 86.5185 25.25 86.5185 25.5909C86.5185 26.0568 86.6908 26.4091 87.0355 26.6477C87.384 26.8826 87.8253 27 88.3594 27ZM98.1477 28.1818C97.3295 28.1818 96.625 27.9886 96.0341 27.6023C95.4432 27.2159 94.9886 26.6837 94.6705 26.0057C94.3523 25.3277 94.1932 24.553 94.1932 23.6818C94.1932 22.7955 94.3561 22.0133 94.6818 21.3352C95.0114 20.6534 95.4697 20.1212 96.0568 19.7386C96.6477 19.3523 97.3371 19.1591 98.125 19.1591C98.7386 19.1591 99.2917 19.2727 99.7841 19.5C100.277 19.7273 100.68 20.0455 100.994 20.4545C101.309 20.8636 101.504 21.3409 101.58 21.8864H100.239C100.136 21.4886 99.9091 21.1364 99.5568 20.8295C99.2083 20.5189 98.7386 20.3636 98.1477 20.3636C97.625 20.3636 97.1667 20.5 96.7727 20.7727C96.3826 21.0417 96.0777 21.4223 95.858 21.9148C95.642 22.4034 95.5341 22.9773 95.5341 23.6364C95.5341 24.3106 95.6402 24.8977 95.8523 25.3977C96.0682 25.8977 96.3712 26.286 96.7614 26.5625C97.1553 26.839 97.6174 26.9773 98.1477 26.9773C98.4962 26.9773 98.8125 26.9167 99.0966 26.7955C99.3807 26.6742 99.6212 26.5 99.8182 26.2727C100.015 26.0455 100.155 25.7727 100.239 25.4545H101.58C101.504 25.9697 101.316 26.4337 101.017 26.8466C100.722 27.2557 100.33 27.5814 99.8409 27.8239C99.3561 28.0625 98.7917 28.1818 98.1477 28.1818ZM107.335 19.2727V20.4091H102.812V19.2727H107.335ZM104.131 17.1818H105.472V25.5C105.472 25.8788 105.527 26.1629 105.636 26.3523C105.75 26.5379 105.894 26.6629 106.068 26.7273C106.246 26.7879 106.434 26.8182 106.631 26.8182C106.778 26.8182 106.9 26.8106 106.994 26.7955C107.089 26.7765 107.165 26.7614 107.222 26.75L107.494 27.9545C107.403 27.9886 107.277 28.0227 107.114 28.0568C106.951 28.0947 106.744 28.1136 106.494 28.1136C106.116 28.1136 105.744 28.0322 105.381 27.8693C105.021 27.7064 104.722 27.4583 104.483 27.125C104.248 26.7917 104.131 26.3712 104.131 25.8636V17.1818ZM114.034 28V16.3636H121.011V17.6136H115.443V21.5455H120.489V22.7955H115.443V28H114.034ZM126.148 28.1818C125.36 28.1818 124.669 27.9943 124.074 27.6193C123.483 27.2443 123.021 26.7197 122.688 26.0455C122.358 25.3712 122.193 24.5833 122.193 23.6818C122.193 22.7727 122.358 21.9792 122.688 21.3011C123.021 20.6231 123.483 20.0966 124.074 19.7216C124.669 19.3466 125.36 19.1591 126.148 19.1591C126.936 19.1591 127.625 19.3466 128.216 19.7216C128.811 20.0966 129.273 20.6231 129.602 21.3011C129.936 21.9792 130.102 22.7727 130.102 23.6818C130.102 24.5833 129.936 25.3712 129.602 26.0455C129.273 26.7197 128.811 27.2443 128.216 27.6193C127.625 27.9943 126.936 28.1818 126.148 28.1818ZM126.148 26.9773C126.746 26.9773 127.239 26.8239 127.625 26.517C128.011 26.2102 128.297 25.8068 128.483 25.3068C128.669 24.8068 128.761 24.2652 128.761 23.6818C128.761 23.0985 128.669 22.5549 128.483 22.0511C128.297 21.5473 128.011 21.1402 127.625 20.8295C127.239 20.5189 126.746 20.3636 126.148 20.3636C125.549 20.3636 125.057 20.5189 124.67 20.8295C124.284 21.1402 123.998 21.5473 123.812 22.0511C123.627 22.5549 123.534 23.0985 123.534 23.6818C123.534 24.2652 123.627 24.8068 123.812 25.3068C123.998 25.8068 124.284 26.2102 124.67 26.517C125.057 26.8239 125.549 26.9773 126.148 26.9773ZM132.149 28V19.2727H133.445V20.5909H133.536C133.695 20.1591 133.982 19.8087 134.399 19.5398C134.816 19.2708 135.286 19.1364 135.808 19.1364C135.907 19.1364 136.03 19.1383 136.178 19.142C136.325 19.1458 136.437 19.1515 136.513 19.1591V20.5227C136.467 20.5114 136.363 20.4943 136.2 20.4716C136.041 20.4451 135.873 20.4318 135.695 20.4318C135.27 20.4318 134.892 20.5208 134.558 20.6989C134.229 20.8731 133.967 21.1155 133.774 21.4261C133.585 21.733 133.49 22.0833 133.49 22.4773V28H132.149ZM138.102 28V19.2727H139.398V20.6364H139.511C139.693 20.1705 139.987 19.8087 140.392 19.5511C140.797 19.2898 141.284 19.1591 141.852 19.1591C142.428 19.1591 142.907 19.2898 143.29 19.5511C143.676 19.8087 143.977 20.1705 144.193 20.6364H144.284C144.508 20.1856 144.843 19.8277 145.29 19.5625C145.737 19.2936 146.273 19.1591 146.898 19.1591C147.678 19.1591 148.316 19.4034 148.812 19.892C149.309 20.3769 149.557 21.1326 149.557 22.1591V28H148.216V22.1591C148.216 21.5152 148.04 21.0549 147.688 20.7784C147.335 20.5019 146.92 20.3636 146.443 20.3636C145.83 20.3636 145.354 20.5492 145.017 20.9205C144.68 21.2879 144.511 21.7538 144.511 22.3182V28H143.148V22.0227C143.148 21.5265 142.987 21.1269 142.665 20.8239C142.343 20.517 141.928 20.3636 141.42 20.3636C141.072 20.3636 140.746 20.4564 140.443 20.642C140.144 20.8277 139.902 21.0852 139.716 21.4148C139.534 21.7405 139.443 22.1174 139.443 22.5455V28H138.102Z" fill="white"/>
</svg>
