<svg width="129" height="44" viewBox="0 0 129 44" fill="none" xmlns="http://www.w3.org/2000/svg">
<rect width="129" height="44" rx="4" fill="white" fill-opacity="0.03"/>
<rect x="0.5" y="0.5" width="128" height="43" rx="3.5" stroke="#7763E5" stroke-opacity="0.1"/>
<path d="M22 26.5C22.3978 26.5 22.7792 26.6581 23.0605 26.9395C23.3419 27.2208 23.5 27.6022 23.5 28V31C23.5 31.3978 23.3419 31.7792 23.0605 32.0605C22.7792 32.3419 22.3978 32.5 22 32.5H19C18.6022 32.5 18.2208 32.3419 17.9395 32.0605C17.6581 31.7792 17.5 31.3978 17.5 31V28C17.5 27.6022 17.6581 27.2208 17.9395 26.9395C18.2208 26.6581 18.6022 26.5 19 26.5H22ZM29.5 26.5C29.8978 26.5 30.2792 26.6581 30.5605 26.9395C30.8419 27.2208 31 27.6022 31 28V31C31 31.3978 30.8419 31.7792 30.5605 32.0605C30.2792 32.3419 29.8978 32.5 29.5 32.5H26.5C26.1022 32.5 25.7208 32.3419 25.4395 32.0605C25.1581 31.7792 25 31.3978 25 31V28C25 27.6022 25.1581 27.2208 25.4395 26.9395C25.7208 26.6581 26.1022 26.5 26.5 26.5H29.5ZM37 26.5C37.3978 26.5 37.7792 26.6581 38.0605 26.9395C38.3419 27.2208 38.5 27.6022 38.5 28V31C38.5 31.3978 38.3419 31.7792 38.0605 32.0605C37.7792 32.3419 37.3978 32.5 37 32.5H34C33.6022 32.5 33.2208 32.3419 32.9395 32.0605C32.6581 31.7792 32.5 31.3978 32.5 31V28C32.5 27.6022 32.6581 27.2208 32.9395 26.9395C33.2208 26.6581 33.6022 26.5 34 26.5H37ZM19 31H22V28H19V31ZM26.5 31H29.5V28H26.5V31ZM34 31H37V28H34V31ZM37 11.5C37.3978 11.5 37.7792 11.6581 38.0605 11.9395C38.3419 12.2208 38.5 12.6022 38.5 13V23.5C38.5 23.8978 38.3419 24.2792 38.0605 24.5605C37.7792 24.8419 37.3978 25 37 25H19C18.6022 25 18.2208 24.8419 17.9395 24.5605C17.6581 24.2792 17.5 23.8978 17.5 23.5V13C17.5 12.6022 17.6581 12.2208 17.9395 11.9395C18.2208 11.6581 18.6022 11.5 19 11.5H37ZM19 23.5H37V13H19V23.5Z" fill="white"/>
<path d="M49.4091 28V16.3636H53.3409C54.2538 16.3636 55 16.5284 55.5795 16.858C56.1629 17.1837 56.5947 17.625 56.875 18.1818C57.1553 18.7386 57.2955 19.3598 57.2955 20.0455C57.2955 20.7311 57.1553 21.3542 56.875 21.9148C56.5985 22.4754 56.1705 22.9223 55.5909 23.2557C55.0114 23.5852 54.2689 23.75 53.3636 23.75H50.5455V22.5H53.3182C53.9432 22.5 54.4451 22.392 54.8239 22.1761C55.2027 21.9602 55.4773 21.6686 55.6477 21.3011C55.822 20.9299 55.9091 20.5114 55.9091 20.0455C55.9091 19.5795 55.822 19.1629 55.6477 18.7955C55.4773 18.428 55.2008 18.1402 54.8182 17.9318C54.4356 17.7197 53.928 17.6136 53.2955 17.6136H50.8182V28H49.4091ZM62.8352 28.1818C62.0473 28.1818 61.3561 27.9943 60.7614 27.6193C60.1705 27.2443 59.7083 26.7197 59.375 26.0455C59.0455 25.3712 58.8807 24.5833 58.8807 23.6818C58.8807 22.7727 59.0455 21.9792 59.375 21.3011C59.7083 20.6231 60.1705 20.0966 60.7614 19.7216C61.3561 19.3466 62.0473 19.1591 62.8352 19.1591C63.6231 19.1591 64.3125 19.3466 64.9034 19.7216C65.4981 20.0966 65.9602 20.6231 66.2898 21.3011C66.6231 21.9792 66.7898 22.7727 66.7898 23.6818C66.7898 24.5833 66.6231 25.3712 66.2898 26.0455C65.9602 26.7197 65.4981 27.2443 64.9034 27.6193C64.3125 27.9943 63.6231 28.1818 62.8352 28.1818ZM62.8352 26.9773C63.4337 26.9773 63.9261 26.8239 64.3125 26.517C64.6989 26.2102 64.9848 25.8068 65.1705 25.3068C65.3561 24.8068 65.4489 24.2652 65.4489 23.6818C65.4489 23.0985 65.3561 22.5549 65.1705 22.0511C64.9848 21.5473 64.6989 21.1402 64.3125 20.8295C63.9261 20.5189 63.4337 20.3636 62.8352 20.3636C62.2367 20.3636 61.7443 20.5189 61.358 20.8295C60.9716 21.1402 60.6856 21.5473 60.5 22.0511C60.3144 22.5549 60.2216 23.0985 60.2216 23.6818C60.2216 24.2652 60.3144 24.8068 60.5 25.3068C60.6856 25.8068 60.9716 26.2102 61.358 26.517C61.7443 26.8239 62.2367 26.9773 62.8352 26.9773ZM68.8366 28V19.2727H70.1321V20.5909H70.223C70.3821 20.1591 70.67 19.8087 71.0866 19.5398C71.5033 19.2708 71.973 19.1364 72.4957 19.1364C72.5942 19.1364 72.7173 19.1383 72.8651 19.142C73.0128 19.1458 73.1245 19.1515 73.2003 19.1591V20.5227C73.1548 20.5114 73.0507 20.4943 72.8878 20.4716C72.7287 20.4451 72.5601 20.4318 72.3821 20.4318C71.9579 20.4318 71.5791 20.5208 71.2457 20.6989C70.9162 20.8731 70.6548 21.1155 70.4616 21.4261C70.2723 21.733 70.1776 22.0833 70.1776 22.4773V28H68.8366ZM79.1321 19.2727V20.4091H74.6094V19.2727H79.1321ZM75.9276 17.1818H77.2685V25.5C77.2685 25.8788 77.3234 26.1629 77.4332 26.3523C77.5469 26.5379 77.6908 26.6629 77.8651 26.7273C78.0431 26.7879 78.2306 26.8182 78.4276 26.8182C78.5753 26.8182 78.6965 26.8106 78.7912 26.7955C78.8859 26.7765 78.9616 26.7614 79.0185 26.75L79.2912 27.9545C79.2003 27.9886 79.0734 28.0227 78.9105 28.0568C78.7476 28.0947 78.5412 28.1136 78.2912 28.1136C77.9124 28.1136 77.5412 28.0322 77.1776 27.8693C76.8177 27.7064 76.5185 27.4583 76.2798 27.125C76.045 26.7917 75.9276 26.3712 75.9276 25.8636V17.1818ZM85.0355 19.2727V20.4091H80.331V19.2727H85.0355ZM81.7401 28V18.0682C81.7401 17.5682 81.8575 17.1515 82.0923 16.8182C82.3272 16.4848 82.6321 16.2348 83.0071 16.0682C83.3821 15.9015 83.7779 15.8182 84.1946 15.8182C84.5241 15.8182 84.7931 15.8447 85.0014 15.8977C85.2098 15.9508 85.3651 16 85.4673 16.0455L85.081 17.2045C85.0128 17.1818 84.9181 17.1534 84.7969 17.1193C84.6795 17.0852 84.5241 17.0682 84.331 17.0682C83.8878 17.0682 83.5677 17.1799 83.3707 17.4034C83.1776 17.6269 83.081 17.9545 83.081 18.3864V28H81.7401ZM90.1009 28.1818C89.313 28.1818 88.6217 27.9943 88.027 27.6193C87.4361 27.2443 86.974 26.7197 86.6406 26.0455C86.3111 25.3712 86.1463 24.5833 86.1463 23.6818C86.1463 22.7727 86.3111 21.9792 86.6406 21.3011C86.974 20.6231 87.4361 20.0966 88.027 19.7216C88.6217 19.3466 89.313 19.1591 90.1009 19.1591C90.8887 19.1591 91.5781 19.3466 92.169 19.7216C92.7637 20.0966 93.2259 20.6231 93.5554 21.3011C93.8887 21.9792 94.0554 22.7727 94.0554 23.6818C94.0554 24.5833 93.8887 25.3712 93.5554 26.0455C93.2259 26.7197 92.7637 27.2443 92.169 27.6193C91.5781 27.9943 90.8887 28.1818 90.1009 28.1818ZM90.1009 26.9773C90.6993 26.9773 91.1918 26.8239 91.5781 26.517C91.9645 26.2102 92.2505 25.8068 92.4361 25.3068C92.6217 24.8068 92.7145 24.2652 92.7145 23.6818C92.7145 23.0985 92.6217 22.5549 92.4361 22.0511C92.2505 21.5473 91.9645 21.1402 91.5781 20.8295C91.1918 20.5189 90.6993 20.3636 90.1009 20.3636C89.5024 20.3636 89.0099 20.5189 88.6236 20.8295C88.2372 21.1402 87.9512 21.5473 87.7656 22.0511C87.58 22.5549 87.4872 23.0985 87.4872 23.6818C87.4872 24.2652 87.58 24.8068 87.7656 25.3068C87.9512 25.8068 88.2372 26.2102 88.6236 26.517C89.0099 26.8239 89.5024 26.9773 90.1009 26.9773ZM97.4432 16.3636V28H96.1023V16.3636H97.4432ZM99.8991 28V19.2727H101.24V28H99.8991ZM100.581 17.8182C100.32 17.8182 100.094 17.7292 99.9048 17.5511C99.7192 17.3731 99.6264 17.1591 99.6264 16.9091C99.6264 16.6591 99.7192 16.4451 99.9048 16.267C100.094 16.089 100.32 16 100.581 16C100.842 16 101.066 16.089 101.251 16.267C101.441 16.4451 101.536 16.6591 101.536 16.9091C101.536 17.1591 101.441 17.3731 101.251 17.5511C101.066 17.7292 100.842 17.8182 100.581 17.8182ZM107.241 28.1818C106.454 28.1818 105.762 27.9943 105.168 27.6193C104.577 27.2443 104.115 26.7197 103.781 26.0455C103.452 25.3712 103.287 24.5833 103.287 23.6818C103.287 22.7727 103.452 21.9792 103.781 21.3011C104.115 20.6231 104.577 20.0966 105.168 19.7216C105.762 19.3466 106.454 19.1591 107.241 19.1591C108.029 19.1591 108.719 19.3466 109.31 19.7216C109.904 20.0966 110.366 20.6231 110.696 21.3011C111.029 21.9792 111.196 22.7727 111.196 23.6818C111.196 24.5833 111.029 25.3712 110.696 26.0455C110.366 26.7197 109.904 27.2443 109.31 27.6193C108.719 27.9943 108.029 28.1818 107.241 28.1818ZM107.241 26.9773C107.84 26.9773 108.332 26.8239 108.719 26.517C109.105 26.2102 109.391 25.8068 109.577 25.3068C109.762 24.8068 109.855 24.2652 109.855 23.6818C109.855 23.0985 109.762 22.5549 109.577 22.0511C109.391 21.5473 109.105 21.1402 108.719 20.8295C108.332 20.5189 107.84 20.3636 107.241 20.3636C106.643 20.3636 106.151 20.5189 105.764 20.8295C105.378 21.1402 105.092 21.5473 104.906 22.0511C104.721 22.5549 104.628 23.0985 104.628 23.6818C104.628 24.2652 104.721 24.8068 104.906 25.3068C105.092 25.8068 105.378 26.2102 105.764 26.517C106.151 26.8239 106.643 26.9773 107.241 26.9773Z" fill="white"/>
</svg>
