<svg width="162" height="44" viewBox="0 0 162 44" fill="none" xmlns="http://www.w3.org/2000/svg">
<rect width="162" height="44" rx="4" fill="white" fill-opacity="0.03"/>
<rect x="0.5" y="0.5" width="161" height="43" rx="3.5" stroke="#7763E5" stroke-opacity="0.1"/>
<path d="M28 11.5C30.7823 11.5082 33.4486 12.6166 35.416 14.584C37.3834 16.5514 38.4918 19.2177 38.5 22C38.5 24.0766 37.8841 26.1064 36.7305 27.833C35.5767 29.5597 33.9371 30.9064 32.0186 31.7012C30.0999 32.4959 27.988 32.703 25.9512 32.2979C23.9145 31.8926 22.0435 30.8931 20.5752 29.4248C19.1069 27.9565 18.1073 26.0855 17.7021 24.0488C17.297 22.012 17.5041 19.9001 18.2988 17.9814C19.0936 16.0629 20.4403 14.4233 22.167 13.2695C23.8936 12.1159 25.9234 11.5 28 11.5ZM28 13C25.6152 13.007 23.3299 13.9572 21.6436 15.6436C19.9572 17.3299 19.007 19.6152 19 22C19 23.78 19.5277 25.52 20.5166 27C21.5055 28.4799 22.9113 29.6332 24.5557 30.3145C26.2002 30.9956 28.01 31.1744 29.7559 30.8271C31.5017 30.4799 33.1056 29.6229 34.3643 28.3643C35.6229 27.1056 36.4799 25.5017 36.8271 23.7559C37.1744 22.01 36.9956 20.2002 36.3145 18.5557C35.6332 16.9113 34.4799 15.5055 33 14.5166C31.52 13.5277 29.78 13 28 13ZM28.75 15.25V17.5H31.75V19H25.75V21.25H30.25C30.6477 21.2504 31.0293 21.4082 31.3105 21.6895C31.5918 21.9707 31.7496 22.3523 31.75 22.75V25C31.7495 25.3977 31.5918 25.7793 31.3105 26.0605C31.0293 26.3418 30.6477 26.4995 30.25 26.5H28.75V28.75H27.25V26.5H24.25V25H30.25V22.75H25.75C25.3523 22.7496 24.9707 22.5918 24.6895 22.3105C24.4082 22.0293 24.2504 21.6477 24.25 21.25V19C24.2504 18.6023 24.4082 18.2207 24.6895 17.9395C24.9707 17.6582 25.3523 17.5004 25.75 17.5H27.25V15.25H28.75Z" fill="white"/>
<path d="M49.4091 28V16.3636H53.3409C54.2538 16.3636 55 16.5284 55.5795 16.858C56.1629 17.1837 56.5947 17.625 56.875 18.1818C57.1553 18.7386 57.2955 19.3598 57.2955 20.0455C57.2955 20.7311 57.1553 21.3542 56.875 21.9148C56.5985 22.4754 56.1705 22.9223 55.5909 23.2557C55.0114 23.5852 54.2689 23.75 53.3636 23.75H50.5455V22.5H53.3182C53.9432 22.5 54.4451 22.392 54.8239 22.1761C55.2027 21.9602 55.4773 21.6686 55.6477 21.3011C55.822 20.9299 55.9091 20.5114 55.9091 20.0455C55.9091 19.5795 55.822 19.1629 55.6477 18.7955C55.4773 18.428 55.2008 18.1402 54.8182 17.9318C54.4356 17.7197 53.928 17.6136 53.2955 17.6136H50.8182V28H49.4091ZM59.3835 28V19.2727H60.679V20.5909H60.7699C60.929 20.1591 61.2169 19.8087 61.6335 19.5398C62.0502 19.2708 62.5199 19.1364 63.0426 19.1364C63.1411 19.1364 63.2642 19.1383 63.4119 19.142C63.5597 19.1458 63.6714 19.1515 63.7472 19.1591V20.5227C63.7017 20.5114 63.5975 20.4943 63.4347 20.4716C63.2756 20.4451 63.107 20.4318 62.929 20.4318C62.5047 20.4318 62.1259 20.5208 61.7926 20.6989C61.4631 20.8731 61.2017 21.1155 61.0085 21.4261C60.8191 21.733 60.7244 22.0833 60.7244 22.4773V28H59.3835ZM65.3366 28V19.2727H66.6776V28H65.3366ZM66.0185 17.8182C65.7571 17.8182 65.5317 17.7292 65.3423 17.5511C65.1567 17.3731 65.0639 17.1591 65.0639 16.9091C65.0639 16.6591 65.1567 16.4451 65.3423 16.267C65.5317 16.089 65.7571 16 66.0185 16C66.2798 16 66.5033 16.089 66.6889 16.267C66.8783 16.4451 66.973 16.6591 66.973 16.9091C66.973 17.1591 66.8783 17.3731 66.6889 17.5511C66.5033 17.7292 66.2798 17.8182 66.0185 17.8182ZM72.679 28.1818C71.8608 28.1818 71.1563 27.9886 70.5653 27.6023C69.9744 27.2159 69.5199 26.6837 69.2017 26.0057C68.8835 25.3277 68.7244 24.553 68.7244 23.6818C68.7244 22.7955 68.8873 22.0133 69.2131 21.3352C69.5426 20.6534 70.0009 20.1212 70.5881 19.7386C71.179 19.3523 71.8684 19.1591 72.6562 19.1591C73.2699 19.1591 73.8229 19.2727 74.3153 19.5C74.8078 19.7273 75.2112 20.0455 75.5256 20.4545C75.84 20.8636 76.035 21.3409 76.1108 21.8864H74.7699C74.6676 21.4886 74.4403 21.1364 74.0881 20.8295C73.7396 20.5189 73.2699 20.3636 72.679 20.3636C72.1563 20.3636 71.6979 20.5 71.304 20.7727C70.9138 21.0417 70.6089 21.4223 70.3892 21.9148C70.1733 22.4034 70.0653 22.9773 70.0653 23.6364C70.0653 24.3106 70.1714 24.8977 70.3835 25.3977C70.5994 25.8977 70.9025 26.286 71.2926 26.5625C71.6866 26.839 72.1487 26.9773 72.679 26.9773C73.0275 26.9773 73.3438 26.9167 73.6278 26.7955C73.9119 26.6742 74.1525 26.5 74.3494 26.2727C74.5464 26.0455 74.6866 25.7727 74.7699 25.4545H76.1108C76.035 25.9697 75.8475 26.4337 75.5483 26.8466C75.2528 27.2557 74.8608 27.5814 74.3722 27.8239C73.8873 28.0625 73.3229 28.1818 72.679 28.1818ZM78.071 28V19.2727H79.4119V28H78.071ZM78.7528 17.8182C78.4915 17.8182 78.2661 17.7292 78.0767 17.5511C77.8911 17.3731 77.7983 17.1591 77.7983 16.9091C77.7983 16.6591 77.8911 16.4451 78.0767 16.267C78.2661 16.089 78.4915 16 78.7528 16C79.0142 16 79.2377 16.089 79.4233 16.267C79.6127 16.4451 79.7074 16.6591 79.7074 16.9091C79.7074 17.1591 79.6127 17.3731 79.4233 17.5511C79.2377 17.7292 79.0142 17.8182 78.7528 17.8182ZM83.2088 22.75V28H81.8679V19.2727H83.1634V20.6364H83.277C83.4815 20.1932 83.7921 19.8371 84.2088 19.5682C84.6255 19.2955 85.1634 19.1591 85.8224 19.1591C86.4134 19.1591 86.9304 19.2803 87.3736 19.5227C87.8168 19.7614 88.1615 20.125 88.4077 20.6136C88.6539 21.0985 88.777 21.7121 88.777 22.4545V28H87.4361V22.5455C87.4361 21.8598 87.258 21.3258 86.902 20.9432C86.5459 20.5568 86.0573 20.3636 85.4361 20.3636C85.008 20.3636 84.6255 20.4564 84.2884 20.642C83.955 20.8277 83.6918 21.0985 83.4986 21.4545C83.3054 21.8106 83.2088 22.2424 83.2088 22.75ZM94.75 31.4545C94.1023 31.4545 93.5455 31.3712 93.0795 31.2045C92.6136 31.0417 92.2254 30.8258 91.9148 30.5568C91.608 30.2917 91.3636 30.0076 91.1818 29.7045L92.25 28.9545C92.3712 29.1136 92.5246 29.2955 92.7102 29.5C92.8958 29.7083 93.1496 29.8883 93.4716 30.0398C93.7973 30.1951 94.2235 30.2727 94.75 30.2727C95.4545 30.2727 96.036 30.1023 96.4943 29.7614C96.9527 29.4205 97.1818 28.8864 97.1818 28.1591V26.3864H97.0682C96.9697 26.5455 96.8295 26.7424 96.6477 26.9773C96.4697 27.2083 96.2121 27.4148 95.875 27.5966C95.5417 27.7746 95.0909 27.8636 94.5227 27.8636C93.8182 27.8636 93.1856 27.697 92.625 27.3636C92.0682 27.0303 91.6269 26.5455 91.3011 25.9091C90.9792 25.2727 90.8182 24.5 90.8182 23.5909C90.8182 22.697 90.9754 21.9186 91.2898 21.2557C91.6042 20.589 92.0417 20.0739 92.6023 19.7102C93.1629 19.3428 93.8106 19.1591 94.5455 19.1591C95.1136 19.1591 95.5644 19.2538 95.8977 19.4432C96.2348 19.6288 96.4924 19.8409 96.6705 20.0795C96.8523 20.3144 96.9924 20.5076 97.0909 20.6591H97.2273V19.2727H98.5227V28.25C98.5227 29 98.3523 29.6098 98.0114 30.0795C97.6742 30.553 97.2197 30.8996 96.6477 31.1193C96.0795 31.3428 95.447 31.4545 94.75 31.4545ZM94.7045 26.6591C95.2424 26.6591 95.697 26.536 96.0682 26.2898C96.4394 26.0436 96.7216 25.6894 96.9148 25.2273C97.108 24.7652 97.2045 24.2121 97.2045 23.5682C97.2045 22.9394 97.1098 22.3845 96.9205 21.9034C96.7311 21.4223 96.4508 21.0455 96.0795 20.7727C95.7083 20.5 95.25 20.3636 94.7045 20.3636C94.1364 20.3636 93.6629 20.5076 93.2841 20.7955C92.9091 21.0833 92.6269 21.4697 92.4375 21.9545C92.2519 22.4394 92.1591 22.9773 92.1591 23.5682C92.1591 24.1742 92.2538 24.7102 92.4432 25.1761C92.6364 25.6383 92.9205 26.0019 93.2955 26.267C93.6742 26.5284 94.1439 26.6591 94.7045 26.6591ZM105.023 17.6136V16.3636H113.75V17.6136H110.091V28H108.682V17.6136H105.023ZM117.124 28.2045C116.571 28.2045 116.069 28.1004 115.618 27.892C115.167 27.6799 114.809 27.375 114.544 26.9773C114.279 26.5758 114.146 26.0909 114.146 25.5227C114.146 25.0227 114.245 24.6174 114.442 24.3068C114.639 23.9924 114.902 23.7462 115.232 23.5682C115.561 23.3902 115.925 23.2576 116.322 23.1705C116.724 23.0795 117.127 23.0076 117.533 22.9545C118.063 22.8864 118.493 22.8352 118.822 22.8011C119.156 22.7633 119.398 22.7008 119.55 22.6136C119.705 22.5265 119.783 22.375 119.783 22.1591V22.1136C119.783 21.553 119.629 21.1174 119.322 20.8068C119.019 20.4962 118.559 20.3409 117.942 20.3409C117.302 20.3409 116.8 20.4811 116.436 20.7614C116.072 21.0417 115.817 21.3409 115.669 21.6591L114.396 21.2045C114.624 20.6742 114.927 20.2614 115.305 19.9659C115.688 19.6667 116.105 19.4583 116.555 19.3409C117.01 19.2197 117.457 19.1591 117.896 19.1591C118.177 19.1591 118.499 19.1932 118.862 19.2614C119.23 19.3258 119.584 19.4602 119.925 19.6648C120.269 19.8693 120.555 20.178 120.783 20.5909C121.01 21.0038 121.124 21.5568 121.124 22.25V28H119.783V26.8182H119.714C119.624 27.0076 119.472 27.2102 119.26 27.4261C119.048 27.642 118.766 27.8258 118.413 27.9773C118.061 28.1288 117.631 28.2045 117.124 28.2045ZM117.328 27C117.858 27 118.305 26.8958 118.669 26.6875C119.036 26.4792 119.313 26.2102 119.499 25.8807C119.688 25.5511 119.783 25.2045 119.783 24.8409V23.6136C119.726 23.6818 119.601 23.7443 119.408 23.8011C119.218 23.8542 118.999 23.9015 118.749 23.9432C118.502 23.9811 118.262 24.0152 118.027 24.0455C117.796 24.072 117.608 24.0947 117.464 24.1136C117.116 24.1591 116.79 24.233 116.487 24.3352C116.188 24.4337 115.946 24.5833 115.76 24.7841C115.578 24.9811 115.487 25.25 115.487 25.5909C115.487 26.0568 115.66 26.4091 116.004 26.6477C116.353 26.8826 116.794 27 117.328 27ZM123.753 28V16.3636H125.094V20.6591H125.207C125.306 20.5076 125.442 20.3144 125.616 20.0795C125.795 19.8409 126.048 19.6288 126.378 19.4432C126.711 19.2538 127.162 19.1591 127.73 19.1591C128.465 19.1591 129.113 19.3428 129.673 19.7102C130.234 20.0777 130.671 20.5985 130.986 21.2727C131.3 21.947 131.457 22.7424 131.457 23.6591C131.457 24.5833 131.3 25.3845 130.986 26.0625C130.671 26.7367 130.236 27.2595 129.679 27.6307C129.122 27.9981 128.48 28.1818 127.753 28.1818C127.192 28.1818 126.743 28.089 126.406 27.9034C126.069 27.714 125.81 27.5 125.628 27.2614C125.446 27.0189 125.306 26.8182 125.207 26.6591H125.048V28H123.753ZM125.071 23.6364C125.071 24.2955 125.168 24.8769 125.361 25.3807C125.554 25.8807 125.836 26.2727 126.207 26.5568C126.579 26.8371 127.033 26.9773 127.571 26.9773C128.132 26.9773 128.599 26.8295 128.974 26.5341C129.353 26.2348 129.637 25.8333 129.827 25.3295C130.02 24.822 130.116 24.2576 130.116 23.6364C130.116 23.0227 130.022 22.4697 129.832 21.9773C129.647 21.4811 129.365 21.089 128.986 20.8011C128.611 20.5095 128.139 20.3636 127.571 20.3636C127.026 20.3636 126.567 20.5019 126.196 20.7784C125.825 21.0511 125.545 21.4337 125.355 21.9261C125.166 22.4148 125.071 22.9848 125.071 23.6364ZM134.849 16.3636V28H133.509V16.3636H134.849ZM140.964 28.1818C140.124 28.1818 139.398 27.9962 138.788 27.625C138.182 27.25 137.714 26.7273 137.385 26.0568C137.059 25.3826 136.896 24.5985 136.896 23.7045C136.896 22.8106 137.059 22.0227 137.385 21.3409C137.714 20.6553 138.173 20.1212 138.76 19.7386C139.351 19.3523 140.04 19.1591 140.828 19.1591C141.283 19.1591 141.732 19.2348 142.175 19.3864C142.618 19.5379 143.021 19.7841 143.385 20.125C143.749 20.4621 144.038 20.9091 144.254 21.4659C144.47 22.0227 144.578 22.7083 144.578 23.5227V24.0909H137.851V22.9318H143.214C143.214 22.4394 143.116 22 142.919 21.6136C142.726 21.2273 142.449 20.9223 142.089 20.6989C141.733 20.4754 141.313 20.3636 140.828 20.3636C140.294 20.3636 139.832 20.4962 139.442 20.7614C139.055 21.0227 138.758 21.3636 138.55 21.7841C138.341 22.2045 138.237 22.6553 138.237 23.1364V23.9091C138.237 24.5682 138.351 25.1269 138.578 25.5852C138.809 26.0398 139.129 26.3864 139.538 26.625C139.947 26.8598 140.423 26.9773 140.964 26.9773C141.317 26.9773 141.635 26.928 141.919 26.8295C142.207 26.7273 142.455 26.5758 142.663 26.375C142.872 26.1705 143.033 25.9167 143.146 25.6136L144.442 25.9773C144.305 26.4167 144.076 26.803 143.754 27.1364C143.432 27.4659 143.035 27.7235 142.561 27.9091C142.088 28.0909 141.555 28.1818 140.964 28.1818Z" fill="white"/>
</svg>
