<svg width="110" height="44" viewBox="0 0 110 44" fill="none" xmlns="http://www.w3.org/2000/svg">
<rect width="110" height="44" rx="4" fill="white" fill-opacity="0.03"/>
<rect x="0.5" y="0.5" width="109" height="43" rx="3.5" stroke="#7763E5" stroke-opacity="0.1"/>
<path d="M33.25 25.0002C32.6886 25.003 32.135 25.1318 31.6301 25.3771C31.1251 25.6225 30.6817 25.9781 30.3325 26.4177L24.85 22.9902C25.0498 22.3453 25.0498 21.655 24.85 21.0102L30.3325 17.5827C30.889 18.2717 31.6714 18.7415 32.5411 18.909C33.4108 19.0764 34.3117 18.9306 35.0842 18.4974C35.8567 18.0642 36.4509 17.3715 36.7616 16.5421C37.0723 15.7128 37.0794 14.8002 36.7817 13.966C36.484 13.1319 35.9007 12.43 35.135 11.9848C34.3694 11.5396 33.4709 11.3797 32.5987 11.5336C31.7265 11.6874 30.9368 12.1449 30.3697 12.8252C29.8025 13.5055 29.4944 14.3645 29.5 15.2502C29.5036 15.5855 29.554 15.9188 29.65 16.2402L24.1675 19.6677C23.6835 19.0583 23.0219 18.6147 22.2745 18.3982C21.527 18.1817 20.7308 18.2031 19.996 18.4594C19.2613 18.7157 18.6245 19.1943 18.1739 19.8287C17.7233 20.4631 17.4812 21.222 17.4812 22.0002C17.4812 22.7783 17.7233 23.5372 18.1739 24.1716C18.6245 24.8061 19.2613 25.2846 19.996 25.5409C20.7308 25.7972 21.527 25.8186 22.2745 25.6021C23.0219 25.3856 23.6835 24.942 24.1675 24.3327L29.65 27.7602C29.554 28.0815 29.5036 28.4148 29.5 28.7502C29.5 29.4918 29.7199 30.2169 30.132 30.8335C30.5441 31.4502 31.1297 31.9309 31.815 32.2147C32.5002 32.4985 33.2542 32.5728 33.9816 32.4281C34.709 32.2834 35.3772 31.9263 35.9017 31.4018C36.4261 30.8774 36.7833 30.2092 36.928 29.4817C37.0727 28.7543 36.9984 28.0003 36.7146 27.3151C36.4307 26.6299 35.9501 26.0442 35.3334 25.6321C34.7167 25.2201 33.9917 25.0002 33.25 25.0002ZM33.25 13.0002C33.695 13.0002 34.13 13.1321 34.5 13.3793C34.8701 13.6266 35.1584 13.978 35.3287 14.3891C35.499 14.8002 35.5436 15.2526 35.4568 15.6891C35.37 16.1256 35.1557 16.5265 34.841 16.8411C34.5263 17.1558 34.1254 17.3701 33.689 17.4569C33.2525 17.5437 32.8001 17.4992 32.389 17.3289C31.9778 17.1586 31.6264 16.8702 31.3792 16.5002C31.132 16.1302 31 15.6952 31 15.2502C31 14.6534 31.2371 14.0811 31.659 13.6592C32.081 13.2372 32.6533 13.0002 33.25 13.0002ZM21.25 24.2502C20.805 24.2502 20.37 24.1182 20 23.871C19.63 23.6237 19.3416 23.2723 19.1713 22.8612C19.001 22.4501 18.9564 21.9977 19.0432 21.5612C19.1301 21.1247 19.3444 20.7238 19.659 20.4092C19.9737 20.0945 20.3746 19.8802 20.8111 19.7934C21.2475 19.7066 21.6999 19.7511 22.1111 19.9214C22.5222 20.0917 22.8736 20.3801 23.1208 20.7501C23.3681 21.1201 23.5 21.5551 23.5 22.0002C23.5 22.5969 23.263 23.1692 22.841 23.5911C22.419 24.0131 21.8468 24.2502 21.25 24.2502ZM33.25 31.0002C32.805 31.0002 32.37 30.8682 32 30.621C31.63 30.3737 31.3416 30.0223 31.1713 29.6112C31.001 29.2001 30.9564 28.7477 31.0432 28.3112C31.1301 27.8747 31.3444 27.4738 31.659 27.1592C31.9737 26.8445 32.3746 26.6302 32.8111 26.5434C33.2475 26.4566 33.6999 26.5011 34.1111 26.6714C34.5222 26.8417 34.8736 27.1301 35.1208 27.5001C35.3681 27.8701 35.5 28.3051 35.5 28.7502C35.5 29.3469 35.263 29.9192 34.841 30.3411C34.419 30.7631 33.8468 31.0002 33.25 31.0002Z" fill="#525252"/>
<path d="M33.25 25.0002C32.6886 25.003 32.135 25.1318 31.6301 25.3771C31.1251 25.6225 30.6817 25.9781 30.3325 26.4177L24.85 22.9902C25.0498 22.3453 25.0498 21.655 24.85 21.0102L30.3325 17.5827C30.889 18.2717 31.6714 18.7415 32.5411 18.909C33.4108 19.0764 34.3117 18.9306 35.0842 18.4974C35.8567 18.0642 36.4509 17.3715 36.7616 16.5421C37.0723 15.7128 37.0794 14.8002 36.7817 13.966C36.484 13.1319 35.9007 12.43 35.135 11.9848C34.3694 11.5396 33.4709 11.3797 32.5987 11.5336C31.7265 11.6874 30.9368 12.1449 30.3697 12.8252C29.8025 13.5055 29.4944 14.3645 29.5 15.2502C29.5036 15.5855 29.554 15.9188 29.65 16.2402L24.1675 19.6677C23.6835 19.0583 23.0219 18.6147 22.2745 18.3982C21.527 18.1817 20.7308 18.2031 19.996 18.4594C19.2613 18.7157 18.6245 19.1943 18.1739 19.8287C17.7233 20.4631 17.4812 21.222 17.4812 22.0002C17.4812 22.7783 17.7233 23.5372 18.1739 24.1716C18.6245 24.8061 19.2613 25.2846 19.996 25.5409C20.7308 25.7972 21.527 25.8186 22.2745 25.6021C23.0219 25.3856 23.6835 24.942 24.1675 24.3327L29.65 27.7602C29.554 28.0815 29.5036 28.4148 29.5 28.7502C29.5 29.4918 29.7199 30.2169 30.132 30.8335C30.5441 31.4502 31.1297 31.9309 31.815 32.2147C32.5002 32.4985 33.2542 32.5728 33.9816 32.4281C34.709 32.2834 35.3772 31.9263 35.9017 31.4018C36.4261 30.8774 36.7833 30.2092 36.928 29.4817C37.0727 28.7543 36.9984 28.0003 36.7146 27.3151C36.4307 26.6299 35.9501 26.0442 35.3334 25.6321C34.7167 25.2201 33.9917 25.0002 33.25 25.0002ZM33.25 13.0002C33.695 13.0002 34.13 13.1321 34.5 13.3793C34.8701 13.6266 35.1584 13.978 35.3287 14.3891C35.499 14.8002 35.5436 15.2526 35.4568 15.6891C35.37 16.1256 35.1557 16.5265 34.841 16.8411C34.5263 17.1558 34.1254 17.3701 33.689 17.4569C33.2525 17.5437 32.8001 17.4992 32.389 17.3289C31.9778 17.1586 31.6264 16.8702 31.3792 16.5002C31.132 16.1302 31 15.6952 31 15.2502C31 14.6534 31.2371 14.0811 31.659 13.6592C32.081 13.2372 32.6533 13.0002 33.25 13.0002ZM21.25 24.2502C20.805 24.2502 20.37 24.1182 20 23.871C19.63 23.6237 19.3416 23.2723 19.1713 22.8612C19.001 22.4501 18.9564 21.9977 19.0432 21.5612C19.1301 21.1247 19.3444 20.7238 19.659 20.4092C19.9737 20.0945 20.3746 19.8802 20.8111 19.7934C21.2475 19.7066 21.6999 19.7511 22.1111 19.9214C22.5222 20.0917 22.8736 20.3801 23.1208 20.7501C23.3681 21.1201 23.5 21.5551 23.5 22.0002C23.5 22.5969 23.263 23.1692 22.841 23.5911C22.419 24.0131 21.8468 24.2502 21.25 24.2502ZM33.25 31.0002C32.805 31.0002 32.37 30.8682 32 30.621C31.63 30.3737 31.3416 30.0223 31.1713 29.6112C31.001 29.2001 30.9564 28.7477 31.0432 28.3112C31.1301 27.8747 31.3444 27.4738 31.659 27.1592C31.9737 26.8445 32.3746 26.6302 32.8111 26.5434C33.2475 26.4566 33.6999 26.5011 34.1111 26.6714C34.5222 26.8417 34.8736 27.1301 35.1208 27.5001C35.3681 27.8701 35.5 28.3051 35.5 28.7502C35.5 29.3469 35.263 29.9192 34.841 30.3411C34.419 30.7631 33.8468 31.0002 33.25 31.0002Z" fill="white"/>
<path d="M55.7727 19.2727C55.7045 18.697 55.428 18.25 54.9432 17.9318C54.4583 17.6136 53.8636 17.4545 53.1591 17.4545C52.6439 17.4545 52.1932 17.5379 51.8068 17.7045C51.4242 17.8712 51.125 18.1004 50.9091 18.392C50.697 18.6837 50.5909 19.0152 50.5909 19.3864C50.5909 19.697 50.6648 19.964 50.8125 20.1875C50.964 20.4072 51.1572 20.5909 51.392 20.7386C51.6269 20.8826 51.8731 21.0019 52.1307 21.0966C52.3883 21.1875 52.625 21.2614 52.8409 21.3182L54.0227 21.6364C54.3258 21.7159 54.6629 21.8258 55.0341 21.9659C55.4091 22.1061 55.767 22.2973 56.108 22.5398C56.4527 22.7784 56.7367 23.0852 56.9602 23.4602C57.1837 23.8352 57.2955 24.2955 57.2955 24.8409C57.2955 25.4697 57.1307 26.0379 56.8011 26.5455C56.4754 27.053 55.9981 27.4564 55.3693 27.7557C54.7443 28.0549 53.9848 28.2045 53.0909 28.2045C52.2576 28.2045 51.536 28.0701 50.9261 27.8011C50.3201 27.5322 49.8428 27.1572 49.4943 26.6761C49.1496 26.1951 48.9545 25.6364 48.9091 25H50.3636C50.4015 25.4394 50.5492 25.803 50.8068 26.0909C51.0682 26.375 51.3977 26.5871 51.7955 26.7273C52.197 26.8636 52.6288 26.9318 53.0909 26.9318C53.6288 26.9318 54.1117 26.8447 54.5398 26.6705C54.9678 26.4924 55.3068 26.2462 55.5568 25.9318C55.8068 25.6136 55.9318 25.2424 55.9318 24.8182C55.9318 24.4318 55.8239 24.1174 55.608 23.875C55.392 23.6326 55.108 23.4356 54.7557 23.2841C54.4034 23.1326 54.0227 23 53.6136 22.8864L52.1818 22.4773C51.2727 22.2159 50.553 21.8428 50.0227 21.358C49.4924 20.8731 49.2273 20.2386 49.2273 19.4545C49.2273 18.803 49.4034 18.2348 49.7557 17.75C50.1117 17.2614 50.589 16.8826 51.1875 16.6136C51.7898 16.3409 52.4621 16.2045 53.2045 16.2045C53.9545 16.2045 54.6212 16.339 55.2045 16.608C55.7879 16.8731 56.25 17.2367 56.5909 17.6989C56.9356 18.161 57.1174 18.6856 57.1364 19.2727H55.7727ZM62.9759 28.1818C62.188 28.1818 61.4967 27.9943 60.902 27.6193C60.3111 27.2443 59.849 26.7197 59.5156 26.0455C59.1861 25.3712 59.0213 24.5833 59.0213 23.6818C59.0213 22.7727 59.1861 21.9792 59.5156 21.3011C59.849 20.6231 60.3111 20.0966 60.902 19.7216C61.4967 19.3466 62.188 19.1591 62.9759 19.1591C63.7637 19.1591 64.4531 19.3466 65.044 19.7216C65.6387 20.0966 66.1009 20.6231 66.4304 21.3011C66.7637 21.9792 66.9304 22.7727 66.9304 23.6818C66.9304 24.5833 66.7637 25.3712 66.4304 26.0455C66.1009 26.7197 65.6387 27.2443 65.044 27.6193C64.4531 27.9943 63.7637 28.1818 62.9759 28.1818ZM62.9759 26.9773C63.5743 26.9773 64.0668 26.8239 64.4531 26.517C64.8395 26.2102 65.1255 25.8068 65.3111 25.3068C65.4967 24.8068 65.5895 24.2652 65.5895 23.6818C65.5895 23.0985 65.4967 22.5549 65.3111 22.0511C65.1255 21.5473 64.8395 21.1402 64.4531 20.8295C64.0668 20.5189 63.5743 20.3636 62.9759 20.3636C62.3774 20.3636 61.8849 20.5189 61.4986 20.8295C61.1122 21.1402 60.8262 21.5473 60.6406 22.0511C60.455 22.5549 60.3622 23.0985 60.3622 23.6818C60.3622 24.2652 60.455 24.8068 60.6406 25.3068C60.8262 25.8068 61.1122 26.2102 61.4986 26.517C61.8849 26.8239 62.3774 26.9773 62.9759 26.9773ZM72.5227 28.1818C71.7045 28.1818 71 27.9886 70.4091 27.6023C69.8182 27.2159 69.3636 26.6837 69.0455 26.0057C68.7273 25.3277 68.5682 24.553 68.5682 23.6818C68.5682 22.7955 68.7311 22.0133 69.0568 21.3352C69.3864 20.6534 69.8447 20.1212 70.4318 19.7386C71.0227 19.3523 71.7121 19.1591 72.5 19.1591C73.1136 19.1591 73.6667 19.2727 74.1591 19.5C74.6515 19.7273 75.0549 20.0455 75.3693 20.4545C75.6837 20.8636 75.8788 21.3409 75.9545 21.8864H74.6136C74.5114 21.4886 74.2841 21.1364 73.9318 20.8295C73.5833 20.5189 73.1136 20.3636 72.5227 20.3636C72 20.3636 71.5417 20.5 71.1477 20.7727C70.7576 21.0417 70.4527 21.4223 70.233 21.9148C70.017 22.4034 69.9091 22.9773 69.9091 23.6364C69.9091 24.3106 70.0152 24.8977 70.2273 25.3977C70.4432 25.8977 70.7462 26.286 71.1364 26.5625C71.5303 26.839 71.9924 26.9773 72.5227 26.9773C72.8712 26.9773 73.1875 26.9167 73.4716 26.7955C73.7557 26.6742 73.9962 26.5 74.1932 26.2727C74.3902 26.0455 74.5303 25.7727 74.6136 25.4545H75.9545C75.8788 25.9697 75.6913 26.4337 75.392 26.8466C75.0966 27.2557 74.7045 27.5814 74.2159 27.8239C73.7311 28.0625 73.1667 28.1818 72.5227 28.1818ZM77.9148 28V19.2727H79.2557V28H77.9148ZM78.5966 17.8182C78.3352 17.8182 78.1098 17.7292 77.9205 17.5511C77.7348 17.3731 77.642 17.1591 77.642 16.9091C77.642 16.6591 77.7348 16.4451 77.9205 16.267C78.1098 16.089 78.3352 16 78.5966 16C78.858 16 79.0814 16.089 79.267 16.267C79.4564 16.4451 79.5511 16.6591 79.5511 16.9091C79.5511 17.1591 79.4564 17.3731 79.267 17.5511C79.0814 17.7292 78.858 17.8182 78.5966 17.8182ZM84.2798 28.2045C83.7268 28.2045 83.2249 28.1004 82.7741 27.892C82.3234 27.6799 81.9654 27.375 81.7003 26.9773C81.4351 26.5758 81.3026 26.0909 81.3026 25.5227C81.3026 25.0227 81.401 24.6174 81.598 24.3068C81.795 23.9924 82.0582 23.7462 82.3878 23.5682C82.7173 23.3902 83.081 23.2576 83.4787 23.1705C83.8802 23.0795 84.2836 23.0076 84.6889 22.9545C85.2192 22.8864 85.6491 22.8352 85.9787 22.8011C86.312 22.7633 86.5545 22.7008 86.706 22.6136C86.8613 22.5265 86.9389 22.375 86.9389 22.1591V22.1136C86.9389 21.553 86.7855 21.1174 86.4787 20.8068C86.1757 20.4962 85.7154 20.3409 85.098 20.3409C84.4579 20.3409 83.956 20.4811 83.5923 20.7614C83.2287 21.0417 82.973 21.3409 82.8253 21.6591L81.5526 21.2045C81.7798 20.6742 82.0829 20.2614 82.4616 19.9659C82.8442 19.6667 83.2609 19.4583 83.7116 19.3409C84.1662 19.2197 84.6132 19.1591 85.0526 19.1591C85.3329 19.1591 85.6548 19.1932 86.0185 19.2614C86.3859 19.3258 86.7401 19.4602 87.081 19.6648C87.4257 19.8693 87.7116 20.178 87.9389 20.5909C88.1662 21.0038 88.2798 21.5568 88.2798 22.25V28H86.9389V26.8182H86.8707C86.7798 27.0076 86.6283 27.2102 86.4162 27.4261C86.2041 27.642 85.9219 27.8258 85.5696 27.9773C85.2173 28.1288 84.7874 28.2045 84.2798 28.2045ZM84.4844 27C85.0147 27 85.4616 26.8958 85.8253 26.6875C86.1927 26.4792 86.4692 26.2102 86.6548 25.8807C86.8442 25.5511 86.9389 25.2045 86.9389 24.8409V23.6136C86.8821 23.6818 86.7571 23.7443 86.5639 23.8011C86.3745 23.8542 86.1548 23.9015 85.9048 23.9432C85.6586 23.9811 85.4181 24.0152 85.1832 24.0455C84.9522 24.072 84.7647 24.0947 84.6207 24.1136C84.2723 24.1591 83.9465 24.233 83.6435 24.3352C83.3442 24.4337 83.1018 24.5833 82.9162 24.7841C82.7344 24.9811 82.6435 25.25 82.6435 25.5909C82.6435 26.0568 82.8158 26.4091 83.1605 26.6477C83.509 26.8826 83.9503 27 84.4844 27ZM92.0682 16.3636V28H90.7273V16.3636H92.0682Z" fill="white"/>
</svg>
