<svg width="154" height="44" viewBox="0 0 154 44" fill="none" xmlns="http://www.w3.org/2000/svg">
<rect width="154" height="44" rx="4" fill="white" fill-opacity="0.03"/>
<rect x="0.5" y="0.5" width="153" height="43" rx="3.5" stroke="#7763E5" stroke-opacity="0.1"/>
<path d="M37 29.5H19V28H37V29.5ZM35.5 19C35.8978 19 36.2792 19.1581 36.5605 19.4395C36.8419 19.7208 37 20.1022 37 20.5V23.5C37 23.8978 36.8419 24.2792 36.5605 24.5605C36.2792 24.8419 35.8978 25 35.5 25H20.5C20.1022 25 19.7208 24.8419 19.4395 24.5605C19.1581 24.2792 19 23.8978 19 23.5V20.5C19 20.1022 19.1581 19.7208 19.4395 19.4395C19.7208 19.1581 20.1022 19 20.5 19H35.5ZM20.5 23.5H35.5V20.5H20.5V23.5ZM37 14.5V16H19V14.5H37Z" fill="white"/>
<path d="M49.4091 16.3636H51.0909L55.0455 26.0227H55.1818L59.1364 16.3636H60.8182V28H59.5V19.1591H59.3864L55.75 28H54.4773L50.8409 19.1591H50.7273V28H49.4091V16.3636ZM67.1207 28.1818C66.2798 28.1818 65.5545 27.9962 64.9446 27.625C64.3385 27.25 63.8707 26.7273 63.5412 26.0568C63.2154 25.3826 63.0526 24.5985 63.0526 23.7045C63.0526 22.8106 63.2154 22.0227 63.5412 21.3409C63.8707 20.6553 64.3291 20.1212 64.9162 19.7386C65.5071 19.3523 66.1965 19.1591 66.9844 19.1591C67.4389 19.1591 67.8878 19.2348 68.331 19.3864C68.7741 19.5379 69.1776 19.7841 69.5412 20.125C69.9048 20.4621 70.1946 20.9091 70.4105 21.4659C70.6264 22.0227 70.7344 22.7083 70.7344 23.5227V24.0909H64.0071V22.9318H69.3707C69.3707 22.4394 69.2723 22 69.0753 21.6136C68.8821 21.2273 68.6056 20.9223 68.2457 20.6989C67.8897 20.4754 67.4692 20.3636 66.9844 20.3636C66.4503 20.3636 65.9882 20.4962 65.598 20.7614C65.2116 21.0227 64.9143 21.3636 64.706 21.7841C64.4976 22.2045 64.3935 22.6553 64.3935 23.1364V23.9091C64.3935 24.5682 64.5071 25.1269 64.7344 25.5852C64.9654 26.0398 65.2855 26.3864 65.6946 26.625C66.1037 26.8598 66.5791 26.9773 67.1207 26.9773C67.473 26.9773 67.7912 26.928 68.0753 26.8295C68.3632 26.7273 68.6113 26.5758 68.8196 26.375C69.0279 26.1705 69.1889 25.9167 69.3026 25.6136L70.598 25.9773C70.4616 26.4167 70.2325 26.803 69.9105 27.1364C69.5885 27.4659 69.1908 27.7235 68.7173 27.9091C68.2438 28.0909 67.7116 28.1818 67.1207 28.1818ZM76.2969 31.4545C75.6491 31.4545 75.0923 31.3712 74.6264 31.2045C74.1605 31.0417 73.7723 30.8258 73.4616 30.5568C73.1548 30.2917 72.9105 30.0076 72.7287 29.7045L73.7969 28.9545C73.9181 29.1136 74.0715 29.2955 74.2571 29.5C74.4427 29.7083 74.6965 29.8883 75.0185 30.0398C75.3442 30.1951 75.7704 30.2727 76.2969 30.2727C77.0014 30.2727 77.5829 30.1023 78.0412 29.7614C78.4995 29.4205 78.7287 28.8864 78.7287 28.1591V26.3864H78.6151C78.5166 26.5455 78.3764 26.7424 78.1946 26.9773C78.0166 27.2083 77.759 27.4148 77.4219 27.5966C77.0885 27.7746 76.6378 27.8636 76.0696 27.8636C75.3651 27.8636 74.7325 27.697 74.1719 27.3636C73.6151 27.0303 73.1738 26.5455 72.848 25.9091C72.526 25.2727 72.3651 24.5 72.3651 23.5909C72.3651 22.697 72.5223 21.9186 72.8366 21.2557C73.151 20.589 73.5885 20.0739 74.1491 19.7102C74.7098 19.3428 75.3575 19.1591 76.0923 19.1591C76.6605 19.1591 77.1113 19.2538 77.4446 19.4432C77.7817 19.6288 78.0393 19.8409 78.2173 20.0795C78.3991 20.3144 78.5393 20.5076 78.6378 20.6591H78.7741V19.2727H80.0696V28.25C80.0696 29 79.8991 29.6098 79.5582 30.0795C79.2211 30.553 78.7666 30.8996 78.1946 31.1193C77.6264 31.3428 76.9938 31.4545 76.2969 31.4545ZM76.2514 26.6591C76.7893 26.6591 77.2438 26.536 77.6151 26.2898C77.9863 26.0436 78.2685 25.6894 78.4616 25.2273C78.6548 24.7652 78.7514 24.2121 78.7514 23.5682C78.7514 22.9394 78.6567 22.3845 78.4673 21.9034C78.2779 21.4223 77.9976 21.0455 77.6264 20.7727C77.2552 20.5 76.7969 20.3636 76.2514 20.3636C75.6832 20.3636 75.2098 20.5076 74.831 20.7955C74.456 21.0833 74.1738 21.4697 73.9844 21.9545C73.7988 22.4394 73.706 22.9773 73.706 23.5682C73.706 24.1742 73.8007 24.7102 73.9901 25.1761C74.1832 25.6383 74.4673 26.0019 74.8423 26.267C75.2211 26.5284 75.6908 26.6591 76.2514 26.6591ZM85.0923 28.2045C84.5393 28.2045 84.0374 28.1004 83.5866 27.892C83.1359 27.6799 82.7779 27.375 82.5128 26.9773C82.2476 26.5758 82.1151 26.0909 82.1151 25.5227C82.1151 25.0227 82.2135 24.6174 82.4105 24.3068C82.6075 23.9924 82.8707 23.7462 83.2003 23.5682C83.5298 23.3902 83.8935 23.2576 84.2912 23.1705C84.6927 23.0795 85.0961 23.0076 85.5014 22.9545C86.0317 22.8864 86.4616 22.8352 86.7912 22.8011C87.1245 22.7633 87.367 22.7008 87.5185 22.6136C87.6738 22.5265 87.7514 22.375 87.7514 22.1591V22.1136C87.7514 21.553 87.598 21.1174 87.2912 20.8068C86.9882 20.4962 86.5279 20.3409 85.9105 20.3409C85.2704 20.3409 84.7685 20.4811 84.4048 20.7614C84.0412 21.0417 83.7855 21.3409 83.6378 21.6591L82.3651 21.2045C82.5923 20.6742 82.8954 20.2614 83.2741 19.9659C83.6567 19.6667 84.0734 19.4583 84.5241 19.3409C84.9787 19.2197 85.4257 19.1591 85.8651 19.1591C86.1454 19.1591 86.4673 19.1932 86.831 19.2614C87.1984 19.3258 87.5526 19.4602 87.8935 19.6648C88.2382 19.8693 88.5241 20.178 88.7514 20.5909C88.9787 21.0038 89.0923 21.5568 89.0923 22.25V28H87.7514V26.8182H87.6832C87.5923 27.0076 87.4408 27.2102 87.2287 27.4261C87.0166 27.642 86.7344 27.8258 86.3821 27.9773C86.0298 28.1288 85.5999 28.2045 85.0923 28.2045ZM85.2969 27C85.8272 27 86.2741 26.8958 86.6378 26.6875C87.0052 26.4792 87.2817 26.2102 87.4673 25.8807C87.6567 25.5511 87.7514 25.2045 87.7514 24.8409V23.6136C87.6946 23.6818 87.5696 23.7443 87.3764 23.8011C87.187 23.8542 86.9673 23.9015 86.7173 23.9432C86.4711 23.9811 86.2306 24.0152 85.9957 24.0455C85.7647 24.072 85.5772 24.0947 85.4332 24.1136C85.0848 24.1591 84.759 24.233 84.456 24.3352C84.1567 24.4337 83.9143 24.5833 83.7287 24.7841C83.5469 24.9811 83.456 25.25 83.456 25.5909C83.456 26.0568 83.6283 26.4091 83.973 26.6477C84.3215 26.8826 84.7628 27 85.2969 27ZM96.2216 16.3636H97.9034L101.858 26.0227H101.994L105.949 16.3636H107.631V28H106.312V19.1591H106.199L102.562 28H101.29L97.6534 19.1591H97.5398V28H96.2216V16.3636ZM113.933 28.1818C113.092 28.1818 112.367 27.9962 111.757 27.625C111.151 27.25 110.683 26.7273 110.354 26.0568C110.028 25.3826 109.865 24.5985 109.865 23.7045C109.865 22.8106 110.028 22.0227 110.354 21.3409C110.683 20.6553 111.142 20.1212 111.729 19.7386C112.32 19.3523 113.009 19.1591 113.797 19.1591C114.251 19.1591 114.7 19.2348 115.143 19.3864C115.587 19.5379 115.99 19.7841 116.354 20.125C116.717 20.4621 117.007 20.9091 117.223 21.4659C117.439 22.0227 117.547 22.7083 117.547 23.5227V24.0909H110.82V22.9318H116.183C116.183 22.4394 116.085 22 115.888 21.6136C115.695 21.2273 115.418 20.9223 115.058 20.6989C114.702 20.4754 114.282 20.3636 113.797 20.3636C113.263 20.3636 112.801 20.4962 112.411 20.7614C112.024 21.0227 111.727 21.3636 111.518 21.7841C111.31 22.2045 111.206 22.6553 111.206 23.1364V23.9091C111.206 24.5682 111.32 25.1269 111.547 25.5852C111.778 26.0398 112.098 26.3864 112.507 26.625C112.916 26.8598 113.392 26.9773 113.933 26.9773C114.286 26.9773 114.604 26.928 114.888 26.8295C115.176 26.7273 115.424 26.5758 115.632 26.375C115.84 26.1705 116.001 25.9167 116.115 25.6136L117.411 25.9773C117.274 26.4167 117.045 26.803 116.723 27.1364C116.401 27.4659 116.003 27.7235 115.53 27.9091C115.056 28.0909 114.524 28.1818 113.933 28.1818ZM120.928 22.75V28H119.587V19.2727H120.882V20.6364H120.996C121.2 20.1932 121.511 19.8371 121.928 19.5682C122.344 19.2955 122.882 19.1591 123.541 19.1591C124.132 19.1591 124.649 19.2803 125.092 19.5227C125.536 19.7614 125.88 20.125 126.126 20.6136C126.373 21.0985 126.496 21.7121 126.496 22.4545V28H125.155V22.5455C125.155 21.8598 124.977 21.3258 124.621 20.9432C124.265 20.5568 123.776 20.3636 123.155 20.3636C122.727 20.3636 122.344 20.4564 122.007 20.642C121.674 20.8277 121.411 21.0985 121.217 21.4545C121.024 21.8106 120.928 22.2424 120.928 22.75ZM134.446 24.4318V19.2727H135.787V28H134.446V26.5227H134.355C134.151 26.9659 133.832 27.3428 133.401 27.6534C132.969 27.9602 132.423 28.1136 131.764 28.1136C131.219 28.1136 130.734 27.9943 130.31 27.7557C129.885 27.5133 129.552 27.1496 129.31 26.6648C129.067 26.1761 128.946 25.5606 128.946 24.8182V19.2727H130.287V24.7273C130.287 25.3636 130.465 25.8712 130.821 26.25C131.181 26.6288 131.639 26.8182 132.196 26.8182C132.529 26.8182 132.868 26.733 133.213 26.5625C133.562 26.392 133.853 26.1307 134.088 25.7784C134.327 25.4261 134.446 24.9773 134.446 24.4318Z" fill="white"/>
</svg>
