<svg width="113" height="44" viewBox="0 0 113 44" fill="none" xmlns="http://www.w3.org/2000/svg">
<rect width="113" height="44" rx="4" fill="white" fill-opacity="0.03"/>
<rect x="0.5" y="0.5" width="112" height="43" rx="3.5" stroke="#7763E5" stroke-opacity="0.1"/>
<path d="M20.5 20.5V22H19V29.5H29.5V28H31V29.5C30.9988 29.8975 30.8406 30.2785 30.5596 30.5596C30.2785 30.8406 29.8975 30.9988 29.5 31H19C18.6025 30.9988 18.2215 30.8406 17.9404 30.5596C17.6594 30.2785 17.5012 29.8975 17.5 29.5V22C17.5012 21.6025 17.6594 21.2215 17.9404 20.9404C18.2215 20.6594 18.6025 20.5012 19 20.5H20.5ZM37 13C37.3975 13.0012 37.7785 13.1594 38.0596 13.4404C38.3406 13.7215 38.4988 14.1025 38.5 14.5V25C38.4988 25.3975 38.3406 25.7785 38.0596 26.0596C37.7785 26.3406 37.3975 26.4988 37 26.5H23.5C23.1025 26.4988 22.7215 26.3406 22.4404 26.0596C22.1594 25.7785 22.0012 25.3975 22 25V14.5C22.0012 14.1025 22.1594 13.7215 22.4404 13.4404C22.7215 13.1594 23.1025 13.0012 23.5 13H37ZM23.5 14.5V25H37V14.5H23.5Z" fill="white"/>
<path d="M49.4091 28V16.3636H53.3409C54.2538 16.3636 55 16.5284 55.5795 16.858C56.1629 17.1837 56.5947 17.625 56.875 18.1818C57.1553 18.7386 57.2955 19.3598 57.2955 20.0455C57.2955 20.7311 57.1553 21.3542 56.875 21.9148C56.5985 22.4754 56.1705 22.9223 55.5909 23.2557C55.0114 23.5852 54.2689 23.75 53.3636 23.75H50.5455V22.5H53.3182C53.9432 22.5 54.4451 22.392 54.8239 22.1761C55.2027 21.9602 55.4773 21.6686 55.6477 21.3011C55.822 20.9299 55.9091 20.5114 55.9091 20.0455C55.9091 19.5795 55.822 19.1629 55.6477 18.7955C55.4773 18.428 55.2008 18.1402 54.8182 17.9318C54.4356 17.7197 53.928 17.6136 53.2955 17.6136H50.8182V28H49.4091ZM62.8352 28.1818C62.0473 28.1818 61.3561 27.9943 60.7614 27.6193C60.1705 27.2443 59.7083 26.7197 59.375 26.0455C59.0455 25.3712 58.8807 24.5833 58.8807 23.6818C58.8807 22.7727 59.0455 21.9792 59.375 21.3011C59.7083 20.6231 60.1705 20.0966 60.7614 19.7216C61.3561 19.3466 62.0473 19.1591 62.8352 19.1591C63.6231 19.1591 64.3125 19.3466 64.9034 19.7216C65.4981 20.0966 65.9602 20.6231 66.2898 21.3011C66.6231 21.9792 66.7898 22.7727 66.7898 23.6818C66.7898 24.5833 66.6231 25.3712 66.2898 26.0455C65.9602 26.7197 65.4981 27.2443 64.9034 27.6193C64.3125 27.9943 63.6231 28.1818 62.8352 28.1818ZM62.8352 26.9773C63.4337 26.9773 63.9261 26.8239 64.3125 26.517C64.6989 26.2102 64.9848 25.8068 65.1705 25.3068C65.3561 24.8068 65.4489 24.2652 65.4489 23.6818C65.4489 23.0985 65.3561 22.5549 65.1705 22.0511C64.9848 21.5473 64.6989 21.1402 64.3125 20.8295C63.9261 20.5189 63.4337 20.3636 62.8352 20.3636C62.2367 20.3636 61.7443 20.5189 61.358 20.8295C60.9716 21.1402 60.6856 21.5473 60.5 22.0511C60.3144 22.5549 60.2216 23.0985 60.2216 23.6818C60.2216 24.2652 60.3144 24.8068 60.5 25.3068C60.6856 25.8068 60.9716 26.2102 61.358 26.517C61.7443 26.8239 62.2367 26.9773 62.8352 26.9773ZM68.8366 31.2727V19.2727H70.1321V20.6591H70.2912C70.3897 20.5076 70.526 20.3144 70.7003 20.0795C70.8783 19.8409 71.1321 19.6288 71.4616 19.4432C71.795 19.2538 72.2457 19.1591 72.8139 19.1591C73.5488 19.1591 74.1965 19.3428 74.7571 19.7102C75.3177 20.0777 75.7552 20.5985 76.0696 21.2727C76.384 21.947 76.5412 22.7424 76.5412 23.6591C76.5412 24.5833 76.384 25.3845 76.0696 26.0625C75.7552 26.7367 75.3196 27.2595 74.7628 27.6307C74.206 27.9981 73.5639 28.1818 72.8366 28.1818C72.276 28.1818 71.8272 28.089 71.4901 27.9034C71.1529 27.714 70.8935 27.5 70.7116 27.2614C70.5298 27.0189 70.3897 26.8182 70.2912 26.6591H70.1776V31.2727H68.8366ZM70.1548 23.6364C70.1548 24.2955 70.2514 24.8769 70.4446 25.3807C70.6378 25.8807 70.92 26.2727 71.2912 26.5568C71.6624 26.8371 72.117 26.9773 72.6548 26.9773C73.2154 26.9773 73.6832 26.8295 74.0582 26.5341C74.437 26.2348 74.7211 25.8333 74.9105 25.3295C75.1037 24.822 75.2003 24.2576 75.2003 23.6364C75.2003 23.0227 75.1056 22.4697 74.9162 21.9773C74.7306 21.4811 74.4484 21.089 74.0696 20.8011C73.6946 20.5095 73.223 20.3636 72.6548 20.3636C72.1094 20.3636 71.651 20.5019 71.2798 20.7784C70.9086 21.0511 70.6283 21.4337 70.4389 21.9261C70.2495 22.4148 70.1548 22.9848 70.1548 23.6364ZM84.0866 24.4318V19.2727H85.4276V28H84.0866V26.5227H83.9957C83.7912 26.9659 83.473 27.3428 83.0412 27.6534C82.6094 27.9602 82.0639 28.1136 81.4048 28.1136C80.8594 28.1136 80.3745 27.9943 79.9503 27.7557C79.526 27.5133 79.1927 27.1496 78.9503 26.6648C78.7079 26.1761 78.5866 25.5606 78.5866 24.8182V19.2727H79.9276V24.7273C79.9276 25.3636 80.1056 25.8712 80.4616 26.25C80.8215 26.6288 81.2798 26.8182 81.8366 26.8182C82.17 26.8182 82.509 26.733 82.8537 26.5625C83.2022 26.392 83.4938 26.1307 83.7287 25.7784C83.9673 25.4261 84.0866 24.9773 84.0866 24.4318ZM87.8835 31.2727V19.2727H89.179V20.6591H89.3381C89.4366 20.5076 89.5729 20.3144 89.7472 20.0795C89.9252 19.8409 90.179 19.6288 90.5085 19.4432C90.8419 19.2538 91.2926 19.1591 91.8608 19.1591C92.5956 19.1591 93.2434 19.3428 93.804 19.7102C94.3646 20.0777 94.8021 20.5985 95.1165 21.2727C95.4309 21.947 95.5881 22.7424 95.5881 23.6591C95.5881 24.5833 95.4309 25.3845 95.1165 26.0625C94.8021 26.7367 94.3665 27.2595 93.8097 27.6307C93.2528 27.9981 92.6108 28.1818 91.8835 28.1818C91.3229 28.1818 90.8741 28.089 90.5369 27.9034C90.1998 27.714 89.9403 27.5 89.7585 27.2614C89.5767 27.0189 89.4366 26.8182 89.3381 26.6591H89.2244V31.2727H87.8835ZM89.2017 23.6364C89.2017 24.2955 89.2983 24.8769 89.4915 25.3807C89.6847 25.8807 89.9669 26.2727 90.3381 26.5568C90.7093 26.8371 91.1638 26.9773 91.7017 26.9773C92.2623 26.9773 92.7301 26.8295 93.1051 26.5341C93.4839 26.2348 93.768 25.8333 93.9574 25.3295C94.1506 24.822 94.2472 24.2576 94.2472 23.6364C94.2472 23.0227 94.1525 22.4697 93.9631 21.9773C93.7775 21.4811 93.4953 21.089 93.1165 20.8011C92.7415 20.5095 92.2699 20.3636 91.7017 20.3636C91.1563 20.3636 90.6979 20.5019 90.3267 20.7784C89.9555 21.0511 89.6752 21.4337 89.4858 21.9261C89.2964 22.4148 89.2017 22.9848 89.2017 23.6364Z" fill="white"/>
</svg>
