<svg width="179" height="44" viewBox="0 0 179 44" fill="none" xmlns="http://www.w3.org/2000/svg">
<rect width="179" height="44" rx="4" fill="white" fill-opacity="0.03"/>
<rect x="0.5" y="0.5" width="178" height="43" rx="3.5" stroke="#7763E5" stroke-opacity="0.1"/>
<path d="M32.5 14.5C32.8978 14.5 33.2792 14.6581 33.5605 14.9395C33.8419 15.2208 34 15.6022 34 16V28C34 28.3978 33.8419 28.7792 33.5605 29.0605C33.2792 29.3419 32.8978 29.5 32.5 29.5H23.5C23.1022 29.5 22.7208 29.3419 22.4395 29.0605C22.1581 28.7792 22 28.3978 22 28V16C22 15.6022 22.1581 15.2208 22.4395 14.9395C22.7208 14.6581 23.1022 14.5 23.5 14.5H32.5ZM19 16C19.3978 16 19.7792 16.1581 20.0605 16.4395C20.3419 16.7208 20.5 17.1022 20.5 17.5V26.5C20.5 26.8978 20.3419 27.2792 20.0605 27.5605C19.7792 27.8419 19.3978 28 19 28H16V26.5H19V17.5H16V16H19ZM23.5 28H32.5V16H23.5V28ZM40 17.5H37V26.5H40V28H37C36.6022 28 36.2208 27.8419 35.9395 27.5605C35.6581 27.2792 35.5 26.8978 35.5 26.5V17.5C35.5 17.1022 35.6581 16.7208 35.9395 16.4395C36.2208 16.1581 36.6022 16 37 16H40V17.5Z" fill="white"/>
<path d="M55.7727 19.2727C55.7045 18.697 55.428 18.25 54.9432 17.9318C54.4583 17.6136 53.8636 17.4545 53.1591 17.4545C52.6439 17.4545 52.1932 17.5379 51.8068 17.7045C51.4242 17.8712 51.125 18.1004 50.9091 18.392C50.697 18.6837 50.5909 19.0152 50.5909 19.3864C50.5909 19.697 50.6648 19.964 50.8125 20.1875C50.964 20.4072 51.1572 20.5909 51.392 20.7386C51.6269 20.8826 51.8731 21.0019 52.1307 21.0966C52.3883 21.1875 52.625 21.2614 52.8409 21.3182L54.0227 21.6364C54.3258 21.7159 54.6629 21.8258 55.0341 21.9659C55.4091 22.1061 55.767 22.2973 56.108 22.5398C56.4527 22.7784 56.7367 23.0852 56.9602 23.4602C57.1837 23.8352 57.2955 24.2955 57.2955 24.8409C57.2955 25.4697 57.1307 26.0379 56.8011 26.5455C56.4754 27.053 55.9981 27.4564 55.3693 27.7557C54.7443 28.0549 53.9848 28.2045 53.0909 28.2045C52.2576 28.2045 51.536 28.0701 50.9261 27.8011C50.3201 27.5322 49.8428 27.1572 49.4943 26.6761C49.1496 26.1951 48.9545 25.6364 48.9091 25H50.3636C50.4015 25.4394 50.5492 25.803 50.8068 26.0909C51.0682 26.375 51.3977 26.5871 51.7955 26.7273C52.197 26.8636 52.6288 26.9318 53.0909 26.9318C53.6288 26.9318 54.1117 26.8447 54.5398 26.6705C54.9678 26.4924 55.3068 26.2462 55.5568 25.9318C55.8068 25.6136 55.9318 25.2424 55.9318 24.8182C55.9318 24.4318 55.8239 24.1174 55.608 23.875C55.392 23.6326 55.108 23.4356 54.7557 23.2841C54.4034 23.1326 54.0227 23 53.6136 22.8864L52.1818 22.4773C51.2727 22.2159 50.553 21.8428 50.0227 21.358C49.4924 20.8731 49.2273 20.2386 49.2273 19.4545C49.2273 18.803 49.4034 18.2348 49.7557 17.75C50.1117 17.2614 50.589 16.8826 51.1875 16.6136C51.7898 16.3409 52.4621 16.2045 53.2045 16.2045C53.9545 16.2045 54.6212 16.339 55.2045 16.608C55.7879 16.8731 56.25 17.2367 56.5909 17.6989C56.9356 18.161 57.1174 18.6856 57.1364 19.2727H55.7727ZM60.7713 16.3636V28H59.4304V16.3636H60.7713ZM63.2273 28V19.2727H64.5682V28H63.2273ZM63.9091 17.8182C63.6477 17.8182 63.4223 17.7292 63.233 17.5511C63.0473 17.3731 62.9545 17.1591 62.9545 16.9091C62.9545 16.6591 63.0473 16.4451 63.233 16.267C63.4223 16.089 63.6477 16 63.9091 16C64.1705 16 64.3939 16.089 64.5795 16.267C64.7689 16.4451 64.8636 16.6591 64.8636 16.9091C64.8636 17.1591 64.7689 17.3731 64.5795 17.5511C64.3939 17.7292 64.1705 17.8182 63.9091 17.8182ZM70.3196 28.1818C69.5923 28.1818 68.9503 27.9981 68.3935 27.6307C67.8366 27.2595 67.401 26.7367 67.0866 26.0625C66.7723 25.3845 66.6151 24.5833 66.6151 23.6591C66.6151 22.7424 66.7723 21.947 67.0866 21.2727C67.401 20.5985 67.8385 20.0777 68.3991 19.7102C68.9598 19.3428 69.6075 19.1591 70.3423 19.1591C70.9105 19.1591 71.3594 19.2538 71.6889 19.4432C72.0223 19.6288 72.276 19.8409 72.4503 20.0795C72.6283 20.3144 72.7666 20.5076 72.8651 20.6591H72.9787V16.3636H74.3196V28H73.0241V26.6591H72.8651C72.7666 26.8182 72.6264 27.0189 72.4446 27.2614C72.2628 27.5 72.0033 27.714 71.6662 27.9034C71.3291 28.089 70.8802 28.1818 70.3196 28.1818ZM70.5014 26.9773C71.0393 26.9773 71.4938 26.8371 71.8651 26.5568C72.2363 26.2727 72.5185 25.8807 72.7116 25.3807C72.9048 24.8769 73.0014 24.2955 73.0014 23.6364C73.0014 22.9848 72.9067 22.4148 72.7173 21.9261C72.5279 21.4337 72.2476 21.0511 71.8764 20.7784C71.5052 20.5019 71.0469 20.3636 70.5014 20.3636C69.9332 20.3636 69.4598 20.5095 69.081 20.8011C68.706 21.089 68.4238 21.4811 68.2344 21.9773C68.0488 22.4697 67.956 23.0227 67.956 23.6364C67.956 24.2576 68.0507 24.822 68.2401 25.3295C68.4332 25.8333 68.7173 26.2348 69.0923 26.5341C69.4711 26.8295 69.9408 26.9773 70.5014 26.9773ZM80.6207 28.1818C79.7798 28.1818 79.0545 27.9962 78.4446 27.625C77.8385 27.25 77.3707 26.7273 77.0412 26.0568C76.7154 25.3826 76.5526 24.5985 76.5526 23.7045C76.5526 22.8106 76.7154 22.0227 77.0412 21.3409C77.3707 20.6553 77.8291 20.1212 78.4162 19.7386C79.0071 19.3523 79.6965 19.1591 80.4844 19.1591C80.9389 19.1591 81.3878 19.2348 81.831 19.3864C82.2741 19.5379 82.6776 19.7841 83.0412 20.125C83.4048 20.4621 83.6946 20.9091 83.9105 21.4659C84.1264 22.0227 84.2344 22.7083 84.2344 23.5227V24.0909H77.5071V22.9318H82.8707C82.8707 22.4394 82.7723 22 82.5753 21.6136C82.3821 21.2273 82.1056 20.9223 81.7457 20.6989C81.3897 20.4754 80.9692 20.3636 80.4844 20.3636C79.9503 20.3636 79.4882 20.4962 79.098 20.7614C78.7116 21.0227 78.4143 21.3636 78.206 21.7841C77.9976 22.2045 77.8935 22.6553 77.8935 23.1364V23.9091C77.8935 24.5682 78.0071 25.1269 78.2344 25.5852C78.4654 26.0398 78.7855 26.3864 79.1946 26.625C79.6037 26.8598 80.0791 26.9773 80.6207 26.9773C80.973 26.9773 81.2912 26.928 81.5753 26.8295C81.8632 26.7273 82.1113 26.5758 82.3196 26.375C82.5279 26.1705 82.6889 25.9167 82.8026 25.6136L84.098 25.9773C83.9616 26.4167 83.7325 26.803 83.4105 27.1364C83.0885 27.4659 82.6908 27.7235 82.2173 27.9091C81.7438 28.0909 81.2116 28.1818 80.6207 28.1818ZM86.2741 28V19.2727H87.5696V20.5909H87.6605C87.8196 20.1591 88.1075 19.8087 88.5241 19.5398C88.9408 19.2708 89.4105 19.1364 89.9332 19.1364C90.0317 19.1364 90.1548 19.1383 90.3026 19.142C90.4503 19.1458 90.562 19.1515 90.6378 19.1591V20.5227C90.5923 20.5114 90.4882 20.4943 90.3253 20.4716C90.1662 20.4451 89.9976 20.4318 89.8196 20.4318C89.3954 20.4318 89.0166 20.5208 88.6832 20.6989C88.3537 20.8731 88.0923 21.1155 87.8991 21.4261C87.7098 21.733 87.6151 22.0833 87.6151 22.4773V28H86.2741ZM106.273 20H104.864C104.78 19.5947 104.634 19.2386 104.426 18.9318C104.222 18.625 103.972 18.3674 103.676 18.1591C103.384 17.947 103.061 17.7879 102.705 17.6818C102.348 17.5758 101.977 17.5227 101.591 17.5227C100.886 17.5227 100.248 17.7008 99.6761 18.0568C99.108 18.4129 98.6553 18.9375 98.3182 19.6307C97.9848 20.3239 97.8182 21.1742 97.8182 22.1818C97.8182 23.1894 97.9848 24.0398 98.3182 24.733C98.6553 25.4261 99.108 25.9508 99.6761 26.3068C100.248 26.6629 100.886 26.8409 101.591 26.8409C101.977 26.8409 102.348 26.7879 102.705 26.6818C103.061 26.5758 103.384 26.4186 103.676 26.2102C103.972 25.9981 104.222 25.7386 104.426 25.4318C104.634 25.1212 104.78 24.7652 104.864 24.3636H106.273C106.167 24.9583 105.973 25.4905 105.693 25.9602C105.413 26.4299 105.064 26.8295 104.648 27.1591C104.231 27.4848 103.763 27.733 103.244 27.9034C102.729 28.0739 102.178 28.1591 101.591 28.1591C100.598 28.1591 99.7159 27.9167 98.9432 27.4318C98.1705 26.947 97.5625 26.2576 97.1193 25.3636C96.6761 24.4697 96.4545 23.4091 96.4545 22.1818C96.4545 20.9545 96.6761 19.8939 97.1193 19C97.5625 18.1061 98.1705 17.4167 98.9432 16.9318C99.7159 16.447 100.598 16.2045 101.591 16.2045C102.178 16.2045 102.729 16.2898 103.244 16.4602C103.763 16.6307 104.231 16.8807 104.648 17.2102C105.064 17.536 105.413 17.9337 105.693 18.4034C105.973 18.8693 106.167 19.4015 106.273 20ZM110.936 28.2045C110.383 28.2045 109.881 28.1004 109.43 27.892C108.98 27.6799 108.622 27.375 108.357 26.9773C108.091 26.5758 107.959 26.0909 107.959 25.5227C107.959 25.0227 108.057 24.6174 108.254 24.3068C108.451 23.9924 108.714 23.7462 109.044 23.5682C109.374 23.3902 109.737 23.2576 110.135 23.1705C110.536 23.0795 110.94 23.0076 111.345 22.9545C111.875 22.8864 112.305 22.8352 112.635 22.8011C112.968 22.7633 113.211 22.7008 113.362 22.6136C113.518 22.5265 113.595 22.375 113.595 22.1591V22.1136C113.595 21.553 113.442 21.1174 113.135 20.8068C112.832 20.4962 112.372 20.3409 111.754 20.3409C111.114 20.3409 110.612 20.4811 110.249 20.7614C109.885 21.0417 109.629 21.3409 109.482 21.6591L108.209 21.2045C108.436 20.6742 108.739 20.2614 109.118 19.9659C109.5 19.6667 109.917 19.4583 110.368 19.3409C110.822 19.2197 111.269 19.1591 111.709 19.1591C111.989 19.1591 112.311 19.1932 112.675 19.2614C113.042 19.3258 113.396 19.4602 113.737 19.6648C114.082 19.8693 114.368 20.178 114.595 20.5909C114.822 21.0038 114.936 21.5568 114.936 22.25V28H113.595V26.8182H113.527C113.436 27.0076 113.285 27.2102 113.072 27.4261C112.86 27.642 112.578 27.8258 112.226 27.9773C111.874 28.1288 111.444 28.2045 110.936 28.2045ZM111.141 27C111.671 27 112.118 26.8958 112.482 26.6875C112.849 26.4792 113.125 26.2102 113.311 25.8807C113.5 25.5511 113.595 25.2045 113.595 24.8409V23.6136C113.538 23.6818 113.413 23.7443 113.22 23.8011C113.031 23.8542 112.811 23.9015 112.561 23.9432C112.315 23.9811 112.074 24.0152 111.839 24.0455C111.608 24.072 111.421 24.0947 111.277 24.1136C110.929 24.1591 110.603 24.233 110.3 24.3352C110 24.4337 109.758 24.5833 109.572 24.7841C109.391 24.9811 109.3 25.25 109.3 25.5909C109.3 26.0568 109.472 26.4091 109.817 26.6477C110.165 26.8826 110.607 27 111.141 27ZM117.384 28V19.2727H118.679V20.5909H118.77C118.929 20.1591 119.217 19.8087 119.634 19.5398C120.05 19.2708 120.52 19.1364 121.043 19.1364C121.141 19.1364 121.264 19.1383 121.412 19.142C121.56 19.1458 121.671 19.1515 121.747 19.1591V20.5227C121.702 20.5114 121.598 20.4943 121.435 20.4716C121.276 20.4451 121.107 20.4318 120.929 20.4318C120.505 20.4318 120.126 20.5208 119.793 20.6989C119.463 20.8731 119.202 21.1155 119.009 21.4261C118.819 21.733 118.724 22.0833 118.724 22.4773V28H117.384ZM126.616 28.1818C125.829 28.1818 125.137 27.9943 124.543 27.6193C123.952 27.2443 123.49 26.7197 123.156 26.0455C122.827 25.3712 122.662 24.5833 122.662 23.6818C122.662 22.7727 122.827 21.9792 123.156 21.3011C123.49 20.6231 123.952 20.0966 124.543 19.7216C125.137 19.3466 125.829 19.1591 126.616 19.1591C127.404 19.1591 128.094 19.3466 128.685 19.7216C129.279 20.0966 129.741 20.6231 130.071 21.3011C130.404 21.9792 130.571 22.7727 130.571 23.6818C130.571 24.5833 130.404 25.3712 130.071 26.0455C129.741 26.7197 129.279 27.2443 128.685 27.6193C128.094 27.9943 127.404 28.1818 126.616 28.1818ZM126.616 26.9773C127.215 26.9773 127.707 26.8239 128.094 26.517C128.48 26.2102 128.766 25.8068 128.952 25.3068C129.137 24.8068 129.23 24.2652 129.23 23.6818C129.23 23.0985 129.137 22.5549 128.952 22.0511C128.766 21.5473 128.48 21.1402 128.094 20.8295C127.707 20.5189 127.215 20.3636 126.616 20.3636C126.018 20.3636 125.526 20.5189 125.139 20.8295C124.753 21.1402 124.467 21.5473 124.281 22.0511C124.096 22.5549 124.003 23.0985 124.003 23.6818C124.003 24.2652 124.096 24.8068 124.281 25.3068C124.467 25.8068 124.753 26.2102 125.139 26.517C125.526 26.8239 126.018 26.9773 126.616 26.9773ZM138.118 24.4318V19.2727H139.459V28H138.118V26.5227H138.027C137.822 26.9659 137.504 27.3428 137.072 27.6534C136.641 27.9602 136.095 28.1136 135.436 28.1136C134.891 28.1136 134.406 27.9943 133.982 27.7557C133.557 27.5133 133.224 27.1496 132.982 26.6648C132.739 26.1761 132.618 25.5606 132.618 24.8182V19.2727H133.959V24.7273C133.959 25.3636 134.137 25.8712 134.493 26.25C134.853 26.6288 135.311 26.8182 135.868 26.8182C136.201 26.8182 136.54 26.733 136.885 26.5625C137.233 26.392 137.525 26.1307 137.76 25.7784C137.999 25.4261 138.118 24.9773 138.118 24.4318ZM148.097 21.2273L146.892 21.5682C146.816 21.3674 146.705 21.1723 146.557 20.983C146.413 20.7898 146.216 20.6307 145.966 20.5057C145.716 20.3807 145.396 20.3182 145.006 20.3182C144.472 20.3182 144.027 20.4413 143.67 20.6875C143.318 20.9299 143.142 21.2386 143.142 21.6136C143.142 21.947 143.263 22.2102 143.506 22.4034C143.748 22.5966 144.127 22.7576 144.642 22.8864L145.938 23.2045C146.718 23.3939 147.299 23.6837 147.682 24.0739C148.064 24.4602 148.256 24.9583 148.256 25.5682C148.256 26.0682 148.112 26.5152 147.824 26.9091C147.54 27.303 147.142 27.6136 146.631 27.8409C146.119 28.0682 145.525 28.1818 144.847 28.1818C143.956 28.1818 143.22 27.9886 142.636 27.6023C142.053 27.2159 141.684 26.6515 141.528 25.9091L142.801 25.5909C142.922 26.0606 143.152 26.4129 143.489 26.6477C143.83 26.8826 144.275 27 144.824 27C145.449 27 145.945 26.8674 146.312 26.6023C146.684 26.3333 146.869 26.0114 146.869 25.6364C146.869 25.3333 146.763 25.0795 146.551 24.875C146.339 24.6667 146.013 24.5114 145.574 24.4091L144.119 24.0682C143.32 23.8788 142.733 23.5852 142.358 23.1875C141.987 22.786 141.801 22.2841 141.801 21.6818C141.801 21.1894 141.939 20.7538 142.216 20.375C142.496 19.9962 142.877 19.6989 143.358 19.483C143.843 19.267 144.392 19.1591 145.006 19.1591C145.869 19.1591 146.547 19.3485 147.04 19.7273C147.536 20.1061 147.888 20.6061 148.097 21.2273ZM153.933 28.1818C153.092 28.1818 152.367 27.9962 151.757 27.625C151.151 27.25 150.683 26.7273 150.354 26.0568C150.028 25.3826 149.865 24.5985 149.865 23.7045C149.865 22.8106 150.028 22.0227 150.354 21.3409C150.683 20.6553 151.142 20.1212 151.729 19.7386C152.32 19.3523 153.009 19.1591 153.797 19.1591C154.251 19.1591 154.7 19.2348 155.143 19.3864C155.587 19.5379 155.99 19.7841 156.354 20.125C156.717 20.4621 157.007 20.9091 157.223 21.4659C157.439 22.0227 157.547 22.7083 157.547 23.5227V24.0909H150.82V22.9318H156.183C156.183 22.4394 156.085 22 155.888 21.6136C155.695 21.2273 155.418 20.9223 155.058 20.6989C154.702 20.4754 154.282 20.3636 153.797 20.3636C153.263 20.3636 152.801 20.4962 152.411 20.7614C152.024 21.0227 151.727 21.3636 151.518 21.7841C151.31 22.2045 151.206 22.6553 151.206 23.1364V23.9091C151.206 24.5682 151.32 25.1269 151.547 25.5852C151.778 26.0398 152.098 26.3864 152.507 26.625C152.916 26.8598 153.392 26.9773 153.933 26.9773C154.286 26.9773 154.604 26.928 154.888 26.8295C155.176 26.7273 155.424 26.5758 155.632 26.375C155.84 26.1705 156.001 25.9167 156.115 25.6136L157.411 25.9773C157.274 26.4167 157.045 26.803 156.723 27.1364C156.401 27.4659 156.003 27.7235 155.53 27.9091C155.056 28.0909 154.524 28.1818 153.933 28.1818ZM160.928 16.3636V28H159.587V16.3636H160.928Z" fill="white"/>
</svg>
