<svg width="101" height="44" viewBox="0 0 101 44" fill="none" xmlns="http://www.w3.org/2000/svg">
<rect width="101" height="44" rx="4" fill="white" fill-opacity="0.03"/>
<rect x="0.5" y="0.5" width="100" height="43" rx="3.5" stroke="#7763E5" stroke-opacity="0.1"/>
<path d="M31.1572 28.2549L32.5 27.3555C33.2797 26.833 33.942 26.1532 34.4443 25.3604C34.9467 24.5674 35.2786 23.6782 35.418 22.75H31C30.6022 22.75 30.2208 22.5919 29.9395 22.3105C29.6581 22.0292 29.5 21.6478 29.5 21.25V16.75C29.5 16.3522 29.6581 15.9708 29.9395 15.6895C30.2208 15.4081 30.6022 15.25 31 15.25H35.5C35.8978 15.25 36.2792 15.4081 36.5605 15.6895C36.8419 15.9708 37 16.3522 37 16.75V21.7373C36.9995 23.0953 36.6635 24.4328 36.0225 25.6299C35.3814 26.8267 34.4549 27.8467 33.3252 28.5996L31.9824 29.5L31.1572 28.2549ZM20.6572 28.2549L22 27.3555C22.7797 26.833 23.442 26.1532 23.9443 25.3604C24.4467 24.5674 24.7786 23.6782 24.918 22.75H20.5C20.1022 22.75 19.7208 22.5919 19.4395 22.3105C19.1581 22.0292 19 21.6478 19 21.25V16.75C19 16.3522 19.1581 15.9708 19.4395 15.6895C19.7208 15.4081 20.1022 15.25 20.5 15.25H25C25.3978 15.25 25.7792 15.4081 26.0605 15.6895C26.3419 15.9708 26.5 16.3522 26.5 16.75V21.7373C26.4995 23.0953 26.1635 24.4328 25.5225 25.6299C24.8814 26.8267 23.9549 27.8467 22.8252 28.5996L21.4746 29.5L20.6572 28.2549Z" fill="white"/>
<path d="M58.7727 20H57.3636C57.2803 19.5947 57.1345 19.2386 56.9261 18.9318C56.7216 18.625 56.4716 18.3674 56.1761 18.1591C55.8845 17.947 55.5606 17.7879 55.2045 17.6818C54.8485 17.5758 54.4773 17.5227 54.0909 17.5227C53.3864 17.5227 52.7481 17.7008 52.1761 18.0568C51.608 18.4129 51.1553 18.9375 50.8182 19.6307C50.4848 20.3239 50.3182 21.1742 50.3182 22.1818C50.3182 23.1894 50.4848 24.0398 50.8182 24.733C51.1553 25.4261 51.608 25.9508 52.1761 26.3068C52.7481 26.6629 53.3864 26.8409 54.0909 26.8409C54.4773 26.8409 54.8485 26.7879 55.2045 26.6818C55.5606 26.5758 55.8845 26.4186 56.1761 26.2102C56.4716 25.9981 56.7216 25.7386 56.9261 25.4318C57.1345 25.1212 57.2803 24.7652 57.3636 24.3636H58.7727C58.6667 24.9583 58.4735 25.4905 58.1932 25.9602C57.9129 26.4299 57.5644 26.8295 57.1477 27.1591C56.7311 27.4848 56.2633 27.733 55.7443 27.9034C55.2292 28.0739 54.678 28.1591 54.0909 28.1591C53.0985 28.1591 52.2159 27.9167 51.4432 27.4318C50.6705 26.947 50.0625 26.2576 49.6193 25.3636C49.1761 24.4697 48.9545 23.4091 48.9545 22.1818C48.9545 20.9545 49.1761 19.8939 49.6193 19C50.0625 18.1061 50.6705 17.4167 51.4432 16.9318C52.2159 16.447 53.0985 16.2045 54.0909 16.2045C54.678 16.2045 55.2292 16.2898 55.7443 16.4602C56.2633 16.6307 56.7311 16.8807 57.1477 17.2102C57.5644 17.536 57.9129 17.9337 58.1932 18.4034C58.4735 18.8693 58.6667 19.4015 58.7727 20ZM63.4361 28.2045C62.883 28.2045 62.3812 28.1004 61.9304 27.892C61.4796 27.6799 61.1217 27.375 60.8565 26.9773C60.5914 26.5758 60.4588 26.0909 60.4588 25.5227C60.4588 25.0227 60.5573 24.6174 60.7543 24.3068C60.9512 23.9924 61.2145 23.7462 61.544 23.5682C61.8736 23.3902 62.2372 23.2576 62.6349 23.1705C63.0365 23.0795 63.4399 23.0076 63.8452 22.9545C64.3755 22.8864 64.8054 22.8352 65.1349 22.8011C65.4683 22.7633 65.7107 22.7008 65.8622 22.6136C66.0175 22.5265 66.0952 22.375 66.0952 22.1591V22.1136C66.0952 21.553 65.9418 21.1174 65.6349 20.8068C65.3319 20.4962 64.8717 20.3409 64.2543 20.3409C63.6141 20.3409 63.1122 20.4811 62.7486 20.7614C62.3849 21.0417 62.1293 21.3409 61.9815 21.6591L60.7088 21.2045C60.9361 20.6742 61.2391 20.2614 61.6179 19.9659C62.0005 19.6667 62.4171 19.4583 62.8679 19.3409C63.3224 19.2197 63.7694 19.1591 64.2088 19.1591C64.4891 19.1591 64.8111 19.1932 65.1747 19.2614C65.5421 19.3258 65.8963 19.4602 66.2372 19.6648C66.5819 19.8693 66.8679 20.178 67.0952 20.5909C67.3224 21.0038 67.4361 21.5568 67.4361 22.25V28H66.0952V26.8182H66.027C65.9361 27.0076 65.7846 27.2102 65.5724 27.4261C65.3603 27.642 65.0781 27.8258 64.7259 27.9773C64.3736 28.1288 63.9437 28.2045 63.4361 28.2045ZM63.6406 27C64.1709 27 64.6179 26.8958 64.9815 26.6875C65.349 26.4792 65.6255 26.2102 65.8111 25.8807C66.0005 25.5511 66.0952 25.2045 66.0952 24.8409V23.6136C66.0384 23.6818 65.9134 23.7443 65.7202 23.8011C65.5308 23.8542 65.3111 23.9015 65.0611 23.9432C64.8149 23.9811 64.5743 24.0152 64.3395 24.0455C64.1084 24.072 63.9209 24.0947 63.777 24.1136C63.4285 24.1591 63.1027 24.233 62.7997 24.3352C62.5005 24.4337 62.258 24.5833 62.0724 24.7841C61.8906 24.9811 61.7997 25.25 61.7997 25.5909C61.7997 26.0568 61.9721 26.4091 62.3168 26.6477C62.6652 26.8826 63.1065 27 63.6406 27ZM69.8835 28V19.2727H71.179V20.5909H71.2699C71.429 20.1591 71.7169 19.8087 72.1335 19.5398C72.5502 19.2708 73.0199 19.1364 73.5426 19.1364C73.6411 19.1364 73.7642 19.1383 73.9119 19.142C74.0597 19.1458 74.1714 19.1515 74.2472 19.1591V20.5227C74.2017 20.5114 74.0975 20.4943 73.9347 20.4716C73.7756 20.4451 73.607 20.4318 73.429 20.4318C73.0047 20.4318 72.6259 20.5208 72.2926 20.6989C71.9631 20.8731 71.7017 21.1155 71.5085 21.4261C71.3191 21.733 71.2244 22.0833 71.2244 22.4773V28H69.8835ZM78.8665 28.1818C78.1392 28.1818 77.4972 27.9981 76.9403 27.6307C76.3835 27.2595 75.9479 26.7367 75.6335 26.0625C75.3191 25.3845 75.1619 24.5833 75.1619 23.6591C75.1619 22.7424 75.3191 21.947 75.6335 21.2727C75.9479 20.5985 76.3854 20.0777 76.946 19.7102C77.5066 19.3428 78.1544 19.1591 78.8892 19.1591C79.4574 19.1591 79.9063 19.2538 80.2358 19.4432C80.5691 19.6288 80.8229 19.8409 80.9972 20.0795C81.1752 20.3144 81.3134 20.5076 81.4119 20.6591H81.5256V16.3636H82.8665V28H81.571V26.6591H81.4119C81.3134 26.8182 81.1733 27.0189 80.9915 27.2614C80.8097 27.5 80.5502 27.714 80.2131 27.9034C79.8759 28.089 79.4271 28.1818 78.8665 28.1818ZM79.0483 26.9773C79.5862 26.9773 80.0407 26.8371 80.4119 26.5568C80.7831 26.2727 81.0653 25.8807 81.2585 25.3807C81.4517 24.8769 81.5483 24.2955 81.5483 23.6364C81.5483 22.9848 81.4536 22.4148 81.2642 21.9261C81.0748 21.4337 80.7945 21.0511 80.4233 20.7784C80.0521 20.5019 79.5938 20.3636 79.0483 20.3636C78.4801 20.3636 78.0066 20.5095 77.6278 20.8011C77.2528 21.089 76.9706 21.4811 76.7812 21.9773C76.5956 22.4697 76.5028 23.0227 76.5028 23.6364C76.5028 24.2576 76.5975 24.822 76.7869 25.3295C76.9801 25.8333 77.2642 26.2348 77.6392 26.5341C78.018 26.8295 78.4877 26.9773 79.0483 26.9773Z" fill="white"/>
</svg>
