<svg width="462" height="462" viewBox="0 0 462 462" fill="none" xmlns="http://www.w3.org/2000/svg">
<g filter="url(#filter0_f_1_876)">
<circle cx="231" cy="231" r="131" fill="#1F242E" fill-opacity="0.3"/>
</g>
<circle cx="231" cy="231" r="131" fill="#87AB42"/>
<path d="M183.712 265V250.24H189.812C190.279 250.24 190.752 250.3 191.232 250.42C191.712 250.527 192.152 250.747 192.552 251.08C192.965 251.413 193.292 251.907 193.532 252.56C193.785 253.213 193.912 254.087 193.912 255.18C193.912 256.273 193.785 257.153 193.532 257.82C193.279 258.487 192.945 259 192.532 259.36C192.132 259.707 191.692 259.947 191.212 260.08C190.745 260.2 190.292 260.26 189.852 260.26C189.625 260.26 189.339 260.253 188.992 260.24C188.659 260.213 188.305 260.187 187.932 260.16C187.572 260.12 187.232 260.087 186.912 260.06C186.605 260.02 186.359 259.987 186.172 259.96V265H183.712ZM186.172 258.02H189.492C189.879 258.02 190.219 257.933 190.512 257.76C190.805 257.573 191.032 257.28 191.192 256.88C191.352 256.467 191.432 255.907 191.432 255.2C191.432 254.507 191.345 253.96 191.172 253.56C191.012 253.16 190.792 252.88 190.512 252.72C190.245 252.547 189.932 252.46 189.572 252.46H186.172V258.02ZM195.897 265V254.28H197.817L198.377 256C198.803 255.48 199.277 255.04 199.797 254.68C200.317 254.32 200.937 254.14 201.657 254.14C201.803 254.14 201.957 254.153 202.117 254.18C202.277 254.193 202.423 254.22 202.557 254.26V256.78C202.37 256.753 202.17 256.733 201.957 256.72C201.743 256.707 201.537 256.7 201.337 256.7C200.923 256.7 200.543 256.747 200.197 256.84C199.863 256.933 199.55 257.08 199.257 257.28C198.963 257.467 198.67 257.707 198.377 258V265H195.897ZM208.656 265.1C207.496 265.1 206.569 264.94 205.876 264.62C205.196 264.3 204.702 263.747 204.396 262.96C204.089 262.16 203.936 261.053 203.936 259.64C203.936 258.2 204.082 257.087 204.376 256.3C204.669 255.5 205.156 254.94 205.836 254.62C206.516 254.3 207.436 254.14 208.596 254.14C209.622 254.14 210.442 254.247 211.056 254.46C211.682 254.66 212.136 255.027 212.416 255.56C212.709 256.08 212.856 256.82 212.856 257.78C212.856 258.46 212.722 259.007 212.456 259.42C212.189 259.82 211.802 260.107 211.296 260.28C210.802 260.453 210.216 260.54 209.536 260.54H206.396C206.422 261.207 206.509 261.74 206.656 262.14C206.816 262.527 207.096 262.807 207.496 262.98C207.909 263.153 208.509 263.24 209.296 263.24H212.536V264.7C211.989 264.807 211.409 264.9 210.796 264.98C210.196 265.06 209.482 265.1 208.656 265.1ZM206.376 259.04H209.296C209.762 259.04 210.102 258.953 210.316 258.78C210.542 258.593 210.656 258.26 210.656 257.78C210.656 257.313 210.589 256.947 210.456 256.68C210.322 256.413 210.102 256.227 209.796 256.12C209.489 256 209.089 255.94 208.596 255.94C208.036 255.94 207.596 256.027 207.276 256.2C206.956 256.373 206.722 256.687 206.576 257.14C206.442 257.58 206.376 258.213 206.376 259.04ZM220.411 265V250.24H226.511C227.471 250.24 228.271 250.413 228.911 250.76C229.565 251.093 230.085 251.587 230.471 252.24C230.858 252.88 231.131 253.653 231.291 254.56C231.465 255.467 231.551 256.487 231.551 257.62C231.551 259.247 231.365 260.607 230.991 261.7C230.618 262.78 230.058 263.6 229.311 264.16C228.565 264.72 227.631 265 226.511 265H220.411ZM222.871 262.78H226.271C226.951 262.78 227.491 262.58 227.891 262.18C228.305 261.78 228.605 261.193 228.791 260.42C228.991 259.647 229.091 258.713 229.091 257.62C229.091 256.607 229.031 255.767 228.911 255.1C228.791 254.433 228.618 253.907 228.391 253.52C228.165 253.133 227.871 252.86 227.511 252.7C227.165 252.54 226.751 252.46 226.271 252.46H222.871V262.78ZM237.992 265.1C236.832 265.1 235.905 264.94 235.212 264.62C234.532 264.3 234.038 263.747 233.732 262.96C233.425 262.16 233.272 261.053 233.272 259.64C233.272 258.2 233.418 257.087 233.712 256.3C234.005 255.5 234.492 254.94 235.172 254.62C235.852 254.3 236.772 254.14 237.932 254.14C238.958 254.14 239.778 254.247 240.392 254.46C241.018 254.66 241.472 255.027 241.752 255.56C242.045 256.08 242.192 256.82 242.192 257.78C242.192 258.46 242.058 259.007 241.792 259.42C241.525 259.82 241.138 260.107 240.632 260.28C240.138 260.453 239.552 260.54 238.872 260.54H235.732C235.758 261.207 235.845 261.74 235.992 262.14C236.152 262.527 236.432 262.807 236.832 262.98C237.245 263.153 237.845 263.24 238.632 263.24H241.872V264.7C241.325 264.807 240.745 264.9 240.132 264.98C239.532 265.06 238.818 265.1 237.992 265.1ZM235.712 259.04H238.632C239.098 259.04 239.438 258.953 239.652 258.78C239.878 258.593 239.992 258.26 239.992 257.78C239.992 257.313 239.925 256.947 239.792 256.68C239.658 256.413 239.438 256.227 239.132 256.12C238.825 256 238.425 255.94 237.932 255.94C237.372 255.94 236.932 256.027 236.612 256.2C236.292 256.373 236.058 256.687 235.912 257.14C235.778 257.58 235.712 258.213 235.712 259.04ZM248.233 265.12C247.926 265.12 247.573 265.107 247.173 265.08C246.786 265.067 246.393 265.04 245.993 265C245.606 264.973 245.246 264.933 244.913 264.88C244.579 264.827 244.306 264.767 244.093 264.7V263.24H248.713C249.046 263.24 249.326 263.213 249.553 263.16C249.793 263.107 249.973 263 250.093 262.84C250.213 262.68 250.273 262.44 250.273 262.12V261.74C250.273 261.407 250.159 261.147 249.933 260.96C249.719 260.76 249.339 260.66 248.793 260.66H247.173C246.546 260.66 245.986 260.573 245.493 260.4C245.013 260.227 244.633 259.933 244.353 259.52C244.073 259.107 243.933 258.547 243.933 257.84V257.24C243.933 256.56 244.059 256 244.313 255.56C244.579 255.107 245.013 254.767 245.613 254.54C246.226 254.3 247.039 254.18 248.053 254.18C248.479 254.18 248.939 254.2 249.433 254.24C249.926 254.28 250.399 254.333 250.853 254.4C251.306 254.453 251.666 254.52 251.933 254.6V256.06H247.573C247.079 256.06 246.699 256.147 246.433 256.32C246.179 256.48 246.053 256.787 246.053 257.24V257.62C246.053 257.913 246.113 258.133 246.233 258.28C246.353 258.427 246.533 258.527 246.773 258.58C247.013 258.633 247.299 258.66 247.633 258.66H249.293C250.346 258.66 251.126 258.9 251.633 259.38C252.139 259.86 252.393 260.54 252.393 261.42V262.3C252.393 263.02 252.226 263.587 251.893 264C251.559 264.413 251.079 264.707 250.453 264.88C249.839 265.04 249.099 265.12 248.233 265.12ZM254.771 252.58C254.518 252.58 254.391 252.46 254.391 252.22V250.4C254.391 250.133 254.518 250 254.771 250H256.651C256.771 250 256.858 250.04 256.911 250.12C256.978 250.2 257.011 250.293 257.011 250.4V252.22C257.011 252.46 256.891 252.58 256.651 252.58H254.771ZM254.451 265V254.28H256.931V265H254.451ZM262.211 269.94C261.531 269.94 260.924 269.84 260.391 269.64C259.858 269.453 259.438 269.16 259.131 268.76C258.838 268.373 258.691 267.9 258.691 267.34V266.96C258.691 266.373 258.858 265.873 259.191 265.46C259.524 265.06 259.951 264.753 260.471 264.54C260.991 264.327 261.531 264.22 262.091 264.22L262.811 265.04C262.478 265.04 262.178 265.093 261.911 265.2C261.644 265.307 261.431 265.467 261.271 265.68C261.111 265.893 261.031 266.16 261.031 266.48V266.8C261.031 267.28 261.191 267.627 261.511 267.84C261.831 268.067 262.284 268.18 262.871 268.18H265.051C265.664 268.18 266.144 268.06 266.491 267.82C266.851 267.593 267.031 267.24 267.031 266.76V266.42C267.031 266.127 266.971 265.88 266.851 265.68C266.731 265.48 266.538 265.32 266.271 265.2C266.004 265.093 265.644 265.04 265.191 265.04H262.511C261.444 265.04 260.638 264.833 260.091 264.42C259.558 264.007 259.291 263.487 259.291 262.86C259.291 262.327 259.444 261.887 259.751 261.54C260.071 261.193 260.511 260.96 261.071 260.84C260.618 260.627 260.258 260.353 259.991 260.02C259.738 259.687 259.558 259.327 259.451 258.94C259.344 258.553 259.291 258.16 259.291 257.76C259.291 256.947 259.458 256.287 259.791 255.78C260.124 255.26 260.611 254.88 261.251 254.64C261.891 254.387 262.684 254.26 263.631 254.26H269.411V255.64L267.511 255.9C267.644 256.033 267.784 256.193 267.931 256.38C268.091 256.567 268.224 256.813 268.331 257.12C268.438 257.427 268.491 257.827 268.491 258.32C268.491 258.92 268.364 259.467 268.111 259.96C267.871 260.453 267.471 260.847 266.911 261.14C266.351 261.433 265.598 261.58 264.651 261.58H262.831C262.404 261.58 262.058 261.647 261.791 261.78C261.524 261.913 261.391 262.14 261.391 262.46C261.391 262.727 261.498 262.913 261.711 263.02C261.924 263.127 262.151 263.18 262.391 263.18H265.571C266.384 263.18 267.071 263.287 267.631 263.5C268.204 263.713 268.638 264.047 268.931 264.5C269.224 264.953 269.371 265.553 269.371 266.3V266.64C269.371 267.667 269.038 268.473 268.371 269.06C267.718 269.647 266.711 269.94 265.351 269.94H262.211ZM263.231 259.72H264.391C264.884 259.72 265.264 259.647 265.531 259.5C265.811 259.34 265.998 259.133 266.091 258.88C266.198 258.613 266.251 258.32 266.251 258C266.251 257.547 266.178 257.187 266.031 256.92C265.898 256.64 265.698 256.44 265.431 256.32C265.178 256.2 264.864 256.14 264.491 256.14H263.371C262.771 256.14 262.311 256.273 261.991 256.54C261.684 256.807 261.531 257.26 261.531 257.9C261.531 258.54 261.678 259.007 261.971 259.3C262.264 259.58 262.684 259.72 263.231 259.72ZM271.073 265V254.28H273.093L273.553 255.4C273.993 255.067 274.526 254.767 275.153 254.5C275.793 254.233 276.453 254.1 277.133 254.1C277.973 254.1 278.633 254.273 279.113 254.62C279.593 254.953 279.933 255.407 280.133 255.98C280.346 256.553 280.453 257.18 280.453 257.86V265H277.973V258.16C277.973 257.773 277.899 257.447 277.753 257.18C277.606 256.913 277.399 256.707 277.133 256.56C276.879 256.413 276.566 256.34 276.193 256.34C275.846 256.34 275.519 256.373 275.213 256.44C274.919 256.507 274.639 256.607 274.373 256.74C274.106 256.873 273.833 257.033 273.553 257.22V265H271.073ZM203.59 290.12C203.23 290.12 202.843 290.107 202.43 290.08C202.03 290.067 201.616 290.04 201.19 290C200.776 289.947 200.383 289.9 200.01 289.86C199.636 289.807 199.303 289.747 199.01 289.68V287.74C199.383 287.767 199.816 287.793 200.31 287.82C200.816 287.847 201.343 287.867 201.89 287.88C202.436 287.893 202.963 287.9 203.47 287.9C204.003 287.9 204.476 287.853 204.89 287.76C205.303 287.653 205.623 287.473 205.85 287.22C206.076 286.967 206.19 286.607 206.19 286.14V285.44C206.19 284.92 206.043 284.52 205.75 284.24C205.456 283.96 205.023 283.82 204.45 283.82H203.07C201.723 283.82 200.683 283.527 199.95 282.94C199.23 282.353 198.87 281.347 198.87 279.92V279.16C198.87 277.733 199.263 276.707 200.05 276.08C200.85 275.44 201.99 275.12 203.47 275.12C203.976 275.12 204.496 275.147 205.03 275.2C205.576 275.24 206.096 275.293 206.59 275.36C207.083 275.427 207.503 275.5 207.85 275.58V277.52C207.263 277.48 206.59 277.44 205.83 277.4C205.083 277.36 204.39 277.34 203.75 277.34C203.243 277.34 202.796 277.393 202.41 277.5C202.023 277.607 201.73 277.8 201.53 278.08C201.33 278.347 201.23 278.747 201.23 279.28V279.76C201.23 280.387 201.396 280.827 201.73 281.08C202.076 281.333 202.57 281.46 203.21 281.46H204.75C205.616 281.46 206.33 281.62 206.89 281.94C207.45 282.26 207.863 282.7 208.13 283.26C208.41 283.807 208.55 284.433 208.55 285.14V286.08C208.55 287.173 208.336 288.013 207.91 288.6C207.483 289.187 206.896 289.587 206.15 289.8C205.403 290.013 204.55 290.12 203.59 290.12ZM215.189 290.1C214.029 290.1 213.102 289.94 212.409 289.62C211.729 289.3 211.235 288.747 210.929 287.96C210.622 287.16 210.469 286.053 210.469 284.64C210.469 283.2 210.615 282.087 210.909 281.3C211.202 280.5 211.689 279.94 212.369 279.62C213.049 279.3 213.969 279.14 215.129 279.14C216.155 279.14 216.975 279.247 217.589 279.46C218.215 279.66 218.669 280.027 218.949 280.56C219.242 281.08 219.389 281.82 219.389 282.78C219.389 283.46 219.255 284.007 218.989 284.42C218.722 284.82 218.335 285.107 217.829 285.28C217.335 285.453 216.749 285.54 216.069 285.54H212.929C212.955 286.207 213.042 286.74 213.189 287.14C213.349 287.527 213.629 287.807 214.029 287.98C214.442 288.153 215.042 288.24 215.829 288.24H219.069V289.7C218.522 289.807 217.942 289.9 217.329 289.98C216.729 290.06 216.015 290.1 215.189 290.1ZM212.909 284.04H215.829C216.295 284.04 216.635 283.953 216.849 283.78C217.075 283.593 217.189 283.26 217.189 282.78C217.189 282.313 217.122 281.947 216.989 281.68C216.855 281.413 216.635 281.227 216.329 281.12C216.022 281 215.622 280.94 215.129 280.94C214.569 280.94 214.129 281.027 213.809 281.2C213.489 281.373 213.255 281.687 213.109 282.14C212.975 282.58 212.909 283.213 212.909 284.04ZM225.69 290.12C225.05 290.12 224.457 290.04 223.91 289.88C223.377 289.707 222.91 289.42 222.51 289.02C222.11 288.607 221.797 288.047 221.57 287.34C221.357 286.633 221.25 285.747 221.25 284.68C221.25 283.587 221.35 282.68 221.55 281.96C221.763 281.24 222.063 280.673 222.45 280.26C222.837 279.847 223.303 279.56 223.85 279.4C224.41 279.227 225.043 279.14 225.75 279.14C226.35 279.14 226.957 279.173 227.57 279.24C228.183 279.293 228.797 279.4 229.41 279.56V280.98H226.49C225.85 280.98 225.33 281.08 224.93 281.28C224.53 281.48 224.23 281.847 224.03 282.38C223.83 282.913 223.73 283.68 223.73 284.68C223.73 285.667 223.83 286.42 224.03 286.94C224.23 287.447 224.53 287.793 224.93 287.98C225.343 288.153 225.87 288.24 226.51 288.24H229.57V289.64C229.25 289.733 228.877 289.82 228.45 289.9C228.023 289.967 227.57 290.02 227.09 290.06C226.623 290.1 226.157 290.12 225.69 290.12ZM235.295 290C234.521 290 233.888 289.887 233.395 289.66C232.901 289.42 232.541 289.027 232.315 288.48C232.101 287.933 232.001 287.213 232.015 286.32L232.095 281.28H230.415V279.68L232.175 279.28L232.535 276.28H234.475V279.28H237.195V281.28H234.475V286.3C234.475 286.647 234.508 286.933 234.575 287.16C234.641 287.373 234.735 287.547 234.855 287.68C234.988 287.8 235.128 287.887 235.275 287.94C235.421 287.993 235.575 288.027 235.735 288.04L237.075 288.18V290H235.295ZM239.332 277.58C239.079 277.58 238.952 277.46 238.952 277.22V275.4C238.952 275.133 239.079 275 239.332 275H241.212C241.332 275 241.419 275.04 241.472 275.12C241.539 275.2 241.572 275.293 241.572 275.4V277.22C241.572 277.46 241.452 277.58 241.212 277.58H239.332ZM239.012 290V279.28H241.492V290H239.012ZM248.511 290.1C247.671 290.1 246.945 290.013 246.331 289.84C245.718 289.667 245.218 289.373 244.831 288.96C244.445 288.547 244.158 287.987 243.971 287.28C243.785 286.573 243.691 285.687 243.691 284.62C243.691 283.513 243.785 282.607 243.971 281.9C244.158 281.18 244.445 280.62 244.831 280.22C245.231 279.807 245.738 279.527 246.351 279.38C246.965 279.22 247.685 279.14 248.511 279.14C249.365 279.14 250.098 279.227 250.711 279.4C251.325 279.56 251.825 279.84 252.211 280.24C252.598 280.64 252.885 281.2 253.071 281.92C253.258 282.627 253.351 283.527 253.351 284.62C253.351 285.7 253.258 286.6 253.071 287.32C252.898 288.027 252.618 288.587 252.231 289C251.845 289.4 251.345 289.687 250.731 289.86C250.118 290.02 249.378 290.1 248.511 290.1ZM248.511 288.12C248.925 288.12 249.278 288.087 249.571 288.02C249.865 287.94 250.105 287.787 250.291 287.56C250.491 287.32 250.638 286.967 250.731 286.5C250.825 286.02 250.871 285.387 250.871 284.6C250.871 283.827 250.825 283.207 250.731 282.74C250.638 282.273 250.491 281.927 250.291 281.7C250.105 281.46 249.865 281.307 249.571 281.24C249.278 281.16 248.925 281.12 248.511 281.12C248.111 281.12 247.765 281.16 247.471 281.24C247.178 281.307 246.938 281.46 246.751 281.7C246.565 281.927 246.418 282.273 246.311 282.74C246.218 283.207 246.171 283.827 246.171 284.6C246.171 285.387 246.218 286.02 246.311 286.5C246.418 286.967 246.565 287.32 246.751 287.56C246.938 287.787 247.178 287.94 247.471 288.02C247.765 288.087 248.111 288.12 248.511 288.12ZM255.555 290V279.28H257.575L258.035 280.4C258.475 280.067 259.008 279.767 259.635 279.5C260.275 279.233 260.935 279.1 261.615 279.1C262.455 279.1 263.115 279.273 263.595 279.62C264.075 279.953 264.415 280.407 264.615 280.98C264.828 281.553 264.935 282.18 264.935 282.86V290H262.455V283.16C262.455 282.773 262.382 282.447 262.235 282.18C262.088 281.913 261.882 281.707 261.615 281.56C261.362 281.413 261.048 281.34 260.675 281.34C260.328 281.34 260.002 281.373 259.695 281.44C259.402 281.507 259.122 281.607 258.855 281.74C258.588 281.873 258.315 282.033 258.035 282.22V290H255.555Z" fill="white"/>
<path d="M149.22 225V216.67L166.51 199.52C167.91 198.167 169.053 196.907 169.94 195.74C170.827 194.573 171.48 193.43 171.9 192.31C172.367 191.143 172.6 189.907 172.6 188.6C172.6 187.34 172.343 186.267 171.83 185.38C171.363 184.447 170.57 183.747 169.45 183.28C168.377 182.813 166.883 182.58 164.97 182.58H150.41V174.46C152.65 174.04 155.123 173.667 157.83 173.34C160.583 172.967 163.64 172.78 167 172.78C171.06 172.78 174.233 173.34 176.52 174.46C178.853 175.58 180.51 177.19 181.49 179.29C182.47 181.39 182.96 183.933 182.96 186.92C182.96 189.253 182.633 191.377 181.98 193.29C181.373 195.203 180.463 197.047 179.25 198.82C178.037 200.547 176.497 202.297 174.63 204.07L163.01 215.62H184.57V225H149.22ZM190.236 225V216.67L207.526 199.52C208.926 198.167 210.069 196.907 210.956 195.74C211.842 194.573 212.496 193.43 212.916 192.31C213.382 191.143 213.616 189.907 213.616 188.6C213.616 187.34 213.359 186.267 212.846 185.38C212.379 184.447 211.586 183.747 210.466 183.28C209.392 182.813 207.899 182.58 205.986 182.58H191.426V174.46C193.666 174.04 196.139 173.667 198.846 173.34C201.599 172.967 204.656 172.78 208.016 172.78C212.076 172.78 215.249 173.34 217.536 174.46C219.869 175.58 221.526 177.19 222.506 179.29C223.486 181.39 223.976 183.933 223.976 186.92C223.976 189.253 223.649 191.377 222.996 193.29C222.389 195.203 221.479 197.047 220.266 198.82C219.052 200.547 217.512 202.297 215.646 204.07L204.026 215.62H225.586V225H190.236ZM245.461 225.28C242.568 225.28 240.095 224.79 238.041 223.81C236.035 222.783 234.495 221.267 233.421 219.26C232.395 217.253 231.881 214.803 231.881 211.91V186.71C231.881 183.677 232.418 181.133 233.491 179.08C234.565 176.98 236.128 175.417 238.181 174.39C240.281 173.317 242.731 172.78 245.531 172.78H256.311C259.251 172.78 261.678 173.34 263.591 174.46C265.551 175.533 267.021 177.12 268.001 179.22C268.981 181.273 269.471 183.77 269.471 186.71V211.91C269.471 216.25 268.305 219.563 265.971 221.85C263.685 224.137 260.465 225.28 256.311 225.28H245.461ZM247.911 215.97H253.511C255.425 215.97 256.825 215.503 257.711 214.57C258.645 213.637 259.111 212.237 259.111 210.37V187.69C259.111 185.637 258.645 184.19 257.711 183.35C256.778 182.51 255.518 182.09 253.931 182.09H247.561C245.835 182.09 244.505 182.557 243.571 183.49C242.685 184.423 242.241 185.823 242.241 187.69V210.3C242.241 212.26 242.731 213.707 243.711 214.64C244.691 215.527 246.091 215.97 247.911 215.97ZM290.434 215.76V184.4H298.834V215.76H290.434ZM278.954 204.28V195.88H310.314V204.28H278.954Z" fill="white"/>
<defs>
<filter id="filter0_f_1_876" x="0" y="0" width="462" height="462" filterUnits="userSpaceOnUse" color-interpolation-filters="sRGB">
<feFlood flood-opacity="0" result="BackgroundImageFix"/>
<feBlend mode="normal" in="SourceGraphic" in2="BackgroundImageFix" result="shape"/>
<feGaussianBlur stdDeviation="50" result="effect1_foregroundBlur_1_876"/>
</filter>
</defs>
</svg>
