<svg width="219" height="202" viewBox="0 0 219 202" fill="none" xmlns="http://www.w3.org/2000/svg">
<path d="M109.5 183.711C156.265 183.711 194.176 145.801 194.176 99.0353C194.176 52.2701 156.265 14.3594 109.5 14.3594C62.7349 14.3594 24.8242 52.2701 24.8242 99.0353C24.8242 145.801 62.7349 183.711 109.5 183.711Z" fill="#0F122E"/>
<path fill-rule="evenodd" clip-rule="evenodd" d="M54.4992 133.706C55.822 136.396 53.9536 136.881 52.7543 134.313C48.226 124.615 35.6887 104.295 27.3182 97.802C26.5633 97.2179 27.0686 96.6544 27.8234 97.2385C37.7729 104.957 48.9668 122.451 54.4992 133.706Z" fill="#0F122E"/>
<path fill-rule="evenodd" clip-rule="evenodd" d="M33.5508 103.192C31.7709 100.131 16.1914 96.1134 15.6095 99.5589C15.0232 103.029 31.0318 105.156 33.5508 103.192Z" fill="#0F122E"/>
<path fill-rule="evenodd" clip-rule="evenodd" d="M33.5513 103.197C35.2239 100.076 30.4709 84.7045 27.2325 86.0168C23.9705 87.3382 30.5581 102.083 33.5513 103.197Z" fill="#0F122E"/>
<path fill-rule="evenodd" clip-rule="evenodd" d="M33.5497 103.197C33.6972 99.6592 22.7293 87.8877 20.3841 90.4785C18.0223 93.0882 30.3699 103.497 33.5497 103.197Z" fill="#0F122E"/>
<path fill-rule="evenodd" clip-rule="evenodd" d="M162.68 124.554C161.588 127.346 163.49 127.672 164.469 125.013C168.167 114.969 178.954 93.668 186.749 86.4945C187.452 85.8491 186.902 85.3303 186.198 85.9757C176.932 94.5017 167.247 112.875 162.68 124.554Z" fill="#0F122E"/>
<path fill-rule="evenodd" clip-rule="evenodd" d="M180.988 92.394C182.505 89.1941 197.692 83.882 198.561 87.2667C199.437 90.6754 183.663 94.1389 180.988 92.394Z" fill="#0F122E"/>
<path fill-rule="evenodd" clip-rule="evenodd" d="M180.99 92.3944C179.061 89.4248 182.506 73.7087 185.844 74.7442C189.205 75.7868 183.879 91.0326 180.99 92.3944Z" fill="#0F122E"/>
<path fill-rule="evenodd" clip-rule="evenodd" d="M180.991 92.3886C180.547 88.8757 190.488 76.2246 193.042 78.6096C195.615 81.0113 184.185 92.4197 180.991 92.3886Z" fill="#0F122E"/>
<path fill-rule="evenodd" clip-rule="evenodd" d="M69.9286 185.724C64.9436 182.489 40.7694 181.549 40.4734 187.118C40.0762 194.59 65.3714 193.2 69.9286 185.724Z" fill="#0F122E"/>
<path fill-rule="evenodd" clip-rule="evenodd" d="M70.5356 184.573C66.1395 180.574 68.4649 157.978 73.7757 156.276C80.9015 153.993 76.6069 178.265 70.5356 184.573Z" fill="#0F122E"/>
<path fill-rule="evenodd" clip-rule="evenodd" d="M55.6124 172.725C54.1162 168.229 37.6242 162.036 35.4643 165.922C32.8818 170.569 49.0537 175.115 55.6124 172.725Z" fill="#0F122E"/>
<path fill-rule="evenodd" clip-rule="evenodd" d="M56.4418 172.105C53.5462 168.354 56.6809 149.917 61.0253 150.863C65.2463 151.783 60.6313 169.019 56.4418 172.105Z" fill="#0F122E"/>
<path fill-rule="evenodd" clip-rule="evenodd" d="M61.9101 180.593C59.1345 176.219 40.9081 171.977 39.07 175.784C36.5873 180.927 55.5843 184.862 61.9101 180.593Z" fill="#0F122E"/>
<path fill-rule="evenodd" clip-rule="evenodd" d="M62.5423 179.652C59.0263 174.916 62.0703 154.956 66.05 155.941C72.2247 157.469 66.7418 175.451 62.5423 179.652Z" fill="#0F122E"/>
<path fill-rule="evenodd" clip-rule="evenodd" d="M31.7036 132.974C29.5559 131.667 14.9038 135.699 15.3416 138.017C15.9301 141.131 29.8685 136.19 31.7036 132.974Z" fill="#0F122E"/>
<path fill-rule="evenodd" clip-rule="evenodd" d="M31.8595 132.443C29.436 131.775 21.8255 120.999 23.7889 119.662C26.4051 117.881 32.9445 128.902 31.8595 132.443Z" fill="#0F122E"/>
<path fill-rule="evenodd" clip-rule="evenodd" d="M38.3227 138.013C36.2254 135.974 22.4945 138.56 22.6141 141.302C22.7739 144.971 35.4066 141.186 38.3227 138.013Z" fill="#0F122E"/>
<path fill-rule="evenodd" clip-rule="evenodd" d="M38.6376 137.459C36.0622 136.072 29.9851 121.828 32.8614 120.88C36.359 119.727 40.7871 133.724 38.6376 137.459Z" fill="#0F122E"/>
<path fill-rule="evenodd" clip-rule="evenodd" d="M43.1994 144.339C41.4502 141.676 26.6698 143.675 26.5445 146.662C26.3786 150.609 39.3502 147.026 43.1994 144.339Z" fill="#0F122E"/>
<path fill-rule="evenodd" clip-rule="evenodd" d="M43.6631 143.82C41.2514 141.738 38.7389 127.483 41.7878 126.904C45.7289 126.155 46.8297 140.355 43.6631 143.82Z" fill="#0F122E"/>
<path fill-rule="evenodd" clip-rule="evenodd" d="M47.3608 153.203C45.9282 149.639 30.7585 148.591 29.1454 151.814C27.1068 155.887 42.1726 155.46 47.3608 153.203Z" fill="#0F122E"/>
<path fill-rule="evenodd" clip-rule="evenodd" d="M48.0346 152.7C45.6807 149.665 45.6838 135.318 49.0781 135.084C53.9024 134.75 52.602 149.361 48.0346 152.7Z" fill="#0F122E"/>
<path fill-rule="evenodd" clip-rule="evenodd" d="M50.7728 162.809C49.4807 158.694 37.2784 154.966 34.5116 157.92C31.01 161.659 44.7667 164.884 50.7728 162.809Z" fill="#0F122E"/>
<path fill-rule="evenodd" clip-rule="evenodd" d="M51.5678 162.308C49.1981 158.704 52.5179 142.489 55.8159 143.82C59.7142 145.392 56.974 158.968 51.5678 162.308Z" fill="#0F122E"/>
<path fill-rule="evenodd" clip-rule="evenodd" d="M81.5142 188.603C83.9758 189.061 84.3406 185.612 81.667 185.653C41.4653 182.4 61.25 141.122 25.2076 129.539C23.7425 129.065 23.3524 130.377 24.8179 130.851C59.4798 141.991 39.3518 185.192 81.5142 188.603Z" fill="#0F122E"/>
<path fill-rule="evenodd" clip-rule="evenodd" d="M26.662 130.72C25.0192 126.347 10.9407 122.6 10.1149 124.81C9.12268 127.466 23.6609 132.68 26.662 130.72Z" fill="#0F122E"/>
<path fill-rule="evenodd" clip-rule="evenodd" d="M152.977 165.449C157.816 162 181.927 160.01 182.464 165.561C183.186 173.009 157.854 172.719 152.977 165.449Z" fill="#0F122E"/>
<path fill-rule="evenodd" clip-rule="evenodd" d="M152.321 164.322C156.54 160.135 153.234 137.662 147.855 136.193C140.637 134.221 145.982 158.284 152.321 164.322Z" fill="#0F122E"/>
<path fill-rule="evenodd" clip-rule="evenodd" d="M166.715 151.829C168.014 147.272 184.222 140.368 186.548 144.157C189.33 148.687 173.371 153.932 166.715 151.829Z" fill="#0F122E"/>
<path fill-rule="evenodd" clip-rule="evenodd" d="M165.857 151.245C168.586 147.371 164.653 129.088 160.354 130.222C156.177 131.325 161.537 148.344 165.857 151.245Z" fill="#0F122E"/>
<path fill-rule="evenodd" clip-rule="evenodd" d="M160.766 159.969C163.348 155.479 181.374 150.448 183.375 154.172C186.079 159.203 167.27 163.959 160.766 159.969Z" fill="#0F122E"/>
<path fill-rule="evenodd" clip-rule="evenodd" d="M160.094 159.054C163.4 154.169 159.492 134.361 155.559 135.517C149.456 137.313 155.715 155.039 160.094 159.054Z" fill="#0F122E"/>
<path fill-rule="evenodd" clip-rule="evenodd" d="M188.871 111.078C190.96 109.679 205.773 113.07 205.437 115.405C204.984 118.542 190.844 114.212 188.871 111.078Z" fill="#0F122E"/>
<path fill-rule="evenodd" clip-rule="evenodd" d="M188.692 110.552C191.084 109.779 198.22 98.6827 196.2 97.4322C193.509 95.7665 187.454 107.062 188.692 110.552Z" fill="#0F122E"/>
<path fill-rule="evenodd" clip-rule="evenodd" d="M182.48 116.395C184.487 114.267 198.317 116.254 198.317 118.999C198.317 122.671 185.531 119.439 182.48 116.395Z" fill="#0F122E"/>
<path fill-rule="evenodd" clip-rule="evenodd" d="M182.145 115.857C184.658 114.359 190.111 99.8644 187.196 99.0425C183.651 98.0429 179.836 112.219 182.145 115.857Z" fill="#0F122E"/>
<path fill-rule="evenodd" clip-rule="evenodd" d="M177.883 122.928C179.515 120.191 194.368 121.546 194.623 124.525C194.96 128.461 181.845 125.445 177.883 122.928Z" fill="#0F122E"/>
<path fill-rule="evenodd" clip-rule="evenodd" d="M177.395 122.429C179.714 120.244 181.605 105.893 178.534 105.447C174.564 104.87 174.081 119.104 177.395 122.429Z" fill="#0F122E"/>
<path fill-rule="evenodd" clip-rule="evenodd" d="M174.109 131.971C175.386 128.348 190.496 126.642 192.247 129.792C194.461 133.772 179.391 134.001 174.109 131.971Z" fill="#0F122E"/>
<path fill-rule="evenodd" clip-rule="evenodd" d="M173.417 131.493C175.637 128.358 175.01 114.025 171.61 113.938C166.775 113.815 168.709 128.355 173.417 131.493Z" fill="#0F122E"/>
<path fill-rule="evenodd" clip-rule="evenodd" d="M171.121 141.711C172.233 137.543 184.262 133.289 187.154 136.12C190.815 139.703 177.212 143.522 171.121 141.711Z" fill="#0F122E"/>
<path fill-rule="evenodd" clip-rule="evenodd" d="M170.302 141.241C172.513 137.537 168.492 121.482 165.255 122.954C161.429 124.694 164.756 138.139 170.302 141.241Z" fill="#0F122E"/>
<path fill-rule="evenodd" clip-rule="evenodd" d="M141.526 168.818C139.087 169.381 138.572 165.951 141.245 165.877C181.268 160.88 159.709 120.501 195.213 107.362C196.657 106.825 197.103 108.119 195.66 108.656C161.514 121.292 183.5 163.578 141.526 168.818Z" fill="#0F122E"/>
<path fill-rule="evenodd" clip-rule="evenodd" d="M193.812 108.606C195.264 104.166 209.166 99.8103 210.087 101.982C211.194 104.592 196.896 110.433 193.812 108.606Z" fill="#0F122E"/>
<path d="M97.7812 37.4831C112.315 35.4006 120.273 47.4715 120.368 65.7552" stroke="#425682" stroke-width="3.8398" stroke-miterlimit="22.9256" stroke-linecap="round" stroke-linejoin="round"/>
<path fill-rule="evenodd" clip-rule="evenodd" d="M81.6693 66.7891C83.6549 74.1473 91.4243 79.3832 101.955 83.2644C108.816 80.3014 117.188 73.1284 120.426 62.3768C128.701 34.9098 113.93 35.0521 96.4891 38.675C83.6317 39.0949 77.8266 52.549 81.6693 66.7891Z" fill="#9C756C"/>
<path fill-rule="evenodd" clip-rule="evenodd" d="M130.469 117.75C135.259 119.798 151.443 127.086 157.411 127.89C165.662 129.003 167.14 118.506 161.224 113.748C151.825 106.188 131.792 97.6549 126.871 95.3828C121.056 98.3975 116.744 111.884 130.469 117.75Z" fill="#FF867E"/>
<path fill-rule="evenodd" clip-rule="evenodd" d="M145.543 104.117C147.688 108.262 150.029 112.036 151.515 113.563C148.563 112.751 144.319 107.697 142.809 102.719C143.678 103.188 144.66 103.626 145.543 104.117Z" fill="#E67068"/>
<path fill-rule="evenodd" clip-rule="evenodd" d="M127.65 95.7444C128.509 120.83 131.283 135.417 127.916 155.182C126.343 164.418 126.189 171.308 127.626 182.768C109.887 185.719 87.3906 185 69.6516 181.68C71.4901 171.645 72.1338 131.462 66.418 97.5948C75.1988 90.4761 113.57 88.8534 127.65 95.7444Z" fill="#FF867E"/>
<mask id="mask0_1_942" style="mask-type:luminance" maskUnits="userSpaceOnUse" x="66" y="91" width="64" height="94">
<path d="M127.65 95.7444C128.509 120.83 131.283 135.417 127.916 155.182C126.343 164.418 126.189 171.308 127.626 182.768C109.887 185.719 87.3906 185 69.6516 181.68C71.4901 171.645 72.1338 131.462 66.418 97.5948C75.1988 90.4761 113.57 88.8534 127.65 95.7444Z" fill="white"/>
</mask>
<g mask="url(#mask0_1_942)">
<path opacity="0.5" d="M54.5977 133.852L59.4181 129.032M59.4181 129.031L64.238 133.852L69.0584 129.031L73.8784 133.852L78.6983 129.032M88.3387 129.031L93.1587 133.852L97.9791 129.032L102.799 133.852L107.619 129.032M88.3387 129.032L83.5183 133.852L78.6983 129.031M107.619 129.032L112.439 133.852L117.26 129.032M126.9 129.032L131.72 133.852L136.54 129.032L141.36 133.853M126.9 129.032L122.079 133.852L117.259 129.032" stroke="white" stroke-width="3.1198" stroke-miterlimit="22.9256" stroke-linecap="round" stroke-linejoin="round"/>
<path opacity="0.5" d="M54.5977 127.187L59.4181 122.367L64.238 127.188L69.0584 122.367L73.8784 127.188L78.6983 122.368L83.5183 127.188L88.3387 122.367L93.1587 127.188L97.9791 122.368L102.799 127.188L107.619 122.368M107.619 122.368L112.439 127.188L117.26 122.368M126.9 122.368L131.72 127.188L136.54 122.368M126.9 122.368L122.079 127.188L117.259 122.368M141.36 127.188L136.54 122.368" stroke="white" stroke-width="3.1198" stroke-miterlimit="22.9256" stroke-linecap="round" stroke-linejoin="round"/>
</g>
<path fill-rule="evenodd" clip-rule="evenodd" d="M71.3955 181.994C70.8096 181.892 70.2286 181.787 69.6523 181.679C70.9738 174.468 71.6779 151.688 69.8485 126.871C71.8333 125.331 73.625 124.057 75.9838 122.625C75.1076 131.392 70.7391 146.79 74.2332 150.572C77.7274 154.354 90.1481 156.205 101.838 155.079C109.321 154.358 87.831 170.374 71.3955 181.994Z" fill="#E67068"/>
<path fill-rule="evenodd" clip-rule="evenodd" d="M72.0825 134.396C66.1403 145.952 58.5416 153.971 56.5559 158.386C52.8915 166.534 39.4746 162.287 41.6613 154.44C45.2789 141.461 55.0839 105.018 65.5947 98.0661C74.3361 92.2854 81.69 115.712 72.0825 134.396Z" fill="#FF867E"/>
<path fill-rule="evenodd" clip-rule="evenodd" d="M60.7449 152.426C56.7231 152.369 45.4167 150.733 43.1797 152.41C45.3094 148.298 53.4239 144.923 64.193 147.241C63.1268 148.419 61.5387 151.422 60.7449 152.426Z" fill="#E67068"/>
<path fill-rule="evenodd" clip-rule="evenodd" d="M110.084 64.935L110.469 90.2648C110.552 95.6724 112.217 103.883 103.594 111.037C92.747 104.099 92.1047 96.6212 92.0158 90.8047L91.63 65.4745C91.4619 54.4413 109.908 53.4079 110.084 64.935Z" fill="#FBC9BE"/>
<path fill-rule="evenodd" clip-rule="evenodd" d="M110.356 82.8594C104.362 83.567 99.3338 83.5026 91.8945 82.897C95.9382 89.5254 103.035 91.2917 110.537 91.3039L110.356 82.8594Z" fill="#E3B4AA"/>
<path fill-rule="evenodd" clip-rule="evenodd" d="M137.786 80.0568C142.511 73.3164 127.433 55.3243 125.644 57.6046C124.463 59.1118 128.238 61.7503 129.585 65.6726C127.705 63.3818 121.13 56.6615 119.771 59.2917C119.172 60.4512 124.859 63.8617 126.736 69.0599C124.669 66.6775 118.784 61.182 117.518 63.1786C116.053 65.4883 124.936 70.504 126.242 75.5893C124.403 74.7679 120.852 73.5239 120.258 74.2389C118.729 76.0793 133.796 85.749 137.786 80.0568Z" fill="#FBC9BE"/>
<path fill-rule="evenodd" clip-rule="evenodd" d="M120.369 72.5275C122.461 72.5275 124.167 69.4822 124.167 65.7481C124.167 62.0141 122.461 58.9688 120.369 58.9688C118.277 58.9688 116.57 62.0141 116.57 65.7481C116.57 69.4818 118.277 72.5275 120.369 72.5275Z" fill="#425682"/>
<path fill-rule="evenodd" clip-rule="evenodd" d="M101.845 38.6369C84.995 40.0148 83.2177 56.7143 84.9135 71.1173C85.8917 79.427 94.6638 88.4088 107.692 87.8225C123.64 87.1049 127.468 37.2734 101.845 38.6369Z" fill="#FBC9BE"/>
<path fill-rule="evenodd" clip-rule="evenodd" d="M120.33 65.1592C120.141 53.1255 116.996 48.9417 113.928 47.749C111.554 46.8255 110.763 47.4692 107.146 47.4692C103.529 47.4692 99.6381 46.8584 95.6163 48.5117C86.3709 52.3137 89.9285 63.8697 85.1265 69.7659C83.2498 62.8783 82.7625 54.0572 86.7991 46.7905C90.1623 40.7371 96.3226 37.8941 102.484 37.9221C119.233 37.9983 122.472 52.1692 120.33 65.1592Z" fill="#9C756C"/>
<path fill-rule="evenodd" clip-rule="evenodd" d="M82.8185 63.2253C83.9784 62.9048 85.4763 64.6597 86.1637 67.1459C86.8512 69.632 86.468 71.9072 85.3081 72.2281C84.1478 72.5486 82.6503 70.7937 81.9629 68.3075C81.275 65.8213 81.6581 63.5462 82.8185 63.2253Z" fill="#FBC9BE"/>
<path fill-rule="evenodd" clip-rule="evenodd" d="M121.417 51.1279C118.965 41.0335 108.763 40.9507 103.125 45.3547C107.316 38.4059 123.948 36.2065 121.417 51.1279Z" fill="#B58C83"/>
<path fill-rule="evenodd" clip-rule="evenodd" d="M81.1562 59.5292C86.7026 48.9912 90.4393 45.995 99.3787 46.0922C89.011 43.0819 82.0823 47.274 81.1562 59.5292Z" fill="#B58C83"/>
<path fill-rule="evenodd" clip-rule="evenodd" d="M81.6042 64.1282C84.4222 58.0905 84.5238 56.84 89.3438 52.9062C83.7576 54.6936 81.4163 60.0083 81.6042 64.1282Z" fill="#B58C83"/>
<path fill-rule="evenodd" clip-rule="evenodd" d="M114.589 39.3933C109.475 37.6672 103.797 40.935 101.613 42.876C103.324 38.7658 107.56 36.2591 114.589 39.3933Z" fill="#B58C83"/>
<path fill-rule="evenodd" clip-rule="evenodd" d="M84.0625 47.5202C87.7156 43.4139 94.9775 42.8517 96.9781 43.3544C96.087 40.9764 86.7623 40.4798 84.0625 47.5202Z" fill="#B58C83"/>
<path fill-rule="evenodd" clip-rule="evenodd" d="M120.229 59.8387C118.961 52.0693 116.455 48.7328 113.931 47.7512C112.256 47.0996 109.597 47.3282 107.949 47.4604C119.401 40.7327 121.32 52.1705 120.229 59.8387ZM100.606 47.4158C98.9736 47.5244 97.308 47.8195 95.6192 48.5139C91.4713 50.2194 89.9012 53.4858 88.9961 57.1017C89.0097 49.7128 93.4706 45.9844 100.606 47.4158Z" fill="#825E56"/>
<path d="M84.1188 65.7502C83.331 65.4016 81.7377 66.1543 83.5833 69.2784" stroke="#D9ABA1" stroke-width="1.1999" stroke-miterlimit="22.9256" stroke-linecap="round" stroke-linejoin="round"/>
<path d="M83.2188 68.2035C84.1212 67.8528 85.2001 67.9701 85.4194 68.9522" stroke="#D9ABA1" stroke-width="1.1999" stroke-miterlimit="22.9256" stroke-linecap="round" stroke-linejoin="round"/>
<path fill-rule="evenodd" clip-rule="evenodd" d="M98.6851 104.376C100.051 107.124 102.534 110.339 103.593 111.04C101.223 110.752 98.3488 109.604 96.6206 107.351C95.9248 106.444 92.4557 111.971 91.2099 113.693C89.2172 110.319 86.7556 99.7597 88.0306 91.8594C90.639 94.2137 96.1867 103.232 98.6851 104.376Z" fill="#E67068"/>
<path fill-rule="evenodd" clip-rule="evenodd" d="M98.6861 104.376C94.2344 98.1138 93.2851 93.7015 91.972 87.1406L88.0312 91.8594C88.9853 99.7703 89.2853 106.685 91.8196 111.206C92.462 109.301 95.7844 105.838 98.6861 104.376Z" fill="#FF867E"/>
<path fill-rule="evenodd" clip-rule="evenodd" d="M109.546 102.853C108.249 106.354 105.128 109.108 103.594 111.034C108.161 107.115 111.091 104.325 115.386 109.595C118.795 102.629 116.092 95.7849 114.629 92.2891C112.13 93.4332 112.045 101.71 109.546 102.853Z" fill="#E67068"/>
<path fill-rule="evenodd" clip-rule="evenodd" d="M109.547 102.853C111.043 97.2414 110.58 94.7128 110.404 87.7109L114.63 92.2883C116.06 98.0965 116.145 103.224 115.026 108.002C113.999 106.273 112.69 103.677 109.547 102.853Z" fill="#FF867E"/>
<path d="M219 156.367H0V202.003H219V156.367Z" fill="#93F2FF" fill-opacity="0.04"/>
<path d="M160.412 177.93H70.9453V179.849H160.412V177.93Z" fill="#435C94"/>
<path fill-rule="evenodd" clip-rule="evenodd" d="M148.97 161.688H82.3875L70.9453 177.933H160.412L148.97 161.688Z" fill="#5571AD"/>
<path fill-rule="evenodd" clip-rule="evenodd" d="M79.3025 176.115C78.3716 176.117 77.4412 176.119 76.5103 176.121C76.1871 176.121 75.9954 175.998 76.0842 175.847C76.2791 175.516 76.4823 175.19 76.6837 174.858C76.7743 174.709 77.1018 174.584 77.4171 174.583C78.3243 174.583 79.2311 174.58 80.1384 174.578C80.4458 174.578 80.6375 174.702 80.5565 174.852C80.3775 175.182 80.1949 175.507 80.0202 175.84C79.9427 175.989 79.6178 176.115 79.3025 176.115Z" fill="#7894CF"/>
<path fill-rule="evenodd" clip-rule="evenodd" d="M80.2082 174.232C79.3881 174.235 78.5754 174.235 77.7474 174.236C77.3687 174.237 77.1401 174.084 77.2505 173.9C77.5184 173.453 77.7869 173.006 78.0553 172.559C78.1656 172.375 78.568 172.223 78.9305 172.223C79.7275 172.222 80.5239 172.22 81.3125 172.219C81.6755 172.218 81.8857 172.369 81.7858 172.555C81.5468 172.999 81.3073 173.45 81.0682 173.895C80.9679 174.081 80.5865 174.231 80.2082 174.232Z" fill="#7894CF"/>
<path fill-rule="evenodd" clip-rule="evenodd" d="M81.5015 171.87C80.7129 171.871 79.9239 171.874 79.1274 171.874C78.7723 171.875 78.5595 171.723 78.6699 171.539C78.9378 171.092 79.2067 170.645 79.4746 170.198C79.5854 170.013 79.9637 169.862 80.3184 169.862C81.0833 169.861 81.8408 169.86 82.6058 169.859C82.9526 169.859 83.1553 170.007 83.0555 170.194C82.8164 170.64 82.5769 171.09 82.3378 171.536C82.2375 171.722 81.8562 171.87 81.5015 171.87Z" fill="#7894CF"/>
<path fill-rule="evenodd" clip-rule="evenodd" d="M82.7982 169.511C82.0411 169.512 81.292 169.513 80.5266 169.514C80.1798 169.514 79.974 169.362 80.0848 169.177C80.3523 168.731 80.6216 168.285 80.8891 167.838C80.9999 167.652 81.3782 167.501 81.7092 167.501C82.4427 167.501 83.1765 167.5 83.902 167.5C84.2335 167.5 84.4257 167.653 84.3281 167.835C84.0868 168.284 83.8434 168.727 83.6025 169.175C83.5045 169.358 83.145 169.511 82.7982 169.511Z" fill="#7894CF"/>
<path fill-rule="evenodd" clip-rule="evenodd" d="M84.0915 167.154C83.3659 167.154 82.6404 167.155 81.9144 167.155C81.583 167.155 81.3934 167.004 81.5046 166.819C81.8746 166.202 82.238 165.586 82.6089 164.97C82.9793 164.353 83.3502 163.735 83.721 163.118C83.8314 162.934 84.1865 162.781 84.486 162.781C85.1563 162.781 85.8267 162.781 86.4892 162.781C86.7966 162.781 86.9568 162.935 86.86 163.118C86.5312 163.737 86.1976 164.354 85.8661 164.97C85.5351 165.585 85.2006 166.2 84.8722 166.818C84.775 167.002 84.4229 167.154 84.0915 167.154Z" fill="#7894CF"/>
<path fill-rule="evenodd" clip-rule="evenodd" d="M85.3775 164.795C84.6913 164.795 83.9973 164.795 83.295 164.795C82.9797 164.795 82.8055 164.644 82.9162 164.459C83.1838 164.011 83.4526 163.565 83.7206 163.118C83.8309 162.933 84.186 162.781 84.4855 162.781C85.1559 162.781 85.8263 162.781 86.4887 162.781C86.7961 162.781 86.9555 162.935 86.8596 163.118C86.6245 163.565 86.3806 164.013 86.142 164.459C86.0426 164.646 85.701 164.795 85.3775 164.795Z" fill="#7894CF"/>
<path fill-rule="evenodd" clip-rule="evenodd" d="M84.2398 176.106C83.3094 176.107 82.3785 176.111 81.4397 176.112C81.1244 176.112 80.9265 175.991 81.0058 175.839C81.1787 175.509 81.3517 175.184 81.5264 174.851C81.6043 174.702 81.9126 174.575 82.2283 174.574C83.143 174.573 84.0502 174.573 84.9575 174.57C85.2648 174.57 85.4676 174.696 85.3993 174.844C85.2465 175.176 85.0923 175.503 84.9417 175.831C84.8721 175.984 84.5551 176.106 84.2398 176.106Z" fill="#7894CF"/>
<path fill-rule="evenodd" clip-rule="evenodd" d="M89.367 174.222C87.1116 174.226 84.8474 174.228 82.5837 174.233C82.1734 174.233 81.9278 174.071 82.0316 173.873C82.2588 173.442 82.4883 173.011 82.7098 172.58C82.8114 172.383 83.2147 172.221 83.6087 172.22C85.7937 172.218 87.9865 172.214 90.1709 172.211C90.5655 172.211 90.8234 172.373 90.7467 172.57C90.579 173.002 90.4091 173.431 90.2419 173.86C90.1653 174.059 89.7769 174.221 89.367 174.222Z" fill="#7894CF"/>
<path fill-rule="evenodd" clip-rule="evenodd" d="M87.3086 171.869C86.1334 171.871 84.9581 171.871 83.7829 171.873C83.3884 171.874 83.1704 171.715 83.2702 171.515C83.4856 171.086 83.7137 170.655 83.9406 170.224C84.0448 170.026 84.4296 169.862 84.8079 169.862C85.9438 169.86 87.0796 169.861 88.2154 169.859C88.5862 169.859 88.8227 170.018 88.736 170.217C88.5473 170.648 88.3594 171.08 88.176 171.509C88.0915 171.706 87.6948 171.868 87.3086 171.869Z" fill="#7894CF"/>
<path fill-rule="evenodd" clip-rule="evenodd" d="M91.7508 169.508C89.5028 169.511 87.2469 169.512 84.9911 169.515C84.6123 169.515 84.3908 169.354 84.4941 169.157C84.7214 168.726 84.9486 168.295 85.1645 167.864C85.2643 167.665 85.6536 167.506 86.0161 167.505C88.1932 167.503 90.3619 167.501 92.531 167.5C92.8857 167.5 93.1081 167.659 93.0359 167.858C92.8796 168.286 92.7171 168.719 92.5547 169.149C92.4811 169.346 92.1212 169.508 91.7508 169.508Z" fill="#7894CF"/>
<path fill-rule="evenodd" clip-rule="evenodd" d="M88.319 167.152C87.5935 167.152 86.8675 167.153 86.1419 167.153C85.8105 167.153 85.6209 167.002 85.7159 166.817C85.944 166.372 86.1713 165.924 86.4099 165.478C86.5102 165.291 86.8438 165.142 87.1753 165.142C87.8693 165.142 88.5633 165.142 89.2652 165.141C89.5883 165.14 89.7766 165.291 89.6912 165.477C89.4854 165.924 89.2902 166.37 89.0839 166.815C88.9981 167 88.6579 167.152 88.319 167.152Z" fill="#7894CF"/>
<path fill-rule="evenodd" clip-rule="evenodd" d="M89.4204 164.794C88.7264 164.794 88.0324 164.794 87.3458 164.794C87.0227 164.794 86.8392 164.643 86.936 164.459C87.1707 164.011 87.4089 163.564 87.6379 163.118C87.732 162.933 88.0639 162.781 88.3792 162.781C89.0417 162.781 89.7041 162.781 90.3666 162.781C90.6819 162.781 90.8522 162.932 90.7686 163.118C90.5685 163.563 90.3675 164.011 90.1613 164.457C90.0763 164.643 89.744 164.794 89.4204 164.794Z" fill="#7894CF"/>
<path fill-rule="evenodd" clip-rule="evenodd" d="M88.7974 176.097C87.9931 176.099 87.1883 176.1 86.3761 176.101C86.0604 176.102 85.8524 175.979 85.9185 175.829C86.0648 175.497 86.2136 175.172 86.3603 174.841C86.4269 174.691 86.7312 174.567 87.0386 174.566C87.835 174.565 88.6162 174.564 89.4048 174.563C89.7121 174.562 89.921 174.686 89.8623 174.835C89.7318 175.166 89.6 175.493 89.4757 175.823C89.4188 175.974 89.1131 176.097 88.7974 176.097Z" fill="#7894CF"/>
<path fill-rule="evenodd" clip-rule="evenodd" d="M93.4306 176.098C92.6263 176.099 91.8215 176.102 91.0093 176.103C90.694 176.103 90.4812 175.982 90.5359 175.829C90.6546 175.501 90.7803 175.176 90.9068 174.841C90.962 174.695 91.254 174.569 91.5614 174.568C92.3579 174.566 93.139 174.564 93.9276 174.563C94.2354 174.562 94.4556 174.688 94.4088 174.837C94.3055 175.168 94.1956 175.496 94.0931 175.824C94.0458 175.976 93.7459 176.098 93.4306 176.098Z" fill="#7894CF"/>
<path fill-rule="evenodd" clip-rule="evenodd" d="M98.06 176.079C97.2556 176.081 96.4508 176.082 95.6465 176.083C95.3308 176.084 95.1079 175.962 95.1495 175.812C95.2415 175.482 95.3518 175.155 95.4495 174.824C95.4937 174.674 95.7805 174.55 96.0883 174.55C96.869 174.549 97.658 174.548 98.4387 174.547C98.7544 174.546 98.9808 174.669 98.9436 174.819C98.8626 175.149 98.775 175.476 98.6993 175.805C98.6642 175.955 98.3836 176.079 98.06 176.079Z" fill="#7894CF"/>
<path fill-rule="evenodd" clip-rule="evenodd" d="M102.695 176.079C101.891 176.081 101.086 176.082 100.274 176.083C99.9583 176.083 99.7288 175.962 99.7608 175.811C99.8308 175.482 99.9062 175.155 99.9819 174.826C100.016 174.674 100.29 174.551 100.597 174.551C101.394 174.55 102.183 174.549 102.963 174.547C103.271 174.546 103.508 174.669 103.484 174.819C103.43 175.148 103.372 175.476 103.318 175.804C103.293 175.956 103.011 176.079 102.695 176.079Z" fill="#7894CF"/>
<path fill-rule="evenodd" clip-rule="evenodd" d="M107.326 176.062C106.522 176.062 105.717 176.064 104.913 176.066C104.589 176.066 104.349 175.945 104.368 175.795C104.412 175.466 104.47 175.137 104.518 174.809C104.54 174.658 104.81 174.537 105.125 174.535C105.914 174.532 106.695 174.532 107.484 174.531C107.791 174.531 108.035 174.651 108.02 174.804C107.988 175.132 107.952 175.46 107.925 175.788C107.913 175.939 107.641 176.061 107.326 176.062Z" fill="#7894CF"/>
<path fill-rule="evenodd" clip-rule="evenodd" d="M111.958 176.061C111.154 176.062 110.349 176.064 109.545 176.065C109.229 176.065 108.983 175.944 108.992 175.792C109.014 175.465 109.045 175.137 109.071 174.809C109.084 174.657 109.34 174.534 109.647 174.534C110.428 174.534 111.217 174.533 111.997 174.531C112.321 174.53 112.578 174.652 112.573 174.802C112.563 175.132 112.55 175.459 112.55 175.787C112.55 175.938 112.281 176.06 111.958 176.061Z" fill="#7894CF"/>
<path fill-rule="evenodd" clip-rule="evenodd" d="M116.595 176.053C115.79 176.054 114.986 176.057 114.173 176.058C113.858 176.059 113.598 175.937 113.598 175.786C113.598 175.457 113.6 175.129 113.606 174.801C113.608 174.649 113.858 174.528 114.166 174.527C114.954 174.527 115.743 174.524 116.524 174.523C116.831 174.523 117.097 174.644 117.108 174.796C117.129 175.124 117.141 175.451 117.163 175.779C117.172 175.931 116.91 176.052 116.595 176.053Z" fill="#7894CF"/>
<path fill-rule="evenodd" clip-rule="evenodd" d="M121.225 176.045C120.421 176.047 119.616 176.047 118.811 176.049C118.488 176.05 118.229 175.929 118.22 175.778C118.198 175.45 118.176 175.122 118.149 174.795C118.136 174.642 118.37 174.52 118.685 174.52C119.474 174.518 120.255 174.517 121.044 174.516C121.351 174.515 121.623 174.636 121.643 174.789C121.686 175.116 121.726 175.443 121.769 175.771C121.789 175.922 121.54 176.045 121.225 176.045Z" fill="#7894CF"/>
<path fill-rule="evenodd" clip-rule="evenodd" d="M125.863 176.035C125.059 176.036 124.255 176.039 123.442 176.04C123.127 176.04 122.857 175.919 122.835 175.768C122.786 175.44 122.734 175.112 122.685 174.785C122.663 174.634 122.898 174.512 123.206 174.512C124.002 174.511 124.783 174.51 125.572 174.508C125.88 174.507 126.157 174.628 126.187 174.78C126.251 175.107 126.327 175.433 126.392 175.762C126.421 175.912 126.179 176.034 125.863 176.035Z" fill="#7894CF"/>
<path fill-rule="evenodd" clip-rule="evenodd" d="M130.491 176.026C129.687 176.027 128.882 176.029 128.07 176.03C127.754 176.031 127.473 175.911 127.439 175.76C127.363 175.432 127.295 175.103 127.226 174.778C127.193 174.625 127.415 174.504 127.723 174.504C128.512 174.503 129.3 174.501 130.081 174.5C130.388 174.5 130.685 174.62 130.728 174.772C130.819 175.098 130.904 175.425 130.996 175.753C131.038 175.904 130.807 176.026 130.491 176.026Z" fill="#7894CF"/>
<path fill-rule="evenodd" clip-rule="evenodd" d="M135.123 176.019C134.319 176.021 133.514 176.022 132.71 176.023C132.394 176.023 132.107 175.901 132.063 175.752C131.966 175.422 131.868 175.097 131.772 174.771C131.726 174.618 131.945 174.497 132.253 174.496C133.034 174.495 133.823 174.493 134.603 174.492C134.919 174.492 135.221 174.613 135.274 174.765C135.387 175.09 135.501 175.416 135.621 175.745C135.674 175.894 135.447 176.019 135.123 176.019Z" fill="#7894CF"/>
<path fill-rule="evenodd" clip-rule="evenodd" d="M139.76 176.008C138.956 176.009 138.151 176.013 137.339 176.013C137.024 176.014 136.726 175.893 136.669 175.743C136.544 175.414 136.424 175.089 136.306 174.762C136.251 174.611 136.456 174.489 136.763 174.488C137.56 174.487 138.341 174.486 139.129 174.484C139.437 174.484 139.746 174.604 139.808 174.755C139.943 175.082 140.085 175.408 140.226 175.736C140.29 175.886 140.076 176.008 139.76 176.008Z" fill="#7894CF"/>
<path fill-rule="evenodd" clip-rule="evenodd" d="M144.39 176.001C143.585 176.003 142.78 176.003 141.976 176.005C141.653 176.006 141.349 175.884 141.282 175.734C141.136 175.405 140.981 175.082 140.84 174.754C140.776 174.604 140.974 174.481 141.29 174.481C142.079 174.479 142.86 174.478 143.648 174.477C143.956 174.476 144.265 174.597 144.342 174.749C144.509 175.074 144.671 175.397 144.839 175.727C144.915 175.876 144.705 176 144.39 176.001Z" fill="#7894CF"/>
<path fill-rule="evenodd" clip-rule="evenodd" d="M149.018 175.99C148.214 175.992 147.409 175.995 146.604 175.996C146.289 175.996 145.974 175.875 145.895 175.725C145.722 175.397 145.561 175.069 145.39 174.745C145.308 174.591 145.5 174.472 145.808 174.471C146.588 174.47 147.377 174.471 148.158 174.469C148.474 174.468 148.802 174.585 148.891 174.739C149.078 175.062 149.263 175.39 149.451 175.718C149.539 175.87 149.341 175.99 149.018 175.99Z" fill="#7894CF"/>
<path fill-rule="evenodd" clip-rule="evenodd" d="M154.226 175.983C153.295 175.984 152.364 175.986 151.433 175.988C151.118 175.988 150.794 175.864 150.708 175.718C150.51 175.386 150.311 175.067 150.116 174.739C150.027 174.589 150.211 174.466 150.519 174.465C151.425 174.463 152.333 174.462 153.24 174.461C153.555 174.461 153.88 174.58 153.981 174.732C154.196 175.056 154.41 175.38 154.628 175.71C154.726 175.859 154.549 175.982 154.226 175.983Z" fill="#7894CF"/>
<path fill-rule="evenodd" clip-rule="evenodd" d="M94.2192 174.213C93.4227 174.214 92.6179 174.214 91.8057 174.216C91.4353 174.217 91.1848 174.07 91.2536 173.886C91.4213 173.439 91.5824 172.986 91.7505 172.537C91.8188 172.354 92.1687 172.208 92.5234 172.207C93.3119 172.205 94.0852 172.204 94.8659 172.203C95.2206 172.203 95.4697 172.35 95.4102 172.533C95.2644 172.981 95.133 173.432 94.992 173.882C94.936 174.062 94.5896 174.213 94.2192 174.213Z" fill="#7894CF"/>
<path fill-rule="evenodd" clip-rule="evenodd" d="M99.0902 174.202C98.2937 174.203 97.4889 174.204 96.6767 174.206C96.3063 174.207 96.0466 174.059 96.1009 173.878C96.2358 173.429 96.3606 172.979 96.495 172.53C96.5493 172.348 96.8816 172.2 97.2363 172.199C98.017 172.198 98.7981 172.196 99.571 172.195C99.9256 172.195 100.19 172.342 100.147 172.524C100.04 172.972 99.9401 173.423 99.8389 173.871C99.7987 174.052 99.4606 174.202 99.0902 174.202Z" fill="#7894CF"/>
<path fill-rule="evenodd" clip-rule="evenodd" d="M103.966 174.193C103.161 174.195 102.365 174.196 101.56 174.197C101.182 174.198 100.914 174.051 100.953 173.869C101.048 173.421 101.142 172.97 101.237 172.522C101.276 172.341 101.592 172.192 101.955 172.191C102.735 172.19 103.509 172.188 104.289 172.188C104.652 172.187 104.918 172.335 104.889 172.516C104.816 172.966 104.759 173.415 104.692 173.862C104.664 174.044 104.345 174.193 103.966 174.193Z" fill="#7894CF"/>
<path fill-rule="evenodd" clip-rule="evenodd" d="M108.851 174.192C108.046 174.193 107.249 174.195 106.437 174.196C106.067 174.196 105.773 174.049 105.798 173.869C105.86 173.421 105.918 172.971 105.98 172.521C106.005 172.341 106.319 172.192 106.674 172.191C107.455 172.19 108.236 172.188 109.009 172.188C109.363 172.187 109.645 172.335 109.632 172.516C109.598 172.964 109.571 173.414 109.537 173.861C109.523 174.043 109.221 174.192 108.851 174.192Z" fill="#7894CF"/>
<path fill-rule="evenodd" clip-rule="evenodd" d="M113.725 174.175C112.92 174.176 112.116 174.178 111.311 174.178C110.941 174.178 110.639 174.031 110.649 173.849C110.671 173.402 110.697 172.954 110.72 172.504C110.729 172.324 111.027 172.175 111.382 172.174C112.171 172.174 112.944 172.173 113.725 172.172C114.08 172.171 114.379 172.319 114.379 172.5C114.379 172.949 114.389 173.397 114.395 173.845C114.398 174.025 114.095 174.175 113.725 174.175Z" fill="#7894CF"/>
<path fill-rule="evenodd" clip-rule="evenodd" d="M118.596 174.174C117.792 174.175 116.987 174.177 116.183 174.178C115.812 174.178 115.509 174.031 115.504 173.849C115.493 173.402 115.476 172.954 115.465 172.506C115.461 172.324 115.741 172.175 116.096 172.174C116.877 172.174 117.658 172.174 118.431 172.172C118.786 172.171 119.101 172.319 119.117 172.5C119.156 172.949 119.196 173.397 119.235 173.844C119.251 174.024 118.966 174.173 118.596 174.174Z" fill="#7894CF"/>
<path fill-rule="evenodd" clip-rule="evenodd" d="M123.473 174.165C122.668 174.166 121.864 174.168 121.068 174.169C120.689 174.169 120.37 174.021 120.35 173.842C120.299 173.394 120.251 172.945 120.2 172.498C120.18 172.317 120.46 172.168 120.823 172.167C121.596 172.165 122.377 172.166 123.15 172.164C123.513 172.163 123.831 172.31 123.86 172.492C123.933 172.939 124.01 173.388 124.088 173.835C124.12 174.015 123.852 174.164 123.473 174.165Z" fill="#7894CF"/>
<path fill-rule="evenodd" clip-rule="evenodd" d="M128.355 174.155C127.551 174.156 126.746 174.157 125.934 174.159C125.571 174.16 125.234 174.012 125.2 173.832C125.116 173.385 125.024 172.937 124.94 172.49C124.907 172.309 125.177 172.16 125.532 172.159C126.32 172.157 127.094 172.157 127.874 172.156C128.229 172.156 128.555 172.305 128.6 172.485C128.713 172.933 128.827 173.379 128.939 173.826C128.984 174.006 128.726 174.155 128.355 174.155Z" fill="#7894CF"/>
<path fill-rule="evenodd" clip-rule="evenodd" d="M133.227 174.154C132.423 174.155 131.618 174.156 130.806 174.158C130.443 174.159 130.096 174.011 130.049 173.831C129.931 173.384 129.81 172.938 129.686 172.49C129.636 172.309 129.891 172.159 130.246 172.159C131.027 172.158 131.807 172.157 132.581 172.156C132.935 172.156 133.277 172.306 133.338 172.484C133.49 172.933 133.635 173.379 133.787 173.825C133.848 174.005 133.597 174.154 133.227 174.154Z" fill="#7894CF"/>
<path fill-rule="evenodd" clip-rule="evenodd" d="M138.104 174.137C137.299 174.138 136.494 174.139 135.69 174.141C135.319 174.142 134.965 173.994 134.902 173.814C134.744 173.368 134.585 172.921 134.428 172.474C134.365 172.293 134.602 172.144 134.965 172.143C135.745 172.142 136.519 172.142 137.299 172.141C137.662 172.14 138.006 172.29 138.08 172.469C138.267 172.917 138.454 173.361 138.64 173.809C138.714 173.987 138.474 174.137 138.104 174.137Z" fill="#7894CF"/>
<path fill-rule="evenodd" clip-rule="evenodd" d="M142.985 174.136C142.18 174.137 141.376 174.138 140.564 174.14C140.201 174.141 139.821 173.994 139.744 173.814C139.552 173.368 139.364 172.92 139.168 172.474C139.088 172.293 139.326 172.145 139.681 172.145C140.461 172.144 141.242 172.142 142.015 172.141C142.37 172.14 142.73 172.29 142.82 172.469C143.045 172.917 143.263 173.361 143.482 173.808C143.57 173.987 143.348 174.136 142.985 174.136Z" fill="#7894CF"/>
<path fill-rule="evenodd" clip-rule="evenodd" d="M147.86 174.126C147.056 174.127 146.251 174.129 145.439 174.13C145.076 174.131 144.688 173.985 144.594 173.805C144.364 173.36 144.138 172.912 143.908 172.466C143.815 172.285 144.035 172.137 144.39 172.137C145.178 172.136 145.951 172.134 146.732 172.133C147.087 172.132 147.464 172.282 147.568 172.461C147.827 172.908 148.082 173.352 148.341 173.798C148.445 173.977 148.223 174.126 147.86 174.126Z" fill="#7894CF"/>
<path fill-rule="evenodd" clip-rule="evenodd" d="M152.89 174.118C152.07 174.119 151.257 174.12 150.429 174.122C150.051 174.122 149.654 173.973 149.546 173.791C149.284 173.349 149.023 172.902 148.757 172.463C148.644 172.276 148.852 172.129 149.215 172.129C150.011 172.128 150.808 172.126 151.597 172.125C151.96 172.125 152.349 172.273 152.473 172.457C152.767 172.897 153.057 173.341 153.348 173.784C153.467 173.965 153.268 174.118 152.89 174.118Z" fill="#7894CF"/>
<path fill-rule="evenodd" clip-rule="evenodd" d="M151.332 171.779C149.715 171.781 148.091 171.783 146.466 171.785C146.071 171.786 145.664 171.626 145.558 171.432C145.325 171.003 145.085 170.578 144.849 170.152C144.739 169.955 144.959 169.793 145.337 169.793C146.907 169.792 148.477 169.791 150.038 169.789C150.409 169.789 150.814 169.945 150.945 170.144C151.224 170.568 151.508 170.995 151.79 171.423C151.918 171.617 151.711 171.778 151.332 171.779Z" fill="#7894CF"/>
<path fill-rule="evenodd" clip-rule="evenodd" d="M149.809 169.443C147.963 169.444 146.109 169.446 144.256 169.448C143.885 169.449 143.492 169.29 143.388 169.095C143.161 168.667 142.921 168.241 142.694 167.813C142.59 167.618 142.805 167.457 143.16 167.457C144.95 167.456 146.733 167.454 148.523 167.453C148.87 167.453 149.263 167.613 149.39 167.807C149.673 168.235 149.96 168.659 150.242 169.087C150.371 169.282 150.179 169.443 149.809 169.443Z" fill="#7894CF"/>
<path fill-rule="evenodd" clip-rule="evenodd" d="M148.293 167.109C145.754 167.111 143.206 167.11 140.659 167.113C140.303 167.113 139.934 166.953 139.838 166.759C139.626 166.33 139.411 165.905 139.199 165.475C139.104 165.281 139.31 165.12 139.649 165.12C142.102 165.118 144.555 165.117 147 165.117C147.339 165.117 147.716 165.277 147.843 165.471C148.126 165.9 148.413 166.324 148.695 166.752C148.824 166.946 148.649 167.108 148.293 167.109Z" fill="#7894CF"/>
<path fill-rule="evenodd" clip-rule="evenodd" d="M146.781 164.775C145.771 164.775 144.762 164.775 143.744 164.775C143.405 164.775 143.037 164.613 142.924 164.419C142.675 163.991 142.426 163.567 142.183 163.14C142.071 162.944 142.238 162.781 142.562 162.781C143.54 162.781 144.51 162.781 145.48 162.781C145.803 162.781 146.172 162.945 146.3 163.139C146.582 163.566 146.87 163.99 147.152 164.418C147.28 164.612 147.112 164.775 146.781 164.775Z" fill="#7894CF"/>
<path fill-rule="evenodd" clip-rule="evenodd" d="M144.483 171.789C143.647 171.79 142.819 171.791 141.991 171.792C141.612 171.792 141.224 171.638 141.131 171.445C140.924 171.015 140.718 170.584 140.516 170.15C140.426 169.958 140.65 169.8 141.013 169.8C141.817 169.798 142.622 169.798 143.418 169.797C143.781 169.796 144.175 169.953 144.278 170.146C144.506 170.577 144.741 171.012 144.98 171.439C145.088 171.633 144.854 171.789 144.483 171.789Z" fill="#7894CF"/>
<path fill-rule="evenodd" clip-rule="evenodd" d="M139.698 171.79C138.877 171.791 138.049 171.792 137.213 171.793C136.843 171.794 136.464 171.639 136.385 171.445C136.212 171.015 136.042 170.585 135.873 170.151C135.798 169.959 136.046 169.799 136.409 169.798C137.206 169.797 138.01 169.798 138.807 169.797C139.177 169.796 139.547 169.954 139.635 170.147C139.831 170.579 140.025 171.012 140.226 171.441C140.317 171.635 140.084 171.79 139.698 171.79Z" fill="#7894CF"/>
<path fill-rule="evenodd" clip-rule="evenodd" d="M134.926 171.801C134.106 171.803 133.27 171.802 132.442 171.804C132.055 171.804 131.698 171.648 131.637 171.455C131.501 171.025 131.366 170.593 131.235 170.16C131.177 169.967 131.424 169.809 131.795 169.809C132.599 169.808 133.404 169.806 134.201 169.805C134.564 169.804 134.927 169.962 134.998 170.156C135.156 170.588 135.323 171.018 135.487 171.451C135.559 171.642 135.313 171.8 134.926 171.801Z" fill="#7894CF"/>
<path fill-rule="evenodd" clip-rule="evenodd" d="M130.151 171.81C129.323 171.811 128.495 171.812 127.667 171.813C127.281 171.814 126.933 171.659 126.886 171.465C126.783 171.035 126.687 170.602 126.594 170.168C126.553 169.974 126.815 169.816 127.186 169.815C127.982 169.814 128.787 169.813 129.583 169.813C129.954 169.812 130.3 169.969 130.356 170.164C130.481 170.596 130.604 171.03 130.735 171.459C130.794 171.653 130.53 171.81 130.151 171.81Z" fill="#7894CF"/>
<path fill-rule="evenodd" clip-rule="evenodd" d="M125.382 171.81C124.554 171.811 123.726 171.814 122.89 171.814C122.511 171.815 122.178 171.659 122.148 171.465C122.083 171.034 122.024 170.599 121.959 170.168C121.93 169.974 122.204 169.816 122.574 169.815C123.379 169.814 124.184 169.814 124.98 169.813C125.343 169.812 125.68 169.967 125.721 170.164C125.813 170.595 125.897 171.03 125.989 171.461C126.031 171.655 125.752 171.81 125.382 171.81Z" fill="#7894CF"/>
<path fill-rule="evenodd" clip-rule="evenodd" d="M120.602 171.819C119.774 171.82 118.945 171.822 118.109 171.823C117.739 171.824 117.404 171.666 117.392 171.474C117.365 171.042 117.34 170.609 117.313 170.175C117.301 169.981 117.597 169.823 117.96 169.823C118.764 169.822 119.561 169.82 120.357 169.82C120.728 169.82 121.04 169.977 121.067 170.171C121.127 170.604 121.181 171.037 121.24 171.468C121.267 171.662 120.98 171.819 120.602 171.819Z" fill="#7894CF"/>
<path fill-rule="evenodd" clip-rule="evenodd" d="M115.823 171.829C115.003 171.83 114.166 171.831 113.338 171.831C112.96 171.831 112.65 171.674 112.652 171.482C112.658 171.05 112.671 170.616 112.676 170.182C112.678 169.988 112.983 169.829 113.346 169.829C114.151 169.829 114.955 169.829 115.752 169.828C116.123 169.828 116.421 169.984 116.43 170.178C116.452 170.611 116.471 171.046 116.493 171.478C116.503 171.671 116.209 171.829 115.823 171.829Z" fill="#7894CF"/>
<path fill-rule="evenodd" clip-rule="evenodd" d="M111.05 171.83C110.23 171.831 109.394 171.833 108.566 171.834C108.18 171.834 107.884 171.676 107.903 171.485C107.947 171.051 107.993 170.619 108.037 170.183C108.056 169.99 108.369 169.831 108.74 169.831C109.544 169.83 110.341 169.828 111.137 169.828C111.508 169.828 111.799 169.986 111.792 170.179C111.776 170.614 111.769 171.045 111.752 171.479C111.745 171.672 111.428 171.83 111.05 171.83Z" fill="#7894CF"/>
<path fill-rule="evenodd" clip-rule="evenodd" d="M106.279 171.84C105.451 171.841 104.622 171.844 103.794 171.844C103.408 171.845 103.127 171.688 103.163 171.493C103.245 171.06 103.316 170.626 103.392 170.192C103.426 169.998 103.763 169.84 104.125 169.84C104.93 169.839 105.735 169.837 106.531 169.836C106.894 169.836 107.176 169.993 107.154 170.188C107.105 170.622 107.053 171.055 107.004 171.49C106.983 171.681 106.649 171.84 106.279 171.84Z" fill="#7894CF"/>
<path fill-rule="evenodd" clip-rule="evenodd" d="M101.496 171.849C100.668 171.85 99.8401 171.852 99.0037 171.853C98.6333 171.853 98.354 171.693 98.4043 171.501C98.519 171.067 98.6289 170.633 98.7437 170.199C98.7949 170.004 99.1461 169.847 99.5086 169.846C100.313 169.845 101.118 169.845 101.906 169.844C102.277 169.843 102.545 170 102.506 170.195C102.419 170.63 102.341 171.062 102.254 171.496C102.215 171.689 101.875 171.848 101.496 171.849Z" fill="#7894CF"/>
<path fill-rule="evenodd" clip-rule="evenodd" d="M96.7197 171.851C95.8996 171.853 95.0632 171.854 94.2353 171.855C93.8565 171.856 93.5986 171.699 93.6674 171.503C93.8197 171.07 93.9568 170.635 94.1092 170.2C94.1775 170.004 94.5348 169.846 94.8977 169.846C95.7021 169.846 96.5069 169.845 97.3033 169.844C97.6738 169.843 97.9251 170.001 97.8712 170.196C97.7517 170.63 97.6234 171.064 97.5083 171.499C97.4579 171.691 97.1059 171.851 96.7197 171.851Z" fill="#7894CF"/>
<path fill-rule="evenodd" clip-rule="evenodd" d="M91.9462 171.86C91.126 171.862 90.2897 171.862 89.4617 171.863C89.0751 171.863 88.8378 171.705 88.9175 171.513C89.0983 171.078 89.2853 170.641 89.4696 170.208C89.5532 170.011 89.9193 169.855 90.2897 169.854C91.0941 169.853 91.8989 169.852 92.6874 169.852C93.0579 169.852 93.3022 170.009 93.2317 170.204C93.0736 170.639 92.9186 171.075 92.7663 171.508C92.698 171.702 92.3328 171.859 91.9462 171.86Z" fill="#7894CF"/>
<path fill-rule="evenodd" clip-rule="evenodd" d="M141.962 169.453C141.173 169.454 140.376 169.455 139.58 169.456C139.209 169.456 138.843 169.301 138.752 169.106C138.551 168.677 138.365 168.245 138.168 167.813C138.08 167.622 138.294 167.463 138.649 167.462C139.422 167.461 140.187 167.462 140.952 167.461C141.307 167.461 141.672 167.617 141.773 167.81C141.995 168.24 142.214 168.673 142.443 169.102C142.546 169.296 142.332 169.453 141.962 169.453Z" fill="#7894CF"/>
<path fill-rule="evenodd" clip-rule="evenodd" d="M137.376 169.463C136.587 169.464 135.791 169.465 134.994 169.466C134.624 169.466 134.269 169.31 134.197 169.115C134.04 168.684 133.874 168.253 133.716 167.822C133.645 167.629 133.874 167.471 134.229 167.471C135.002 167.47 135.767 167.469 136.532 167.469C136.879 167.468 137.235 167.626 137.32 167.819C137.511 168.249 137.698 168.682 137.888 169.112C137.974 169.306 137.739 169.463 137.376 169.463Z" fill="#7894CF"/>
<path fill-rule="evenodd" clip-rule="evenodd" d="M132.803 169.464C131.998 169.465 131.201 169.466 130.405 169.466C130.042 169.466 129.696 169.31 129.64 169.117C129.515 168.686 129.389 168.253 129.269 167.823C129.215 167.629 129.458 167.47 129.806 167.47C130.578 167.469 131.344 167.47 132.117 167.469C132.464 167.468 132.806 167.628 132.874 167.818C133.027 168.251 133.174 168.685 133.331 169.112C133.403 169.309 133.157 169.463 132.803 169.464Z" fill="#7894CF"/>
<path fill-rule="evenodd" clip-rule="evenodd" d="M128.212 169.466C127.423 169.466 126.618 169.468 125.822 169.469C125.459 169.469 125.13 169.312 125.088 169.118C124.996 168.686 124.908 168.254 124.82 167.822C124.781 167.629 125.034 167.471 125.388 167.471C126.161 167.471 126.926 167.47 127.691 167.469C128.046 167.468 128.371 167.626 128.425 167.82C128.544 168.25 128.647 168.685 128.772 169.116C128.828 169.311 128.575 169.466 128.212 169.466Z" fill="#7894CF"/>
<path fill-rule="evenodd" clip-rule="evenodd" d="M123.63 169.466C122.841 169.467 122.044 169.468 121.24 169.469C120.877 169.469 120.555 169.314 120.53 169.119C120.476 168.688 120.427 168.255 120.373 167.823C120.348 167.629 120.617 167.47 120.972 167.47C121.737 167.47 122.51 167.469 123.275 167.469C123.63 167.469 123.941 167.626 123.978 167.82C124.059 168.25 124.14 168.684 124.222 169.116C124.258 169.31 123.992 169.466 123.63 169.466Z" fill="#7894CF"/>
<path fill-rule="evenodd" clip-rule="evenodd" d="M119.045 169.477C118.257 169.478 117.46 169.479 116.663 169.48C116.293 169.48 115.987 169.323 115.977 169.129C115.955 168.696 115.938 168.263 115.922 167.832C115.915 167.637 116.198 167.48 116.553 167.479C117.318 167.478 118.091 167.477 118.856 167.477C119.203 167.476 119.507 167.635 119.526 167.828C119.57 168.26 119.62 168.693 119.669 169.125C119.691 169.32 119.416 169.477 119.045 169.477Z" fill="#7894CF"/>
<path fill-rule="evenodd" clip-rule="evenodd" d="M114.462 169.486C113.666 169.487 112.869 169.487 112.073 169.487C111.71 169.487 111.413 169.33 111.418 169.136C111.429 168.703 111.457 168.27 111.473 167.838C111.481 167.644 111.781 167.486 112.128 167.486C112.893 167.485 113.666 167.484 114.431 167.484C114.778 167.484 115.081 167.642 115.086 167.836C115.097 168.268 115.101 168.702 115.118 169.134C115.125 169.327 114.825 169.485 114.462 169.486Z" fill="#7894CF"/>
<path fill-rule="evenodd" clip-rule="evenodd" d="M109.874 169.488C109.085 169.488 108.288 169.489 107.492 169.49C107.121 169.491 106.844 169.333 106.869 169.138C106.923 168.705 106.972 168.272 107.027 167.839C107.051 167.646 107.358 167.486 107.713 167.486C108.478 167.486 109.251 167.484 110.016 167.484C110.363 167.484 110.643 167.642 110.631 167.836C110.604 168.269 110.582 168.702 110.56 169.136C110.551 169.329 110.245 169.488 109.874 169.488Z" fill="#7894CF"/>
<path fill-rule="evenodd" clip-rule="evenodd" d="M105.298 169.488C104.501 169.488 103.704 169.489 102.908 169.49C102.545 169.491 102.277 169.333 102.316 169.139C102.403 168.706 102.484 168.27 102.576 167.838C102.618 167.643 102.939 167.486 103.294 167.486C104.059 167.486 104.832 167.484 105.589 167.484C105.944 167.484 106.208 167.641 106.181 167.835C106.121 168.268 106.062 168.703 106.007 169.135C105.983 169.329 105.66 169.487 105.298 169.488Z" fill="#7894CF"/>
<path fill-rule="evenodd" clip-rule="evenodd" d="M100.719 169.49C99.9298 169.491 99.1255 169.492 98.329 169.493C97.9665 169.493 97.7151 169.336 97.769 169.141C97.8885 168.708 98.0146 168.273 98.1399 167.839C98.1959 167.645 98.5265 167.486 98.8812 167.486C99.6461 167.485 100.419 167.485 101.176 167.484C101.531 167.484 101.785 167.644 101.744 167.837C101.651 168.269 101.558 168.704 101.461 169.136C101.416 169.332 101.081 169.49 100.719 169.49Z" fill="#7894CF"/>
<path fill-rule="evenodd" clip-rule="evenodd" d="M96.1338 169.5C95.3373 169.501 94.5404 169.503 93.7361 169.504C93.3814 169.504 93.1366 169.345 93.2076 169.15C93.3652 168.716 93.5233 168.283 93.6809 167.849C93.7518 167.654 94.1069 167.495 94.4542 167.495C95.2191 167.494 95.9919 167.493 96.7573 167.492C97.1041 167.492 97.3515 167.652 97.2937 167.845C97.1623 168.281 97.0305 168.711 96.8992 169.147C96.8409 169.34 96.4963 169.5 96.1338 169.5Z" fill="#7894CF"/>
<path fill-rule="evenodd" clip-rule="evenodd" d="M138.472 167.119C137.715 167.12 136.95 167.121 136.185 167.121C135.837 167.121 135.484 166.963 135.404 166.771C135.223 166.339 135.05 165.907 134.875 165.476C134.798 165.283 135.009 165.126 135.341 165.126C136.082 165.126 136.816 165.126 137.542 165.125C137.88 165.125 138.23 165.282 138.322 165.474C138.529 165.906 138.731 166.339 138.937 166.769C139.03 166.961 138.827 167.119 138.472 167.119Z" fill="#7894CF"/>
<path fill-rule="evenodd" clip-rule="evenodd" d="M134.082 167.121C133.325 167.122 132.559 167.122 131.802 167.123C131.447 167.123 131.111 166.967 131.045 166.773C130.898 166.342 130.756 165.911 130.619 165.476C130.559 165.285 130.785 165.126 131.124 165.126C131.857 165.126 132.591 165.126 133.325 165.125C133.663 165.125 133.998 165.282 134.074 165.474C134.243 165.907 134.41 166.341 134.579 166.77C134.655 166.965 134.436 167.121 134.082 167.121Z" fill="#7894CF"/>
<path fill-rule="evenodd" clip-rule="evenodd" d="M129.694 167.121C128.929 167.122 128.164 167.123 127.399 167.124C127.052 167.124 126.722 166.968 126.673 166.773C126.565 166.342 126.467 165.91 126.358 165.476C126.309 165.284 126.555 165.126 126.886 165.126C127.62 165.125 128.361 165.125 129.095 165.125C129.426 165.125 129.755 165.284 129.812 165.474C129.944 165.908 130.079 166.339 130.215 166.77C130.276 166.964 130.041 167.121 129.694 167.121Z" fill="#7894CF"/>
<path fill-rule="evenodd" clip-rule="evenodd" d="M125.303 167.124C124.538 167.124 123.781 167.125 123.015 167.125C122.668 167.125 122.345 166.969 122.313 166.774C122.243 166.344 122.179 165.91 122.108 165.476C122.077 165.284 122.329 165.126 122.66 165.126C123.402 165.126 124.135 165.125 124.861 165.125C125.2 165.125 125.511 165.281 125.555 165.474C125.653 165.907 125.752 166.34 125.855 166.771C125.901 166.965 125.65 167.124 125.303 167.124Z" fill="#7894CF"/>
<path fill-rule="evenodd" clip-rule="evenodd" d="M120.908 167.133C120.151 167.133 119.386 167.134 118.621 167.134C118.274 167.134 117.976 166.977 117.959 166.783C117.92 166.351 117.881 165.919 117.848 165.485C117.834 165.293 118.1 165.134 118.44 165.134C119.173 165.134 119.907 165.134 120.64 165.133C120.979 165.132 121.274 165.291 121.303 165.483C121.369 165.917 121.427 166.349 121.492 166.781C121.521 166.974 121.264 167.133 120.908 167.133Z" fill="#7894CF"/>
<path fill-rule="evenodd" clip-rule="evenodd" d="M116.524 167.133C115.759 167.134 115.001 167.133 114.237 167.134C113.882 167.135 113.598 166.977 113.598 166.784C113.598 166.35 113.598 165.917 113.598 165.484C113.598 165.29 113.874 165.133 114.213 165.133C114.946 165.133 115.68 165.133 116.414 165.133C116.753 165.133 117.033 165.29 117.044 165.483C117.072 165.917 117.098 166.349 117.131 166.782C117.146 166.974 116.871 167.133 116.524 167.133Z" fill="#7894CF"/>
<path fill-rule="evenodd" clip-rule="evenodd" d="M112.13 167.135C111.364 167.135 110.599 167.136 109.835 167.136C109.496 167.136 109.218 166.978 109.235 166.785C109.273 166.351 109.307 165.919 109.345 165.484C109.362 165.292 109.645 165.133 109.976 165.133C110.718 165.133 111.452 165.134 112.185 165.133C112.516 165.132 112.795 165.29 112.792 165.482C112.787 165.916 112.774 166.35 112.769 166.782C112.766 166.976 112.477 167.135 112.13 167.135Z" fill="#7894CF"/>
<path fill-rule="evenodd" clip-rule="evenodd" d="M107.737 167.136C106.98 167.137 106.214 167.138 105.449 167.139C105.102 167.14 104.834 166.981 104.866 166.787C104.936 166.353 105.002 165.92 105.079 165.485C105.113 165.291 105.418 165.135 105.757 165.134C106.49 165.133 107.224 165.133 107.958 165.133C108.289 165.133 108.553 165.291 108.533 165.484C108.49 165.918 108.443 166.351 108.399 166.785C108.38 166.979 108.084 167.136 107.737 167.136Z" fill="#7894CF"/>
<path fill-rule="evenodd" clip-rule="evenodd" d="M103.345 167.146C102.588 167.147 101.823 167.147 101.058 167.147C100.711 167.147 100.467 166.99 100.513 166.795C100.617 166.362 100.725 165.927 100.829 165.493C100.875 165.3 101.192 165.142 101.531 165.142C102.264 165.142 102.998 165.142 103.732 165.141C104.071 165.14 104.312 165.299 104.276 165.492C104.194 165.926 104.123 166.361 104.047 166.793C104.013 166.988 103.7 167.146 103.345 167.146Z" fill="#7894CF"/>
<path fill-rule="evenodd" clip-rule="evenodd" d="M98.9592 167.146C98.2021 167.146 97.4367 167.147 96.6718 167.148C96.3171 167.148 96.0877 166.99 96.1512 166.795C96.2926 166.361 96.4353 165.928 96.5772 165.493C96.6403 165.3 96.9638 165.141 97.3027 165.141C98.0362 165.141 98.7779 165.142 99.5034 165.141C99.8423 165.14 100.075 165.299 100.024 165.492C99.9093 165.928 99.799 166.362 99.6851 166.794C99.6335 166.989 99.3059 167.146 98.9592 167.146Z" fill="#7894CF"/>
<path fill-rule="evenodd" clip-rule="evenodd" d="M94.5471 167.149C93.1749 167.15 91.7943 167.151 90.4142 167.152C90.0595 167.152 89.8384 166.99 89.9251 166.793C90.1142 166.363 90.3117 165.932 90.5009 165.501C90.5876 165.304 90.9427 165.142 91.2816 165.142C92.6144 165.141 93.9398 165.141 95.2648 165.141C95.6041 165.141 95.8292 165.299 95.7618 165.498C95.6164 165.928 95.4714 166.36 95.3204 166.79C95.2508 166.988 94.9097 167.149 94.5471 167.149Z" fill="#7894CF"/>
<path fill-rule="evenodd" clip-rule="evenodd" d="M141.654 164.777C140.928 164.777 140.202 164.776 139.469 164.777C139.129 164.777 138.776 164.622 138.68 164.427C138.469 163.999 138.262 163.565 138.049 163.132C137.955 162.94 138.128 162.781 138.452 162.781C139.153 162.781 139.855 162.781 140.558 162.781C140.881 162.781 141.233 162.943 141.338 163.133C141.58 163.566 141.819 163.995 142.064 164.426C142.173 164.619 141.993 164.777 141.654 164.777Z" fill="#7894CF"/>
<path fill-rule="evenodd" clip-rule="evenodd" d="M137.457 164.777C136.731 164.777 135.997 164.777 135.272 164.777C134.932 164.778 134.596 164.622 134.515 164.428C134.336 163.999 134.16 163.565 133.986 163.133C133.909 162.941 134.096 162.781 134.42 162.781C135.122 162.781 135.824 162.781 136.518 162.781C136.841 162.781 137.186 162.942 137.275 163.133C137.478 163.566 137.68 163.998 137.891 164.426C137.987 164.623 137.788 164.777 137.457 164.777Z" fill="#7894CF"/>
<path fill-rule="evenodd" clip-rule="evenodd" d="M133.254 164.779C132.528 164.779 131.795 164.78 131.069 164.781C130.738 164.781 130.409 164.623 130.343 164.429C130.197 163.999 130.059 163.566 129.917 163.133C129.854 162.942 130.067 162.781 130.383 162.781C131.085 162.781 131.787 162.781 132.481 162.781C132.804 162.781 133.132 162.942 133.207 163.133C133.376 163.568 133.545 163.997 133.719 164.428C133.798 164.622 133.593 164.779 133.254 164.779Z" fill="#7894CF"/>
<path fill-rule="evenodd" clip-rule="evenodd" d="M129.049 164.781C124.49 164.781 119.931 164.783 115.372 164.784C110.813 164.786 106.246 164.788 101.687 164.79C101.348 164.79 101.109 164.627 101.159 164.431C101.267 164 101.366 163.572 101.475 163.142C101.524 162.945 101.829 162.781 102.153 162.781C106.538 162.781 110.924 162.781 115.301 162.781C119.686 162.781 124.064 162.781 128.441 162.781C128.764 162.781 129.084 162.945 129.143 163.14C129.273 163.569 129.423 163.994 129.553 164.423C129.614 164.619 129.388 164.781 129.049 164.781Z" fill="#7894CF"/>
<path fill-rule="evenodd" clip-rule="evenodd" d="M124.86 164.782C124.135 164.782 123.401 164.782 122.667 164.783C122.336 164.784 122.039 164.626 122.005 164.432C121.929 163.999 121.863 163.567 121.792 163.133C121.76 162.941 121.997 162.781 122.321 162.781C123.022 162.781 123.725 162.781 124.419 162.781C124.742 162.781 125.045 162.941 125.089 163.133C125.187 163.566 125.273 164 125.381 164.431C125.43 164.625 125.192 164.782 124.86 164.782Z" fill="#7894CF"/>
<path fill-rule="evenodd" clip-rule="evenodd" d="M120.657 164.783C119.94 164.783 119.206 164.784 118.472 164.784C118.141 164.785 117.851 164.626 117.834 164.432C117.795 164 117.764 163.567 117.731 163.133C117.717 162.941 117.96 162.781 118.283 162.781C118.985 162.781 119.687 162.781 120.389 162.781C120.705 162.781 121.001 162.941 121.028 163.133C121.088 163.566 121.147 163.999 121.217 164.432C121.249 164.626 120.989 164.783 120.657 164.783Z" fill="#7894CF"/>
<path fill-rule="evenodd" clip-rule="evenodd" d="M116.451 164.784C115.733 164.784 115 164.786 114.266 164.786C113.934 164.786 113.661 164.627 113.659 164.433C113.653 164.001 113.659 163.569 113.659 163.135C113.659 162.942 113.927 162.781 114.242 162.781C114.944 162.781 115.646 162.781 116.34 162.781C116.664 162.781 116.943 162.941 116.956 163.133C116.983 163.567 117.002 164 117.034 164.433C117.049 164.628 116.79 164.784 116.451 164.784Z" fill="#7894CF"/>
<path fill-rule="evenodd" clip-rule="evenodd" d="M112.257 164.786C111.532 164.786 110.806 164.786 110.073 164.787C109.734 164.788 109.474 164.628 109.489 164.435C109.522 164 109.561 163.569 109.599 163.135C109.616 162.942 109.891 162.781 110.214 162.781C110.916 162.781 111.618 162.781 112.312 162.781C112.636 162.781 112.901 162.942 112.896 163.133C112.885 163.569 112.877 164.001 112.872 164.433C112.87 164.627 112.596 164.786 112.257 164.786Z" fill="#7894CF"/>
<path fill-rule="evenodd" clip-rule="evenodd" d="M108.06 164.787C107.334 164.787 106.608 164.788 105.875 164.788C105.536 164.788 105.294 164.629 105.323 164.436C105.388 164.002 105.465 163.569 105.536 163.135C105.567 162.942 105.859 162.781 106.182 162.781C106.884 162.781 107.586 162.781 108.281 162.781C108.604 162.781 108.852 162.942 108.833 163.133C108.789 163.569 108.737 164 108.699 164.435C108.682 164.627 108.399 164.787 108.06 164.787Z" fill="#7894CF"/>
<path fill-rule="evenodd" clip-rule="evenodd" d="M103.864 164.788C103.138 164.788 102.405 164.79 101.679 164.79C101.34 164.79 101.105 164.629 101.15 164.437C101.254 164.002 101.365 163.57 101.474 163.135C101.522 162.942 101.821 162.781 102.144 162.781C102.846 162.781 103.548 162.781 104.25 162.781C104.566 162.781 104.807 162.942 104.771 163.135C104.689 163.569 104.61 164.002 104.534 164.436C104.5 164.629 104.195 164.788 103.864 164.788Z" fill="#7894CF"/>
<path fill-rule="evenodd" clip-rule="evenodd" d="M99.6535 164.79C98.3364 164.791 97.0193 164.791 95.6939 164.791C95.3629 164.791 95.1409 164.63 95.2127 164.432C95.3691 164.002 95.5214 163.572 95.6782 163.142C95.75 162.945 96.0806 162.781 96.4037 162.781C97.6656 162.781 98.9354 162.781 100.205 162.781C100.528 162.781 100.746 162.943 100.694 163.142C100.581 163.57 100.477 164 100.363 164.431C100.312 164.627 99.9924 164.79 99.6535 164.79Z" fill="#7894CF"/>
<path fill-rule="evenodd" clip-rule="evenodd" d="M93.4679 164.792C92.7739 164.792 92.0878 164.792 91.3859 164.792C91.0702 164.792 90.8793 164.642 90.9598 164.457C91.1551 164.009 91.3636 163.565 91.5593 163.118C91.6394 162.934 91.9538 162.781 92.2612 162.781C92.9315 162.781 93.594 162.781 94.2644 162.781C94.5643 162.781 94.7517 162.933 94.6825 163.118C94.5153 163.562 94.3445 164.011 94.1777 164.456C94.1081 164.642 93.7836 164.792 93.4679 164.792Z" fill="#7894CF"/>
<path fill-rule="evenodd" clip-rule="evenodd" d="M85.1163 156.569C89.4726 156.742 96.4039 156.96 98.3778 157.39C100.352 157.82 104.011 162.132 105.273 164.165C105.975 165.295 104.255 165.572 100.494 162.611C104.935 168.235 103.989 170.588 103.404 170.919C102.507 171.425 101.48 167.228 98.4255 165.928C98.7951 167.711 98.1886 170.716 97.1509 170.541C95.7738 170.309 95.4376 166.907 94.6083 166.39C91.4224 164.404 87.5036 170.529 76.6048 164.795C65.7056 159.06 76.0719 155.374 85.1163 156.569Z" fill="#FBC9BE"/>
<path fill-rule="evenodd" clip-rule="evenodd" d="M82.1997 167.166C72.4796 168.415 48.9639 167.294 43.1697 160.78C37.7599 154.699 45.7334 148.046 55.4412 148.473C65.656 148.922 77.1231 154.605 84.047 156.454C80.3852 158.32 79.0409 161.425 82.1997 167.166Z" fill="#FF867E"/>
<path fill-rule="evenodd" clip-rule="evenodd" d="M138.595 73.1719C145.515 78.0991 164.617 96.4735 167.996 110.029C169.813 117.322 158.828 119.268 152.519 113.321C146.847 107.973 132.746 87.3253 129.32 81.591C133.672 81.0433 136.975 79.0607 138.595 73.1719Z" fill="#FF867E"/>
<path fill-rule="evenodd" clip-rule="evenodd" d="M84.4195 72.5275C86.5116 72.5275 88.218 69.4822 88.218 65.7481C88.218 62.0141 86.5116 58.9688 84.4195 58.9688C82.3274 58.9688 80.6211 62.0141 80.6211 65.7481C80.6215 69.4818 82.3279 72.5275 84.4195 72.5275Z" fill="#425682"/>
<path fill-rule="evenodd" clip-rule="evenodd" d="M83.5541 71.0245C85.1803 71.0245 86.507 68.657 86.507 65.7545C86.507 62.8519 85.1807 60.4844 83.5541 60.4844C81.9278 60.4844 80.6016 62.8519 80.6016 65.7545C80.6011 68.657 81.9274 71.0245 83.5541 71.0245Z" fill="#5571AD"/>
<path fill-rule="evenodd" clip-rule="evenodd" d="M177.914 108.414H94.3672L92.082 162.313H175.628L177.914 108.414Z" fill="#5571AD"/>
<path fill-rule="evenodd" clip-rule="evenodd" d="M139.875 188.449C148.578 188.449 155.676 186.93 155.676 185.068C155.676 183.206 148.578 181.688 139.875 181.688C131.172 181.688 124.074 183.206 124.074 185.068C124.074 186.93 131.172 188.449 139.875 188.449Z" fill="#435C94"/>
<path d="M155.676 183.531H124.074V185.067H155.676V183.531Z" fill="#435C94"/>
<path fill-rule="evenodd" clip-rule="evenodd" d="M139.875 186.918C148.578 186.918 155.676 185.399 155.676 183.537C155.676 181.675 148.578 180.156 139.875 180.156C131.172 180.156 124.074 181.675 124.074 183.537C124.074 185.399 131.172 186.918 139.875 186.918Z" fill="#5571AD"/>
<path fill-rule="evenodd" clip-rule="evenodd" d="M175.729 110.609H96.3682L94.2695 160.111H173.63L175.729 110.609Z" fill="#435C94"/>
<path d="M146.101 138.703H133.648V183.535H146.101V138.703Z" fill="#6784C2"/>
<path d="M146.101 167.828H133.648V183.532H146.101V167.828Z" fill="#435C94"/>
<path d="M83.0181 65.7487C82.0049 55.8479 83.2441 39.559 97.7784 37.4766" stroke="#425682" stroke-width="3.8398" stroke-miterlimit="22.9256" stroke-linecap="round" stroke-linejoin="round"/>
<path d="M82.9403 68.2098C83.7487 68.2098 84.4041 67.04 84.4041 65.5971C84.4041 64.1541 83.7487 62.9844 82.9403 62.9844C82.1319 62.9844 81.4766 64.1541 81.4766 65.5971C81.4766 67.04 82.1319 68.2098 82.9403 68.2098Z" fill="#425682"/>
<path fill-rule="evenodd" clip-rule="evenodd" d="M99.0155 75.3828H95.4189C94.6492 75.3828 94.0195 76.0125 94.0195 76.7822V76.7827C94.0195 77.552 94.6492 78.1821 95.4189 78.1821H99.0155C99.7853 78.1821 100.415 77.5524 100.415 76.7827V76.7822C100.414 76.0129 99.7848 75.3828 99.0155 75.3828Z" fill="#5571AD"/>
<path d="M82.2852 65.9531C84.6544 71.8091 87.3727 76.7915 92.6152 76.7915H98.5184" stroke="#425682" stroke-width="3.8398" stroke-miterlimit="22.9256" stroke-linecap="round" stroke-linejoin="round"/>
<path fill-rule="evenodd" clip-rule="evenodd" d="M65.4197 175.073C71.3549 174.432 77.7481 185.813 67.4335 186.928C57.1184 188.042 59.4846 175.714 65.4197 175.073Z" fill="#435C94"/>
<path fill-rule="evenodd" clip-rule="evenodd" d="M65.4187 175.074C70.7689 174.496 75.9659 183.182 66.9613 184.155C57.9563 185.128 60.0685 175.652 65.4187 175.074Z" fill="#6784C2"/>
<path fill-rule="evenodd" clip-rule="evenodd" d="M65.5092 175.612C65.7977 175.581 66.0731 175.79 66.1217 176.076L66.3337 177.322C66.3823 177.609 66.1865 177.868 65.898 177.899C65.6099 177.93 65.3345 177.722 65.2859 177.435L65.0739 176.189C65.0249 175.903 65.221 175.644 65.5092 175.612Z" fill="#435C94"/>
<path fill-rule="evenodd" clip-rule="evenodd" d="M142.813 0.46875H175.598C179.474 0.46875 182.646 3.64017 182.646 7.5161V24.3685C182.646 28.2444 179.475 31.4158 175.598 31.4158H142.813C138.937 31.4158 135.766 28.2444 135.766 24.3685V7.5161C135.766 3.64017 138.937 0.46875 142.813 0.46875Z" fill="#0F122E"/>
<path fill-rule="evenodd" clip-rule="evenodd" d="M156.005 28.4297H165.81L147.82 50.4032L156.005 28.4297Z" fill="#0F122E"/>
<path fill-rule="evenodd" clip-rule="evenodd" d="M147.51 18.5429C148.942 18.5429 150.109 17.3751 150.109 15.9433C150.109 14.5115 148.942 13.3438 147.51 13.3438C146.078 13.3438 144.91 14.5115 144.91 15.9433C144.91 17.3751 146.078 18.5429 147.51 18.5429Z" fill="#383E7A"/>
<path fill-rule="evenodd" clip-rule="evenodd" d="M159.209 18.5429C160.641 18.5429 161.809 17.3751 161.809 15.9433C161.809 14.5115 160.641 13.3438 159.209 13.3438C157.777 13.3438 156.609 14.5115 156.609 15.9433C156.609 17.3751 157.777 18.5429 159.209 18.5429Z" fill="#383E7A"/>
<path fill-rule="evenodd" clip-rule="evenodd" d="M170.904 18.5429C172.336 18.5429 173.504 17.3751 173.504 15.9433C173.504 14.5115 172.336 13.3438 170.904 13.3438C169.472 13.3438 168.305 14.5115 168.305 15.9433C168.305 17.3751 169.472 18.5429 170.904 18.5429Z" fill="#383E7A"/>
<path fill-rule="evenodd" clip-rule="evenodd" d="M164.824 63.3228L169.728 57.4555L164.824 53.5156V63.3228Z" fill="#0F122E"/>
<path fill-rule="evenodd" clip-rule="evenodd" d="M181.533 63.3228V53.5156L176.629 57.4555L181.533 63.3228Z" fill="#0F122E"/>
<path fill-rule="evenodd" clip-rule="evenodd" d="M181.492 63.7325H181.536V63.6953L181.492 63.7325Z" fill="#0F122E"/>
<path fill-rule="evenodd" clip-rule="evenodd" d="M164.824 63.7325H164.868L164.824 63.6953V63.7325Z" fill="#0F122E"/>
<path fill-rule="evenodd" clip-rule="evenodd" d="M181.248 63.7259L181.219 63.6909L176.254 57.75L173.179 60.2204L170.104 57.75L165.139 63.6909L165.109 63.7259H181.248Z" fill="#0F122E"/>
<path fill-rule="evenodd" clip-rule="evenodd" d="M170.039 57.0821L170.227 57.2332L170.415 57.3847L173.18 59.6064L175.946 57.3847L176.134 57.2332L176.322 57.0821L181.149 53.2031H165.211L170.039 57.0821Z" fill="#0F122E"/>
<path fill-rule="evenodd" clip-rule="evenodd" d="M79.7934 8.48652L79.2811 7.52629L81.3066 6.44478L81.8198 7.405C82.6434 7.1436 83.5266 7.0499 84.4185 7.15104L84.7351 6.10938L86.9322 6.77755L86.6157 7.81922C87.4126 8.23168 88.0947 8.8009 88.6333 9.47652L89.5935 8.96422L90.6746 10.9902L89.7144 11.5025C89.9758 12.3265 90.0691 13.2093 89.9684 14.1012L91.01 14.4178L90.3418 16.6149L89.3006 16.2984C88.8877 17.0953 88.3189 17.7775 87.6429 18.316L88.1552 19.2767L86.1292 20.3578L85.6169 19.3975C84.7928 19.6589 83.9092 19.7527 83.0178 19.6515L82.7012 20.6932L80.504 20.0254L80.8206 18.9838C80.0232 18.5713 79.3419 18.0021 78.8029 17.3265L77.8423 17.8388L76.7612 15.8128L77.7214 15.3001C77.4596 14.4764 77.3667 13.5933 77.4674 12.7014L76.4258 12.3848L77.094 10.1876L78.1356 10.5042C78.5485 9.70727 79.1173 9.02552 79.7934 8.48652ZM82.3675 17.8445C84.8213 18.5906 87.4156 17.2061 88.1617 14.7519C88.9079 12.2976 87.5229 9.70377 85.0691 8.95765C82.6154 8.21154 80.0215 9.59605 79.2754 12.0503C78.5293 14.5045 79.9133 17.0983 82.3675 17.8445Z" fill="#0F122E"/>
<path fill-rule="evenodd" clip-rule="evenodd" d="M99.9425 21.7204L100.513 22.199L99.3277 23.6102L98.7576 23.1317C98.3552 23.4425 97.9073 23.6763 97.4217 23.8274L97.4861 24.5687L95.651 24.729L95.5858 23.9877C95.0853 23.9229 94.5967 23.7687 94.1496 23.5345L93.6706 24.1046L92.2598 22.9206L92.7384 22.3501C92.4271 21.9477 92.1941 21.4993 92.0426 21.0137L91.3013 21.079L91.1406 19.2439L91.8819 19.1791C91.9472 18.6747 92.0995 18.1926 92.3355 17.7425L91.7659 17.2635L92.9494 15.8527L93.52 16.3313C93.9223 16.0204 94.3712 15.787 94.8563 15.6359L94.7915 14.8946L96.6266 14.7344L96.6914 15.4757C97.1918 15.5405 97.6809 15.6946 98.1284 15.9293L98.607 15.3592L100.018 16.5432L99.5396 17.1137C99.8501 17.5161 100.084 17.9645 100.235 18.4501L100.976 18.3852L101.137 20.2203L100.395 20.2847C100.331 20.7882 100.178 21.2703 99.9425 21.7204ZM97.9888 17.5279C97.6888 17.2766 97.3486 17.0914 96.9777 16.9788C95.8721 16.643 94.6781 16.9972 93.9359 17.8822C92.9161 19.0977 93.0755 20.9156 94.2901 21.9354C94.5901 22.1867 94.9303 22.372 95.3012 22.4845C96.4068 22.8208 97.6004 22.4657 98.3434 21.5812C99.3623 20.3653 99.2038 18.5477 97.9888 17.5279Z" fill="#0F122E"/>
<path fill-rule="evenodd" clip-rule="evenodd" d="M51.5111 93.9514C55.7154 93.9514 59.1233 90.5431 59.1233 86.3392C59.1233 82.1349 55.715 78.7266 51.5111 78.7266C47.3072 78.7266 43.8984 82.1349 43.8984 86.3392C43.8984 90.5431 47.3067 93.9514 51.5111 93.9514ZM46.8943 91.5769L46.2725 90.956L47.7043 89.5246L48.3256 90.1459L46.8943 91.5769ZM51.9494 93.3073H51.0715V91.2826H51.9494V93.3073ZM58.4792 85.9V86.7784H56.4545V85.9H58.4792ZM56.1279 81.1011L56.7487 81.7224L55.3165 83.1533L54.6961 82.5324L56.1279 81.1011ZM55.3165 89.5242L56.7487 90.9556L56.1279 91.5764L54.6965 90.1446L55.3165 89.5242ZM51.0715 79.3707H51.9494V81.3953H51.0715V79.3707ZM50.2894 84.5597L51.5965 85.8247L53.9823 83.4813L54.598 84.1079L51.6013 87.0516L49.6791 85.1907L50.2894 84.5597ZM46.8943 81.1011L48.3252 82.5329L47.7039 83.1538L46.2721 81.7228L46.8943 81.1011ZM46.5663 85.9V86.7784H44.5425V85.9H46.5663Z" fill="#0F122E"/>
<path fill-rule="evenodd" clip-rule="evenodd" d="M158.373 73.9678C156.494 76.0673 156.676 79.2935 158.775 81.1715C160.702 82.894 163.574 82.8857 165.486 81.2525L166.455 82.1194C166.438 82.4421 166.562 82.7692 166.821 83.0013L170.317 86.1267C170.772 86.5335 171.469 86.4945 171.875 86.0405C172.281 85.5864 172.242 84.8885 171.787 84.4821L168.292 81.3562C168.032 81.1242 167.694 81.0375 167.375 81.0909L166.405 80.2239C167.815 78.1419 167.504 75.2862 165.577 73.5637C163.477 71.6861 160.252 71.8665 158.373 73.9678ZM165.027 79.9179C163.62 81.492 161.202 81.6268 159.627 80.2183C158.054 78.811 157.918 76.3931 159.325 74.819C160.732 73.2453 163.152 73.1096 164.726 74.5169C166.3 75.925 166.435 78.3433 165.027 79.9179Z" fill="#0F122E"/>
<path fill-rule="evenodd" clip-rule="evenodd" d="M55.6568 19.1562H22.8716C18.9956 19.1562 15.8242 22.3272 15.8242 26.2036V43.056C15.8242 46.9319 18.9952 50.1033 22.8716 50.1033H55.6568C59.5327 50.1033 62.7041 46.9323 62.7041 43.056V26.2036C62.7041 22.3277 59.5331 19.1562 55.6568 19.1562Z" fill="#0F122E"/>
<path fill-rule="evenodd" clip-rule="evenodd" d="M42.4652 47.1172H32.6602L50.6501 69.0907L42.4652 47.1172Z" fill="#0F122E"/>
<path fill-rule="evenodd" clip-rule="evenodd" d="M33.6992 32.2062H37.4337C37.4337 30.8326 37.9635 30.182 38.9995 30.182C39.8669 30.182 40.3486 30.5677 40.3486 31.4351C40.3486 33.5312 37.5541 33.8201 37.5541 37.4828H41.1923C41.1923 34.7843 44.8301 34.2063 44.8301 30.6404C44.8301 27.8937 42.8063 26.3516 39.4575 26.3516C35.8434 26.3511 33.7233 28.5194 33.6992 32.2062ZM39.2885 39.0486C37.9631 39.0486 37.0235 39.9642 37.0235 41.2891C37.0235 42.6382 37.9631 43.5778 39.2885 43.5778C40.6375 43.5778 41.5772 42.6382 41.5772 41.2891C41.5772 39.9637 40.638 39.0486 39.2885 39.0486Z" fill="#0F122E"/>
</svg>
