<svg width="213" height="180" viewBox="0 0 213 180" fill="none" xmlns="http://www.w3.org/2000/svg">
<path d="M192.035 54.9211C192.05 54.8867 192.069 54.8529 192.084 54.818C192.746 53.283 191.799 50.6539 193.5 49.5781C194.11 49.5827 194.436 49.7825 194.859 50.2234C195.694 51.0934 195.888 52.1752 195.842 53.3418C195.823 53.8926 195.803 54.468 195.409 54.8942C194.38 55.2573 193.103 55.0201 192.035 54.9211Z" fill="#353D47"/>
<path d="M171.938 54.6321C172.589 53.2993 172.023 51.8682 172.509 50.5338C172.718 49.9591 172.986 49.7967 173.504 49.5626C173.925 49.5597 174.234 49.633 174.587 49.8744C175.27 50.3413 175.654 51.1683 175.757 51.9682C175.854 52.7282 175.808 53.7822 175.333 54.3995L175.229 54.8489C174.343 55.3005 173.039 55.0038 172.13 54.6994C172.066 54.6779 172.003 54.6546 171.938 54.6321Z" fill="#353D47"/>
<path d="M192.278 150.719C192.867 151.864 193.161 159.953 192.585 161.218C192.507 161.386 192.354 161.499 192.213 161.609C190.284 161.8 188.255 161.594 186.294 161.73C186.703 160.116 186.742 152.835 186.051 151.408C186.082 151.35 186.112 151.29 186.146 151.234C186.153 151.225 186.403 150.885 186.416 150.878C186.778 150.62 191.269 150.999 192.278 150.719Z" fill="#87AB42"/>
<path d="M12.9309 148.295C20.6201 148.209 28.3093 148.215 35.9984 148.313C36.0215 149.147 36.1468 150.124 35.8415 150.908C35.4194 151.33 35.198 151.434 34.5724 151.445C34.5169 151.446 34.4615 151.442 34.406 151.44C34.1965 152.484 34.063 153.527 33.9377 154.584C33.9098 154.56 33.8832 154.535 33.8533 154.514C33.6415 154.367 33.4109 154.258 33.1552 154.217C31.2285 153.911 16.8156 153.958 14.8707 154.282C14.8454 153.323 14.7445 152.379 14.6375 151.426C14.0213 151.438 13.6374 151.526 13.0877 151.2C12.6682 150.368 12.9487 149.212 12.9309 148.295Z" fill="#353D47"/>
<path d="M14.6367 151.427C18.3695 151.381 22.1007 151.449 25.8335 151.43C28.6726 151.415 31.5708 151.272 34.4053 151.442C34.1959 152.486 34.0623 153.529 33.937 154.585C33.9091 154.562 33.8825 154.536 33.8526 154.515C33.6408 154.368 33.4102 154.259 33.1545 154.219C31.2278 153.912 16.8149 153.959 14.87 154.284C14.8447 153.324 14.7438 152.38 14.6367 151.427Z" fill="#E1E2E3"/>
<path d="M168.406 126.25C175.643 127.03 182.141 130.016 186.775 135.75C189.383 138.976 193.01 145.609 192.647 149.82C192.616 150.168 192.467 150.435 192.275 150.719C191.266 150.999 186.775 150.62 186.412 150.878C186.4 150.885 186.15 151.225 186.142 151.234C186.108 151.29 186.079 151.35 186.048 151.408C186.169 150.983 186.232 150.467 186.262 150.025C186.498 146.382 184.019 141.935 181.703 139.295C179.161 136.4 174.935 133.097 170.975 132.839C170.997 132.717 171.053 132.596 171.041 132.473C170.995 132.03 170.338 131.047 170.119 130.592C169.428 129.161 168.832 127.787 168.406 126.25Z" fill="#353D47"/>
<path d="M14.8711 154.287C16.816 153.962 31.2289 153.915 33.1555 154.222C33.4112 154.262 33.6418 154.371 33.8537 154.518C33.8837 154.539 33.9101 154.565 33.9381 154.588C33.3141 159.735 32.74 164.92 32.4768 170.1C27.2147 170.011 21.9524 169.986 16.6897 170.026C15.9244 164.797 15.6855 159.506 14.8711 154.287Z" fill="#87AB42"/>
<path d="M143.833 175.962C147.007 176.001 150.181 175.972 153.354 175.873C155.811 175.819 158.601 175.562 161.018 176.006C161.671 176.125 162.236 176.325 162.712 176.807C162.864 176.962 162.908 177.23 162.976 177.435C162.896 177.924 162.754 178.218 162.352 178.53C161.924 178.862 161.381 179.032 160.848 179.084C156.4 179.524 151.66 179.179 147.175 179.153L122.692 179.112L72.7451 179.121C67.3621 179.191 61.9791 179.188 56.5963 179.113C55.2374 179.094 53.6662 179.313 52.3356 179.055C51.7772 178.946 51.1379 178.658 50.8302 178.15C50.569 177.719 50.6291 177.507 50.7344 177.053C51.4611 176.198 53.0325 176.127 54.0844 176.047C59.4685 175.64 64.9667 176.312 70.3704 176.027C76.4784 175.796 82.6711 176.003 88.787 176.002L125.024 176.002L136.696 176.015C139.026 176.038 141.53 176.318 143.833 175.962Z" fill="#87AB42"/>
<path d="M16.6904 170.031C21.9531 169.991 27.2154 170.016 32.4775 170.105C35.6258 169.948 38.7497 169.942 41.6516 171.365C44.9702 172.992 46.6066 175.732 47.7828 179.093C31.9163 178.853 16.0083 179.128 0.136719 179.142C0.862593 176.904 1.65953 174.879 3.38062 173.192C7.01051 169.635 11.9974 169.983 16.6904 170.031Z" fill="#353D47"/>
<path d="M186.292 161.731C188.252 161.594 190.281 161.801 192.21 161.609C193.777 161.974 195.363 162.168 196.924 162.572C202.444 164.001 207.275 166.951 210.35 171.868C211.386 173.525 213.189 176.665 212.814 178.628C212.788 178.773 212.734 178.898 212.678 179.033C212.664 179.064 212.654 179.095 212.642 179.126C197.389 179.126 182.117 178.955 166.867 179.135C168.074 173.448 170.382 168.964 175.403 165.691C178.653 163.572 182.475 162.326 186.292 161.731Z" fill="#353D47"/>
<path d="M139.211 86.5469C145.038 87.9391 149.919 90.119 153.213 95.4373C154.887 98.1383 156.188 101.136 157.557 104L164.225 118.092C165.505 120.793 166.678 123.815 168.41 126.249C168.835 127.786 169.431 129.161 170.122 130.591C170.341 131.047 170.998 132.029 171.044 132.473C171.056 132.596 171 132.716 170.978 132.838C171.886 135.454 171.745 138.572 170.504 141.058C168.32 145.442 163.544 146.898 159.214 148.303C156.468 149.195 153.691 149.974 150.881 150.638C150.887 145.179 150.896 139.726 150.63 134.272C150.567 132.572 150.604 130.887 150.66 129.187C150.262 127.681 150.813 125.649 149.627 124.343C148.767 123.395 147.507 123.343 146.323 123.257C145.075 123.334 143.323 123.565 142.115 123.228C142.165 120.26 141.996 117.292 142.008 114.324C141.956 110.676 141.953 107.028 142.001 103.38C142.058 99.6111 142.427 95.8685 141.543 92.1547C141.062 90.1358 140.177 88.3642 139.211 86.5469ZM142.008 114.324C141.996 117.292 142.165 120.26 142.115 123.228C143.323 123.565 145.075 123.334 146.323 123.257C144.964 120.239 143.631 117.213 142.008 114.324ZM150.66 129.187C150.604 130.887 150.567 132.572 150.63 134.272C151.434 134.058 152.238 133.903 153.058 133.76C152.314 132.201 151.6 130.64 150.66 129.187Z" fill="#87AB42"/>
<path d="M40.6171 1.4883C44.8263 0.907095 49.5253 2.34105 52.9383 4.78093C53.1851 4.95922 53.4273 5.14341 53.6649 5.3335C53.9027 5.52359 54.1355 5.71944 54.3633 5.92103C54.5914 6.12277 54.8143 6.32985 55.0321 6.54226C55.2499 6.75482 55.4622 6.97267 55.6692 7.1958C55.8763 7.41873 56.0777 7.64667 56.2734 7.87964C56.4692 8.11261 56.659 8.35019 56.8429 8.59238C57.027 8.83456 57.2049 9.0812 57.3766 9.33229C57.5485 9.58323 57.714 9.83826 57.8731 10.0974C58.0324 10.3566 58.1851 10.6195 58.3314 10.8861C58.4777 11.1528 58.6173 11.4229 58.75 11.6964C58.883 11.97 59.0091 12.2467 59.1283 12.5264C59.2475 12.8061 59.3597 13.0886 59.465 13.3738C59.5702 13.659 59.6684 13.9467 59.7595 14.2368C59.8505 14.5268 59.9344 14.8189 60.0111 15.1131C60.0876 15.4073 60.1569 15.7032 60.2188 16.0008C60.281 16.2985 60.3356 16.5974 60.3828 16.8977C60.4287 17.1952 60.4672 17.4936 60.4983 17.7929C60.5296 18.0924 60.5534 18.3923 60.5696 18.6927C60.5859 18.9933 60.5946 19.2942 60.5959 19.5952C60.5972 19.8962 60.5911 20.1969 60.5776 20.4975C60.564 20.7983 60.5429 21.0984 60.5143 21.3981C60.4858 21.6977 60.4499 21.9964 60.4066 22.2942C60.3633 22.5923 60.3126 22.8889 60.2545 23.1841C60.1965 23.4795 60.1312 23.7734 60.0587 24.0655C59.9861 24.3575 59.9062 24.6477 59.8191 24.936C59.732 25.2241 59.6379 25.51 59.5367 25.7936C59.4355 26.0771 59.3274 26.3579 59.2122 26.6361C59.097 26.9143 58.9751 27.1893 58.8463 27.4615C58.7175 27.7337 58.5821 28.0026 58.4399 28.2681C58.2978 28.5336 58.1492 28.7954 57.994 29.0534C57.8388 29.3116 57.6773 29.5658 57.5096 29.8159C57.3419 30.066 57.1681 30.3119 56.9881 30.5534C53.7548 34.9188 49.1188 36.9957 43.8738 37.8008C39.5017 38.3182 34.6375 36.8544 31.1387 34.2488C30.8943 34.0655 30.6545 33.8764 30.4193 33.6814C30.1843 33.4863 29.9543 33.2856 29.7292 33.0791C29.5042 32.8727 29.2843 32.6608 29.0697 32.4433C28.8551 32.2261 28.6461 32.0036 28.4426 31.776C28.2391 31.5483 28.0413 31.3159 27.8493 31.0785C27.6573 30.841 27.4712 30.599 27.2912 30.3524C27.1114 30.1059 26.9376 29.855 26.7699 29.5999C26.6024 29.3448 26.4413 29.0856 26.2868 28.8224C26.1321 28.5593 25.9839 28.2926 25.8424 28.022C25.701 27.7515 25.5664 27.4778 25.4386 27.2008C25.3107 26.9237 25.1897 26.6435 25.0757 26.3605C24.9618 26.0775 24.855 25.7918 24.755 25.5034C24.6553 25.2151 24.5627 24.9244 24.4772 24.6314C24.3919 24.3386 24.3138 24.0438 24.243 23.7469C24.1723 23.4502 24.1089 23.1519 24.053 22.8519C23.997 22.5521 23.9485 22.251 23.9075 21.9486C23.8688 21.657 23.8372 21.3644 23.8127 21.0711C23.7882 20.778 23.7709 20.4843 23.7609 20.1902C23.7506 19.8961 23.7476 19.6019 23.7519 19.3076C23.7562 19.0133 23.7678 18.7193 23.7864 18.4257C23.8049 18.1321 23.8307 17.839 23.8637 17.5465C23.8966 17.2542 23.9367 16.9627 23.9839 16.6722C24.0311 16.3818 24.0853 16.0927 24.1466 15.8049C24.2079 15.5169 24.2763 15.2307 24.3517 14.9463C24.427 14.6617 24.5092 14.3792 24.5984 14.0986C24.6874 13.8181 24.7833 13.5399 24.8862 13.264C24.9888 12.9882 25.0982 12.715 25.2143 12.4445C25.3304 12.174 25.453 11.9065 25.5821 11.642C25.7112 11.3775 25.8468 11.1162 25.9889 10.8582C26.1308 10.6003 26.2789 10.346 26.4333 10.0952C26.5875 9.84442 26.7479 9.59758 26.9145 9.35456C27.0809 9.1117 27.2531 8.87298 27.4312 8.63841C30.7283 4.35207 35.3751 2.20295 40.6171 1.4883Z" fill="#1C2649"/>
<path d="M33.3228 16.4211C36.2899 16.3229 39.2861 16.4059 42.2561 16.4053C44.7537 16.4049 47.5818 16.1403 50.0273 16.6473C50.605 16.7672 51.4204 16.9594 51.733 17.5025C52.0403 18.0363 52.123 18.8505 51.9165 19.4324C51.6504 20.1823 50.9926 20.5687 50.3037 20.8723C46.6966 20.9648 43.0889 21.0041 39.4805 20.9902C37.7331 20.9834 35.8034 21.1169 34.0816 20.816C33.2423 20.6694 32.3075 20.3539 31.8338 19.5956C31.5256 19.102 31.5127 18.4613 31.6859 17.9163C31.9431 17.1072 32.6067 16.7524 33.3228 16.4211Z" fill="#87AB42"/>
<path d="M62.8115 152.754C60.3723 151.672 58.0368 150.292 55.6553 149.084C52.2002 147.333 48.073 145.75 45.0739 143.295C42.9451 141.552 41.6943 139.359 41.4588 136.599C41.4276 136.243 41.4162 135.885 41.4245 135.528C41.4327 135.17 41.4607 134.814 41.5084 134.459C41.556 134.104 41.6228 133.753 41.7091 133.406C41.7953 133.059 41.9005 132.717 42.0243 132.381C43.4501 128.413 46.2198 123.522 48.1212 119.557L54.2284 107.085C55.697 104.02 57.0429 100.83 58.6925 97.8607C59.7191 96.0128 60.878 94.2128 62.2419 92.5925C65.2097 89.0667 70.0185 87.3291 74.4982 86.9297C73.4894 88.7017 72.6603 90.4919 72.1996 92.4874C71.1212 97.1555 71.7977 105.212 71.716 110.28C71.6978 111.395 71.9612 112.953 71.5744 113.982L71.5725 123.316C70.1054 123.215 68.6254 123.274 67.1556 123.293C65.0523 123.821 64.0807 124.255 62.8136 126.112L62.7725 130.85C62.7815 132.185 62.8187 133.525 62.7788 134.859L62.8115 152.754ZM71.5745 113.982C69.9906 117.035 68.6568 120.2 67.1557 123.293C68.6254 123.274 70.1055 123.215 71.5726 123.316L71.5745 113.982ZM62.7726 130.85C62.011 131.819 61.3999 132.817 60.7888 133.882L62.7789 134.859C62.8188 133.525 62.7816 132.185 62.7726 130.85Z" fill="#87AB42"/>
<path d="M171.243 0.969155L171.47 0.951911C176.374 0.619934 181.383 2.49409 185.053 5.69813C185.17 5.80055 185.286 5.90437 185.401 6.0097C185.516 6.11487 185.63 6.22149 185.742 6.32956C185.854 6.43778 185.965 6.54731 186.075 6.65812C186.184 6.76894 186.292 6.88105 186.399 6.99445C186.506 7.10801 186.611 7.22281 186.715 7.3388C186.819 7.45495 186.921 7.57234 187.021 7.69092C187.124 7.80966 187.223 7.92959 187.321 8.05055C187.418 8.17172 187.514 8.29403 187.61 8.41748C187.704 8.54093 187.797 8.66557 187.89 8.79145C187.982 8.91713 188.072 9.044 188.16 9.17195C188.249 9.30006 188.337 9.4292 188.423 9.55928C188.507 9.68951 188.59 9.82073 188.673 9.95288C188.756 10.0852 188.837 10.2185 188.916 10.3528C188.994 10.4869 189.071 10.6221 189.147 10.7583C189.222 10.8945 189.296 11.0316 189.369 11.1694C189.44 11.3074 189.511 11.4463 189.58 11.5861C189.649 11.7257 189.715 11.8662 189.78 12.0076C189.845 12.149 189.908 12.2912 189.97 12.4342C190.031 12.5771 190.091 12.7208 190.15 12.8652C190.208 13.0097 190.265 13.1548 190.32 13.3006C190.373 13.4463 190.426 13.5927 190.478 13.7398C190.528 13.887 190.577 14.0348 190.624 14.1832C190.671 14.3315 190.716 14.4804 190.76 14.6297C190.804 14.7792 190.845 14.9292 190.884 15.0796C190.925 15.2301 190.963 15.381 190.999 15.5325C191.034 15.6839 191.068 15.8357 191.101 15.988C191.133 16.1402 191.164 16.2929 191.193 16.4459C191.221 16.5989 191.247 16.7523 191.271 16.906C191.296 17.0596 191.318 17.2136 191.339 17.3678C191.36 17.5219 191.38 17.6764 191.398 17.8313C191.414 17.9859 191.429 18.1408 191.442 18.2957C191.454 18.4509 191.466 18.6061 191.476 18.7614C191.485 18.9092 191.493 19.057 191.5 19.205C191.505 19.3529 191.509 19.5009 191.512 19.6489C191.514 19.7969 191.514 19.9449 191.512 20.093C191.51 20.241 191.507 20.389 191.502 20.537C191.496 20.6851 191.489 20.8329 191.48 20.9807C191.471 21.1285 191.459 21.2761 191.446 21.4235C191.435 21.5711 191.42 21.7185 191.403 21.8657C191.386 22.0128 191.369 22.1597 191.349 22.3064C191.328 22.453 191.306 22.5994 191.283 22.7456C191.259 22.8917 191.233 23.0375 191.206 23.1829C191.178 23.3284 191.149 23.4735 191.118 23.6182C191.087 23.763 191.054 23.9073 191.018 24.0512C190.984 24.1952 190.948 24.3387 190.909 24.4817C190.87 24.6247 190.829 24.7672 190.787 24.9091C190.745 25.0511 190.701 25.1926 190.656 25.3335C190.61 25.4744 190.563 25.6147 190.515 25.7543C190.464 25.8941 190.413 26.0332 190.361 26.1715C190.308 26.3099 190.254 26.4477 190.198 26.5848C190.142 26.7218 190.083 26.8581 190.023 26.9937C189.965 27.1292 189.904 27.2641 189.841 27.3982C189.778 27.5323 189.713 27.6656 189.646 27.7979C189.58 27.9304 189.512 28.062 189.442 28.1927C189.372 28.3235 189.301 28.4533 189.228 28.5823C189.155 28.7112 189.08 28.8391 189.004 28.9662C188.928 29.0933 188.85 29.2194 188.77 29.3445C188.693 29.4695 188.612 29.5936 188.53 29.7168C188.447 29.8399 188.363 29.9618 188.277 30.0827C188.191 30.2037 188.104 30.3236 188.016 30.4423C187.927 30.5613 187.837 30.6789 187.746 30.7954C187.654 30.9119 187.561 31.0273 187.467 31.1415C187.372 31.2557 187.277 31.3686 187.179 31.4803C187.082 31.5921 186.983 31.7026 186.883 31.812C183.535 35.4657 178.974 37.4457 174.048 37.6658C169.898 37.8773 165.987 36.8499 162.567 34.4457C162.438 34.355 162.31 34.2626 162.183 34.1686C162.056 34.0748 161.931 33.9794 161.806 33.8825C161.682 33.7854 161.559 33.6869 161.437 33.5869C161.314 33.4869 161.194 33.3854 161.074 33.2824C160.955 33.1795 160.836 33.075 160.719 32.9691C160.602 32.8633 160.487 32.756 160.373 32.6473C160.258 32.5386 160.145 32.4285 160.034 32.3171C159.922 32.2054 159.812 32.0926 159.703 31.9786C159.594 31.8643 159.487 31.7488 159.381 31.632C159.275 31.5152 159.17 31.3971 159.067 31.2777C158.964 31.1583 158.863 31.0376 158.763 30.9157C158.663 30.7938 158.564 30.6708 158.467 30.5466C158.37 30.4221 158.274 30.2967 158.18 30.1702C158.086 30.0435 157.994 29.9157 157.903 29.7867C157.812 29.6578 157.723 29.5278 157.636 29.3967C157.548 29.2655 157.462 29.1333 157.377 29.0002C157.293 28.8671 157.21 28.7328 157.129 28.5976C157.048 28.4623 156.969 28.3261 156.891 28.1889C156.814 28.0517 156.738 27.9135 156.663 27.7744C156.589 27.6354 156.516 27.4955 156.446 27.3545C156.375 27.2138 156.306 27.0722 156.238 26.9296C156.171 26.7871 156.105 26.6437 156.042 26.4996C155.978 26.3555 155.916 26.2106 155.855 26.065C155.795 25.9194 155.737 25.773 155.68 25.6258C155.624 25.4787 155.569 25.331 155.516 25.1827C155.463 25.0342 155.412 24.8851 155.362 24.7354C155.313 24.5858 155.265 24.4355 155.22 24.2846C155.174 24.1338 155.13 23.9824 155.088 23.8306C155.047 23.6786 155.007 23.5262 154.968 23.3734C154.93 23.2203 154.894 23.067 154.86 22.9133C154.825 22.7594 154.793 22.6052 154.762 22.4508C154.732 22.2961 154.703 22.1411 154.676 21.9858C154.625 21.6934 154.58 21.4 154.543 21.1054C154.506 20.8108 154.477 20.5154 154.454 20.2191C154.432 19.9231 154.416 19.6267 154.409 19.33C154.401 19.0331 154.4 18.7363 154.407 18.4394C154.414 18.1425 154.428 17.8461 154.45 17.55C154.471 17.2537 154.5 16.9583 154.536 16.6637C154.572 16.3689 154.616 16.0753 154.667 15.7828C154.717 15.4901 154.775 15.1989 154.84 14.9092C154.905 14.6194 154.978 14.3314 155.057 14.0452C155.136 13.7592 155.223 13.4752 155.316 13.1932C155.409 12.9112 155.51 12.6317 155.617 12.3548C155.724 12.0778 155.838 11.8036 155.959 11.5323C156.08 11.2611 156.207 10.9928 156.341 10.7276C156.475 10.4626 156.616 10.201 156.763 9.94283C156.91 9.68465 157.063 9.43024 157.222 9.17961C157.382 8.92898 157.548 8.68245 157.719 8.43995C161.078 3.73832 165.751 1.861 171.243 0.969155Z" fill="#1C2649"/>
<path d="M179.661 23.9091C180.354 23.8485 181.004 23.765 181.656 24.0785C182.383 24.4289 182.991 25.0781 183.242 25.8515C183.461 26.5242 183.41 27.2568 183.05 27.8718C182.595 28.6471 181.918 28.9813 181.082 29.1912C180.761 29.274 180.461 29.315 180.128 29.29C179.471 29.2402 178.909 29.1611 178.476 28.6088C177.987 27.9844 177.948 27.1401 178.038 26.3818C178.182 25.1677 178.761 24.6355 179.661 23.9091Z" fill="#FF7029"/>
<path d="M167.055 23.8507C167.437 23.8221 167.836 23.8194 168.218 23.8502C168.964 23.9103 169.762 24.3615 170.222 24.9466C170.655 25.496 170.813 26.1762 170.709 26.8642C170.531 28.0154 169.808 28.5922 168.938 29.2412C168.529 29.3671 168.152 29.4235 167.724 29.379C167.021 29.306 166.344 28.9723 165.902 28.4183C165.391 27.7788 165.262 26.903 165.381 26.1119C165.544 25.0279 166.225 24.454 167.055 23.8507Z" fill="#FF7029"/>
<path d="M163.903 10.2502C164.528 10.19 165.562 10.1402 166.129 10.4164C166.842 10.7632 167.063 11.4339 167.321 12.1197C171.877 12.042 176.448 12.1622 181.007 12.1864C181.892 13.2632 181.8 14.8146 182.046 16.1241C182.379 17.9097 182.824 17.4501 183.98 18.3662C184.541 18.8129 184.639 19.6938 184.69 20.3609C184.743 21.0195 184.695 21.2872 184.286 21.775C183.486 22.1099 182.396 21.974 181.53 21.9619C176.789 22.338 171.34 22.0092 166.55 22.0022C165.841 18.7757 165.093 15.5584 164.305 12.3502C163.655 12.3658 162.951 12.4102 162.307 12.3005C161.717 12.2 161.261 11.9248 160.918 11.4436C160.947 11.1502 160.898 11.0915 161.116 10.8665C161.8 10.1623 162.991 10.2793 163.903 10.2502Z" fill="#FF7029"/>
<path d="M171.938 54.6231C172.003 54.6456 172.067 54.669 172.13 54.6905C173.04 54.9949 174.344 55.2916 175.229 54.84L175.334 54.3906C175.438 54.5549 175.533 54.8206 175.725 54.8624C177.82 55.3162 189.246 55.015 192.036 54.9196C193.104 55.0186 194.381 55.2557 195.41 54.8927C196.962 55.0618 198.692 54.7308 200.19 55.2477C200.565 55.3771 201.112 55.6241 201.26 56.0294C201.696 57.2046 201.596 85.1892 201.426 88.0768C201.38 88.8938 201.277 89.6871 200.896 90.4244C200.404 91.3679 199.339 92.1964 198.322 92.4978C195.979 93.1917 175.779 92.9694 172.342 92.6546C171.317 92.5607 169.841 92.4037 168.943 91.8574C168.128 91.3626 167.561 90.0745 167.342 89.1878C166.761 86.8348 167.034 83.9957 167.026 81.5649C166.992 77.0435 167.012 72.5224 167.085 68.0016C167.121 64.3646 166.934 60.634 167.177 57.0101C167.211 56.5043 167.253 56.0709 167.518 55.6235C168.513 54.6574 170.42 55.0427 171.724 54.9301L171.938 54.6231Z" fill="#27687B"/>
<path d="M174.722 63.2382C177.599 63.2176 180.48 63.3093 183.36 63.3042C187.179 63.2972 194.168 62.6604 197.466 63.8304C197.559 63.9365 197.64 64.0503 197.71 64.1718C197.779 64.2931 197.838 64.4201 197.885 64.5526C198.471 66.2215 198.408 87.338 197.729 88.7298C196.805 89.5252 195.275 89.3726 194.119 89.3842C190.122 89.3454 173.617 89.8053 170.983 88.8904C170.662 88.5125 170.591 88.1274 170.55 87.645C170.187 83.3931 170.377 78.9759 170.384 74.7014C170.389 71.6799 170.194 68.4957 170.508 65.5036C170.564 64.9675 170.63 64.3502 171.012 63.9374C171.805 63.0768 173.622 63.2615 174.722 63.2382Z" fill="#E1E2E3"/>
<path d="M181.821 67.6012C184.431 67.3578 186.822 67.4199 189.111 68.8699C189.236 68.9485 189.359 69.0302 189.479 69.115C189.6 69.1997 189.72 69.2874 189.836 69.3778C189.953 69.4684 190.067 69.5618 190.179 69.6581C190.291 69.7543 190.4 69.8533 190.505 69.9548C190.612 70.0566 190.717 70.1609 190.819 70.2677C190.921 70.3744 191.02 70.4836 191.116 70.5953C191.213 70.7071 191.306 70.821 191.396 70.9372C191.486 71.0535 191.575 71.172 191.661 71.2927C191.745 71.4134 191.826 71.5361 191.904 71.6609C191.984 71.7854 192.06 71.9119 192.133 72.0404C192.204 72.1688 192.273 72.299 192.339 72.4309C192.406 72.5627 192.468 72.6961 192.527 72.831C192.587 72.966 192.643 73.1023 192.695 73.24C192.748 73.3776 192.798 73.5165 192.843 73.6567C192.888 73.7968 192.931 73.9379 192.969 74.0801C193.008 74.2223 193.043 74.3655 193.074 74.5094C193.575 76.7961 193.179 79.3049 191.897 81.2762C190.469 83.4755 188.313 84.6212 185.805 85.1619C185.784 85.1745 185.764 85.189 185.74 85.1995C184.657 85.6914 183.181 85.5751 182.066 85.2461C179.629 84.5256 177.459 82.614 176.296 80.3819C176.228 80.2517 176.163 80.1197 176.102 79.9861C176.04 79.8526 175.982 79.7177 175.927 79.5813C175.871 79.4449 175.82 79.3072 175.771 79.1683C175.724 79.0294 175.679 78.8894 175.637 78.7482C175.597 78.6071 175.559 78.4651 175.525 78.3221C175.491 78.1791 175.46 78.0353 175.433 77.8908C175.405 77.7462 175.382 77.6011 175.362 77.4555C175.343 77.3099 175.326 77.1638 175.314 77.0172C175.301 76.8708 175.292 76.7241 175.287 76.5772C175.282 76.4303 175.28 76.2834 175.282 76.1363C175.284 75.9892 175.289 75.8424 175.299 75.6958C175.309 75.5491 175.322 75.4027 175.338 75.2566C175.354 75.1105 175.374 74.9649 175.399 74.8198C175.421 74.6747 175.448 74.5303 175.479 74.3866C175.51 74.2428 175.544 74.0999 175.583 73.9578C175.621 73.8158 175.662 73.6748 175.707 73.5349C176.695 70.4835 179.121 69.0027 181.821 67.6012Z" fill="#87AB42"/>
<path d="M27.3459 56.6612C32.1561 56.2935 37.2466 57.9029 41.0488 60.8563C41.1824 60.9613 41.3147 61.0679 41.4456 61.1761C41.5766 61.2844 41.7062 61.3941 41.8343 61.5054C41.9626 61.6169 42.0895 61.7299 42.215 61.8444C42.3403 61.959 42.4643 62.075 42.587 62.1924C42.7096 62.31 42.8307 62.4291 42.9504 62.5496C43.0701 62.6701 43.1883 62.7921 43.3048 62.9156C43.4214 63.039 43.5366 63.1639 43.6503 63.2902C43.7638 63.4164 43.8758 63.5441 43.9862 63.6732C44.0967 63.8021 44.2055 63.9325 44.3127 64.0641C44.4199 64.1958 44.5254 64.3288 44.6294 64.4631C44.7332 64.5973 44.8354 64.7329 44.9362 64.8698C45.0367 65.0066 45.1356 65.1446 45.2327 65.2838C45.3298 65.4231 45.4253 65.5635 45.5191 65.7051C45.6128 65.8466 45.7047 65.9894 45.7949 66.1332C45.8852 66.277 45.9737 66.4218 46.0603 66.5678C46.1469 66.7138 46.2317 66.8609 46.3148 67.009C46.3976 67.157 46.4788 67.3061 46.5582 67.4562C46.6376 67.6062 46.715 67.7572 46.7906 67.9093C46.8662 68.0612 46.9399 68.2141 47.0117 68.3679C47.0835 68.5216 47.1534 68.6762 47.2214 68.8317C47.2895 68.9871 47.3556 69.1435 47.4196 69.3008C47.4839 69.4579 47.546 69.6158 47.6062 69.7745C47.6665 69.9331 47.7249 70.0924 47.7811 70.2525C47.8376 70.4126 47.8919 70.5733 47.9444 70.7347C47.9967 70.8962 48.0471 71.0582 48.0954 71.2208C48.1438 71.3834 48.1901 71.5466 48.2346 71.7105C48.2789 71.8743 48.3211 72.0385 48.3614 72.2034C48.4017 72.3683 48.44 72.5336 48.4762 72.6994C48.5125 72.8651 48.5467 73.0312 48.5788 73.1979C48.611 73.3645 48.641 73.5315 48.6688 73.6988C48.6969 73.8662 48.7228 74.0339 48.7467 74.2018C48.7705 74.3698 48.7923 74.538 48.8121 74.7066C48.8322 74.8812 48.8501 75.0559 48.8659 75.2308C48.8818 75.4059 48.8955 75.581 48.907 75.7562C48.9185 75.9315 48.9279 76.107 48.935 76.2825C48.9421 76.4581 48.9471 76.6336 48.95 76.8091C48.9529 76.9848 48.9537 77.1605 48.9522 77.3362C48.9508 77.5118 48.9472 77.6874 48.9415 77.863C48.9357 78.0386 48.9277 78.214 48.9177 78.3894C48.9077 78.5648 48.8955 78.74 48.8812 78.9151C48.8668 79.0903 48.8502 79.2652 48.8316 79.4397C48.8129 79.6144 48.7921 79.7889 48.7691 79.9632C48.7462 80.1373 48.7212 80.3111 48.6939 80.4847C48.6667 80.6583 48.6373 80.8315 48.6059 81.0043C48.5744 81.1771 48.5409 81.3495 48.5052 81.5216C48.4695 81.6936 48.4316 81.8651 48.3916 82.0361C48.3517 82.2073 48.3097 82.3778 48.2656 82.5479C48.2215 82.718 48.1753 82.8875 48.1271 83.0566C48.0788 83.2255 48.0285 83.3937 47.9761 83.5613C47.9236 83.7291 47.8691 83.8962 47.8126 84.0624C47.7561 84.2289 47.6975 84.3946 47.637 84.5594C47.5764 84.7245 47.5137 84.8887 47.4492 85.052C47.3845 85.2155 47.3178 85.378 47.2492 85.5398C47.1806 85.7016 47.1101 85.8625 47.0376 86.0225C46.9649 86.1825 46.8904 86.3416 46.814 86.4998C46.7375 86.6581 46.659 86.8154 46.5788 86.9718C46.4983 87.1281 46.4161 87.2834 46.3319 87.4378C46.2477 87.592 46.1617 87.7451 46.0738 87.8974C45.9859 88.0496 45.8961 88.2007 45.8045 88.3507C45.7129 88.5006 45.6194 88.6495 45.5243 88.7972C45.4289 88.9449 45.3317 89.0914 45.2328 89.2367C45.1338 89.3821 45.0332 89.5263 44.9309 89.6691C44.8284 89.812 44.7242 89.9535 44.6183 90.0938C44.5124 90.2342 44.4048 90.3733 44.2955 90.5109C40.6626 95.0514 35.6301 97.4869 29.919 98.1234C24.5604 98.0722 19.5838 96.8001 15.3207 93.4376C15.1894 93.3325 15.0595 93.2257 14.9307 93.1173C14.8021 93.0091 14.6749 92.8992 14.5491 92.7878C14.4232 92.6763 14.2988 92.5633 14.1756 92.4487C14.0523 92.3342 13.9307 92.2181 13.8105 92.1005C13.6903 91.9831 13.5715 91.8641 13.4542 91.7435C13.3369 91.623 13.2211 91.5011 13.1068 91.3778C12.9927 91.2545 12.8799 91.1298 12.7687 91.0036C12.6574 90.8776 12.5478 90.7502 12.4398 90.6214C12.3318 90.4926 12.2254 90.3625 12.1206 90.2312C12.0157 90.0996 11.9125 89.9669 11.8109 89.833C11.7094 89.699 11.6096 89.5639 11.5115 89.4275C11.4132 89.2911 11.3167 89.1535 11.222 89.0146C11.1271 88.8758 11.034 88.7359 10.9427 88.5948C10.8514 88.4538 10.7618 88.3115 10.674 88.1682C10.5862 88.025 10.5002 87.8807 10.4159 87.7352C10.3317 87.5898 10.2493 87.4434 10.1687 87.296C10.0881 87.1485 10.0093 87 9.9323 86.8507C9.85542 86.7014 9.78037 86.5511 9.70703 86.3998C9.63373 86.2485 9.56236 86.0964 9.49296 85.9433C9.42356 85.7905 9.35602 85.6367 9.29031 85.482C9.22465 85.3273 9.1609 85.1719 9.09908 85.0156C9.03731 84.8595 8.97736 84.7026 8.91933 84.5448C8.8614 84.3871 8.80549 84.2287 8.75145 84.0696C8.69742 83.9106 8.6454 83.7509 8.59526 83.5906C8.54517 83.4301 8.49706 83.2691 8.45102 83.1077C8.40498 82.9461 8.36095 82.784 8.31891 82.6213C8.27671 82.4587 8.23669 82.2957 8.19874 82.1321C8.16064 81.9684 8.12457 81.8042 8.09052 81.6397C8.05662 81.4753 8.02475 81.3105 7.9949 81.1451C7.9649 80.9798 7.93702 80.8141 7.91123 80.6481C7.88543 80.4823 7.8617 80.316 7.83995 80.1494C7.81821 79.9828 7.7986 79.816 7.7811 79.649C7.76195 79.4774 7.74492 79.3056 7.73002 79.1336C7.71512 78.9616 7.70236 78.7895 7.69182 78.6172C7.68113 78.4449 7.67261 78.2724 7.66627 78.0998C7.65994 77.9273 7.65584 77.7548 7.65387 77.5822C7.65174 77.4094 7.65185 77.2367 7.65413 77.064C7.65642 76.8914 7.66077 76.7189 7.66726 76.5464C7.67391 76.3738 7.68269 76.2014 7.69353 76.0291C7.70438 75.8568 7.71736 75.6846 7.73246 75.5127C7.74757 75.3407 7.76479 75.1689 7.78426 74.9975C7.80357 74.8258 7.82501 74.6545 7.84874 74.4835C7.87241 74.3125 7.8982 74.1418 7.92608 73.9714C7.95395 73.8009 7.98395 73.6309 8.01608 73.4613C8.04821 73.2917 8.08242 73.1224 8.11875 72.9537C8.15509 72.7848 8.19345 72.6165 8.23384 72.4487C8.27437 72.2808 8.31705 72.1134 8.36179 71.9466C8.40638 71.7798 8.4531 71.6136 8.50189 71.4479C8.55068 71.2822 8.60155 71.1172 8.65439 70.9528C8.70723 70.7884 8.76226 70.6247 8.8193 70.4616C8.87624 70.2987 8.93516 70.1364 8.99615 69.9748C9.05714 69.8132 9.12015 69.6524 9.18514 69.4924C9.25018 69.3324 9.31714 69.1732 9.38608 69.0151C9.45501 68.8566 9.52597 68.6992 9.59895 68.5425C9.67178 68.3859 9.74652 68.2303 9.82323 68.0756C9.90011 67.9208 9.97876 67.767 10.0592 67.6143C10.1398 67.4614 10.2223 67.3097 10.3066 67.159C10.3909 67.0082 10.4771 66.8585 10.5652 66.7098C10.6533 66.5613 10.7432 66.4138 10.835 66.2674C10.9267 66.121 11.0203 65.9757 11.1157 65.8316C11.211 65.6876 11.3081 65.5447 11.4069 65.403C11.5058 65.2613 11.6065 65.1209 11.709 64.9818C11.8113 64.8426 11.9154 64.7047 12.0212 64.568C12.127 64.4315 12.2346 64.2962 12.3437 64.1623C16.2425 59.3473 21.3685 57.307 27.3459 56.6612Z" fill="#1C2649"/>
<path d="M26.3904 63.1815C28.0795 63.0264 29.734 63.1072 31.4239 63.1924L31.4208 65.9511C32.5672 66.361 33.6775 66.8211 34.7926 67.3075C35.5037 66.8267 36.1133 66.2195 36.7392 65.6364C38.1389 66.5762 39.1086 67.7404 40.1268 69.0564C39.5871 69.609 39.0716 70.1889 38.5476 70.7568C39.2013 71.9141 39.6887 73.1841 40.2181 74.4025C40.6781 74.4127 41.7158 74.3535 42.0698 74.6197C42.5303 74.9661 42.7409 76.2355 42.7711 76.8026C42.8129 77.5901 42.6307 78.5295 42.065 79.1112C41.5492 79.6412 40.7399 79.5293 40.0554 79.5288C39.654 80.724 39.212 81.8401 38.6629 82.9767L40.4874 85.1489C39.3686 86.2601 38.201 87.3296 37.0671 88.4267L34.8058 86.7909C33.7002 87.4044 32.5697 87.9305 31.4189 88.4512C31.4038 89.2982 31.6132 90.1592 31.3622 90.9857C30.9861 91.4388 30.818 91.3939 30.2556 91.5104C29.1459 91.5863 27.1808 91.9431 26.3218 91.1379C25.5962 90.4574 25.7303 89.3656 25.7356 88.4619C24.5035 87.9544 23.3123 87.3939 22.1168 86.8071C21.4878 87.4148 20.7665 87.9474 20.0846 88.4966C18.9637 87.4825 17.8503 86.4604 16.7445 85.4301L18.5587 83.0075C17.9583 81.8703 17.4696 80.7161 16.9906 79.5252L14.5495 79.4273C14.4527 78.1693 14.0022 75.9442 14.9329 74.9585C15.5403 74.3146 16.2986 74.4027 17.1152 74.3986C17.529 73.2422 18.006 72.1888 18.6599 71.147L16.878 68.7734C17.8333 67.6571 18.9511 66.6304 19.9881 65.5861C20.7775 66.1251 21.4652 66.8186 22.1643 67.4676C23.3531 66.7922 24.5013 66.2551 25.7733 65.7608C25.7643 65.5657 25.7571 65.3705 25.7519 65.1753C25.7304 64.2859 25.7513 63.8534 26.3904 63.1815Z" fill="#27687B"/>
<path d="M27.6333 69.7225C29.1923 69.6111 30.7898 69.8343 32.1959 70.5388C33.8866 71.3858 35.1163 72.8729 35.7091 74.658C35.7495 74.7757 35.7869 74.8945 35.8212 75.0142C35.8558 75.1339 35.8873 75.2544 35.9156 75.3756C35.9441 75.4969 35.9696 75.6188 35.992 75.7413C36.0144 75.8638 36.0337 75.9867 36.0501 76.1101C36.0664 76.2336 36.0796 76.3575 36.0898 76.4817C36.0999 76.6058 36.1069 76.73 36.111 76.8544C36.115 76.9788 36.1159 77.1033 36.1137 77.2279C36.1116 77.3525 36.1063 77.4768 36.0979 77.6011C36.0894 77.7253 36.078 77.8493 36.0636 77.9729C36.049 78.0967 36.0314 78.22 36.0108 78.3427C35.99 78.4655 35.9664 78.5878 35.9398 78.7094C35.913 78.8309 35.8833 78.9517 35.8505 79.0719C35.8178 79.1921 35.7821 79.3114 35.7435 79.4299C35.7049 79.5483 35.6633 79.6657 35.6187 79.782C35.5743 79.8983 35.527 80.0135 35.4769 80.1275C35.4266 80.2416 35.3736 80.3543 35.3178 80.4656C34.181 82.7217 32.2551 83.8875 29.9157 84.633C28.027 84.6801 26.3013 84.5672 24.6442 83.5618C24.5389 83.4981 24.4354 83.4318 24.3335 83.3628C24.2317 83.2941 24.1316 83.2228 24.0331 83.149C23.9347 83.0752 23.8381 82.9991 23.7434 82.9207C23.6488 82.8421 23.5562 82.7612 23.4655 82.6782C23.3749 82.5952 23.2864 82.51 23.1999 82.4227C23.1134 82.3352 23.0291 82.2457 22.9472 82.1543C22.8651 82.0627 22.7854 81.9692 22.7079 81.8738C22.6305 81.7783 22.5555 81.681 22.4828 81.5818C22.4102 81.4827 22.34 81.3818 22.2722 81.2792C22.2046 81.1766 22.1395 81.0724 22.0771 80.9667C22.0145 80.861 21.9545 80.7538 21.8973 80.6451C21.8401 80.5364 21.7855 80.4263 21.7336 80.3149C21.6819 80.2036 21.6329 80.091 21.5867 79.9771C21.5403 79.8633 21.4968 79.7485 21.4563 79.6325C21.4156 79.5167 21.3779 79.3998 21.3432 79.2821C21.3083 79.1643 21.2764 79.0457 21.2473 78.9263C21.2176 78.8053 21.1909 78.6837 21.1672 78.5616C21.1436 78.4393 21.123 78.3165 21.1055 78.1932C21.0879 78.0699 21.0736 77.9462 21.0622 77.8221C21.0508 77.6982 21.0426 77.574 21.0376 77.4496C21.0324 77.3252 21.0304 77.2007 21.0316 77.0761C21.0325 76.9516 21.0366 76.8272 21.044 76.7029C21.0513 76.5786 21.0617 76.4545 21.0753 76.3306C21.0888 76.2069 21.1053 76.0835 21.1249 75.9605C21.1446 75.8376 21.1672 75.7152 21.193 75.5934C21.2188 75.4715 21.2476 75.3504 21.2794 75.2301C21.3112 75.1095 21.346 74.99 21.3837 74.8714C21.4215 74.7526 21.4622 74.6349 21.5059 74.5182C21.5497 74.4016 21.5962 74.2861 21.6455 74.1717C21.695 74.0575 21.7473 73.9445 21.8024 73.8327C21.8574 73.7209 21.9152 73.6106 21.9759 73.5017C22.0363 73.3928 22.0996 73.2856 22.1656 73.1799C23.4708 71.1096 25.3296 70.271 27.6333 69.7225Z" fill="#87AB42"/>
<path d="M90.8692 12.633C93.5618 8.32088 96.7831 4.308 101.576 2.21082C107.255 -0.274166 113.903 0.549692 119.531 2.75681C124.586 4.7392 130.047 8.39876 132.801 13.1704C133.777 14.8619 134.369 16.7569 135.155 18.5399C135.824 20.0566 136.933 22.1196 138.618 22.7034C139.816 23.1187 140.907 22.493 141.94 21.9538C139.579 27.6526 137.682 33.6719 134.728 39.1019L134.018 40.6415L133.79 40.5621C133.506 36.9652 132.758 33.6609 131.733 30.2058C128.161 31.7671 124.644 32.5153 120.745 32.5005C110.501 32.4617 101.573 28.3119 94.4137 21.0982C93.6967 21.3431 92.985 21.6021 92.2784 21.875C86.2762 24.2172 82.5939 29.3372 80.9617 35.3832C80.5873 36.7699 80.5325 38.6006 79.9825 39.8625L79.6065 39.896C79.3017 39.6247 79.0481 39.515 78.6626 39.38L78.5237 39.3327L78.7417 39.1883C76.3161 37.037 75.1358 33.6172 74.7904 30.4749C74.3355 26.3355 75.0164 22.1587 77.7234 18.8649C80.9792 14.9035 85.8992 13.0992 90.8692 12.633Z" fill="#353D47"/>
<path d="M78.5221 39.3283L78.661 39.3756C79.0466 39.5106 79.3 39.6202 79.6048 39.8916L79.9809 39.8581C80.5309 38.5961 80.5856 36.7654 80.96 35.3788C82.5923 29.3328 86.2746 24.2129 92.2768 21.8705C92.9834 21.5976 93.6952 21.3387 94.4121 21.0938C101.571 28.3075 110.5 32.4572 120.743 32.4961C124.643 32.5109 128.16 31.7627 131.731 30.2013C132.756 33.6565 133.505 36.9608 133.788 40.5577L134.016 40.637L134.727 39.0975C136.768 39.3712 138.472 39.7765 139.768 41.5174C140.785 42.8825 141.086 44.6324 140.822 46.2908C140.558 47.9488 139.729 49.5379 138.335 50.5173C137.305 51.2402 135.8 51.6578 134.548 51.4006C134.133 51.3154 133.714 51.1837 133.321 51.0279C132.646 53.0261 132.056 55.107 131.195 57.0334C128.55 62.95 123.696 67.2956 117.96 70.13C117.275 70.468 116.43 70.7758 115.825 71.233L115.589 71.2619C113.638 71.5133 111.786 72.2185 109.85 72.5502C104.388 73.4862 102.643 72.1432 97.7805 71.2604C96.8111 70.9774 95.8894 70.5605 94.9925 70.1002C89.6485 67.357 85.0835 62.328 82.7083 56.8332C81.9593 55.1 81.5392 53.1488 80.9529 51.3465C80.588 51.4146 80.2216 51.473 79.8536 51.5215C78.3265 51.7137 76.8314 51.3492 75.6175 50.3865C74.2613 49.3112 73.435 47.6613 73.246 45.9562C73.0662 44.3359 73.4466 42.5668 74.4885 41.2833C75.5437 39.9838 76.9045 39.5091 78.5221 39.3283Z" fill="#F1D4B2"/>
<path d="M101.059 49.2344C102.352 49.48 103.887 50.8921 105.162 51.4405C108.553 52.9002 109.513 50.3514 112.054 49.4586C112.453 49.3186 112.499 49.319 112.866 49.5103L112.967 49.9745C112.787 50.1955 112.599 50.4095 112.404 50.6164C111.017 52.0846 108.882 52.8461 106.885 52.875C105.247 52.8985 103.186 52.5998 101.976 51.392C101.305 50.7229 101.05 50.1716 101.059 49.2344Z" fill="#E7BE88"/>
<path d="M133.79 40.5625L134.018 40.6418C135.416 41.2854 136.52 42.0151 137.221 43.4362C137.791 44.5918 137.808 45.9719 137.384 47.1756C136.679 49.1745 135.164 50.152 133.328 51.0108C133.848 47.5537 133.779 44.0488 133.79 40.5625Z" fill="#F19B35"/>
<path d="M79.467 40.8828L79.8343 40.9136C80.189 41.315 80.5991 49.9086 80.7132 51.171C80.0494 50.8786 79.4074 50.5413 78.7615 50.2119C78.0208 49.587 77.3621 48.9532 76.8943 48.0931C76.218 46.8504 75.9781 45.3655 76.4174 44.0021C76.9366 42.391 78.0183 41.6276 79.467 40.8828Z" fill="#F19B35"/>
<path d="M91.7869 38.5819C92.3751 38.5712 92.9299 38.57 93.4941 38.7701C93.6057 38.8088 93.7151 38.853 93.8223 38.9027C93.9293 38.9523 94.0336 39.0073 94.1351 39.0677C94.2366 39.1279 94.3349 39.1931 94.4297 39.2633C94.5246 39.3336 94.6156 39.4086 94.7029 39.488C94.7901 39.5674 94.8731 39.6511 94.9517 39.7389C95.0305 39.827 95.1046 39.9186 95.174 40.0139C95.2433 40.1094 95.3076 40.208 95.3669 40.31C95.4263 40.4119 95.4803 40.5166 95.5289 40.624C95.5763 40.7296 95.6179 40.8376 95.6537 40.9478C95.6895 41.0579 95.7194 41.1696 95.7433 41.2829C95.7671 41.3961 95.7849 41.5104 95.7968 41.6255C95.8084 41.7407 95.8141 41.8562 95.8135 41.9721C95.8129 42.0877 95.8062 42.2032 95.7933 42.3184C95.7805 42.4334 95.7616 42.5475 95.7364 42.6606C95.7114 42.7735 95.6805 42.8849 95.6437 42.9947C95.6068 43.1044 95.5641 43.2119 95.5158 43.3172C94.9998 44.4512 94.1791 44.9055 93.0805 45.3316C92.5911 45.3312 92.1041 45.2894 91.6292 45.1642C90.727 44.9263 89.8935 44.2573 89.4878 43.4227C89.1186 42.6624 89.094 41.7845 89.3677 40.9902C89.8014 39.7312 90.6752 39.1643 91.7869 38.5819Z" fill="#353D47"/>
<path d="M120.853 38.5563C121.421 38.5359 122.023 38.5347 122.573 38.6985C123.496 38.9737 124.334 39.6903 124.752 40.5535C124.799 40.6501 124.841 40.7488 124.879 40.8496C124.916 40.9504 124.948 41.0529 124.975 41.1571C125.002 41.2611 125.024 41.3662 125.041 41.4723C125.057 41.5786 125.068 41.6854 125.074 41.7926C125.08 41.9 125.08 42.0074 125.075 42.1147C125.07 42.2221 125.06 42.3289 125.044 42.4352C125.028 42.5417 125.007 42.647 124.981 42.7512C124.955 42.8554 124.923 42.9581 124.887 43.0592C124.452 44.266 123.571 44.7904 122.481 45.2976C121.989 45.3107 121.442 45.311 120.964 45.187C120.045 44.9487 119.2 44.3456 118.737 43.5103C118.322 42.76 118.247 41.8846 118.489 41.0663C118.872 39.7733 119.739 39.1766 120.853 38.5563Z" fill="#353D47"/>
<path d="M97.7804 71.2618C102.643 72.1447 104.388 73.4876 109.85 72.5516C111.786 72.2199 113.638 71.5147 115.589 71.2633L115.825 71.2344C115.844 72.4567 115.834 73.6556 115.747 74.8764C115.754 75.8874 115.758 76.8958 115.819 77.9052C123.409 77.8669 130.748 77.6698 136.594 83.414C137.565 84.3726 138.437 85.4147 139.208 86.5398C140.174 88.3572 141.059 90.1288 141.54 92.1476C142.424 95.8615 142.055 99.604 141.998 103.372C141.95 107.021 141.953 110.669 142.005 114.317C141.993 117.285 142.162 120.253 142.112 123.221C141.367 123.647 125.306 123.39 123.31 123.389L86.5941 123.379L76.5295 123.398C74.9497 123.402 73.1185 123.577 71.5703 123.314L71.5723 113.979C71.9591 112.951 71.6956 111.392 71.7138 110.277C71.7956 105.209 71.1191 97.153 72.1975 92.4849C72.6582 90.4894 73.4873 88.6992 74.496 86.9272C75.1786 85.8012 76.1998 84.6677 77.1315 83.7387C82.9226 77.9645 90.2275 77.9019 97.8439 77.8825C97.9043 76.3269 97.8347 74.7439 97.8249 73.1859L97.7804 71.2618Z" fill="#93F2FF" fill-opacity="0.06"/>
<path d="M97.7812 71.2618C102.644 72.1447 104.389 73.4876 109.851 72.5516C111.787 72.2199 113.639 71.5147 115.59 71.2633L115.826 71.2344C115.845 72.4567 115.834 73.6556 115.748 74.8764C115.754 75.8874 115.759 76.8958 115.82 77.9052C115.815 79.6533 115.103 81.6067 114.054 82.997C112.634 84.88 110.453 86.0334 108.132 86.3542C107.981 86.3764 107.83 86.3948 107.679 86.4096C107.528 86.4243 107.377 86.4352 107.225 86.4423C107.073 86.4496 106.921 86.4531 106.769 86.4528C106.617 86.4526 106.466 86.4487 106.314 86.4409C106.162 86.4332 106.011 86.4216 105.859 86.4063C105.708 86.391 105.558 86.3721 105.407 86.3494C105.257 86.3268 105.108 86.3004 104.959 86.2703C104.81 86.2402 104.662 86.2065 104.515 86.1691C104.367 86.1317 104.221 86.0907 104.076 86.0461C103.931 86.0016 103.787 85.9535 103.644 85.9017C103.501 85.8501 103.36 85.795 103.219 85.7362C103.079 85.6775 102.941 85.6154 102.804 85.5499C102.667 85.4844 102.532 85.4155 102.398 85.3434C102.264 85.271 102.133 85.1956 102.003 85.1169C101.873 85.0382 101.745 84.9563 101.619 84.8713C101.494 84.7862 101.37 84.6982 101.248 84.607C98.9548 82.8622 98.2313 80.6118 97.8447 77.8825C97.905 76.327 97.8355 74.744 97.8257 73.186L97.7812 71.2618Z" fill="#F1D4B2"/>
<path d="M97.7812 71.2618C102.644 72.1447 104.389 73.4876 109.851 72.5516C111.787 72.2199 113.639 71.5147 115.59 71.2633L115.826 71.2344C115.845 72.4567 115.834 73.6556 115.748 74.8764C115.684 74.253 115.675 73.6124 115.642 72.9858C114.956 73.4252 114.233 73.7906 113.472 74.0819C108.304 76.1163 102.789 75.3024 97.8258 73.186L97.7812 71.2618Z" fill="#E7BE88"/>
<path d="M71.5711 123.312C73.1191 123.574 74.9504 123.4 76.5302 123.396L86.5949 123.377L123.31 123.387C125.307 123.387 141.367 123.645 142.113 123.219C143.321 123.556 145.073 123.325 146.321 123.248C147.505 123.334 148.765 123.386 149.625 124.334C150.81 125.64 150.26 127.672 150.657 129.178C150.602 130.878 150.565 132.563 150.628 134.263C150.894 139.717 150.884 145.17 150.879 150.629C150.887 154.227 150.843 157.836 150.939 161.432C151.003 163.805 151.32 166.344 151.057 168.701C150.95 169.659 150.75 170.851 150.045 171.56C148.594 173.02 146.35 172.809 144.461 172.834C144.304 173.895 144.158 174.931 143.832 175.957C141.528 176.312 139.025 176.032 136.695 176.009L125.023 175.996L88.7856 175.996C82.6698 175.997 76.4771 175.79 70.3691 176.021C70.0735 174.961 70.0052 173.801 69.8692 172.71C68.007 172.737 65.9303 172.862 64.4946 171.445C63.6848 170.647 63.215 169.454 62.9963 168.359C62.564 166.194 62.7937 163.761 62.8085 161.556L62.81 152.75L62.7774 134.854C62.8173 133.521 62.7801 132.18 62.771 130.846L62.8121 126.108C64.0793 124.25 65.0509 123.816 67.1541 123.288C68.624 123.269 70.1039 123.21 71.5711 123.312Z" fill="#7D7C7C"/>
<path d="M106.033 145.271C107.388 145.213 108.662 145.329 109.911 145.895C110.013 145.941 110.115 145.99 110.215 146.042C110.315 146.093 110.414 146.147 110.512 146.204C110.609 146.26 110.705 146.319 110.8 146.38C110.894 146.441 110.988 146.504 111.079 146.57C111.171 146.636 111.261 146.703 111.349 146.773C111.437 146.843 111.523 146.916 111.608 146.99C111.693 147.064 111.775 147.141 111.856 147.219C111.937 147.297 112.016 147.378 112.093 147.46C112.17 147.542 112.245 147.626 112.318 147.712C112.39 147.798 112.461 147.885 112.53 147.975C112.598 148.064 112.664 148.155 112.728 148.247C112.792 148.34 112.854 148.434 112.914 148.53C112.973 148.625 113.03 148.722 113.085 148.821C113.139 148.919 113.191 149.019 113.241 149.12C113.291 149.221 113.338 149.323 113.383 149.426C113.427 149.529 113.469 149.634 113.509 149.739C113.549 149.846 113.587 149.954 113.621 150.063C113.656 150.172 113.688 150.282 113.718 150.393C113.747 150.503 113.773 150.614 113.797 150.726C113.821 150.838 113.842 150.951 113.86 151.064C113.878 151.176 113.893 151.29 113.906 151.404C113.918 151.517 113.928 151.631 113.934 151.745C113.941 151.859 113.945 151.974 113.946 152.088C113.947 152.202 113.945 152.317 113.94 152.431C113.936 152.545 113.928 152.659 113.918 152.773C113.907 152.887 113.894 153.001 113.878 153.114C113.862 153.227 113.843 153.34 113.821 153.452C113.799 153.564 113.775 153.676 113.748 153.787C113.72 153.898 113.69 154.009 113.657 154.118C113.624 154.228 113.589 154.337 113.551 154.444C113.512 154.552 113.471 154.659 113.428 154.765C113.384 154.87 113.338 154.975 113.289 155.079C112.264 157.221 110.534 158.181 108.377 158.946C106.823 159.061 105.42 158.99 103.996 158.291C103.895 158.241 103.796 158.188 103.698 158.133C103.601 158.078 103.504 158.021 103.409 157.961C103.314 157.901 103.221 157.839 103.129 157.774C103.037 157.71 102.947 157.643 102.858 157.574C102.77 157.506 102.683 157.434 102.598 157.361C102.513 157.288 102.43 157.213 102.349 157.135C102.267 157.058 102.188 156.978 102.111 156.897C102.034 156.816 101.958 156.733 101.885 156.648C101.812 156.563 101.741 156.476 101.672 156.387C101.604 156.299 101.537 156.208 101.473 156.117C101.408 156.025 101.346 155.931 101.287 155.836C101.227 155.741 101.17 155.645 101.115 155.547C101.06 155.449 101.008 155.35 100.958 155.25C100.908 155.149 100.861 155.048 100.816 154.945C100.771 154.842 100.729 154.739 100.689 154.634C100.65 154.529 100.613 154.423 100.578 154.316C100.542 154.205 100.509 154.094 100.478 153.981C100.448 153.868 100.42 153.755 100.395 153.641C100.37 153.527 100.348 153.412 100.329 153.297C100.31 153.182 100.294 153.067 100.28 152.951C100.267 152.835 100.257 152.719 100.249 152.602C100.241 152.486 100.237 152.369 100.235 152.253C100.233 152.136 100.235 152.019 100.239 151.903C100.243 151.786 100.25 151.67 100.26 151.553C100.269 151.437 100.282 151.321 100.298 151.205C100.314 151.09 100.332 150.975 100.354 150.86C100.375 150.745 100.399 150.631 100.427 150.518C100.454 150.404 100.484 150.291 100.516 150.179C100.549 150.067 100.585 149.956 100.623 149.846C100.661 149.736 100.702 149.627 100.746 149.518C100.79 149.41 100.836 149.303 100.886 149.197C100.935 149.092 100.986 148.987 101.041 148.884C102.137 146.818 103.877 145.923 106.033 145.271Z" fill="#E1E2E3"/>
<path d="M71.571 123.312C73.1191 123.574 74.9504 123.4 76.5301 123.396L86.5948 123.377L123.31 123.387C125.307 123.387 141.367 123.645 142.113 123.219C143.321 123.556 145.073 123.325 146.321 123.248C147.505 123.334 148.765 123.386 149.625 124.334C150.81 125.64 150.26 127.672 150.657 129.178C150.602 130.878 150.565 132.563 150.628 134.263C150.894 139.717 150.884 145.17 150.879 150.629C150.887 154.227 150.843 157.836 150.939 161.432C151.002 163.805 151.32 166.344 151.057 168.701C150.95 169.659 150.75 170.851 150.045 171.56C148.594 173.02 146.35 172.809 144.46 172.834C144.864 164.021 145.763 155.217 146.697 146.446C147.267 141.087 148.607 133.639 148.028 128.433C147.522 128.174 146.964 127.964 146.404 127.858C143.293 127.274 139.788 127.584 136.623 127.586L119.845 127.592L87.4586 127.593C81.6447 127.59 75.7602 127.404 69.9528 127.639C68.6835 127.69 66.9637 127.739 65.8962 128.47C65.4263 131.582 66.4652 139.177 66.789 142.518L69.8692 172.71C68.007 172.737 65.9303 172.862 64.4946 171.445C63.6848 170.647 63.215 169.454 62.9963 168.359C62.564 166.194 62.7937 163.761 62.8085 161.556L62.81 152.75L62.7774 134.854C62.8173 133.521 62.7801 132.18 62.771 130.846L62.8121 126.108C64.0793 124.25 65.0509 123.816 67.1541 123.288C68.6239 123.269 70.1039 123.21 71.571 123.312Z" fill="url(#paint0_linear_1_1196)"/>
<defs>
<linearGradient id="paint0_linear_1_1196" x1="107.886" y1="174.127" x2="105.553" y2="121.867" gradientUnits="userSpaceOnUse">
<stop stop-color="#3B3B46"/>
<stop offset="1" stop-color="#2C3E4A"/>
</linearGradient>
</defs>
</svg>
