<svg width="77" height="98" viewBox="0 0 77 98" fill="none" xmlns="http://www.w3.org/2000/svg">
<path d="M75.5228 98H1.47362C1.08279 98 0.707967 97.8436 0.431611 97.5651C0.155254 97.2866 0 96.909 0 96.5152V1.48485C0 1.09104 0.155254 0.713365 0.431611 0.434902C0.707967 0.156439 1.08279 4.8487e-10 1.47362 4.8487e-10H58.1636C58.5544 4.8487e-10 58.9292 0.156439 59.2056 0.434902C59.482 0.713365 59.6372 1.09104 59.6372 1.48485C59.6372 1.87865 59.482 2.25633 59.2056 2.53479C58.9292 2.81326 58.5544 2.9697 58.1636 2.9697H2.94723V95.0303H74.0492V18.9764C74.0492 18.5826 74.2044 18.2049 74.4808 17.9264C74.7571 17.648 75.132 17.4915 75.5228 17.4915C75.9136 17.4915 76.2884 17.648 76.5648 17.9264C76.8411 18.2049 76.9964 18.5826 76.9964 18.9764V96.5152C76.9964 96.909 76.8411 97.2866 76.5648 97.5651C76.2884 97.8436 75.9136 98 75.5228 98Z" fill="#FF7029"/>
<path d="M75.5267 20.4609H58.1675C57.7767 20.4609 57.4019 20.3045 57.1255 20.026C56.8491 19.7475 56.6939 19.3699 56.6939 18.976V1.48453C56.694 1.1909 56.7804 0.903885 56.9423 0.659761C57.1043 0.415637 57.3344 0.225368 57.6036 0.11301C57.8729 0.000650986 58.1691 -0.0287524 58.4549 0.0285145C58.7407 0.0857815 59.0033 0.227149 59.2094 0.434744L76.5685 17.9263C76.7746 18.1339 76.9149 18.3985 76.9717 18.6865C77.0285 18.9744 76.9994 19.2729 76.8878 19.5442C76.7763 19.8155 76.5875 20.0474 76.3452 20.2106C76.103 20.3737 75.8181 20.4608 75.5267 20.4609ZM59.6411 17.4912H71.9694L59.6411 5.06896V17.4912Z" fill="url(#paint0_linear_1_388)"/>
<path d="M47.6433 44.4734H41.7709C41.3801 44.4734 41.0053 44.3169 40.7289 44.0385C40.4526 43.76 40.2973 43.3823 40.2973 42.9885C40.2973 42.5947 40.4526 42.217 40.7289 41.9386C41.0053 41.6601 41.3801 41.5037 41.7709 41.5037H47.6433C48.0808 41.4906 48.4961 41.3063 48.8009 40.9899C49.1058 40.6734 49.2764 40.2497 49.2764 39.8087C49.2764 39.3677 49.1058 38.944 48.8009 38.6275C48.4961 38.3111 48.0808 38.1268 47.6433 38.1138H40.5478C40.157 38.1138 39.7822 37.9573 39.5058 37.6789C39.2295 37.4004 39.0742 37.0227 39.0742 36.6289C39.0742 36.2351 39.2295 35.8574 39.5058 35.579C39.7822 35.3005 40.157 35.1441 40.5478 35.1441H47.6433C48.8568 35.1659 50.0132 35.6669 50.8638 36.5393C51.7143 37.4118 52.1908 38.5858 52.1908 39.8087C52.1908 41.0316 51.7143 42.2057 50.8638 43.0781C50.0132 43.9505 48.8568 44.4515 47.6433 44.4734Z" fill="url(#paint1_linear_1_388)"/>
<path d="M50.0122 38.1213H44.1413C43.7505 38.1213 43.3756 37.9648 43.0993 37.6864C42.8229 37.4079 42.6677 37.0302 42.6677 36.6364C42.6677 36.2426 42.8229 35.865 43.0993 35.5865C43.3756 35.308 43.7505 35.1516 44.1413 35.1516H50.0122C50.2373 35.1583 50.4614 35.1194 50.6713 35.0373C50.8812 34.9551 51.0726 34.8313 51.2342 34.6733C51.3958 34.5152 51.5242 34.3261 51.6119 34.1171C51.6996 33.9081 51.7448 33.6835 51.7448 33.4566C51.7448 33.2297 51.6996 33.0051 51.6119 32.7961C51.5242 32.5872 51.3958 32.398 51.2342 32.24C51.0726 32.0819 50.8812 31.9582 50.6713 31.876C50.4614 31.7938 50.2373 31.755 50.0122 31.7617H42.9167C42.5259 31.7617 42.1511 31.6052 41.8747 31.3268C41.5984 31.0483 41.4431 30.6706 41.4431 30.2768C41.4431 29.883 41.5984 29.5053 41.8747 29.2269C42.1511 28.9484 42.5259 28.792 42.9167 28.792H50.0122C50.6271 28.7809 51.238 28.8934 51.8092 29.1229C52.3805 29.3523 52.9007 29.6942 53.3394 30.1284C53.7781 30.5627 54.1266 31.0806 54.3645 31.6521C54.6024 32.2235 54.7249 32.837 54.7249 33.4566C54.7249 34.0763 54.6024 34.6898 54.3645 35.2612C54.1266 35.8326 53.7781 36.3506 53.3394 36.7849C52.9007 37.2191 52.3805 37.5609 51.8092 37.7904C51.238 38.0199 50.6271 38.1323 50.0122 38.1213Z" fill="url(#paint2_linear_1_388)"/>
<path d="M44.8921 50.826H21.8845C21.4937 50.826 21.1189 50.6696 20.8425 50.3911C20.5662 50.1126 20.4109 49.735 20.4109 49.3412V25.6385C20.411 25.4275 20.4557 25.2188 20.5421 25.0265C20.6285 24.8342 20.7546 24.6627 20.9119 24.5234L24.3735 21.4616C24.9629 20.9449 26.2892 19.8699 27.1527 19.175L27.8777 18.5885C31.2862 15.6945 33.4627 13.2668 34.4884 9.41804C34.6786 8.7074 35.0159 8.04536 35.4781 7.47543C35.9403 6.90551 36.5171 6.44061 37.1703 6.11129C37.8264 5.78053 38.5734 5.68008 39.2926 5.82588C40.0119 5.97168 40.6621 6.35539 41.1403 6.91607C42.0415 8.06088 42.6487 9.41196 42.9081 10.8497C43.1674 12.2874 43.0709 13.7673 42.6271 15.1585C42.0102 17.6764 41.1037 20.1132 39.926 22.4194H52.0096C53.2231 22.4412 54.3796 22.9422 55.2301 23.8147C56.0806 24.6871 56.5571 25.8611 56.5571 27.084C56.5571 28.307 56.0806 29.481 55.2301 30.3534C54.3796 31.2258 53.2231 31.7269 52.0096 31.7487H43.3433C42.9525 31.7487 42.5777 31.5922 42.3013 31.3138C42.0249 31.0353 41.8697 30.6576 41.8697 30.2638C41.8697 29.87 42.0249 29.4923 42.3013 29.2139C42.5777 28.9354 42.9525 28.779 43.3433 28.779H52.0067C52.4442 28.7659 52.8595 28.5816 53.1643 28.2652C53.4692 27.9488 53.6398 27.5251 53.6398 27.084C53.6398 26.643 53.4692 26.2193 53.1643 25.9029C52.8595 25.5864 52.4442 25.4021 52.0067 25.3891H37.3752C37.1119 25.3889 36.8535 25.3176 36.6269 25.1827C36.4002 25.0478 36.2135 24.8542 36.0863 24.622C35.959 24.3898 35.8958 24.1275 35.9032 23.8623C35.9107 23.5972 35.9884 23.3389 36.1285 23.1143C37.8192 20.4266 39.0552 17.4747 39.786 14.3789C40.099 13.4552 40.1821 12.4682 40.0279 11.5045C39.8737 10.5409 39.4871 9.63014 38.9018 8.85232C38.8517 8.79325 38.7834 8.75282 38.7078 8.73748C38.6322 8.72214 38.5537 8.73277 38.4848 8.76768C38.2039 8.90901 37.956 9.10873 37.7574 9.35367C37.5588 9.59861 37.4139 9.88321 37.3324 10.1887C36.1093 14.7709 33.5335 17.6679 29.7728 20.8588C29.6799 20.939 29.3823 21.178 28.9903 21.4943C28.1592 22.164 26.8757 23.196 26.3142 23.6919L23.3552 26.3112V47.8563H44.8921C45.338 47.8563 45.7657 47.6778 46.081 47.3601C46.3963 47.0424 46.5735 46.6114 46.5735 46.1621C46.5735 45.7128 46.3963 45.2818 46.081 44.9641C45.7657 44.6464 45.338 44.4679 44.8921 44.4679H37.7966C37.4058 44.4679 37.031 44.3115 36.7546 44.033C36.4783 43.7545 36.323 43.3769 36.323 42.983C36.323 42.5892 36.4783 42.2116 36.7546 41.9331C37.031 41.6546 37.4058 41.4982 37.7966 41.4982H44.8921C46.1197 41.4982 47.297 41.9896 48.165 42.8642C49.033 43.7389 49.5207 44.9252 49.5207 46.1621C49.5207 47.3991 49.033 48.5853 48.165 49.46C47.297 50.3346 46.1197 50.826 44.8921 50.826Z" fill="url(#paint3_linear_1_388)"/>
<path d="M20.0301 53.3763H13.4534C12.5716 53.3751 11.7263 53.0216 11.1028 52.3934C10.4794 51.7652 10.1286 50.9134 10.1274 50.025V25.3765C10.1286 24.488 10.4794 23.6363 11.1028 23.0081C11.7263 22.3798 12.5716 22.0264 13.4534 22.0252H20.0301C20.9118 22.0264 21.7571 22.3798 22.3806 23.0081C23.0041 23.6363 23.3549 24.488 23.3561 25.3765V50.025C23.3549 50.9134 23.0041 51.7652 22.3806 52.3934C21.7571 53.0216 20.9118 53.3751 20.0301 53.3763ZM13.4534 24.9889C13.4036 24.9889 13.3544 24.9988 13.3084 25.018C13.2625 25.0372 13.2207 25.0653 13.1856 25.1007C13.1504 25.1361 13.1225 25.1782 13.1035 25.2245C13.0844 25.2708 13.0746 25.3204 13.0746 25.3705V50.019C13.0746 50.1202 13.1145 50.2173 13.1856 50.2889C13.2566 50.3604 13.3529 50.4006 13.4534 50.4006H20.0301C20.1305 50.4006 20.2269 50.3604 20.2979 50.2889C20.3689 50.2173 20.4088 50.1202 20.4088 50.019V25.3705C20.4088 25.2693 20.3689 25.1723 20.2979 25.1007C20.2269 25.0291 20.1305 24.9889 20.0301 24.9889H13.4534Z" fill="url(#paint4_linear_1_388)"/>
<path d="M38.5685 64.259H11.65C11.2592 64.259 10.8843 64.1026 10.608 63.8241C10.3316 63.5456 10.1764 63.168 10.1764 62.7742C10.1764 62.3804 10.3316 62.0027 10.608 61.7242C10.8843 61.4458 11.2592 61.2893 11.65 61.2893H38.5685C38.9594 61.2893 39.3342 61.4458 39.6105 61.7242C39.8869 62.0027 40.0421 62.3804 40.0421 62.7742C40.0421 63.168 39.8869 63.5456 39.6105 63.8241C39.3342 64.1026 38.9594 64.259 38.5685 64.259Z" fill="url(#paint5_linear_1_388)"/>
<path d="M65.3986 77.0695H11.65C11.2592 77.0695 10.8843 76.9131 10.608 76.6346C10.3316 76.3561 10.1764 75.9785 10.1764 75.5847C10.1764 75.1909 10.3316 74.8132 10.608 74.5347C10.8843 74.2563 11.2592 74.0998 11.65 74.0998H65.3986C65.7895 74.0998 66.1643 74.2563 66.4406 74.5347C66.717 74.8132 66.8723 75.1909 66.8723 75.5847C66.8723 75.9785 66.717 76.3561 66.4406 76.6346C66.1643 76.9131 65.7895 77.0695 65.3986 77.0695Z" fill="url(#paint6_linear_1_388)"/>
<path d="M65.3986 89.8738H11.65C11.2592 89.8738 10.8843 89.7174 10.608 89.4389C10.3316 89.1605 10.1764 88.7828 10.1764 88.389C10.1764 87.9952 10.3316 87.6175 10.608 87.3391C10.8843 87.0606 11.2592 86.9042 11.65 86.9042H65.3986C65.7895 86.9042 66.1643 87.0606 66.4406 87.3391C66.717 87.6175 66.8723 87.9952 66.8723 88.389C66.8723 88.7828 66.717 89.1605 66.4406 89.4389C66.1643 89.7174 65.7895 89.8738 65.3986 89.8738Z" fill="url(#paint7_linear_1_388)"/>
<defs>
<linearGradient id="paint0_linear_1_388" x1="0" y1="49" x2="77" y2="49" gradientUnits="userSpaceOnUse">
<stop stop-color="#87AB42"/>
<stop offset="0.3" stop-color="#87AB42"/>
<stop offset="1" stop-color="#FF7029"/>
</linearGradient>
<linearGradient id="paint1_linear_1_388" x1="0" y1="49" x2="77" y2="49" gradientUnits="userSpaceOnUse">
<stop stop-color="#87AB42"/>
<stop offset="0.3" stop-color="#87AB42"/>
<stop offset="1" stop-color="#FF7029"/>
</linearGradient>
<linearGradient id="paint2_linear_1_388" x1="0" y1="49" x2="77" y2="49" gradientUnits="userSpaceOnUse">
<stop stop-color="#87AB42"/>
<stop offset="0.3" stop-color="#87AB42"/>
<stop offset="1" stop-color="#FF7029"/>
</linearGradient>
<linearGradient id="paint3_linear_1_388" x1="0" y1="49" x2="77" y2="49" gradientUnits="userSpaceOnUse">
<stop stop-color="#87AB42"/>
<stop offset="0.3" stop-color="#87AB42"/>
<stop offset="1" stop-color="#FF7029"/>
</linearGradient>
<linearGradient id="paint4_linear_1_388" x1="0" y1="49" x2="77" y2="49" gradientUnits="userSpaceOnUse">
<stop stop-color="#87AB42"/>
<stop offset="0.3" stop-color="#87AB42"/>
<stop offset="1" stop-color="#FF7029"/>
</linearGradient>
<linearGradient id="paint5_linear_1_388" x1="0" y1="49" x2="77" y2="49" gradientUnits="userSpaceOnUse">
<stop stop-color="#87AB42"/>
<stop offset="0.3" stop-color="#87AB42"/>
<stop offset="1" stop-color="#FF7029"/>
</linearGradient>
<linearGradient id="paint6_linear_1_388" x1="0" y1="49" x2="77" y2="49" gradientUnits="userSpaceOnUse">
<stop stop-color="#87AB42"/>
<stop offset="0.3" stop-color="#87AB42"/>
<stop offset="1" stop-color="#FF7029"/>
</linearGradient>
<linearGradient id="paint7_linear_1_388" x1="0" y1="49" x2="77" y2="49" gradientUnits="userSpaceOnUse">
<stop stop-color="#87AB42"/>
<stop offset="0.3" stop-color="#87AB42"/>
<stop offset="1" stop-color="#FF7029"/>
</linearGradient>
</defs>
</svg>
