<svg width="98" height="98" viewBox="0 0 98 98" fill="none" xmlns="http://www.w3.org/2000/svg">
<path d="M73.5 49C59.9692 49 49 59.9692 49 73.5C49 87.0308 59.9692 98 73.5 98C87.0308 98 98 87.0308 98 73.5C97.9858 59.9752 87.0248 49.0142 73.5 49ZM73.5 94.5001C65.0063 94.5001 57.3486 89.3837 54.0984 81.5361C50.8483 73.6892 52.6449 64.6564 58.6511 58.6511C64.6564 52.6449 73.6892 50.8483 81.5361 54.0984C89.3837 57.3486 94.5001 65.0063 94.5001 73.5C94.4874 85.0928 85.0928 94.4874 73.5 94.5001Z" fill="#FF7029"/>
<path d="M46.4222 66.4999C49.6193 54.1542 60.7478 45.5237 73.5002 45.4998V14H31.5V66.4999H46.4222ZM60.0128 25.7371C59.3496 25.05 59.3593 23.9591 60.0345 23.284C60.7096 22.6088 61.8005 22.5991 62.4876 23.2623L69.4874 30.2628C70.1708 30.9454 70.1708 32.0535 69.4874 32.7369L62.4876 39.7367C61.8005 40.3999 60.7096 40.3909 60.0345 39.7157C59.3593 39.0406 59.3496 37.949 60.0128 37.2626L65.7759 31.4995L60.0128 25.7371ZM49.0526 38.0746L52.5524 24.0743C52.7932 23.1434 53.7398 22.5804 54.6721 22.8144C55.6052 23.0477 56.175 23.9905 55.9477 24.9251L52.4478 38.9247C52.2526 39.7038 51.5528 40.2496 50.7505 40.2496C50.607 40.2503 50.4642 40.2324 50.3251 40.1972C49.3875 39.9625 48.8178 39.0122 49.0526 38.0746ZM35.5128 30.2628L42.5133 23.2623C43.1997 22.5991 44.2913 22.6088 44.9665 23.284C45.6409 23.9591 45.6506 25.05 44.9874 25.7371L39.225 31.4995L44.9874 37.2626C45.4427 37.7015 45.6252 38.3527 45.4644 38.9643C45.3044 39.5759 44.8267 40.0537 44.2151 40.2144C43.6027 40.3744 42.9522 40.192 42.5133 39.7367L35.5128 32.7369C34.8294 32.0535 34.8294 30.9454 35.5128 30.2628Z" fill="#87AB42"/>
<path d="M73.5 1.75032C73.5 0.783569 72.7164 0 71.7497 0H1.75032C0.783569 0 0 0.783569 0 1.75032V10.4997H73.5V1.75032ZM6.99979 6.99979H5.25021C4.28346 6.99979 3.49989 6.21622 3.49989 5.25021C3.49989 4.28346 4.28346 3.49989 5.25021 3.49989H6.99979C7.96654 3.49989 8.75011 4.28346 8.75011 5.25021C8.75011 6.21622 7.96654 6.99979 6.99979 6.99979ZM15.7499 6.99979H14.0003C13.0336 6.99979 12.25 6.21622 12.25 5.25021C12.25 4.28346 13.0336 3.49989 14.0003 3.49989H15.7499C16.7166 3.49989 17.5002 4.28346 17.5002 5.25021C17.5002 6.21622 16.7166 6.99979 15.7499 6.99979ZM24.5 6.99979H22.7497C21.7837 6.99979 21.0001 6.21622 21.0001 5.25021C21.0001 4.28346 21.7837 3.49989 22.7497 3.49989H24.5C25.4668 3.49989 26.2503 4.28346 26.2503 5.25021C26.2503 6.21622 25.4668 6.99979 24.5 6.99979Z" fill="#87AB42"/>
<path d="M1.75032 66.4999H27.9999V14H0V64.7496C0 65.7163 0.783569 66.4999 1.75032 66.4999ZM14.0003 20.9998H22.7497C23.7164 20.9998 24.5 21.7834 24.5 22.7494C24.5 23.7161 23.7164 24.4997 22.7497 24.4997H14.0003C13.0336 24.4997 12.25 23.7161 12.25 22.7494C12.25 21.7834 13.0336 20.9998 14.0003 20.9998ZM14.0003 27.9996H22.7497C23.7164 27.9996 24.5 28.7831 24.5 29.7499C24.5 30.7159 23.7164 31.4995 22.7497 31.4995H14.0003C13.0336 31.4995 12.25 30.7159 12.25 29.7499C12.25 28.7831 13.0336 27.9996 14.0003 27.9996ZM14.0003 34.9994H22.7497C23.7164 34.9994 24.5 35.7829 24.5 36.7497C24.5 37.7164 23.7164 38.5 22.7497 38.5H14.0003C13.0336 38.5 12.25 37.7164 12.25 36.7497C12.25 35.7829 13.0336 34.9994 14.0003 34.9994ZM14.0003 41.9999H22.7497C23.7164 41.9999 24.5 42.7835 24.5 43.7495C24.5 44.7162 23.7164 45.4998 22.7497 45.4998H14.0003C13.0336 45.4998 12.25 44.7162 12.25 43.7495C12.25 42.7835 13.0336 41.9999 14.0003 41.9999ZM14.0003 48.9997H22.7497C23.7164 48.9997 24.5 49.7832 24.5 50.75C24.5 51.716 23.7164 52.4996 22.7497 52.4996H14.0003C13.0336 52.4996 12.25 51.716 12.25 50.75C12.25 49.7832 13.0336 48.9997 14.0003 48.9997ZM14.0003 55.9995H22.7497C23.7164 55.9995 24.5 56.783 24.5 57.7498C24.5 58.7165 23.7164 59.4994 22.7497 59.4994H14.0003C13.0336 59.4994 12.25 58.7165 12.25 57.7498C12.25 56.783 13.0336 55.9995 14.0003 55.9995ZM5.25021 20.9998H6.99979C7.96654 20.9998 8.75011 21.7834 8.75011 22.7494C8.75011 23.7161 7.96654 24.4997 6.99979 24.4997H5.25021C4.28346 24.4997 3.49989 23.7161 3.49989 22.7494C3.49989 21.7834 4.28346 20.9998 5.25021 20.9998ZM5.25021 27.9996H6.99979C7.96654 27.9996 8.75011 28.7831 8.75011 29.7499C8.75011 30.7159 7.96654 31.4995 6.99979 31.4995H5.25021C4.28346 31.4995 3.49989 30.7159 3.49989 29.7499C3.49989 28.7831 4.28346 27.9996 5.25021 27.9996ZM5.25021 34.9994H6.99979C7.96654 34.9994 8.75011 35.7829 8.75011 36.7497C8.75011 37.7164 7.96654 38.5 6.99979 38.5H5.25021C4.28346 38.5 3.49989 37.7164 3.49989 36.7497C3.49989 35.7829 4.28346 34.9994 5.25021 34.9994ZM5.25021 41.9999H6.99979C7.96654 41.9999 8.75011 42.7835 8.75011 43.7495C8.75011 44.7162 7.96654 45.4998 6.99979 45.4998H5.25021C4.28346 45.4998 3.49989 44.7162 3.49989 43.7495C3.49989 42.7835 4.28346 41.9999 5.25021 41.9999ZM5.25021 48.9997H6.99979C7.96654 48.9997 8.75011 49.7832 8.75011 50.75C8.75011 51.716 7.96654 52.4996 6.99979 52.4996H5.25021C4.28346 52.4996 3.49989 51.716 3.49989 50.75C3.49989 49.7832 4.28346 48.9997 5.25021 48.9997ZM5.25021 55.9995H6.99979C7.96654 55.9995 8.75011 56.783 8.75011 57.7498C8.75011 58.7165 7.96654 59.4994 6.99979 59.4994H5.25021C4.28346 59.4994 3.49989 58.7165 3.49989 57.7498C3.49989 56.783 4.28346 55.9995 5.25021 55.9995Z" fill="#87AB42"/>
<path d="M73.5002 56C63.8349 56 56 63.8349 56 73.5002C56 83.1655 63.8349 91.0004 73.5002 91.0004C83.1655 91.0004 91.0004 83.1655 91.0004 73.5002C90.99 63.8394 83.161 56.0105 73.5002 56ZM81.7374 69.4874L69.4874 81.7374C68.804 82.4208 67.696 82.4208 67.0133 81.7374L63.5127 78.2375C62.8495 77.5511 62.8592 76.4595 63.5344 75.7844C64.2095 75.1092 65.3011 75.0995 65.9875 75.7627L68.25 78.0259L79.2633 67.0133C79.9497 66.3494 81.0413 66.3591 81.7165 67.0343C82.3909 67.7094 82.4006 68.801 81.7374 69.4874Z" fill="#FF7029"/>
</svg>
