<svg width="188" height="89" viewBox="0 0 188 89" fill="none" xmlns="http://www.w3.org/2000/svg">
<rect y="-0.0078125" width="188" height="89" rx="4" fill="white"/>
<path d="M36 29.5547H62.25L59.8574 56.625L49.125 60.1797L38.3926 56.625L36 29.5547ZM57.0547 38.3047L57.3965 35.0234H40.9219L41.7422 45.0039H53.1582L52.748 49.2422L49.125 50.2676L45.4336 49.2422L45.2285 46.6445H41.9473L42.3574 51.8398L49.125 53.6855H49.1934L55.8926 51.8398L56.7812 41.6543H44.8184L44.4766 38.3047H57.0547Z" fill="#717580"/>
<path d="M75.346 55.9922V30.9002H79.528V41.7462H90.102V30.9002H94.318V55.9922H90.102V45.5202H79.528V55.9922H75.346ZM105.446 55.9922C104.131 55.9922 103.054 55.7995 102.216 55.4142C101.377 55.0062 100.765 54.3375 100.38 53.4082C100.017 52.4789 99.8472 51.2549 99.8698 49.7362L100.006 41.1682H97.1498V38.4482L100.142 37.7682L100.754 32.6682H104.052V37.7682H108.676V41.1682H104.052V49.7022C104.052 50.2915 104.108 50.7789 104.222 51.1642C104.335 51.5269 104.494 51.8215 104.698 52.0482C104.924 52.2522 105.162 52.3995 105.412 52.4902C105.661 52.5809 105.922 52.6375 106.194 52.6602L108.472 52.8982V55.9922H105.446ZM111.765 55.9922V37.7682H115.199L115.981 39.6722C116.82 39.0829 117.738 38.5729 118.735 38.1422C119.755 37.6889 120.956 37.4622 122.339 37.4622C123.472 37.4622 124.424 37.7115 125.195 38.2102C125.988 38.6862 126.578 39.3095 126.963 40.0802C127.484 39.6722 128.108 39.2755 128.833 38.8902C129.581 38.4822 130.374 38.1422 131.213 37.8702C132.052 37.5982 132.879 37.4622 133.695 37.4622C135.1 37.4622 136.222 37.7455 137.061 38.3122C137.922 38.8562 138.534 39.6269 138.897 40.6242C139.26 41.5989 139.441 42.7322 139.441 44.0242V55.9922H135.225V44.3642C135.225 43.7069 135.1 43.1515 134.851 42.6982C134.602 42.2449 134.25 41.8935 133.797 41.6442C133.366 41.3949 132.834 41.2702 132.199 41.2702C131.383 41.2702 130.556 41.4289 129.717 41.7462C128.901 42.0635 128.153 42.4489 127.473 42.9022C127.564 43.1289 127.62 43.3782 127.643 43.6502C127.688 43.9222 127.711 44.1942 127.711 44.4662V55.9922H123.495V44.3642C123.495 43.7069 123.37 43.1515 123.121 42.6982C122.872 42.2449 122.52 41.8935 122.067 41.6442C121.636 41.3949 121.104 41.2702 120.469 41.2702C119.88 41.2702 119.324 41.3269 118.803 41.4402C118.304 41.5535 117.828 41.7235 117.375 41.9502C116.922 42.1769 116.457 42.4489 115.981 42.7662V55.9922H111.765ZM149.013 56.0602C147.812 56.0602 146.803 55.8562 145.987 55.4482C145.194 55.0402 144.593 54.4055 144.185 53.5442C143.8 52.6829 143.607 51.5382 143.607 50.1102V30.0502H147.823V49.5322C147.823 50.3482 147.902 50.9829 148.061 51.4362C148.242 51.8895 148.492 52.2182 148.809 52.4222C149.126 52.6035 149.512 52.7282 149.965 52.7962L151.495 53.0002V56.0602H149.013Z" fill="#717580"/>
</svg>
