<svg width="308" height="89" viewBox="0 0 308 89" fill="none" xmlns="http://www.w3.org/2000/svg">
<rect y="-0.0078125" width="308" height="89" rx="4" fill="white"/>
<path d="M58.832 41.1074C58.7865 42.748 57.6243 43.5911 55.3457 43.6367H52.4062V38.7832H55.8926C57.8066 38.8288 58.7865 39.6035 58.832 41.1074ZM71.3418 40.2871C71.9342 42.4746 73.1191 43.6823 74.8965 43.9102V45.8242C73.1191 46.0521 71.9342 47.2598 71.3418 49.4473C71.0228 50.541 70.8177 51.6803 70.7266 52.8652C70.6354 54.0501 70.6126 55.1439 70.6582 56.1465C70.6582 57.2402 70.3164 58.1745 69.6328 58.9492C68.9492 59.724 68.0378 60.1341 66.8984 60.1797H44.4766C43.3372 60.1341 42.4258 59.724 41.7422 58.9492C41.0586 58.1745 40.7168 57.2402 40.7168 56.1465C40.7624 55.1439 40.7396 54.0501 40.6484 52.8652C40.5573 51.6803 40.3522 50.541 40.0332 49.4473C39.4408 47.2598 38.2559 46.0521 36.4785 45.8242V43.9102C38.2559 43.6823 39.4408 42.4746 40.0332 40.2871C40.3522 39.1934 40.5573 38.054 40.6484 36.8691C40.7396 35.6842 40.7624 34.5905 40.7168 33.5879C40.7168 32.4941 41.0586 31.5599 41.7422 30.7852C42.4258 30.0104 43.3372 29.6003 44.4766 29.5547H66.9668C68.0605 29.6003 68.9492 30.0104 69.6328 30.7852C70.362 31.5599 70.7038 32.4941 70.6582 33.5879C70.6126 34.5905 70.6354 35.6842 70.7266 36.8691C70.8177 38.054 71.0228 39.1934 71.3418 40.2871ZM56.5078 53.002C58.2852 53.002 59.6751 52.5918 60.6777 51.7715C61.6803 50.9512 62.1816 49.8346 62.1816 48.4219C62.1816 47.2826 61.8398 46.3711 61.1562 45.6875C60.4727 44.9583 59.5612 44.5254 58.4219 44.3887V44.3203C59.2878 44.1836 59.9941 43.7734 60.541 43.0898C61.0879 42.4518 61.3613 41.6771 61.3613 40.7656C61.3613 39.5352 60.9284 38.5553 60.0625 37.8262C59.1966 37.097 58.0117 36.7324 56.5078 36.7324H49.8086V53.002H56.5078ZM55.8242 45.5508C58.2852 45.5964 59.5384 46.485 59.584 48.2168C59.5384 49.9941 58.3307 50.9056 55.9609 50.9512H52.4062V45.5508H55.8242Z" fill="#717580"/>
<path d="M88.346 55.9922V30.9002H97.934C100.291 30.9002 102.037 31.4555 103.17 32.5662C104.303 33.6769 104.87 35.2975 104.87 37.4282C104.87 38.4255 104.711 39.3095 104.394 40.0802C104.099 40.8282 103.691 41.4515 103.17 41.9502C102.649 42.4262 102.037 42.7549 101.334 42.9362C101.855 43.0722 102.365 43.2875 102.864 43.5822C103.385 43.8542 103.861 44.2395 104.292 44.7382C104.723 45.2369 105.063 45.8489 105.312 46.5742C105.561 47.2769 105.686 48.1042 105.686 49.0562C105.686 50.7789 105.391 52.1502 104.802 53.1702C104.235 54.1675 103.397 54.8929 102.286 55.3462C101.198 55.7769 99.8833 55.9922 98.342 55.9922H88.346ZM92.528 52.2182H98.206C98.9087 52.2182 99.5207 52.0935 100.042 51.8442C100.563 51.5949 100.96 51.1982 101.232 50.6542C101.527 50.0875 101.674 49.3169 101.674 48.3422C101.674 47.5715 101.527 46.9255 101.232 46.4042C100.937 45.8829 100.529 45.4862 100.008 45.2142C99.4867 44.9195 98.886 44.7722 98.206 44.7722H92.528V52.2182ZM92.528 41.5082H98.002C98.8407 41.5082 99.5207 41.2022 100.042 40.5902C100.563 39.9555 100.835 39.1282 100.858 38.1082C100.881 36.8162 100.597 35.9209 100.008 35.4222C99.4413 34.9235 98.7387 34.6742 97.9 34.6742H92.528V41.5082ZM116.809 56.1622C115.381 56.1622 114.145 56.0149 113.103 55.7202C112.06 55.4255 111.21 54.9269 110.553 54.2242C109.895 53.5215 109.408 52.5695 109.091 51.3682C108.773 50.1669 108.615 48.6595 108.615 46.8462C108.615 44.9649 108.773 43.4235 109.091 42.2222C109.408 40.9982 109.895 40.0462 110.553 39.3662C111.233 38.6635 112.094 38.1875 113.137 37.9382C114.179 37.6662 115.403 37.5302 116.809 37.5302C118.259 37.5302 119.506 37.6775 120.549 37.9722C121.591 38.2442 122.441 38.7202 123.099 39.4002C123.756 40.0802 124.243 41.0322 124.561 42.2562C124.878 43.4575 125.037 44.9875 125.037 46.8462C125.037 48.6822 124.878 50.2122 124.561 51.4362C124.266 52.6375 123.79 53.5895 123.133 54.2922C122.475 54.9722 121.625 55.4595 120.583 55.7542C119.54 56.0262 118.282 56.1622 116.809 56.1622ZM116.809 52.7962C117.511 52.7962 118.112 52.7395 118.611 52.6262C119.109 52.4902 119.517 52.2295 119.835 51.8442C120.175 51.4362 120.424 50.8355 120.583 50.0422C120.741 49.2262 120.821 48.1495 120.821 46.8122C120.821 45.4975 120.741 44.4435 120.583 43.6502C120.424 42.8569 120.175 42.2675 119.835 41.8822C119.517 41.4742 119.109 41.2135 118.611 41.1002C118.112 40.9642 117.511 40.8962 116.809 40.8962C116.129 40.8962 115.539 40.9642 115.041 41.1002C114.542 41.2135 114.134 41.4742 113.817 41.8822C113.499 42.2675 113.25 42.8569 113.069 43.6502C112.91 44.4435 112.831 45.4975 112.831 46.8122C112.831 48.1495 112.91 49.2262 113.069 50.0422C113.25 50.8355 113.499 51.4362 113.817 51.8442C114.134 52.2295 114.542 52.4902 115.041 52.6262C115.539 52.7395 116.129 52.7962 116.809 52.7962ZM136.399 56.1622C134.971 56.1622 133.735 56.0149 132.693 55.7202C131.65 55.4255 130.8 54.9269 130.143 54.2242C129.485 53.5215 128.998 52.5695 128.681 51.3682C128.363 50.1669 128.205 48.6595 128.205 46.8462C128.205 44.9649 128.363 43.4235 128.681 42.2222C128.998 40.9982 129.485 40.0462 130.143 39.3662C130.823 38.6635 131.684 38.1875 132.727 37.9382C133.769 37.6662 134.993 37.5302 136.399 37.5302C137.849 37.5302 139.096 37.6775 140.139 37.9722C141.181 38.2442 142.031 38.7202 142.689 39.4002C143.346 40.0802 143.833 41.0322 144.151 42.2562C144.468 43.4575 144.627 44.9875 144.627 46.8462C144.627 48.6822 144.468 50.2122 144.151 51.4362C143.856 52.6375 143.38 53.5895 142.723 54.2922C142.065 54.9722 141.215 55.4595 140.173 55.7542C139.13 56.0262 137.872 56.1622 136.399 56.1622ZM136.399 52.7962C137.101 52.7962 137.702 52.7395 138.201 52.6262C138.699 52.4902 139.107 52.2295 139.425 51.8442C139.765 51.4362 140.014 50.8355 140.173 50.0422C140.331 49.2262 140.411 48.1495 140.411 46.8122C140.411 45.4975 140.331 44.4435 140.173 43.6502C140.014 42.8569 139.765 42.2675 139.425 41.8822C139.107 41.4742 138.699 41.2135 138.201 41.1002C137.702 40.9642 137.101 40.8962 136.399 40.8962C135.719 40.8962 135.129 40.9642 134.631 41.1002C134.132 41.2135 133.724 41.4742 133.407 41.8822C133.089 42.2675 132.84 42.8569 132.659 43.6502C132.5 44.4435 132.421 45.4975 132.421 46.8122C132.421 48.1495 132.5 49.2262 132.659 50.0422C132.84 50.8355 133.089 51.4362 133.407 51.8442C133.724 52.2295 134.132 52.4902 134.631 52.6262C135.129 52.7395 135.719 52.7962 136.399 52.7962ZM155.002 55.9922C153.688 55.9922 152.611 55.7995 151.772 55.4142C150.934 55.0062 150.322 54.3375 149.936 53.4082C149.574 52.4789 149.404 51.2549 149.426 49.7362L149.562 41.1682H146.706V38.4482L149.698 37.7682L150.31 32.6682H153.608V37.7682H158.232V41.1682H153.608V49.7022C153.608 50.2915 153.665 50.7789 153.778 51.1642C153.892 51.5269 154.05 51.8215 154.254 52.0482C154.481 52.2522 154.719 52.3995 154.968 52.4902C155.218 52.5809 155.478 52.6375 155.75 52.6602L158.028 52.8982V55.9922H155.002ZM167.85 56.1962C167.328 56.1962 166.728 56.1735 166.048 56.1282C165.39 56.1055 164.722 56.0602 164.042 55.9922C163.384 55.9469 162.772 55.8789 162.206 55.7882C161.639 55.6975 161.174 55.5955 160.812 55.4822V53.0002H168.666C169.232 53.0002 169.708 52.9549 170.094 52.8642C170.502 52.7735 170.808 52.5922 171.012 52.3202C171.216 52.0482 171.318 51.6402 171.318 51.0962V50.4502C171.318 49.8835 171.125 49.4415 170.74 49.1242C170.377 48.7842 169.731 48.6142 168.802 48.6142H166.048C164.982 48.6142 164.03 48.4669 163.192 48.1722C162.376 47.8775 161.73 47.3789 161.254 46.6762C160.778 45.9735 160.54 45.0215 160.54 43.8202V42.8002C160.54 41.6442 160.755 40.6922 161.186 39.9442C161.639 39.1735 162.376 38.5955 163.396 38.2102C164.438 37.8022 165.821 37.5982 167.544 37.5982C168.269 37.5982 169.051 37.6322 169.89 37.7002C170.728 37.7682 171.533 37.8589 172.304 37.9722C173.074 38.0629 173.686 38.1762 174.14 38.3122V40.7942H166.728C165.889 40.7942 165.243 40.9415 164.79 41.2362C164.359 41.5082 164.144 42.0295 164.144 42.8002V43.4462C164.144 43.9449 164.246 44.3189 164.45 44.5682C164.654 44.8175 164.96 44.9875 165.368 45.0782C165.776 45.1689 166.263 45.2142 166.83 45.2142H169.652C171.442 45.2142 172.768 45.6222 173.63 46.4382C174.491 47.2542 174.922 48.4102 174.922 49.9062V51.4022C174.922 52.6262 174.638 53.5895 174.072 54.2922C173.505 54.9949 172.689 55.4935 171.624 55.7882C170.581 56.0602 169.323 56.1962 167.85 56.1962ZM185.051 55.9922C183.737 55.9922 182.66 55.7995 181.821 55.4142C180.983 55.0062 180.371 54.3375 179.985 53.4082C179.623 52.4789 179.453 51.2549 179.475 49.7362L179.611 41.1682H176.755V38.4482L179.747 37.7682L180.359 32.6682H183.657V37.7682H188.281V41.1682H183.657V49.7022C183.657 50.2915 183.714 50.7789 183.827 51.1642C183.941 51.5269 184.099 51.8215 184.303 52.0482C184.53 52.2522 184.768 52.3995 185.017 52.4902C185.267 52.5809 185.527 52.6375 185.799 52.6602L188.077 52.8982V55.9922H185.051ZM191.371 55.9922V37.7682H194.635L195.587 40.6922C196.312 39.8082 197.117 39.0602 198.001 38.4482C198.885 37.8362 199.939 37.5302 201.163 37.5302C201.412 37.5302 201.673 37.5529 201.945 37.5982C202.217 37.6209 202.466 37.6662 202.693 37.7342V42.0182C202.375 41.9729 202.035 41.9389 201.673 41.9162C201.31 41.8935 200.959 41.8822 200.619 41.8822C199.916 41.8822 199.27 41.9615 198.681 42.1202C198.114 42.2789 197.581 42.5282 197.083 42.8682C196.584 43.1855 196.085 43.5935 195.587 44.0922V55.9922H191.371ZM208.725 56.1962C207.365 56.1962 206.254 55.7882 205.393 54.9722C204.531 54.1562 204.101 53.0342 204.101 51.6062V50.0762C204.101 48.6709 204.577 47.5262 205.529 46.6422C206.503 45.7582 207.988 45.3162 209.983 45.3162H215.185V43.7182C215.185 43.0835 215.071 42.5509 214.845 42.1202C214.618 41.6895 214.21 41.3722 213.621 41.1682C213.031 40.9415 212.136 40.8282 210.935 40.8282H205.427V38.3802C206.265 38.1535 207.251 37.9609 208.385 37.8022C209.518 37.6209 210.867 37.5302 212.431 37.5302C213.927 37.5075 215.196 37.6889 216.239 38.0742C217.281 38.4369 218.063 39.0489 218.585 39.9102C219.129 40.7715 219.401 41.9502 219.401 43.4462V55.9922H216.103L215.389 54.0202C215.23 54.1562 214.947 54.3375 214.539 54.5642C214.131 54.7909 213.621 55.0402 213.009 55.3122C212.397 55.5615 211.717 55.7769 210.969 55.9582C210.243 56.1169 209.495 56.1962 208.725 56.1962ZM210.765 53.2382C211.059 53.2382 211.388 53.2042 211.751 53.1362C212.136 53.0455 212.521 52.9549 212.907 52.8642C213.292 52.7509 213.643 52.6489 213.961 52.5582C214.301 52.4449 214.573 52.3429 214.777 52.2522C215.003 52.1615 215.139 52.1049 215.185 52.0822V47.3222L211.241 47.5262C210.198 47.6169 209.439 47.8889 208.963 48.3422C208.509 48.7955 208.283 49.3962 208.283 50.1442V50.8922C208.283 51.4589 208.396 51.9235 208.623 52.2862C208.872 52.6262 209.178 52.8642 209.541 53.0002C209.926 53.1362 210.334 53.2155 210.765 53.2382ZM223.578 64.0502V37.7682H227.08L227.794 39.5702C228.224 39.2302 228.723 38.9015 229.29 38.5842C229.856 38.2669 230.468 38.0175 231.126 37.8362C231.783 37.6322 232.463 37.5302 233.166 37.5302C234.322 37.5302 235.308 37.7569 236.124 38.2102C236.962 38.6635 237.642 39.3095 238.164 40.1482C238.685 40.9642 239.059 41.9502 239.286 43.1062C239.535 44.2395 239.66 45.4975 239.66 46.8802C239.66 48.8749 239.444 50.5749 239.014 51.9802C238.606 53.3629 237.926 54.4169 236.974 55.1422C236.044 55.8675 234.775 56.2302 233.166 56.2302C232.259 56.2302 231.33 56.1055 230.378 55.8562C229.448 55.6069 228.587 55.2782 227.794 54.8702V64.0502H223.578ZM231.84 52.7622C232.497 52.7622 233.098 52.5922 233.642 52.2522C234.186 51.8895 234.616 51.2889 234.934 50.4502C235.274 49.6115 235.444 48.4215 235.444 46.8802C235.444 45.4069 235.285 44.2282 234.968 43.3442C234.65 42.4602 234.22 41.8369 233.676 41.4742C233.154 41.1115 232.554 40.9302 231.874 40.9302C231.035 40.9302 230.276 41.0662 229.596 41.3382C228.916 41.5875 228.315 41.8482 227.794 42.1202V51.6402C228.383 51.9802 229.029 52.2522 229.732 52.4562C230.434 52.6602 231.137 52.7622 231.84 52.7622ZM261.104 56.1622C259.676 56.1622 258.203 56.1169 256.684 56.0262C255.166 55.9355 253.76 55.8222 252.468 55.6862V52.3882H261.274C262.158 52.3882 262.884 52.2409 263.45 51.9462C264.017 51.6515 264.436 51.2549 264.708 50.7562C264.98 50.2349 265.116 49.6795 265.116 49.0902V46.9822C265.116 46.0529 264.867 45.3275 264.368 44.8062C263.87 44.2622 263.065 43.9902 261.954 43.9902H259.744C258.906 43.9902 258.248 44.1715 257.772 44.5342C257.319 44.8969 257.024 45.4522 256.888 46.2002H252.91L253.624 30.9002H268.414V34.6742H257.262L256.922 41.7802C257.24 41.3722 257.716 41.0435 258.35 40.7942C258.985 40.5449 259.733 40.4202 260.594 40.4202H263.416C264.731 40.4202 265.819 40.6809 266.68 41.2022C267.564 41.7009 268.222 42.3922 268.652 43.2762C269.106 44.1375 269.332 45.1235 269.332 46.2342V49.9402C269.332 51.3682 269.004 52.5469 268.346 53.4762C267.712 54.3829 266.782 55.0629 265.558 55.5162C264.334 55.9469 262.85 56.1622 261.104 56.1622Z" fill="#717580"/>
</svg>
