<svg width="199" height="89" viewBox="0 0 199 89" fill="none" xmlns="http://www.w3.org/2000/svg">
<rect y="-0.0078125" width="199" height="89" rx="4" fill="white"/>
<path d="M56.6445 53.2754C56.599 53.321 56.599 53.321 56.6445 53.2754V53.2754ZM73.666 47.3281C75.6712 47.3737 77.1979 47.8978 78.2461 48.9004C79.2943 49.8574 79.7956 50.9512 79.75 52.1816C79.6589 53.0931 79.3398 53.7539 78.793 54.1641C78.2461 54.5742 77.8815 54.8021 77.6992 54.8477C77.4714 54.8932 77.3346 54.8477 77.2891 54.7109C77.2435 54.6198 77.3574 54.5059 77.6309 54.3691C77.7676 54.278 77.9727 54.0957 78.2461 53.8223C78.5195 53.5488 78.7246 53.1615 78.8613 52.6602C78.9525 52.0677 78.7018 51.3613 78.1094 50.541C77.5169 49.6751 76.2865 49.1055 74.418 48.832C72.6406 48.6497 71.2279 48.8092 70.1797 49.3105C70.4076 49.8574 70.5215 50.4043 70.5215 50.9512C70.4303 52.1361 69.9062 53.0247 68.9492 53.6172C68.4935 53.9362 67.9922 54.1868 67.4453 54.3691C67.0352 54.5514 66.6478 54.6426 66.2832 54.6426C65.4629 54.5059 65.2578 53.7539 65.668 52.3867C65.9414 51.4753 66.7161 50.4727 67.9922 49.3789C67.9466 49.2878 67.901 49.1966 67.8555 49.1055C67.582 48.5586 67.3542 48.0573 67.1719 47.6016C66.9896 47.0091 66.8529 46.4167 66.7617 45.8242C66.7617 45.8698 66.5339 46.3255 66.0781 47.1914C65.6224 48.0117 65.0527 48.946 64.3691 49.9941C64.3236 50.0853 64.2552 50.1536 64.1641 50.1992C64.1641 50.2448 64.1641 50.2904 64.1641 50.3359C64.4375 50.9284 64.597 51.5664 64.6426 52.25C64.6426 53.4349 64.2096 54.3464 63.3438 54.9844C62.888 55.2578 62.4095 55.4857 61.9082 55.668C61.6348 55.8503 61.1107 55.987 60.3359 56.0781C59.8802 56.1237 59.5156 56.0553 59.2422 55.873C58.9232 55.6452 58.8548 55.3262 59.0371 54.916C59.265 54.5514 59.8118 53.8906 60.6777 52.9336C60.8145 52.7513 60.9512 52.569 61.0879 52.3867C61.3613 52.0677 61.5892 51.7715 61.7715 51.498C61.7715 51.498 61.9082 51.3158 62.1816 50.9512C62.0905 50.7689 61.9993 50.5638 61.9082 50.3359C61.6348 49.8346 61.4297 49.3561 61.293 48.9004C61.1107 48.3079 60.974 47.7155 60.8828 47.123C60.8372 47.2142 60.6094 47.7611 60.1992 48.7637C59.7891 49.7663 59.2878 50.86 58.6953 52.0449C57.8294 53.6855 57.2598 54.7337 56.9863 55.1895C56.9863 55.1895 56.9635 55.235 56.918 55.3262C56.8724 55.4173 56.8496 55.4629 56.8496 55.4629V55.3945C56.7129 55.668 56.5078 55.9414 56.2344 56.2148C55.9154 56.4883 55.5964 56.6478 55.2773 56.6934C54.7305 56.6478 54.3887 56.3288 54.252 55.7363C54.0697 55.1895 54.0013 54.6198 54.0469 54.0273C54.0924 53.4349 54.138 53.1387 54.1836 53.1387C54.1836 53.1387 54.0697 53.3893 53.8418 53.8906C53.6139 54.3919 53.3633 54.9388 53.0898 55.5312C52.7253 56.5794 52.11 57.1491 51.2441 57.2402C50.9251 57.3314 50.5833 57.2174 50.2188 56.8984C49.763 56.4883 49.4212 55.8958 49.1934 55.1211C48.9199 54.3008 48.806 53.5033 48.8516 52.7285C48.9883 51.4525 49.1934 50.4727 49.4668 49.7891C48.9655 50.0625 48.4186 50.3587 47.8262 50.6777C47.6895 50.7689 47.5527 50.86 47.416 50.9512C47.2793 51.0423 47.1426 51.1335 47.0059 51.2246C47.0059 51.2702 47.0059 51.293 47.0059 51.293C47.3704 52.0221 47.5527 53.0247 47.5527 54.3008C47.5072 55.5768 47.097 56.8301 46.3223 58.0605C45.502 59.291 44.4538 60.1797 43.1777 60.7266C41.8561 61.319 40.4661 61.4329 39.0078 61.0684C38.4609 60.9316 38.0052 60.4303 37.6406 59.5645C37.276 58.6986 37.3672 57.582 37.9141 56.2148C38.5521 55.0299 39.6003 53.959 41.0586 53.002C42.5169 52.0449 43.5879 51.4297 44.2715 51.1562C44.3171 51.1107 44.3854 51.0651 44.4766 51.0195C44.5221 51.0195 44.5677 50.9967 44.6133 50.9512C44.0208 50.4499 43.2689 49.903 42.3574 49.3105C41.0358 48.4447 39.737 47.4421 38.4609 46.3027C37.2305 45.1634 36.4329 43.8646 36.0684 42.4062C35.8861 41.8138 36.0456 40.8796 36.5469 39.6035C37.0026 38.373 38.0508 36.9831 39.6914 35.4336C41.1042 34.112 42.722 32.9499 44.5449 31.9473C46.3223 30.9447 48.1452 30.1243 50.0137 29.4863C53.1582 28.4382 56.0293 28.1875 58.627 28.7344C61.179 29.2812 62.7741 30.5345 63.4121 32.4941C63.8223 34.4538 63.3665 36.3678 62.0449 38.2363C60.7689 40.1504 59.0371 41.5404 56.8496 42.4062C54.9355 43.1354 53.2721 43.5 51.8594 43.5C50.4466 43.5456 49.3984 43.4544 48.7148 43.2266C47.9857 42.9531 47.416 42.6341 47.0059 42.2695C46.5501 41.9049 46.2767 41.5632 46.1855 41.2441C46.0488 40.9707 46.0488 40.7428 46.1855 40.5605C46.2767 40.4238 46.459 40.5378 46.7324 40.9023C46.9147 41.1302 47.3704 41.4036 48.0996 41.7227C48.8288 42.0417 49.8542 42.1556 51.1758 42.0645C53.5 41.7454 55.4596 41.0391 57.0547 39.9453C58.6953 38.8971 59.8574 37.7122 60.541 36.3906C61.2702 35.1146 61.4069 33.9753 60.9512 32.9727C60.4499 31.8789 59.0143 31.2637 56.6445 31.127C54.2747 30.9902 51.3809 31.7194 47.9629 33.3145C45.3197 34.6816 43.36 35.9349 42.084 37.0742C40.8535 38.2591 40.0788 39.2617 39.7598 40.082C39.4408 40.9479 39.2812 41.6087 39.2812 42.0645C39.2812 43.2493 39.6914 44.2747 40.5117 45.1406C41.332 46.0521 42.2891 46.918 43.3828 47.7383C44.3854 48.4674 45.2741 49.2194 46.0488 49.9941C46.0944 49.9941 46.1172 50.0169 46.1172 50.0625C46.1172 50.0625 46.14 50.0853 46.1855 50.1309C46.459 49.9486 46.7552 49.7663 47.0742 49.584C47.2565 49.4928 47.416 49.4017 47.5527 49.3105C48.8288 48.627 49.7858 48.1029 50.4238 47.7383C50.4694 47.7383 50.4922 47.7383 50.4922 47.7383C50.9935 47.0547 51.6087 46.4622 52.3379 45.9609C53.0671 45.4141 53.7507 45.1178 54.3887 45.0723C55.3457 45.209 55.8242 45.6875 55.8242 46.5078C55.8242 47.3737 55.7786 47.875 55.6875 48.0117C55.7331 47.9661 55.7786 47.9206 55.8242 47.875C55.8242 47.8294 55.847 47.8066 55.8926 47.8066C55.9837 47.6243 56.2572 47.5788 56.7129 47.6699C57.1686 47.9434 57.3281 48.194 57.1914 48.4219C57.1914 48.4674 57.123 48.7181 56.9863 49.1738C56.8952 49.6751 56.7585 50.2448 56.5762 50.8828C56.3939 51.5664 56.2572 52.1816 56.166 52.7285C56.0293 53.5944 56.0065 54.0501 56.0977 54.0957C56.1888 54.0501 56.3027 53.9134 56.4395 53.6855C56.4395 53.6855 56.5078 53.526 56.6445 53.207C56.6445 53.2526 56.6445 53.2754 56.6445 53.2754C56.6445 53.2754 56.6445 53.2526 56.6445 53.207C56.6445 53.207 56.6673 53.1842 56.7129 53.1387C56.8952 52.8197 57.123 52.3411 57.3965 51.7031C57.6243 51.2474 57.9434 50.541 58.3535 49.584C58.7637 48.627 59.1738 47.6927 59.584 46.7812C59.9486 45.9154 60.1764 45.3685 60.2676 45.1406C60.3587 44.8672 60.4499 44.5938 60.541 44.3203C60.5866 44.138 60.6322 43.9785 60.6777 43.8418C60.8145 43.6139 61.3841 43.4772 62.3867 43.4316C62.7969 43.4772 63.0703 43.5456 63.207 43.6367C63.2982 43.7734 63.3438 43.8646 63.3438 43.9102C63.3438 43.9557 63.321 44.0697 63.2754 44.252C63.0931 44.6621 62.9336 45.1634 62.7969 45.7559C62.7513 46.3027 62.7741 46.7812 62.8652 47.1914C62.8652 47.2826 62.888 47.3737 62.9336 47.4648C62.9792 47.9206 63.1615 48.4219 63.4805 48.9688C63.9818 48.194 64.5286 47.2598 65.1211 46.166C65.7135 45.0723 66.0781 44.2975 66.2148 43.8418C66.2604 43.3861 66.3743 42.9531 66.5566 42.543C66.7389 42.2695 67.3086 42.1328 68.2656 42.1328C68.7214 42.1784 68.9948 42.2467 69.0859 42.3379C69.2227 42.4746 69.2682 42.5658 69.2227 42.6113C69.2227 42.6113 69.1999 42.7025 69.1543 42.8848C68.972 43.3405 68.8353 43.8646 68.7441 44.457C68.6986 45.0039 68.6986 45.4824 68.7441 45.8926C68.7897 45.9837 68.8125 46.0749 68.8125 46.166C68.9036 46.6217 69.1087 47.1458 69.4277 47.7383C69.5189 47.9206 69.61 48.0801 69.7012 48.2168C70.9316 47.6243 72.2533 47.3281 73.666 47.3281ZM44.3398 57.2402C45.707 55.7363 46.14 53.9362 45.6387 51.8398C45.5931 51.8854 45.5703 51.9082 45.5703 51.9082C45.5247 51.9082 45.4792 51.931 45.4336 51.9766C45.4336 51.9766 45.4108 51.9993 45.3652 52.0449C45.2285 52.0905 45.0918 52.1589 44.9551 52.25C44.8184 52.3411 44.6816 52.4323 44.5449 52.5234C43.6335 53.0703 42.6536 53.7995 41.6055 54.7109C40.8307 55.4857 40.3522 56.2604 40.1699 57.0352C40.0332 57.8555 40.1699 58.4023 40.5801 58.6758C40.9902 58.9036 41.5371 58.8809 42.2207 58.6074C42.9499 58.3796 43.6562 57.9238 44.3398 57.2402ZM53.5 50.9512C53.6823 50.541 53.9329 49.8346 54.252 48.832C54.571 47.875 54.6849 47.237 54.5938 46.918C54.3203 46.599 53.7962 46.8268 53.0215 47.6016C52.7936 47.875 52.5202 48.2624 52.2012 48.7637C51.9277 49.3105 51.6999 49.8574 51.5176 50.4043C51.1986 51.4525 51.0618 52.3867 51.1074 53.207C51.153 54.0729 51.3125 54.5514 51.5859 54.6426C51.8138 54.6426 52.0872 54.3008 52.4062 53.6172C52.7253 52.9792 52.9987 52.3184 53.2266 51.6348C53.3177 51.3613 53.4089 51.1335 53.5 50.9512ZM61.0879 54.5742C61.4069 54.4375 61.7715 54.1641 62.1816 53.7539C62.5462 53.3438 62.7513 52.8197 62.7969 52.1816C62.7969 52.1361 62.7969 52.1133 62.7969 52.1133C62.5234 52.4779 62.2728 52.7969 62.0449 53.0703C61.8171 53.3438 61.5436 53.64 61.2246 53.959C60.9512 54.3236 60.7917 54.5059 60.7461 54.5059C60.7005 54.5514 60.6777 54.6198 60.6777 54.7109C60.7689 54.7565 60.9056 54.7109 61.0879 54.5742ZM66.9668 53.2754C67.3314 53.1387 67.696 52.9108 68.0605 52.5918C68.4707 52.2272 68.6986 51.6576 68.7441 50.8828C68.7441 50.6549 68.6986 50.4271 68.6074 50.1992C67.8783 50.8372 67.4453 51.3841 67.3086 51.8398C66.8984 52.7513 66.7845 53.2298 66.9668 53.2754Z" fill="#717580"/>
<path d="M99.758 56.1962C99.146 56.1962 98.4887 56.1735 97.786 56.1282C97.106 56.1055 96.4033 56.0602 95.678 55.9922C94.9753 55.9015 94.3067 55.8222 93.672 55.7542C93.0373 55.6635 92.4707 55.5615 91.972 55.4482V52.1502C92.6067 52.1955 93.3433 52.2409 94.182 52.2862C95.0433 52.3315 95.9387 52.3655 96.868 52.3882C97.7973 52.4109 98.6927 52.4222 99.554 52.4222C100.461 52.4222 101.265 52.3429 101.968 52.1842C102.671 52.0029 103.215 51.6969 103.6 51.2662C103.985 50.8355 104.178 50.2235 104.178 49.4302V48.2402C104.178 47.3562 103.929 46.6762 103.43 46.2002C102.931 45.7242 102.195 45.4862 101.22 45.4862H98.874C96.5847 45.4862 94.8167 44.9875 93.57 43.9902C92.346 42.9929 91.734 41.2815 91.734 38.8562V37.5642C91.734 35.1389 92.4027 33.3935 93.74 32.3282C95.1 31.2402 97.038 30.6962 99.554 30.6962C100.415 30.6962 101.299 30.7415 102.206 30.8322C103.135 30.9002 104.019 30.9909 104.858 31.1042C105.697 31.2175 106.411 31.3422 107 31.4782V34.7762C106.003 34.7082 104.858 34.6402 103.566 34.5722C102.297 34.5042 101.118 34.4702 100.03 34.4702C99.1687 34.4702 98.4093 34.5609 97.752 34.7422C97.0947 34.9235 96.596 35.2522 96.256 35.7282C95.916 36.1815 95.746 36.8615 95.746 37.7682V38.5842C95.746 39.6495 96.0293 40.3975 96.596 40.8282C97.1853 41.2589 98.024 41.4742 99.112 41.4742H101.73C103.203 41.4742 104.416 41.7462 105.368 42.2902C106.32 42.8342 107.023 43.5822 107.476 44.5342C107.952 45.4635 108.19 46.5289 108.19 47.7302V49.3282C108.19 51.1869 107.827 52.6149 107.102 53.6122C106.377 54.6095 105.379 55.2895 104.11 55.6522C102.841 56.0149 101.39 56.1962 99.758 56.1962ZM115.805 56.1962C114.445 56.1962 113.334 55.7882 112.473 54.9722C111.611 54.1562 111.181 53.0342 111.181 51.6062V50.0762C111.181 48.6709 111.657 47.5262 112.609 46.6422C113.583 45.7582 115.068 45.3162 117.063 45.3162H122.265V43.7182C122.265 43.0835 122.151 42.5509 121.925 42.1202C121.698 41.6895 121.29 41.3722 120.701 41.1682C120.111 40.9415 119.216 40.8282 118.015 40.8282H112.507V38.3802C113.345 38.1535 114.331 37.9609 115.465 37.8022C116.598 37.6209 117.947 37.5302 119.511 37.5302C121.007 37.5075 122.276 37.6889 123.319 38.0742C124.361 38.4369 125.143 39.0489 125.665 39.9102C126.209 40.7715 126.481 41.9502 126.481 43.4462V55.9922H123.183L122.469 54.0202C122.31 54.1562 122.027 54.3375 121.619 54.5642C121.211 54.7909 120.701 55.0402 120.089 55.3122C119.477 55.5615 118.797 55.7769 118.049 55.9582C117.323 56.1169 116.575 56.1962 115.805 56.1962ZM117.845 53.2382C118.139 53.2382 118.468 53.2042 118.831 53.1362C119.216 53.0455 119.601 52.9549 119.987 52.8642C120.372 52.7509 120.723 52.6489 121.041 52.5582C121.381 52.4449 121.653 52.3429 121.857 52.2522C122.083 52.1615 122.219 52.1049 122.265 52.0822V47.3222L118.321 47.5262C117.278 47.6169 116.519 47.8889 116.043 48.3422C115.589 48.7955 115.363 49.3962 115.363 50.1442V50.8922C115.363 51.4589 115.476 51.9235 115.703 52.2862C115.952 52.6262 116.258 52.8642 116.621 53.0002C117.006 53.1362 117.414 53.2155 117.845 53.2382ZM137.186 56.1962C136.664 56.1962 136.064 56.1735 135.384 56.1282C134.726 56.1055 134.058 56.0602 133.378 55.9922C132.72 55.9469 132.108 55.8789 131.542 55.7882C130.975 55.6975 130.51 55.5955 130.148 55.4822V53.0002H138.002C138.568 53.0002 139.044 52.9549 139.43 52.8642C139.838 52.7735 140.144 52.5922 140.348 52.3202C140.552 52.0482 140.654 51.6402 140.654 51.0962V50.4502C140.654 49.8835 140.461 49.4415 140.076 49.1242C139.713 48.7842 139.067 48.6142 138.138 48.6142H135.384C134.318 48.6142 133.366 48.4669 132.528 48.1722C131.712 47.8775 131.066 47.3789 130.59 46.6762C130.114 45.9735 129.876 45.0215 129.876 43.8202V42.8002C129.876 41.6442 130.091 40.6922 130.522 39.9442C130.975 39.1735 131.712 38.5955 132.732 38.2102C133.774 37.8022 135.157 37.5982 136.88 37.5982C137.605 37.5982 138.387 37.6322 139.226 37.7002C140.064 37.7682 140.869 37.8589 141.64 37.9722C142.41 38.0629 143.022 38.1762 143.476 38.3122V40.7942H136.064C135.225 40.7942 134.579 40.9415 134.126 41.2362C133.695 41.5082 133.48 42.0295 133.48 42.8002V43.4462C133.48 43.9449 133.582 44.3189 133.786 44.5682C133.99 44.8175 134.296 44.9875 134.704 45.0782C135.112 45.1689 135.599 45.2142 136.166 45.2142H138.988C140.778 45.2142 142.104 45.6222 142.966 46.4382C143.827 47.2542 144.258 48.4102 144.258 49.9062V51.4022C144.258 52.6262 143.974 53.5895 143.408 54.2922C142.841 54.9949 142.025 55.4935 140.96 55.7882C139.917 56.0602 138.659 56.1962 137.186 56.1962ZM154.285 56.1962C153.764 56.1962 153.163 56.1735 152.483 56.1282C151.826 56.1055 151.157 56.0602 150.477 55.9922C149.82 55.9469 149.208 55.8789 148.641 55.7882C148.075 55.6975 147.61 55.5955 147.247 55.4822V53.0002H155.101C155.668 53.0002 156.144 52.9549 156.529 52.8642C156.937 52.7735 157.243 52.5922 157.447 52.3202C157.651 52.0482 157.753 51.6402 157.753 51.0962V50.4502C157.753 49.8835 157.561 49.4415 157.175 49.1242C156.813 48.7842 156.167 48.6142 155.237 48.6142H152.483C151.418 48.6142 150.466 48.4669 149.627 48.1722C148.811 47.8775 148.165 47.3789 147.689 46.6762C147.213 45.9735 146.975 45.0215 146.975 43.8202V42.8002C146.975 41.6442 147.191 40.6922 147.621 39.9442C148.075 39.1735 148.811 38.5955 149.831 38.2102C150.874 37.8022 152.257 37.5982 153.979 37.5982C154.705 37.5982 155.487 37.6322 156.325 37.7002C157.164 37.7682 157.969 37.8589 158.739 37.9722C159.51 38.0629 160.122 38.1762 160.575 38.3122V40.7942H153.163C152.325 40.7942 151.679 40.9415 151.225 41.2362C150.795 41.5082 150.579 42.0295 150.579 42.8002V43.4462C150.579 43.9449 150.681 44.3189 150.885 44.5682C151.089 44.8175 151.395 44.9875 151.803 45.0782C152.211 45.1689 152.699 45.2142 153.265 45.2142H156.087C157.878 45.2142 159.204 45.6222 160.065 46.4382C160.927 47.2542 161.357 48.4102 161.357 49.9062V51.4022C161.357 52.6262 161.074 53.5895 160.507 54.2922C159.941 54.9949 159.125 55.4935 158.059 55.7882C157.017 56.0602 155.759 56.1962 154.285 56.1962Z" fill="#717580"/>
</svg>
