<svg width="173" height="89" viewBox="0 0 173 89" fill="none" xmlns="http://www.w3.org/2000/svg">
<rect y="-0.0078125" width="173" height="89" rx="4" fill="white"/>
<path d="M50.3555 54.0957C48.8516 54.6882 46.9831 54.9844 44.75 54.9844C42.4714 54.9844 40.5573 54.6882 39.0078 54.0957L40.0332 55.873L40.4434 61.2734C40.4889 61.5924 40.8991 61.8431 41.6738 62.0254C42.4941 62.2533 43.5195 62.3672 44.75 62.3672C45.9805 62.3672 47.0059 62.2533 47.8262 62.0254C48.6009 61.8431 49.0111 61.5924 49.0566 61.2734L49.3984 55.8047L50.3555 54.0957ZM36.957 36.8008C37.7773 37.1654 39.2812 37.416 41.4688 37.5527C43.6562 37.6895 45.8438 37.6895 48.0312 37.5527C50.2188 37.416 51.7227 37.1654 52.543 36.8008L51.5176 46.0977C51.5176 46.1432 51.4948 46.1888 51.4492 46.2344C51.0846 46.5078 50.7428 46.7812 50.4238 47.0547C50.3783 47.1003 50.3555 47.123 50.3555 47.123C50.1732 47.2598 50.0137 47.3509 49.877 47.3965C49.7858 47.3965 49.7174 47.3509 49.6719 47.2598C49.7174 47.2142 49.8086 47.1003 49.9453 46.918C49.9909 46.918 50.0137 46.8952 50.0137 46.8496C50.0592 46.8496 50.082 46.8496 50.082 46.8496C50.2643 46.6217 50.4466 46.3711 50.6289 46.0977C50.8568 45.7786 50.9707 45.5052 50.9707 45.2773C50.9707 45.0039 50.8112 44.8216 50.4922 44.7305C50.1732 44.6393 49.763 44.7988 49.2617 45.209C49.1706 45.3001 49.1022 45.3685 49.0566 45.4141C49.0111 45.4596 48.9655 45.5052 48.9199 45.5508C48.9655 45.4141 48.9883 45.2773 48.9883 45.1406C48.9883 44.9583 48.8971 44.8672 48.7148 44.8672C48.6237 44.8672 48.5553 44.89 48.5098 44.9355C48.373 45.1634 48.2819 45.3913 48.2363 45.6191C48.1908 45.6647 48.168 45.7103 48.168 45.7559C48.1224 45.847 48.0996 45.9382 48.0996 46.0293C48.0996 46.0293 48.0768 46.0521 48.0312 46.0977C48.0312 46.0977 48.0085 46.1204 47.9629 46.166C47.8262 46.3027 47.5755 46.5306 47.2109 46.8496C46.8919 47.123 46.6185 47.2826 46.3906 47.3281C46.2995 47.237 46.2767 47.1003 46.3223 46.918C46.3678 46.7812 46.459 46.5306 46.5957 46.166C46.7324 45.847 46.8464 45.5964 46.9375 45.4141C47.0286 45.1406 47.1426 44.89 47.2793 44.6621C47.416 44.2064 47.5983 43.7279 47.8262 43.2266C47.9629 42.9076 48.054 42.7025 48.0996 42.6113C48.0996 42.5658 48.1224 42.5202 48.168 42.4746C48.2135 42.2923 48.1908 42.1556 48.0996 42.0645C48.0085 42.0189 47.9173 41.9961 47.8262 41.9961C47.6895 41.9961 47.5527 42.11 47.416 42.3379C46.5957 44.4342 46.0944 45.7103 45.9121 46.166C45.7298 46.6217 45.6387 46.8952 45.6387 46.9863C45.502 47.123 45.3424 47.2142 45.1602 47.2598C44.8867 47.3965 44.7272 47.3737 44.6816 47.1914C44.7272 46.918 44.7956 46.6445 44.8867 46.3711C44.9779 46.1888 45.069 46.0065 45.1602 45.8242C45.2057 45.6419 45.2741 45.4596 45.3652 45.2773C45.4564 45.0951 45.4564 44.9355 45.3652 44.7988C45.2741 44.7077 45.1829 44.6621 45.0918 44.6621C44.9551 44.7077 44.8411 44.8216 44.75 45.0039C44.7044 45.1406 44.6589 45.2546 44.6133 45.3457C44.5221 45.6647 44.4082 45.9382 44.2715 46.166C44.0892 46.5306 43.8385 46.8496 43.5195 47.123C43.3372 47.2142 43.1777 47.2598 43.041 47.2598C42.8587 47.1686 42.8132 46.9635 42.9043 46.6445C43.041 46.2344 43.2005 45.8698 43.3828 45.5508C43.474 45.4596 43.5423 45.3685 43.5879 45.2773C43.679 45.0495 43.6562 44.8672 43.5195 44.7305C43.5195 44.7305 43.4967 44.7305 43.4512 44.7305C43.2233 44.6849 43.041 44.776 42.9043 45.0039C42.722 45.4596 42.5625 45.8242 42.4258 46.0977C42.4258 46.1432 42.4258 46.166 42.4258 46.166C42.1068 46.804 41.9928 47.3281 42.084 47.7383C42.2207 48.0117 42.4258 48.1257 42.6992 48.0801C43.3828 48.0345 43.8841 47.6927 44.2031 47.0547C44.112 47.7383 44.2031 48.0801 44.4766 48.0801C44.7956 48.1257 45.1602 47.9661 45.5703 47.6016C45.5703 47.6471 45.5931 47.6699 45.6387 47.6699C45.6387 47.6699 45.6387 47.6927 45.6387 47.7383C45.821 48.1484 46.14 48.2396 46.5957 48.0117C46.8236 47.9206 47.1426 47.6699 47.5527 47.2598C47.5983 47.2598 47.6211 47.2598 47.6211 47.2598C47.6211 47.2142 47.5983 47.2826 47.5527 47.4648C47.3704 47.8294 47.2109 48.1712 47.0742 48.4902C46.7552 49.0827 46.5729 49.5156 46.5273 49.7891C46.4818 49.8346 46.459 49.903 46.459 49.9941C46.459 50.0853 46.5046 50.1536 46.5957 50.1992C46.7324 50.2904 46.8691 50.3132 47.0059 50.2676C47.097 50.1764 47.1882 50.0625 47.2793 49.9258C47.2793 49.8802 47.3021 49.8346 47.3477 49.7891C47.3477 49.6979 47.4388 49.4245 47.6211 48.9688C47.7122 48.6497 47.7806 48.4447 47.8262 48.3535C47.8717 48.2624 47.9173 48.1484 47.9629 48.0117C48.054 47.9206 48.1452 47.7383 48.2363 47.4648C48.373 47.1914 48.5781 46.8496 48.8516 46.4395C48.9883 46.166 49.1706 45.9382 49.3984 45.7559C49.8542 45.4368 50.1276 45.3685 50.2188 45.5508C50.1732 45.7786 50.0592 45.9609 49.877 46.0977C49.8314 46.2344 49.763 46.3483 49.6719 46.4395C49.2617 46.8952 49.0111 47.2826 48.9199 47.6016C48.9199 47.9206 49.0794 48.0801 49.3984 48.0801C49.6719 48.1257 49.8997 48.1029 50.082 48.0117C50.5378 47.7383 50.9479 47.4193 51.3125 47.0547C51.3581 47.0547 51.4036 47.0319 51.4492 46.9863L50.6973 53.4121C50.6061 53.64 50.0137 53.8906 48.9199 54.1641C47.7806 54.4375 46.3678 54.597 44.6816 54.6426C42.9499 54.597 41.5371 54.4375 40.4434 54.1641C39.3496 53.8906 38.7572 53.64 38.666 53.4121L38.1191 48.0117C38.2559 48.1029 38.4382 48.1484 38.666 48.1484C39.2129 48.0573 39.6914 47.7839 40.1016 47.3281C40.2839 47.1914 40.4434 47.0547 40.5801 46.918C40.5345 47.0547 40.4434 47.3281 40.3066 47.7383C40.1699 48.194 40.0788 48.4902 40.0332 48.627C40.0332 48.7637 40.056 48.9004 40.1016 49.0371C40.1471 49.1283 40.2155 49.1738 40.3066 49.1738C40.5345 49.0827 40.6712 48.9004 40.7168 48.627C40.6712 48.7181 40.8535 48.1257 41.2637 46.8496C41.4004 46.3027 41.5371 45.8926 41.6738 45.6191C41.8561 45.2546 41.9473 44.89 41.9473 44.5254C41.8105 44.0697 41.5827 44.0697 41.2637 44.5254L40.9219 45.5508C40.694 45.9154 40.3978 46.2799 40.0332 46.6445C39.7142 47.0091 39.3496 47.237 38.9395 47.3281C38.8027 47.3281 38.6888 47.2598 38.5977 47.123C38.5065 46.6673 38.5293 46.2116 38.666 45.7559C38.8483 45.0723 39.1217 44.4115 39.4863 43.7734C39.7598 43.2266 40.1471 42.7708 40.6484 42.4062C41.1042 42.0417 41.4915 42.11 41.8105 42.6113C41.9017 42.8848 42.0612 43.0443 42.2891 43.0898C42.5169 43.0898 42.6081 42.8848 42.5625 42.4746C42.5169 42.2012 42.2891 41.9277 41.8789 41.6543C41.4688 41.4264 41.0358 41.4036 40.5801 41.5859C39.9421 41.9049 39.3724 42.429 38.8711 43.1582C38.4154 43.8874 38.0736 44.6165 37.8457 45.3457L36.957 36.8008ZM52.6797 36.1855C52.6341 35.9577 52.2012 35.7754 51.3809 35.6387C50.515 35.4564 49.3984 35.3197 48.0312 35.2285L48.7148 32.4258L52.6113 28.3242V28.2559C52.7025 28.1191 52.5885 27.9141 52.2695 27.6406C51.9505 27.4128 51.7227 27.3444 51.5859 27.4355L47.416 31.8105L46.5273 35.1602C45.9349 35.1146 45.3424 35.0918 44.75 35.0918C42.5169 35.1374 40.6484 35.2513 39.1445 35.4336C37.6862 35.6615 36.9115 35.9121 36.8203 36.1855C36.9115 36.5501 37.7318 36.8236 39.2812 37.0059C40.8763 37.1882 42.6992 37.2793 44.75 37.2793C46.8008 37.2793 48.6009 37.1882 50.1504 37.0059C51.7454 36.8236 52.5885 36.5501 52.6797 36.1855ZM47.8945 36.5273C47.849 36.6641 47.5299 36.7552 46.9375 36.8008C46.3906 36.7552 46.0944 36.6641 46.0488 36.5273C46.0488 36.4818 46.1172 36.4362 46.2539 36.3906H46.1855C46.1855 36.3906 46.1855 36.4134 46.1855 36.459C46.2311 36.5501 46.4818 36.5957 46.9375 36.5957C47.3932 36.5957 47.6439 36.5501 47.6895 36.459L47.7578 36.3906C47.849 36.4362 47.8945 36.4818 47.8945 36.5273Z" fill="#717580"/>
<path d="M73.554 56.1622C71.9673 56.1622 70.664 55.8789 69.644 55.3122C68.6467 54.7455 67.8533 53.9182 67.264 52.8302C66.6973 51.7422 66.2893 50.4049 66.04 48.8182C65.8133 47.2315 65.7 45.4295 65.7 43.4122C65.7 41.3495 65.8247 39.5249 66.074 37.9382C66.346 36.3515 66.8107 35.0255 67.468 33.9602C68.1253 32.8722 69.032 32.0562 70.188 31.5122C71.3667 30.9455 72.874 30.6622 74.71 30.6622C75.7527 30.6622 76.75 30.7075 77.702 30.7982C78.654 30.8662 79.572 30.9795 80.456 31.1382C81.34 31.2969 82.2013 31.4782 83.04 31.6822V34.9122C82.564 34.8442 81.918 34.7762 81.102 34.7082C80.3087 34.6402 79.4247 34.5835 78.45 34.5382C77.4753 34.4702 76.4667 34.4362 75.424 34.4362C73.928 34.4362 72.7833 34.7309 71.99 35.3202C71.1967 35.8869 70.6527 36.8275 70.358 38.1422C70.0633 39.4569 69.916 41.2249 69.916 43.4462C69.916 45.1915 69.9953 46.6422 70.154 47.7982C70.3127 48.9315 70.5733 49.8382 70.936 50.5182C71.3213 51.1755 71.8313 51.6402 72.466 51.9122C73.1233 52.1615 73.9167 52.2862 74.846 52.2862C75.8433 52.2862 76.8067 52.1955 77.736 52.0142C78.688 51.8102 79.4813 51.5949 80.116 51.3682V45.5882H75.05V42.3242C75.5033 42.2562 76.0473 42.1995 76.682 42.1542C77.3393 42.1089 78.0193 42.0749 78.722 42.0522C79.4247 42.0069 80.116 41.9842 80.796 41.9842C81.476 41.9842 82.088 41.9955 82.632 42.0182C83.1987 42.0182 83.7087 42.0409 84.162 42.0862V55.9922H81L80.422 54.2582C79.7193 54.6662 78.756 55.0855 77.532 55.5162C76.308 55.9469 74.982 56.1622 73.554 56.1622ZM93.8905 56.1962C92.2132 56.1962 90.9098 55.7315 89.9805 54.8022C89.0512 53.8502 88.5865 52.4675 88.5865 50.6542V37.7682H92.8025V49.4302C92.8025 50.6315 93.0745 51.4362 93.6185 51.8442C94.1852 52.2522 94.9445 52.4562 95.8965 52.4562C96.6898 52.4562 97.4605 52.3315 98.2085 52.0822C98.9565 51.8329 99.6592 51.4702 100.317 50.9942V37.7682H104.533V55.9922H101.099L100.317 54.0882C99.4552 54.6322 98.4692 55.1195 97.3585 55.5502C96.2705 55.9809 95.1145 56.1962 93.8905 56.1962ZM114.181 56.0602C112.979 56.0602 111.971 55.8562 111.155 55.4482C110.361 55.0402 109.761 54.4055 109.353 53.5442C108.967 52.6829 108.775 51.5382 108.775 50.1102V30.0502H112.991V49.5322C112.991 50.3482 113.07 50.9829 113.229 51.4362C113.41 51.8895 113.659 52.2182 113.977 52.4222C114.294 52.6035 114.679 52.7282 115.133 52.7962L116.663 53.0002V56.0602H114.181ZM119.167 64.0502V37.7682H122.669L123.383 39.5702C123.814 39.2302 124.313 38.9015 124.879 38.5842C125.446 38.2669 126.058 38.0175 126.715 37.8362C127.373 37.6322 128.053 37.5302 128.755 37.5302C129.911 37.5302 130.897 37.7569 131.713 38.2102C132.552 38.6635 133.232 39.3095 133.753 40.1482C134.275 40.9642 134.649 41.9502 134.875 43.1062C135.125 44.2395 135.249 45.4975 135.249 46.8802C135.249 48.8749 135.034 50.5749 134.603 51.9802C134.195 53.3629 133.515 54.4169 132.563 55.1422C131.634 55.8675 130.365 56.2302 128.755 56.2302C127.849 56.2302 126.919 56.1055 125.967 55.8562C125.038 55.6069 124.177 55.2782 123.383 54.8702V64.0502H119.167ZM127.429 52.7622C128.087 52.7622 128.687 52.5922 129.231 52.2522C129.775 51.8895 130.206 51.2889 130.523 50.4502C130.863 49.6115 131.033 48.4215 131.033 46.8802C131.033 45.4069 130.875 44.2282 130.557 43.3442C130.24 42.4602 129.809 41.8369 129.265 41.4742C128.744 41.1115 128.143 40.9302 127.463 40.9302C126.625 40.9302 125.865 41.0662 125.185 41.3382C124.505 41.5875 123.905 41.8482 123.383 42.1202V51.6402C123.973 51.9802 124.619 52.2522 125.321 52.4562C126.024 52.6602 126.727 52.7622 127.429 52.7622Z" fill="#717580"/>
</svg>
