<svg width="44" height="44" viewBox="0 0 44 44" fill="none" xmlns="http://www.w3.org/2000/svg">
<circle cx="22" cy="22" r="22" fill="white"/>
<path d="M19.2414 27H14.8966C14.1283 27 13.3916 27.3161 12.8484 27.8787C12.3052 28.4413 12 29.2043 12 30C12 30.7956 12.3052 31.5587 12.8484 32.1213C13.3916 32.6839 14.1283 33 14.8966 33H19.2414C20.0096 33 20.7463 32.6839 21.2896 32.1213C21.8328 31.5587 22.1379 30.7956 22.1379 30C22.1379 29.2043 21.8328 28.4413 21.2896 27.8787C20.7463 27.3161 20.0096 27 19.2414 27ZM19.2414 31.5H14.8966C14.5124 31.5 14.1441 31.342 13.8725 31.0607C13.6009 30.7794 13.4483 30.3978 13.4483 30C13.4483 29.6022 13.6009 29.2206 13.8725 28.9393C14.1441 28.658 14.5124 28.5 14.8966 28.5H19.2414C19.6255 28.5 19.9939 28.658 20.2655 28.9393C20.5371 29.2206 20.6897 29.6022 20.6897 30C20.6897 30.3978 20.5371 30.7794 20.2655 31.0607C19.9939 31.342 19.6255 31.5 19.2414 31.5Z" fill="#1F242E"/>
<path d="M14.8966 25.5H29.3793C30.1475 25.5 30.8843 25.1839 31.4275 24.6213C31.9707 24.0587 32.2759 23.2956 32.2759 22.5C32.2759 21.7044 31.9707 20.9413 31.4275 20.3787C30.8843 19.8161 30.1475 19.5 29.3793 19.5H14.8966C14.1283 19.5 13.3916 19.8161 12.8484 20.3787C12.3052 20.9413 12 21.7044 12 22.5C12 23.2956 12.3052 24.0587 12.8484 24.6213C13.3916 25.1839 14.1283 25.5 14.8966 25.5ZM14.8966 21H29.3793C29.7634 21 30.1318 21.158 30.4034 21.4393C30.675 21.7206 30.8276 22.1022 30.8276 22.5C30.8276 22.8978 30.675 23.2794 30.4034 23.5607C30.1318 23.842 29.7634 24 29.3793 24H14.8966C14.5124 24 14.1441 23.842 13.8725 23.5607C13.6009 23.2794 13.4483 22.8978 13.4483 22.5C13.4483 22.1022 13.6009 21.7206 13.8725 21.4393C14.1441 21.158 14.5124 21 14.8966 21Z" fill="#1F242E"/>
<path d="M22.1379 18H29.3793C30.1475 18 30.8843 17.6839 31.4275 17.1213C31.9707 16.5587 32.2759 15.7957 32.2759 15C32.2759 14.2044 31.9707 13.4413 31.4275 12.8787C30.8843 12.3161 30.1475 12 29.3793 12H22.1379C21.3697 12 20.633 12.3161 20.0898 12.8787C19.5465 13.4413 19.2414 14.2044 19.2414 15C19.2414 15.7957 19.5465 16.5587 20.0898 17.1213C20.633 17.6839 21.3697 18 22.1379 18ZM22.1379 13.5H29.3793C29.7634 13.5 30.1318 13.658 30.4034 13.9393C30.675 14.2206 30.8276 14.6022 30.8276 15C30.8276 15.3978 30.675 15.7794 30.4034 16.0607C30.1318 16.342 29.7634 16.5 29.3793 16.5H22.1379C21.7538 16.5 21.3854 16.342 21.1138 16.0607C20.8422 15.7794 20.6897 15.3978 20.6897 15C20.6897 14.6022 20.8422 14.2206 21.1138 13.9393C21.3854 13.658 21.7538 13.5 22.1379 13.5Z" fill="#1F242E"/>
<path d="M30.1034 27H26.4828C25.7145 27 24.9778 27.3161 24.4346 27.8787C23.8914 28.4413 23.5862 29.2043 23.5862 30C23.5862 30.7956 23.8914 31.5587 24.4346 32.1213C24.9778 32.6839 25.7145 33 26.4828 33H30.1034C30.8717 33 31.6084 32.6839 32.1516 32.1213C32.6948 31.5587 33 30.7956 33 30C33 29.2043 32.6948 28.4413 32.1516 27.8787C31.6084 27.3161 30.8717 27 30.1034 27ZM30.1034 31.5H26.4828C26.0987 31.5 25.7303 31.342 25.4587 31.0607C25.1871 30.7794 25.0345 30.3978 25.0345 30C25.0345 29.6022 25.1871 29.2206 25.4587 28.9393C25.7303 28.658 26.0987 28.5 26.4828 28.5H30.1034C30.4876 28.5 30.8559 28.658 31.1275 28.9393C31.3991 29.2206 31.5517 29.6022 31.5517 30C31.5517 30.3978 31.3991 30.7794 31.1275 31.0607C30.8559 31.342 30.4876 31.5 30.1034 31.5Z" fill="#1F242E"/>
<path d="M14.8966 18C15.4694 18 16.0295 17.8241 16.5058 17.4944C16.9821 17.1648 17.3534 16.6962 17.5726 16.1481C17.7918 15.5999 17.8492 14.9967 17.7374 14.4147C17.6257 13.8328 17.3498 13.2982 16.9447 12.8787C16.5396 12.4591 16.0235 12.1734 15.4616 12.0576C14.8998 11.9419 14.3174 12.0013 13.7881 12.2284C13.2588 12.4554 12.8064 12.8399 12.4882 13.3333C12.1699 13.8266 12 14.4067 12 15C12.0008 15.7954 12.3063 16.558 12.8493 17.1204C13.3923 17.6828 14.1286 17.9992 14.8966 18ZM14.8966 13.5C15.183 13.5 15.463 13.588 15.7012 13.7528C15.9393 13.9176 16.125 14.1519 16.2346 14.426C16.3442 14.7001 16.3729 15.0017 16.317 15.2926C16.2611 15.5836 16.1232 15.8509 15.9206 16.0607C15.7181 16.2704 15.46 16.4133 15.1791 16.4712C14.8982 16.5291 14.607 16.4994 14.3423 16.3858C14.0777 16.2723 13.8515 16.08 13.6924 15.8334C13.5332 15.5867 13.4483 15.2967 13.4483 15C13.4487 14.6023 13.6014 14.221 13.873 13.9398C14.1445 13.6586 14.5126 13.5005 14.8966 13.5Z" fill="#1F242E"/>
</svg>
