<svg width="44" height="44" viewBox="0 0 44 44" fill="none" xmlns="http://www.w3.org/2000/svg">
<circle cx="22" cy="22" r="22" fill="white"/>
<path d="M32.2448 15.1518C30.7005 13.7141 29.1979 12.2764 27.6536 10.8387C27.0692 10.2796 26.3597 10 25.5249 10H14.6312C12.5443 10 11 11.5176 11 13.4744V31.4457C11 32.4441 11.3756 33.3227 12.0435 34.0016C12.7113 34.6406 13.6712 35 14.673 35H29.2814C31.41 35 32.9961 33.5224 32.9961 31.4457V28.2907C32.9961 24.7364 32.9961 20.4633 32.9961 16.9089C33.0378 16.23 32.7456 15.631 32.2448 15.1518ZM30.7422 16.6294C30.8257 16.7093 30.8674 16.7492 30.8674 16.8291H26.2345C25.7336 16.8291 25.6501 16.7492 25.6501 16.27V12.0767C25.8588 12.0767 25.984 12.1565 26.151 12.3163C27.6536 13.754 29.1979 15.1917 30.7422 16.6294ZM30.8674 31.4457C30.8674 32.3642 30.2831 32.9233 29.3231 32.9233H14.7147C14.2556 32.9233 13.8799 32.8035 13.5878 32.524C13.3373 32.2843 13.1704 31.885 13.1704 31.4457V19.0256C13.1704 17.1885 13.1704 15.3115 13.1704 13.4744C13.1704 12.5958 13.7547 12.0367 14.6312 12.0367H23.438V16.27C23.438 17.9073 24.5232 18.9058 26.2345 18.9058H30.8674V31.4457Z" fill="#1F242E"/>
<path d="M26.9857 24.5367L26.944 24.4968C26.944 24.4968 26.9023 24.4968 26.9023 24.4569H26.8605C26.8605 24.4569 26.8605 24.4569 26.8188 24.4569L26.7771 24.4169C26.7353 24.4169 26.7353 24.377 26.6936 24.377C26.1927 24.2173 25.6919 24.2971 25.191 24.3371C25.0658 24.3371 24.0223 24.3371 23.9806 24.4169L24.1475 23.8978C24.231 23.6182 24.3145 23.2987 24.4397 23.0192C24.5649 22.6198 24.6067 22.2604 24.5649 21.9409C24.5232 21.5415 24.2728 21.1422 23.8971 20.9425C23.6884 20.8227 23.438 20.7428 23.2293 20.7428H23.1876C22.9789 20.7428 22.8119 20.8626 22.8119 21.1022C22.7702 21.3818 22.7702 21.6214 22.7284 21.861C22.645 22.3003 22.5198 22.6198 22.3528 22.9393C22.2693 23.099 22.1441 23.2588 21.9772 23.4185C21.8102 23.6182 21.6015 23.8179 21.3511 24.0575L20.8502 24.6166C20.725 24.7364 20.5998 24.8562 20.4746 24.976C20.4328 25.016 20.4328 25.016 20.3911 25.0559C20.3076 25.1358 20.2242 25.1757 20.0989 25.2157C19.8902 25.2955 19.7233 25.4153 19.5146 25.4153C19.2642 25.4553 19.0972 25.2955 18.8885 25.2955H17.0938C16.8434 25.2955 16.6764 25.4952 16.6764 25.6949V30.0879C16.6764 30.3275 16.8851 30.4872 17.0938 30.4872H18.8885C19.0555 30.4872 19.1807 30.3275 19.3476 30.3275H19.8485C20.0989 30.3674 20.3076 30.4074 20.5998 30.4473L20.725 30.4872C21.3093 30.5671 21.8519 30.6869 22.4363 30.7268C23.7719 30.8866 25.4414 31.246 26.4014 30.0879C26.8188 29.6086 26.8605 28.9297 26.944 28.3307C27.111 27.3722 27.2779 26.4137 27.4031 25.4553C27.4449 25.0958 27.2779 24.7364 26.9857 24.5367Z" fill="#1F242E"/>
</svg>
