<svg width="44" height="44" viewBox="0 0 44 44" fill="none" xmlns="http://www.w3.org/2000/svg">
<circle cx="22" cy="22" r="22" fill="white"/>
<path d="M16.3125 13.7188H13.4375C13.0405 13.7188 12.7188 14.0405 12.7188 14.4375V17.3125C12.7188 17.7095 13.0405 18.0312 13.4375 18.0312H16.3125C16.7095 18.0312 17.0312 17.7095 17.0312 17.3125V14.4375C17.0312 14.0405 16.7095 13.7188 16.3125 13.7188Z" fill="white"/>
<path d="M30.6875 20.1875H27.0938C26.6968 20.1875 26.375 20.5093 26.375 20.9062V30.25C26.375 30.647 26.6968 30.9688 27.0938 30.9688H30.6875C31.0845 30.9688 31.4062 30.647 31.4062 30.25V20.9062C31.4062 20.5093 31.0845 20.1875 30.6875 20.1875Z" fill="white"/>
<path d="M13.4375 18.75H16.3125C16.6936 18.7496 17.059 18.598 17.3285 18.3285C17.598 18.059 17.7496 17.6936 17.75 17.3125V14.4375C17.7496 14.0564 17.598 13.691 17.3285 13.4215C17.059 13.152 16.6936 13.0004 16.3125 13H13.4375C13.0564 13.0004 12.691 13.152 12.4215 13.4215C12.152 13.691 12.0004 14.0564 12 14.4375V17.3125C12.0004 17.6936 12.152 18.059 12.4215 18.3285C12.691 18.598 13.0564 18.7496 13.4375 18.75ZM13.4375 14.4375H16.3125V17.3125H13.4375V14.4375ZM31.4062 18.0312H19.1875C18.9969 18.0312 18.8141 17.9555 18.6793 17.8207C18.5445 17.6859 18.4688 17.5031 18.4688 17.3125C18.4688 17.1219 18.5445 16.9391 18.6793 16.8043C18.8141 16.6695 18.9969 16.5938 19.1875 16.5938H31.4062C31.5969 16.5938 31.7797 16.6695 31.9145 16.8043C32.0493 16.9391 32.125 17.1219 32.125 17.3125C32.125 17.5031 32.0493 17.6859 31.9145 17.8207C31.7797 17.9555 31.5969 18.0312 31.4062 18.0312ZM31.4062 15.1562H19.1875C18.9969 15.1562 18.8141 15.0805 18.6793 14.9457C18.5445 14.8109 18.4688 14.6281 18.4688 14.4375C18.4688 14.2469 18.5445 14.0641 18.6793 13.9293C18.8141 13.7945 18.9969 13.7188 19.1875 13.7188H31.4062C31.5969 13.7188 31.7797 13.7945 31.9145 13.9293C32.0493 14.0641 32.125 14.2469 32.125 14.4375C32.125 14.6281 32.0493 14.8109 31.9145 14.9457C31.7797 15.0805 31.5969 15.1562 31.4062 15.1562ZM23.5 19.4688H13.4375C13.0564 19.4692 12.691 19.6208 12.4215 19.8903C12.152 20.1598 12.0004 20.5251 12 20.9062V30.25C12.0004 30.6311 12.152 30.9965 12.4215 31.266C12.691 31.5355 13.0564 31.6871 13.4375 31.6875H23.5C23.8811 31.6871 24.2465 31.5355 24.516 31.266C24.7855 30.9965 24.9371 30.6311 24.9375 30.25V20.9062C24.9371 20.5251 24.7855 20.1598 24.516 19.8903C24.2465 19.6208 23.8811 19.4692 23.5 19.4688ZM13.4375 30.25V20.9062H23.5L23.5011 30.25H13.4375ZM30.6875 19.4688H27.0938C26.7126 19.4692 26.3473 19.6208 26.0778 19.8903C25.8083 20.1598 25.6567 20.5251 25.6562 20.9062V30.25C25.6567 30.6311 25.8083 30.9965 26.0778 31.266C26.3473 31.5355 26.7126 31.6871 27.0938 31.6875H30.6875C31.0686 31.6871 31.434 31.5355 31.7035 31.266C31.973 30.9965 32.1246 30.6311 32.125 30.25V20.9062C32.1246 20.5251 31.973 20.1598 31.7035 19.8903C31.434 19.6208 31.0686 19.4692 30.6875 19.4688ZM27.0938 30.25V20.9062H30.6875L30.6886 30.25H27.0938Z" fill="#1F242E"/>
</svg>
