<svg width="44" height="44" viewBox="0 0 44 44" fill="none" xmlns="http://www.w3.org/2000/svg">
<circle cx="22" cy="22" r="22" fill="white"/>
<path fill-rule="evenodd" clip-rule="evenodd" d="M12 14.4211V27.6842C12 28.4691 12.6131 29.1053 13.3696 29.1053H19.3043V30.0526H17.9348C17.6828 30.0526 17.4783 30.2648 17.4783 30.5263C17.4783 30.7878 17.6828 31 17.9348 31H31.6304C31.9938 31 32.3422 30.8503 32.5987 30.5836C32.8557 30.3174 33 29.956 33 29.5789V20.1053C33 19.7282 32.8557 19.3668 32.5987 19.1006C32.3422 18.8339 31.9938 18.6842 31.6304 18.6842H31.1739V14.4211C31.1739 13.6362 30.5608 13 29.8043 13H13.3696C12.6131 13 12 13.6362 12 14.4211ZM32.087 29.1053V29.5789C32.087 29.7045 32.039 29.8253 31.9532 29.9138C31.8678 30.0029 31.7514 30.0526 31.6304 30.0526H26.1522C26.0312 30.0526 25.9148 30.0029 25.8294 29.9138C25.7436 29.8253 25.6957 29.7045 25.6957 29.5789V29.1053H32.087ZM24.7826 29.1053H23.8696V30.0526H24.8611C24.8095 29.902 24.7826 29.7419 24.7826 29.5789V29.1053ZM20.2174 30.0526H22.9565V29.1053H20.2174V30.0526ZM25.6957 21.5263V28.1579H32.087V21.5263H25.6957ZM12.913 27.2105V27.6842C12.913 27.9457 13.1176 28.1579 13.3696 28.1579H24.7826V27.2105H12.913ZM30.2609 18.6842V15.8421H12.913V26.2632H24.7826V20.1053C24.7826 19.7282 24.9269 19.3668 25.1839 19.1006C25.4405 18.8339 25.7888 18.6842 26.1522 18.6842H30.2609ZM32.087 20.5789H25.6957V20.1053C25.6957 19.9797 25.7436 19.8589 25.8294 19.7704C25.9148 19.6813 26.0312 19.6316 26.1522 19.6316H31.6304C31.7514 19.6316 31.8678 19.6813 31.9532 19.7704C32.039 19.8589 32.087 19.9797 32.087 20.1053V20.5789ZM30.2609 14.8947V14.4211C30.2609 14.1596 30.0563 13.9474 29.8043 13.9474H13.3696C13.1176 13.9474 12.913 14.1596 12.913 14.4211V14.8947H30.2609Z" fill="#1F242E"/>
</svg>
