<svg width="55" height="52" viewBox="0 0 55 52" fill="none" xmlns="http://www.w3.org/2000/svg">
<path d="M27.4079 0C17.3396 0 9.14844 8.19124 9.14844 18.2597C9.14844 24.9694 12.7589 31.0477 18.6119 34.2645V38.9345H18.608V42.6659H18.6028V48.326H23.8792C23.9886 50.1752 25.5269 51.646 27.4027 51.646C29.2785 51.646 30.8168 50.1751 30.9261 48.326H36.1991V44.5945H36.2045V38.9345H36.2039V34.2645C42.057 31.0477 45.6674 24.9694 45.6674 18.2597C45.6674 8.19124 37.4763 0 27.4079 0ZM20.5366 40.863H34.2759V42.666H20.5366V40.863ZM27.4027 49.7176C26.5031 49.7176 25.9169 49.0298 25.8176 48.326H28.9889C28.8853 49.11 28.2143 49.7176 27.4027 49.7176ZM34.2705 46.3974H20.5314V44.5945H34.2705V46.3974ZM34.8024 32.8243L34.2753 33.0925V38.8815H28.3687V24.6314L34.0888 18.9111C34.4653 18.5345 34.4653 17.9241 34.0886 17.5474C33.7122 17.171 33.1016 17.1708 32.725 17.5475L27.4044 22.8683L22.0839 17.5475C21.7074 17.171 21.0968 17.1708 20.7203 17.5474C20.3436 17.9241 20.3436 18.5346 20.7201 18.9111L26.4401 24.6314V38.8815H20.5405V33.0925L20.0134 32.8243C14.5012 30.02 11.077 24.439 11.077 18.2597C11.077 9.25467 18.403 1.92864 27.4079 1.92864C36.4128 1.92864 43.7388 9.25467 43.7388 18.2597C43.7388 24.439 40.3146 30.02 34.8024 32.8243Z" fill="#87AB42"/>
<path d="M32.4955 5.84766C31.9629 5.84766 31.5312 6.27934 31.5312 6.81196C31.5312 7.34457 31.9629 7.77623 32.4955 7.77623C34.0123 7.77623 37.5674 9.59838 37.5674 13.132C37.5674 13.6646 37.9991 14.0963 38.5317 14.0963C39.0643 14.0963 39.496 13.6646 39.496 13.132C39.496 8.34942 34.9387 5.84766 32.4955 5.84766Z" fill="#87AB42"/>
<path d="M6.30065 20.1049C6.30065 19.5723 5.86896 19.1406 5.33637 19.1406H0.964272C0.431689 19.1406 0 19.5723 0 20.1049C0 20.6375 0.431689 21.0692 0.964272 21.0692H5.33637C5.86896 21.0692 6.30065 20.6375 6.30065 20.1049Z" fill="#87AB42"/>
<path d="M6.63144 7.49125C6.81979 7.67956 7.06652 7.77373 7.31335 7.77373C7.56009 7.77373 7.80692 7.67956 7.99514 7.49137C8.37183 7.11468 8.37183 6.50421 7.99526 6.12771L4.90402 3.03628C4.52763 2.65986 3.91698 2.65974 3.54032 3.03616C3.16366 3.41281 3.16366 4.02331 3.5402 4.39985L6.63144 7.49125Z" fill="#87AB42"/>
<path d="M6.63187 32.7197L3.54032 35.8112C3.16366 36.1878 3.16366 36.7983 3.5402 37.175C3.72854 37.3633 3.97525 37.4575 4.22211 37.4575C4.46881 37.4575 4.71567 37.3633 4.90386 37.175L7.99544 34.0836C8.3721 33.7069 8.3721 33.0964 7.99557 32.7201C7.61906 32.3434 7.00841 32.3434 6.63187 32.7197Z" fill="#87AB42"/>
<path d="M53.8441 19.1406H49.4721C48.9395 19.1406 48.5078 19.5723 48.5078 20.1049C48.5078 20.6375 48.9395 21.0692 49.4721 21.0692H53.8441C54.3767 21.0692 54.8084 20.6375 54.8084 20.1049C54.8084 19.5723 54.3767 19.1406 53.8441 19.1406Z" fill="#87AB42"/>
<path d="M47.4956 7.77379C47.7423 7.77379 47.9892 7.67962 48.1775 7.49143L51.2689 4.40003C51.6454 4.02338 51.6454 3.41287 51.2689 3.03622C50.8922 2.6598 50.2817 2.6598 49.905 3.03622L46.8137 6.12761C46.4371 6.5043 46.4371 7.11477 46.8137 7.49143C47.002 7.67962 47.2489 7.77379 47.4956 7.77379Z" fill="#87AB42"/>
<path d="M48.1773 32.7197C47.8009 32.3434 47.1903 32.3434 46.8136 32.7201C46.4371 33.0964 46.4371 33.7069 46.8138 34.0836L49.9053 37.175C50.0935 37.3633 50.3404 37.4575 50.5871 37.4575C50.8338 37.4575 51.0807 37.3633 51.269 37.175C51.6455 36.7983 51.6455 36.1878 51.2689 35.8112L48.1773 32.7197Z" fill="#87AB42"/>
</svg>
