<svg width="51" height="55" viewBox="0 0 51 55" fill="none" xmlns="http://www.w3.org/2000/svg">
<path d="M50.3392 25.0636L44.2864 19.4108C44.1088 19.245 43.875 19.1527 43.6321 19.1527H35.4114C35.3657 19.146 35.3189 19.1426 35.2713 19.1426H26.2927V17.0204H40.3378C40.8672 17.0204 41.2963 16.5914 41.2963 16.0619V4.73561C41.2963 4.2062 40.8672 3.77708 40.3378 3.77708H26.2927V1.06787C26.2927 0.538345 25.8636 0.109375 25.3341 0.109375C24.8047 0.109375 24.3756 0.538375 24.3756 1.06787V3.77711H15.7317C15.6846 3.77711 15.6383 3.78059 15.5932 3.78729H7.37071C7.12786 3.78729 6.89399 3.87953 6.7164 4.04536L0.663617 9.69829C0.469558 9.87951 0.359375 10.1332 0.359375 10.3987C0.359375 10.6643 0.469558 10.918 0.663617 11.0992L6.71643 16.7524C6.89402 16.9183 7.12789 17.0104 7.37074 17.0104H15.5921C15.6377 17.0169 15.6842 17.0204 15.7317 17.0204H24.3756V19.1426H10.6652C10.1358 19.1426 9.70672 19.5717 9.70672 20.1011V31.4276C9.70672 31.957 10.1358 32.3862 10.6652 32.3862H24.3756V41.9084C20.8482 42.3057 18.0495 44.868 17.5074 48.1937H11.1149C10.5855 48.1937 10.1564 48.6228 10.1564 49.1522V53.9304C10.1564 54.4598 10.5855 54.8889 11.1149 54.8889H39.5533C40.0827 54.8889 40.5118 54.4598 40.5118 53.9304V49.1522C40.5118 48.6228 40.0827 48.1937 39.5533 48.1937H33.1609C32.6188 44.868 29.82 42.3057 26.2926 41.9084V32.3862H35.2713C35.3184 32.3862 35.3647 32.3827 35.4098 32.376H43.6321C43.875 32.376 44.1089 32.2837 44.2864 32.1179L50.3392 26.4647C50.5333 26.2835 50.6435 26.0298 50.6435 25.7643C50.6435 25.4986 50.5333 25.245 50.3392 25.0636ZM15.8713 15.1034C15.8257 15.0967 15.7792 15.0933 15.7317 15.0933H7.74875L2.72227 10.3987L7.74872 5.70431H15.7317C15.7787 5.70431 15.825 5.70083 15.8702 5.69414H24.3756H26.2926H39.3792V15.1034H26.2927H24.3756H15.8713ZM38.5949 52.9719H12.0735V50.1107H18.3723H32.296H38.5949L38.5949 52.9719ZM31.2108 48.1937H19.4573C20.0314 45.6461 22.4359 43.7696 25.3341 43.7696C28.232 43.7696 30.6366 45.6464 31.2108 48.1937ZM43.2541 30.4589H35.2713C35.2237 30.4589 35.1769 30.4624 35.1311 30.4691H26.2926H24.3756H11.6238V21.0596H24.3756H26.2926H35.1311C35.1769 21.0663 35.2237 21.0698 35.2713 21.0698H43.2541L48.2806 25.7642L43.2541 30.4589Z" fill="#87AB42"/>
</svg>
