<?xml version="1.0" encoding="UTF-8" standalone="no"?>
<!-- Created with Inkscape (http://www.inkscape.org/) -->

<svg
   version="1.1"
   id="svg4698"
   xml:space="preserve"
   width="682.66669"
   height="682.66669"
   viewBox="0 0 682.66669 682.66669"
   xmlns="http://www.w3.org/2000/svg"
   xmlns:svg="http://www.w3.org/2000/svg"><defs
     id="defs4702"><clipPath
       clipPathUnits="userSpaceOnUse"
       id="clipPath4792"><path
         d="M 0,512 H 512 V 0 H 0 Z"
         id="path4790" /></clipPath></defs><g
     id="g4704"
     transform="matrix(1.3333333,0,0,-1.3333333,0,682.66667)"><g
       id="g4706"
       transform="translate(54.333,431.1855)"><path
         d="M 0,0 H 250.501 Z"
         style="fill:#ffffff;fill-opacity:1;fill-rule:nonzero;stroke:none"
         id="path4708" /></g><g
       id="g4710"
       transform="translate(304.834,431.1855)"><path
         d="M 0,0 H -250.501"
         style="fill:none;stroke:#000000;stroke-width:15;stroke-linecap:round;stroke-linejoin:round;stroke-miterlimit:10;stroke-dasharray:none;stroke-opacity:1"
         id="path4712" /></g><g
       id="g4714"
       transform="translate(101.5119,277.3323)"><path
         d="M 0,0 V 52.432 Z"
         style="fill:#ffffff;fill-opacity:1;fill-rule:nonzero;stroke:none"
         id="path4716" /></g><g
       id="g4718"
       transform="translate(101.5117,329.7646)"><path
         d="M 0,0 V -52.433"
         style="fill:none;stroke:#000000;stroke-width:15;stroke-linecap:round;stroke-linejoin:round;stroke-miterlimit:10;stroke-dasharray:none;stroke-opacity:1"
         id="path4720" /></g><g
       id="g4722"
       transform="translate(140.0004,277.3323)"><path
         d="M 0,0 V 52.432 Z"
         style="fill:#ffffff;fill-opacity:1;fill-rule:nonzero;stroke:none"
         id="path4724" /></g><g
       id="g4726"
       transform="translate(140,329.7646)"><path
         d="M 0,0 V -52.433"
         style="fill:none;stroke:#000000;stroke-width:15;stroke-linecap:round;stroke-linejoin:round;stroke-miterlimit:10;stroke-dasharray:none;stroke-opacity:1"
         id="path4728" /></g><g
       id="g4730"
       transform="translate(178.488,277.3323)"><path
         d="M 0,0 V 52.432 Z"
         style="fill:#ffffff;fill-opacity:1;fill-rule:nonzero;stroke:none"
         id="path4732" /></g><g
       id="g4734"
       transform="translate(178.4883,329.7646)"><path
         d="M 0,0 V -52.433"
         style="fill:none;stroke:#000000;stroke-width:15;stroke-linecap:round;stroke-linejoin:round;stroke-miterlimit:10;stroke-dasharray:none;stroke-opacity:1"
         id="path4736" /></g><g
       id="g4738"
       transform="translate(324.4455,287.6481)"><path
         d="M 0,0 H 135.313 Z"
         style="fill:#ffffff;fill-opacity:1;fill-rule:nonzero;stroke:none"
         id="path4740" /></g><g
       id="g4742"
       transform="translate(324.4453,287.6484)"><path
         d="M 0,0 H 135.313"
         style="fill:none;stroke:#000000;stroke-width:15;stroke-linecap:round;stroke-linejoin:round;stroke-miterlimit:10;stroke-dasharray:none;stroke-opacity:1"
         id="path4744" /></g><g
       id="g4746"
       transform="translate(274.0914,287.6481)"><path
         d="M 0,0 H 21.035 Z"
         style="fill:#ffffff;fill-opacity:1;fill-rule:nonzero;stroke:none"
         id="path4748" /></g><g
       id="g4750"
       transform="translate(274.0918,287.6484)"><path
         d="M 0,0 H 21.034"
         style="fill:none;stroke:#000000;stroke-width:15;stroke-linecap:round;stroke-linejoin:round;stroke-miterlimit:10;stroke-dasharray:none;stroke-opacity:1"
         id="path4752" /></g><g
       id="g4754"
       transform="translate(438.7248,210.9096)"><path
         d="M 0,0 H 21.034 Z"
         style="fill:#ffffff;fill-opacity:1;fill-rule:nonzero;stroke:none"
         id="path4756" /></g><g
       id="g4758"
       transform="translate(438.7246,210.9092)"><path
         d="M 0,0 H 21.034"
         style="fill:none;stroke:#000000;stroke-width:15;stroke-linecap:round;stroke-linejoin:round;stroke-miterlimit:10;stroke-dasharray:none;stroke-opacity:1"
         id="path4760" /></g><g
       id="g4762"
       transform="translate(274.0914,210.9096)"><path
         d="M 0,0 H 135.314 Z"
         style="fill:#ffffff;fill-opacity:1;fill-rule:nonzero;stroke:none"
         id="path4764" /></g><g
       id="g4766"
       transform="translate(274.0918,210.9092)"><path
         d="M 0,0 H 135.313"
         style="fill:none;stroke:#000000;stroke-width:15;stroke-linecap:round;stroke-linejoin:round;stroke-miterlimit:10;stroke-dasharray:none;stroke-opacity:1"
         id="path4768" /></g><g
       id="g4770"
       transform="translate(324.4455,134.1702)"><path
         d="M 0,0 H 135.313 Z"
         style="fill:#ffffff;fill-opacity:1;fill-rule:nonzero;stroke:none"
         id="path4772" /></g><g
       id="g4774"
       transform="translate(324.4453,134.1699)"><path
         d="M 0,0 H 135.313"
         style="fill:none;stroke:#000000;stroke-width:15;stroke-linecap:round;stroke-linejoin:round;stroke-miterlimit:10;stroke-dasharray:none;stroke-opacity:1"
         id="path4776" /></g><g
       id="g4778"
       transform="translate(274.0914,134.1702)"><path
         d="M 0,0 H 21.035 Z"
         style="fill:#ffffff;fill-opacity:1;fill-rule:nonzero;stroke:none"
         id="path4780" /></g><g
       id="g4782"
       transform="translate(274.0918,134.1699)"><path
         d="M 0,0 H 21.034"
         style="fill:none;stroke:#000000;stroke-width:15;stroke-linecap:round;stroke-linejoin:round;stroke-miterlimit:10;stroke-dasharray:none;stroke-opacity:1"
         id="path4784" /></g><g
       id="g4786"><g
         id="g4788"
         clip-path="url(#clipPath4792)"><g
           id="g4794"
           transform="translate(214.3398,206.8525)"><path
             d="M 0,0 V 24.822 H -148.68 V 0 c 0,-9.261 7.507,-16.768 16.768,-16.768 h 7.828 c 18.155,0 32.873,-14.717 32.873,-32.872 0,-17.779 -8.592,-20.757 -8.592,-38.697 0,-14.275 11.683,-26.303 25.955,-26.032 13.836,0.263 24.971,11.56 24.971,25.459 0,17.779 -8.592,21.33 -8.592,39.27 0,18.155 14.718,32.872 32.873,32.872 h 7.828 C -7.507,-16.768 0,-9.261 0,0 Z"
             style="fill:none;stroke:#000000;stroke-width:15;stroke-linecap:round;stroke-linejoin:round;stroke-miterlimit:10;stroke-dasharray:none;stroke-opacity:1"
             id="path4796" /></g><g
           id="g4798"
           transform="translate(214.3398,231.6738)"><path
             d="m 0,0 v 83.454 c 0,8.084 -6.553,14.637 -14.637,14.637 h -119.406 c -8.084,0 -14.637,-6.553 -14.637,-14.637 V 0"
             style="fill:none;stroke:#000000;stroke-width:15;stroke-linecap:round;stroke-linejoin:round;stroke-miterlimit:10;stroke-dasharray:none;stroke-opacity:1"
             id="path4800" /></g><g
           id="g4802"
           transform="translate(456.1221,431.1523)"><path
             d="m 0,0 c 0,-10.059 -8.154,-18.213 -18.213,-18.213 -10.058,0 -18.213,8.154 -18.213,18.213 0,10.06 8.155,18.214 18.213,18.214 C -8.154,18.214 0,10.06 0,0 Z"
             style="fill:none;stroke:#000000;stroke-width:15;stroke-linecap:round;stroke-linejoin:round;stroke-miterlimit:10;stroke-dasharray:none;stroke-opacity:1"
             id="path4804" /></g><g
           id="g4806"
           transform="translate(383.0889,431.1523)"><path
             d="m 0,0 c 0,-10.059 -8.154,-18.213 -18.213,-18.213 -10.058,0 -18.213,8.154 -18.213,18.213 0,10.06 8.155,18.214 18.213,18.214 C -8.154,18.214 0,10.06 0,0 Z"
             style="fill:none;stroke:#000000;stroke-width:15;stroke-linecap:round;stroke-linejoin:round;stroke-miterlimit:10;stroke-dasharray:none;stroke-opacity:1"
             id="path4808" /></g><g
           id="g4810"
           transform="translate(309.7861,266.2783)"><path
             d="m 0,0 v 0 c -8.097,0 -14.66,6.563 -14.66,14.659 v 14.273 c 0,8.096 6.563,14.66 14.66,14.66 8.096,0 14.659,-6.564 14.659,-14.66 V 14.659 C 14.659,6.563 8.096,0 0,0 Z"
             style="fill:none;stroke:#000000;stroke-width:15;stroke-linecap:round;stroke-linejoin:round;stroke-miterlimit:10;stroke-dasharray:none;stroke-opacity:1"
             id="path4812" /></g><g
           id="g4814"
           transform="translate(424.0645,189.1133)"><path
             d="m 0,0 v 0 c -8.096,0 -14.659,6.563 -14.659,14.66 v 14.273 c 0,8.095 6.563,14.659 14.659,14.659 8.097,0 14.66,-6.564 14.66,-14.659 V 14.66 C 14.66,6.563 8.097,0 0,0 Z"
             style="fill:none;stroke:#000000;stroke-width:15;stroke-linecap:round;stroke-linejoin:round;stroke-miterlimit:10;stroke-dasharray:none;stroke-opacity:1"
             id="path4816" /></g><g
           id="g4818"
           transform="translate(309.7861,112.375)"><path
             d="m 0,0 v 0 c -8.097,0 -14.66,6.562 -14.66,14.659 v 14.273 c 0,8.095 6.563,14.659 14.66,14.659 8.096,0 14.659,-6.564 14.659,-14.659 V 14.659 C 14.659,6.562 8.096,0 0,0 Z"
             style="fill:none;stroke:#000000;stroke-width:15;stroke-linecap:round;stroke-linejoin:round;stroke-miterlimit:10;stroke-dasharray:none;stroke-opacity:1"
             id="path4820" /></g><g
           id="g4822"
           transform="translate(504.5,155.9326)"><path
             d="m 0,0 v -98.847 c 0,-11.666 -9.457,-21.123 -21.123,-21.123 h -454.754 c -11.666,0 -21.123,9.457 -21.123,21.123 v 397.828 c 0,11.666 9.457,21.123 21.123,21.123 H -21.123 C -9.457,320.104 0,310.647 0,298.981 V 35.063"
             style="fill:none;stroke:#000000;stroke-width:15;stroke-linecap:round;stroke-linejoin:round;stroke-miterlimit:10;stroke-dasharray:none;stroke-opacity:1"
             id="path4824" /></g><g
           id="g4826"
           transform="translate(69.7725,386.333)"><path
             d="M 0,0 H 434.728"
             style="fill:none;stroke:#000000;stroke-width:15;stroke-linecap:round;stroke-linejoin:round;stroke-miterlimit:10;stroke-dasharray:none;stroke-opacity:1"
             id="path4828" /></g><g
           id="g4830"
           transform="translate(7.5,386.333)"><path
             d="M 0,0 H 27.21"
             style="fill:none;stroke:#000000;stroke-width:15;stroke-linecap:round;stroke-linejoin:round;stroke-miterlimit:10;stroke-dasharray:none;stroke-opacity:1"
             id="path4832" /></g></g></g></g></svg>
